<svg xmlns="http://www.w3.org/2000/svg" width="512" height="512" viewBox="0 0 512 511" style="enable-background:new 0 0 512 512" xml:space="preserve">
  <path xmlns="http://www.w3.org/2000/svg" d="M270.04 130.922c-3.603 4.121-7.935 7.965-13.083 11.433 0 0-66.71-36.203-3.691-132.375 1.714-2.62 5.629-2.558 7.605-.132 2.508 3.07 6.02 8.648 9.621 15.91 12.942 26.062 27.016 73.805-.453 105.164zm0 0" fill="#c09672" data-original="#aba6d5"/>
  <path xmlns="http://www.w3.org/2000/svg" d="M270.04 130.922c-14.185-15.781-30.368-48.856.452-105.164 12.942 26.062 27.016 73.805-.453 105.164zm0 0" fill="#c1b581" data-original="#c1bde0"/>
  <path xmlns="http://www.w3.org/2000/svg" d="M259.105 124.09c-.02 5.816-.863 11.906-2.687 18.265 0 0-74.375 15.149-87.918-99.039-.363-3.113 2.668-5.57 5.746-4.988 4.176.793 11.086 3.05 19.211 6.723 26.445 11.926 65.79 38.8 65.648 79.039zm0 0" fill="#c09672" data-original="#8078bf"/>
  <path xmlns="http://www.w3.org/2000/svg" d="M259.105 124.09c-20.875-3.36-53.058-18.7-65.648-79.04 26.445 11.927 65.79 38.802 65.648 79.04zm0 0" fill="#c1b581" data-original="#958fca"/>
  <path xmlns="http://www.w3.org/2000/svg" d="M343.512 43.316c-.864 7.293-1.977 14.051-3.301 20.325-13.785 65.254-50.59 77.543-70.813 79.156-8.296.683-13.804-.442-13.804-.442-18.348-63.968 62.469-100.265 82.168-104.027 3.082-.582 6.11 1.875 5.75 4.988zm0 0" fill="#c09672" data-original="#8078bf"/>
  <path xmlns="http://www.w3.org/2000/svg" d="M340.21 63.64c-13.784 65.255-50.589 77.544-70.812 79.157 1.293-41.77 45.133-68.766 70.813-79.156zm0 0" fill="#c1b581" data-original="#958fca"/>
  <path xmlns="http://www.w3.org/2000/svg" d="M256.418 142.355s-47.242 59.41-131.016-19.359c-2.277-2.148-1.535-5.98 1.203-7.512 3.754-2.097 10.625-4.855 19.372-7.293 30.91-8.629 85.23-13.265 108.082 29.36a69.495 69.495 0 0 1 2.359 4.804zm0 0" fill="#814e25" data-original="#51489a"/>
  <path xmlns="http://www.w3.org/2000/svg" d="M254.059 137.55c-20.395 10.505-57.262 16.141-108.082-29.359 30.91-8.629 85.23-13.265 108.082 29.36zm0 0" fill="#c09672" data-original="#5f55af"/>
  <path xmlns="http://www.w3.org/2000/svg" d="M386.605 122.996a233.776 233.776 0 0 1-11.835 10.434c-42.793 35.16-75.047 33.726-95.13 25.652-15.769-6.32-24.046-16.727-24.046-16.727.3-.671.601-1.324.922-1.972 21.968-45.758 78.18-40.98 109.718-32.133 8.657 2.418 15.45 5.145 19.168 7.234 2.739 1.532 3.48 5.364 1.203 7.512zm0 0" fill="#814e25" data-original="#51489a"/>
  <path xmlns="http://www.w3.org/2000/svg" d="M366.234 108.25a233.573 233.573 0 0 1-9.87 8.598c-42.798 35.16-75.048 33.726-95.134 25.648a61.994 61.994 0 0 1-4.714-2.113c21.968-45.758 78.18-40.98 109.718-32.133zm0 0" fill="#c09672" data-original="#5f55af"/>
  <path xmlns="http://www.w3.org/2000/svg" d="M454.445 174.82c-11.59 2.418-21.543 9.2-28.027 19.106-11.168 17.047-6.383 40 10.664 51.164 20.973 13.738 48.047-3.031 44.617-19.496-1.73-8.297-9.86-13.621-18.156-11.89-9.52 1.983-14.941 12.3-10.832 21.362-13.262-1.144-22.785-19.035-13.707-32.898 4.285-6.54 10.86-11.02 18.512-12.613 27.949-5.828 50.972 30.156 33.113 57.425-15.098 23.047-46.129 29.516-69.176 14.418-29.746-19.484-38.055-59.324-18.566-89.074a7.514 7.514 0 0 0-1.801-10.144c-3.184-2.38-7.676-1.864-10.246 1.175-.176.208-17.961 20.98-47.852 34.23-19.039 8.446-38.476 12.06-58.18 10.884a194.465 194.465 0 0 0 14.278-7.403c3.605-2.062 4.86-6.656 2.797-10.265s-6.66-4.863-10.262-2.801c-11.93 6.816-23.809 11.941-35.617 15.39-11.809-3.449-23.688-8.574-35.613-15.39a7.523 7.523 0 0 0-10.266 2.8 7.526 7.526 0 0 0 2.8 10.266 194.465 194.465 0 0 0 14.278 7.403c-19.703 1.176-39.14-2.438-58.183-10.883-29.887-13.25-47.672-34.024-47.84-34.223a7.523 7.523 0 0 0-12.055 8.961c19.484 29.746 11.184 69.59-18.566 89.074-23.047 15.094-54.079 8.63-69.176-14.418-11.621-17.746-6.645-41.636 11.101-53.257 13.528-8.86 31.657-5.09 40.52 8.445 8.976 13.7-.281 31.758-13.723 32.902 4.11-9.07-1.32-19.386-10.836-21.367-8.297-1.73-16.425 3.594-18.152 11.89-3.41 16.356 23.574 33.294 44.637 19.497 17.047-11.164 21.832-34.117 10.664-51.164-6.485-9.903-16.438-16.688-28.028-19.106-40.964-8.539-74.007 41.875-48.77 80.403 19.743 30.14 60.165 38.312 90.009 18.761 27.601-18.078 39.789-49.964 34.836-79.543 36.32 26.278 78.93 35.707 122.363 24.47 43.414 11.234 86.031 1.82 122.371-24.47-7.758 46.329 27.09 90.153 70.36 90.153 21.206 0 42.019-10.344 54.484-29.371 25.187-38.453-7.758-88.95-48.774-80.403zm0 0" data-original="#000000"/>
  <path xmlns="http://www.w3.org/2000/svg" d="M207.504 171.36c23.812 0 40.195-10.766 48.5-17.977 8.309 7.21 24.687 17.976 48.504 17.976 27.629 0 56.98-14.425 87.246-42.886 5.973-5.602 4.523-15.532-2.68-19.551a45.265 45.265 0 0 0-2.949-1.516A7.524 7.524 0 0 0 376.113 111a7.53 7.53 0 0 0 2.348 9.277c-28.844 26.246-67.125 47.649-101.813 29.184h-.007c-4.391-2.344-8.473-5.227-11.989-8.496 16.778-31 53.47-35.086 88.078-28.211a7.538 7.538 0 0 0 8.848-5.918c.813-4.074-1.836-8.035-5.918-8.848a162.71 162.71 0 0 0-17.336-2.5c6.078-14.433 10.324-31.558 12.66-51.289.965-8.277-6.668-14.781-14.625-13.261-8.468 1.625-28.398 8.945-47.5 22.269a160.13 160.13 0 0 0-2.086-7.172 7.53 7.53 0 0 0-9.449-4.898c-3.965 1.254-6.152 5.488-4.898 9.449a130.745 130.745 0 0 1 3.422 12.871c-8.567 7.645-14.91 15.375-19.844 23.477-4.887-8.028-11.129-15.657-19.559-23.223 3.528-14.277 10.493-29.684 20.825-46.047 1.242 1.875 2.609 4.145 3.96 6.602 2.008 3.64 6.583 4.976 10.223 2.968s4.965-6.582 2.969-10.222c-2.727-4.946-5.395-9.07-7.715-11.918-5.223-6.387-15.242-6.094-19.73.754-10.926 16.672-18.72 32.62-23.325 47.718-19.25-13.55-39.453-20.996-48-22.629-7.96-1.519-15.593 4.985-14.629 13.262 2.348 19.742 6.582 36.864 12.672 51.301-.582.05-1.172.102-1.754.16-4.132.41-7.144 4.102-6.734 8.235.414 4.132 4.106 7.152 8.238 6.734 30.418-3.117 59.465 3.629 73.914 30.324-10.015 9.277-24.101 15.36-39.855 15.36-22.774 0-47.602-12.079-73.824-35.926 3.16-1.383 7.273-2.867 11.687-4.192a7.523 7.523 0 0 0 5.043-9.37 7.524 7.524 0 0 0-9.367-5.048c-7.332 2.207-13.934 4.809-18.11 7.145-7.199 4.023-8.652 13.95-2.675 19.55 30.265 28.462 59.617 42.887 87.246 42.887zM292.21 69.515c15.598-12.098 33.223-20.02 43.297-22.903-2.59 19.094-7.086 35.235-13.445 48.344-23.82.656-46.012 7.848-61.504 25.582.586-9.402 14.93-38.09 31.652-51.023zm-46.266 45.406c-12.187-11.121-30.347-19.266-56.007-19.965-6.36-13.11-10.844-29.25-13.434-48.344 10.101 2.89 27.77 10.836 43.398 22.985 11.989 9.297 22.914 21.164 28.157 35.27a68.71 68.71 0 0 0-2.114 10.054zm0 0" data-original="#000000"/>
</svg>
