<svg xmlns="http://www.w3.org/2000/svg" width="512" height="512" viewBox="0 0 512 512" style="enable-background:new 0 0 512 512" xml:space="preserve">
  <g xmlns="http://www.w3.org/2000/svg">
    <path d="M68.808 443.192c21.643 21.643 35.502 57.218 55.233 57.218 9.273-10.679 4.978-41.246-33.113-79.337S22.27 378.687 11.591 387.96c-.001 19.731 35.574 33.59 57.217 55.232z" fill="#c09672" data-original="#ebb3b8"/>
    <path d="M78.808 433.192C57.165 411.55 17.659 403.531 11.59 387.96c-2.66 2.31-4.09 5.46-4.09 9.142 0 11.297 12.697 17.504 12.697 17.504l19.846 32.266C25.29 461.625 22.24 475.181 29.53 482.471s20.846 4.24 35.599-10.513l32.266 19.846s6.207 12.697 17.504 12.697c3.682 0 6.832-1.43 9.142-4.09-15.573-6.07-23.591-45.576-45.233-67.219z" fill="#c09672" data-original="#e27f86"/>
    <path d="M90.927 421.073c-6.703-6.703-39.263-9.524-50.821-9.524-8.097 0-14.812 1.123-20.008 3.094-9.223 9.223-3.913 25.669 20.841 25.669 12.155 0 32.982-2.233 32.982-2.233s-2.233 20.827-2.233 32.982c0 24.753 18.213 28.297 25.669 20.841 1.972-5.196 3.094-11.912 3.094-20.008 0-11.558-2.821-44.118-9.524-50.821z" fill="#c1b581" data-original="#f8d3d6"/>
    <path d="M79.688 463.061c0-6.999.741-16.874 1.369-23.992.41-4.65-3.475-8.536-8.125-8.125-7.118.628-16.993 1.369-23.992 1.369-24.754 0-29.598-7.899-28.841-17.669-8.195 3.108-12.599 8.334-12.599 14.643 0 10.309 11.742 17.738 32.606 17.738 11.558 0 22.033-1.795 29.709-4.841-3.045 7.676-4.841 18.151-4.841 29.709 0 20.864 7.429 32.606 17.738 32.606 6.309 0 11.535-4.404 14.644-12.598-9.769.758-17.668-4.087-17.668-28.84zM491.803 97.395l-19.846-32.266C486.71 50.376 489.76 36.82 482.471 29.53c-7.29-7.29-20.846-4.24-35.599 10.513l-32.266-19.846S408.399 7.5 397.102 7.5c-.896 0-1.76.087-2.588.253-10.975 10.975 4.906 52.484 31.078 78.656s67.293 42.441 78.656 31.078c.166-.829.253-1.692.253-2.588-.001-11.297-12.698-17.504-12.698-17.504z" fill="#c09672" data-original="#ebb3b8"/>
    <path d="M394.513 7.753c-16.248 3.257-18.712 37.903 26.56 83.174s79.918 42.807 83.174 26.559c-17.479-.289-45.484-11.906-71.656-38.078-26.172-26.171-37.788-54.176-38.078-71.655z" fill="#c09672" data-original="#e27f86"/>
    <path d="M471.894 64.975c-11.558 0-22.033 1.795-29.709 4.841 3.045-7.676 4.841-18.151 4.841-29.709 0-20.864-7.429-32.606-17.738-32.606-13.689 13.689-9.917 71.724-3.214 78.427s64.738 10.475 78.427-3.214c-.001-10.31-11.743-17.739-32.607-17.739z" fill="#c1b581" data-original="#f8d3d6"/>
    <path d="M433.073 78.927c-6.703-6.703-11.962-63.251-3.786-71.427-10.309 0-17.738 11.742-17.738 32.606 0 11.558 2.821 44.118 9.524 50.821s39.263 9.524 50.821 9.524c20.864 0 32.606-7.429 32.606-17.738-8.176 8.176-64.724 2.917-71.427-3.786z" fill="#c09672" data-original="#ebb3b8"/>
    <path d="M385.753 420.545c-14.064 14.064-22.912 40.869-19.853 58.361 6.777-2.615 20.319-11.589 28.966-20.236 9.662-13.528 15.502-30.007 15.905-47.9-9.203 1.611-17.64 5.009-25.018 9.775z" fill="#c1b581" data-original="#abd4b9"/>
    <path d="M385.753 420.545c-22.087 14.27-34.672 40.807-29.853 68.361 15.75-6.077 29.279-16.673 38.966-30.236a85.612 85.612 0 0 1-18.966 10.236c-3.059-17.491.907-34.566 9.853-48.361z" fill="#c09672" data-original="#7fbd93"/>
    <path d="M156.1 23.093a85.65 85.65 0 0 0-18.966 10.235c-18.898 18.898-25.502 40.007-25.905 57.9 9.204-1.609 25.061-9.816 35.018-19.774 8.946-13.794 12.912-30.869 9.853-48.361z" fill="#c1b581" data-original="#abd4b9"/>
    <path d="M137.134 33.329c-21.218 15.167-35.272 39.788-35.905 67.9 19.266-3.369 35.164-14.581 45.018-29.774-7.377 4.766-15.815 8.165-25.018 9.774.403-17.893 6.243-34.372 15.905-47.9z" fill="#c09672" data-original="#7fbd93"/>
    <path d="M440.546 448.052a7.46 7.46 0 0 1-4.573-1.561 7.5 7.5 0 0 1-1.36-10.519c36.248-47.013 56.256-96.712 61.166-151.939.367-4.126 4.028-7.159 8.135-6.807a7.501 7.501 0 0 1 6.807 8.135c-5.171 58.163-26.181 110.424-64.229 159.771a7.49 7.49 0 0 1-5.946 2.92zM504.5 263.5a7.499 7.499 0 0 1-7.5-7.5c0-44.787-12.349-88.432-35.729-126.339-14.518-6.612-30.19-18.119-45.501-33.43l-.001-.001-.023-.023c-37.398-37.411-43.743-67.604-37.206-83.386C381.864 4.793 388.804 0 397.102 0c7.188 0 12.794 3.381 16.775 7.081C418.476 2.104 424.077 0 429.287 0c9.409 0 20.094 6.86 23.847 25.118 4.344-2.875 8.63-4.869 12.822-5.957 8.577-2.225 16.324-.428 21.817 5.064 5.471 5.471 7.278 13.187 5.089 21.728-1.082 4.22-3.083 8.537-5.98 12.912C505.139 62.619 512 73.304 512 82.713c0 5.338-2.209 11.087-7.453 15.748 4.073 4.276 7.453 10.102 7.453 17.215 0 8.203-4.704 15.05-12.584 18.313-4.862 2.015-10.755 2.619-17.316 1.85C501.71 172.687 512 213.868 512 256c0 4.143-3.357 7.5-7.5 7.5zm-53.315-156.884c6.346 4.376 12.538 7.853 18.438 10.329 9.876 4.145 18.867 5.335 24.053 3.186 2.946-1.221 3.324-3.021 3.324-4.455 0-4.615-4.53-8.232-6.988-9.855-5.021 1.349-11.021 2.131-18.118 2.131-.203-.001-9.545-.143-20.709-1.336zm-24.808-20.993c4.17 3.64 29.951 7.328 45.517 7.328 14.548 0 25.106-4.306 25.106-10.238s-10.559-10.238-25.106-10.238c-10.364 0-19.934 1.531-26.943 4.313a7.499 7.499 0 0 1-9.737-9.737c2.781-7.01 4.313-16.579 4.313-26.943 0-14.548-4.306-25.106-10.238-25.106s-10.238 10.559-10.238 25.106c-.002 15.564 3.686 41.345 7.326 45.515zM397.102 15c-1.504 0-3.397.405-4.705 3.562-2.478 5.981-1.598 20.894 12.983 42.218-1.188-11.148-1.331-20.471-1.331-20.673 0-7.485.869-13.749 2.356-18.931-1.749-2.431-5.123-6.176-9.303-6.176zm57.384 28.13c-.146 5.58-.69 10.979-1.602 15.985 5.006-.911 10.405-1.456 15.985-1.602 8.786-9.585 12.201-18.777 8.297-22.681-3.907-3.909-13.087-.494-22.68 8.298zm-353.257 65.599a7.5 7.5 0 0 1-7.498-7.669c.855-37.959 24.276-71.311 59.668-84.967C180.291 5.715 216.729 0 255.999 0c35.047 0 69.014 6.957 100.956 20.677a7.502 7.502 0 0 1-5.92 13.784C320.974 21.547 288.999 15 256 15c-34.803 0-67.06 4.622-91.678 13.076 1.603 17.652-3.033 35.117-13.325 49.771-11.51 16.389-28.726 27.316-48.477 30.77a7.606 7.606 0 0 1-1.291.112zm48.397-74.414c-21.579 11.675-36.362 32.729-40.03 57.01 11.726-4.11 21.852-11.741 29.126-22.1 7.277-10.361 11.019-22.48 10.904-34.91zM256.001 512c-34.855 0-68.649-6.883-100.443-20.458a7.499 7.499 0 0 1-3.952-9.843 7.5 7.5 0 0 1 9.843-3.952C191.369 490.522 223.181 497 256 497c34.803 0 67.06-4.622 91.678-13.076-1.603-17.652 3.033-35.117 13.325-49.771 11.51-16.389 28.726-27.316 48.477-30.77a7.499 7.499 0 0 1 8.79 7.556c-.855 37.959-24.276 71.311-59.668 84.967C331.709 506.285 295.271 512 256.001 512zm146.403-91.325c-11.726 4.11-21.852 11.741-29.126 22.1-7.277 10.361-11.02 22.48-10.904 34.91 21.579-11.675 36.362-32.729 40.03-57.01zM96.23 415.769c37.398 37.411 43.768 67.629 37.23 83.41-3.324 8.028-10.264 12.821-18.562 12.821-7.188 0-12.794-3.381-16.775-7.081-4.599 4.978-10.2 7.081-15.41 7.081-9.409 0-20.094-6.86-23.847-25.118-4.344 2.875-8.63 4.869-12.822 5.957-8.579 2.224-16.326.426-21.817-5.064-5.471-5.471-7.278-13.187-5.089-21.728 1.082-4.22 3.083-8.537 5.98-12.912C6.861 449.381 0 438.696 0 429.287c0-5.338 2.209-11.087 7.453-15.748C3.38 409.263 0 403.438 0 396.324c0-8.203 4.704-15.05 12.584-18.313 4.862-2.015 10.755-2.62 17.316-1.85C10.29 339.313 0 298.132 0 256c0-70.096 21.428-131.961 65.509-189.131a7.5 7.5 0 0 1 11.879 9.159C34.824 131.231 15 188.418 15 256c0 44.787 12.349 88.432 35.729 126.339 14.518 6.612 30.191 18.119 45.501 33.43zm9.365 75.055c1.749 2.431 5.123 6.176 9.304 6.176 1.504 0 3.397-.405 4.705-3.562 2.478-5.981 1.598-20.894-12.983-42.218 1.188 11.148 1.331 20.471 1.331 20.673-.001 7.486-.87 13.75-2.357 18.931zm-35.782-56.139c1.953 0 3.871.763 5.306 2.196a7.503 7.503 0 0 1 1.668 8.069c-2.781 7.01-4.313 16.579-4.313 26.943 0 14.548 4.306 25.106 10.238 25.106S92.95 486.44 92.95 471.893c0-15.565-3.688-41.347-7.328-45.517-4.17-3.64-29.951-7.328-45.517-7.328-14.548 0-25.106 4.306-25.106 10.238s10.559 10.238 25.106 10.238c10.364 0 19.934-1.531 26.943-4.313a7.542 7.542 0 0 1 2.765-.526zM43.13 454.486c-8.786 9.585-12.201 18.777-8.297 22.681 3.91 3.913 13.089.496 22.681-8.297.146-5.58.69-10.979 1.602-15.985-5.007.911-10.406 1.456-15.986 1.601zm-18.578-63.667c-2.417 0-4.526.345-6.228 1.05-2.946 1.221-3.324 3.022-3.324 4.455 0 4.615 4.53 8.232 6.988 9.855 5.021-1.349 11.021-2.131 18.118-2.131.202 0 9.545.143 20.709 1.335-6.346-4.376-12.538-7.853-18.438-10.329-6.636-2.783-12.874-4.235-17.825-4.235z" fill="#151519" data-original="#000000"/>
  </g>
</svg>
