<svg xmlns="http://www.w3.org/2000/svg" width="512" height="512" viewBox="0 0 511.998 511" style="enable-background:new 0 0 512 512" xml:space="preserve">
  <path xmlns="http://www.w3.org/2000/svg" d="M268.344 135.984c-3.29 3.543-7.153 6.856-11.64 9.883 0 0-67.833-36.16-4.876-132.222 1.703-2.606 5.617-2.547 7.586-.122 2.184 2.676 5.188 7.286 8.356 13.254 13.71 25.727 30.757 76.868.574 109.207zm0 0" fill="#c09672" data-original="#fb5858"/>
  <path xmlns="http://www.w3.org/2000/svg" d="M268.344 135.984c-14.98-15.27-34.332-49.375-.574-109.207 13.71 25.727 30.757 76.868.574 109.207zm0 0" fill="#c1b581" data-original="#fc7979"/>
  <path xmlns="http://www.w3.org/2000/svg" d="M259.355 129.469c-.18 5.246-1.02 10.719-2.652 16.398 0 0-74.289 15.125-87.808-98.922-.372-3.11 2.667-5.558 5.738-4.984 4.816.926 13.265 3.785 23.039 8.512 26.625 12.906 63.004 39.715 61.683 78.996zm0 0" fill="#c09672" data-original="#fd9a9a"/>
  <path xmlns="http://www.w3.org/2000/svg" d="M259.355 129.469c-20.867-4.696-50.027-21.84-61.683-78.996 26.625 12.906 63.004 39.715 61.683 78.996zm0 0" fill="#c1b581" data-original="#fdbcbc"/>
  <path xmlns="http://www.w3.org/2000/svg" d="M342.988 46.945c-.793 6.676-1.789 12.907-2.976 18.727-12.535 61.828-45.524 76.965-66.473 80.113-10.77 1.633-18.355.082-18.355.082-18.332-63.89 62.39-100.144 82.066-103.902 3.074-.578 6.11 1.87 5.738 4.98zm0 0" fill="#c09672" data-original="#fd9a9a"/>
  <path xmlns="http://www.w3.org/2000/svg" d="M340.012 65.672c-12.535 61.828-45.524 76.965-66.473 80.11-.648-41.071 39.895-68.333 66.473-80.11zm0 0" fill="#c1b581" data-original="#fdbcbc"/>
  <path xmlns="http://www.w3.org/2000/svg" d="M493.887 138.84c-14.407-13.563-34.938-18.79-54.918-13.985-42.84 10.301-52.86 67.082-18.684 88.004 17.938 10.985 42.672 7.7 54.059-10.894 14.945-24.418-3.598-53.817-29.856-49.3-13.941 1.167-18.394 19.546-6.398 26.894 7.98 4.882 18.687 1.105 21.508-8.192a14.655 14.655 0 0 1 4.257 7.317c4.43 18.418-16.625 32.914-35.66 21.257-22.742-13.925-15.367-53.222 14.317-60.359 15.222-3.66 30.164.09 40.992 10.285 34.008 32.016-2.84 88.738-47.336 80.14-12.379-2.394-23.656-9.573-33.996-16.972-92.692-66.316-193.219-70.996-292.453 0-10.344 7.399-21.621 14.578-34 16.973-44.348 8.562-81.422-48.047-47.332-80.14 10.828-10.196 25.773-13.946 40.992-10.286 19.316 4.645 31.254 24.14 26.61 43.457-5.434 22.582-35.145 27.969-45.524 11.016-5.117-8.356-3.418-17.47 1.785-22.598 2.813 9.254 13.496 13.09 21.504 8.184 11.633-7.121 7.883-24.809-5.465-26.793-26.047-5.34-46.129 23.984-30.742 49.117 17.402 28.418 64.578 20.328 73.168-15.387 6.598-27.437-10.36-55.125-37.797-61.723-19.98-4.804-40.512.422-54.918 13.985-44.797 42.172 1.043 117.566 60.594 106.039 27.535-5.324 37.476-21.875 76.972-42.266-16.14 18.844-22.359 41.871-16.8 64.989 8.02 33.359 41.515 53.867 74.87 45.843 42.84-10.3 52.856-67.078 18.684-88.004-30.558-18.71-65.867 6.254-58.297 37.72 3.7 15.402 18.536 24.89 33.594 22.558 14.113-1.121 18.356-19.617 6.461-26.899-7.86-4.812-18.363-1.222-21.387 7.793-5.75-5.703-5.746-15.449-1.511-22.363 10.418-17.012 40.105-11.512 45.523 11.012 4.645 19.32-7.293 38.812-26.61 43.457-51.448 12.37-87.312-60.016-25.53-101.64 39.75-26.782 102.71-26.985 142.765 0 25.422 17.128 37.035 42.167 31.067 66.983-6.063 25.22-31.38 40.72-56.602 34.657-29.77-7.16-37.008-46.469-14.316-60.36 19.015-11.648 40.093 2.825 35.66 21.262a14.615 14.615 0 0 1-3.93 6.984c-3.008-9.03-13.52-12.652-21.398-7.828-6.852 4.196-9.004 13.153-4.809 20.008 8.441 13.785 39.113 8.293 44.863-15.625 7.535-31.328-27.55-56.543-58.297-37.719-34.27 20.985-24.011 77.739 18.684 88.004 59.445 14.297 103.848-57.375 58.07-110.832 38.02 19.63 49.95 37.04 76.973 42.262 59.144 11.445 105.805-63.477 60.594-106.035zm0 0" fill="#151519" data-original="#000000"/>
  <path xmlns="http://www.w3.org/2000/svg" d="M169.309 84.754c1.261 3.988 5.515 6.203 9.504 4.937 3.988-1.25 6.199-5.511 4.937-9.5-2.707-8.586-4.707-18.078-5.969-28.296 28.348 9.394 57.899 27.109 70.203 54.199-3.918 11.047-5.414 22.886-4.714 34.445-19.196-4.746-35.961-16.176-47.786-34.7a7.57 7.57 0 0 0-10.46-2.312 7.562 7.562 0 0 0-2.313 10.453c49.297 77.27 159.687 51.38 167.559-72.515a7.563 7.563 0 0 0-2.645-6.242 7.605 7.605 0 0 0-6.594-1.625c-1.746.402-27.617 6.472-52.34 23.062-4.453-15.851-12.875-33.625-27.195-53.074-2.992-4.082-9.07-4.121-12.129-.094-9.57 12.625-20.637 34.2-25.828 53.555-24.906-16.574-50.969-22.531-52.734-22.914-4.961-1.094-9.54 2.91-9.18 7.918 1.09 15.629 3.676 30 7.684 42.703zM334.156 51.41c-5.558 46.309-28.863 86.613-75.578 90.985-1.887-21.696 4.55-40.598 19.258-56.672 14.523-15.899 35.777-27.368 56.32-34.313zm-78.605-29.879c10.953 16.66 17.156 31.707 20.105 45.098-7.332 6.402-14.11 13.914-19.562 22.68-5.442-8.614-12.156-15.996-19.41-22.297 3.37-15.7 10.53-31.832 18.867-45.48zm0 0" fill="#151519" data-original="#000000"/>
</svg>
