<svg xmlns="http://www.w3.org/2000/svg" width="512" height="512" viewBox="0 0 511.999 511" style="enable-background:new 0 0 512 512" xml:space="preserve">
  <path xmlns="http://www.w3.org/2000/svg" d="M96.922 183.621c-7.36 9.09-23.242 17.223-36.352 30.309-5.636 5.632-10.765 12.195-14.472 20.136-.785 1.688-3.239 1.52-3.75-.28-5.27-18.497-17.914-80.915 38.78-114.188 7.34 3.91 13.282 8.984 17.575 14.777 10.684 14.355 11.32 33.094-1.781 49.246zm0 0" fill="#c09672" data-original="#aba6d5"/>
  <path xmlns="http://www.w3.org/2000/svg" d="M96.922 183.621c-7.36 9.09-23.242 17.223-36.352 30.309-.914-24.989 5.5-57.512 38.133-79.555 10.684 14.355 11.32 33.094-1.781 49.246zm0 0" fill="#c1b581" data-original="#c1bde0"/>
  <path xmlns="http://www.w3.org/2000/svg" d="M93.402 104.496c-3.234 5.52-7.789 10.656-13.527 15.102C18.398 96.313 20.391 32.66 22.48 13.539c.204-1.86 2.586-2.453 3.653-.914 5.195 7.52 11.668 13.29 18.484 18.004C59.516 40.94 76.082 46.25 84.7 53.82c16.426 14.438 18.375 34.22 8.703 50.676zm0 0" fill="#c09672" data-original="#aba6d5"/>
  <path xmlns="http://www.w3.org/2000/svg" d="M93.402 104.496c-35.324-17.238-46.12-49.2-48.785-73.867C59.516 40.94 76.082 46.25 84.7 53.82c16.426 14.438 18.375 34.22 8.703 50.676zm0 0" fill="#c1b581" data-original="#c1bde0"/>
  <path xmlns="http://www.w3.org/2000/svg" d="M190 208.863c-9.73 3.813-25.02 3.59-40.922 7.02-9.531 2.05-19.293 5.418-28.191 11.73-1.516 1.086-3.559-.281-3.114-2.101 4.563-18.688 24.399-79.196 90.122-80.121 3.199 5.047 5.468 10.254 6.816 15.453 5.207 19.953-3.145 39.578-24.711 48.02zm30.531-67.25a56.328 56.328 0 0 1-11.84 2.985c-41.941-50.618-8.77-104.973 2.493-120.563 1.093-1.52 3.457-.855 3.629 1.016.964 10.937 4.773 20.586 9.437 29.222 7.703 14.235 17.723 25.684 21.133 35.528 8.14 23.531-3.48 43.84-24.852 51.812zm0 0" fill="#c09672" data-original="#aba6d5"/>
  <path xmlns="http://www.w3.org/2000/svg" d="M190 208.863c-9.73 3.813-25.02 3.59-40.922 7.02 9.84-21.555 29.16-48.356 65.633-55.04 5.207 19.954-3.145 39.579-24.711 48.02zm30.531-67.25c-17.5-33.597-6.965-66.781 3.719-87.34 7.703 14.235 17.723 25.684 21.133 35.528 8.14 23.531-3.48 43.84-24.852 51.812zm0 0" fill="#c1b581" data-original="#c1bde0"/>
  <path xmlns="http://www.w3.org/2000/svg" d="M285 259.469c-11.45.824-27.875-4.985-45.992-5.778-8.274-.363-16.899.32-25.563 3.157-1.78.582-3.328-1.328-2.363-2.938 9.914-16.484 46.828-68.379 109.856-49.73 1.109 4.093 1.742 8.133 1.921 12.043 1.086 22.8-13.02 41.468-37.859 43.246zm46.215-56.727c-3.934.23-8.035.02-12.235-.664-25.023-60.789 22.81-102.84 38.188-114.39 1.5-1.114 3.559.222 3.156 2.05-1.93 8.918-1.719 17.563-.511 25.758 2.656 17.934 10.125 33.676 10.476 45.156.785 24.871-16.316 40.805-39.074 42.09zm0 0" fill="#c09672" data-original="#aba6d5"/>
  <path xmlns="http://www.w3.org/2000/svg" d="M285 259.469c-11.45.824-27.875-4.985-45.992-5.778 15.293-18.71 43.34-42.796 83.851-37.468 1.086 22.8-13.02 41.468-37.859 43.246zm46.215-56.727c-9.48-39.738 11.57-70.11 28.598-87.246 2.656 17.934 10.125 33.676 10.476 45.156.785 24.871-16.316 40.805-39.074 42.09zm0 0" fill="#c1b581" data-original="#c1bde0"/>
  <path xmlns="http://www.w3.org/2000/svg" d="M508.668 189.152a7.539 7.539 0 0 0-10.465 2.047c-30.523 45.363-97.418 33.395-149.031 15.18 18.937-7.723 29.305-25.3 28.656-45.969-.61-19.469-17.656-45.625-8.918-73.68 2.078-6.668-5.305-12.355-11.226-8.613-.79.5-19.524 12.469-34.598 33.863-16.992 24.114-22.469 50.477-16.207 77.067-26.453-12.254-44.7-23.246-45.266-23.594l-.218-.129c-11.774-6.656-23.305-12.683-34.586-18.113 23.457-10.52 34.535-34.332 25.699-59.879-6.38-18.437-30.399-38.289-30.399-67.707 0-6.988-8.738-10.219-13.277-4.89-.836.98-20.535 24.378-26.57 56.671a7.54 7.54 0 0 0 6.027 8.797 7.531 7.531 0 0 0 8.793-6.023c2.535-13.567 7.961-25.524 12.934-34.301 6.91 23.344 24.148 40.55 28.242 52.383 7.52 21.75-5.258 39.277-26.469 44.105-8.156-10.808-13.281-22.484-15.242-34.765-.66-4.11-4.527-6.915-8.64-6.254a7.546 7.546 0 0 0-6.255 8.636c1.543 9.633 4.684 18.91 9.36 27.75-29.676-11.3-61.817-19.593-93.551-19.668 14.55-20.765 12.148-46.39-7.785-63.91C75.059 35.305 44.305 29.86 29.8 4.31 26.35-1.77 17.156-.261 15.836 6.613c-.176.918-4.242 22.778 1.074 48.403 5.621 27.109 19.613 48.175 40.899 61.91-40.32 10.75-56.036 35.562-56.688 36.62-2.18 3.532-1.086 8.138 2.43 10.337 3.52 2.199 8.16 1.125 10.379-2.38.488-.773 10.906-16.8 37.402-26.714a87.771 87.771 0 0 0-9.996 14.723 7.536 7.536 0 0 0 3.059 10.21 7.538 7.538 0 0 0 10.214-3.058c6.051-11.223 14.993-20.715 26.625-28.273 18.555 11.925 24.254 32.699 9.832 50.492-7.859 9.699-29.988 20.047-44.433 39.625-1.965-11.637-2.406-23.953-.582-35.762a7.542 7.542 0 0 0-14.906-2.301c-3.18 20.586-.165 45.258 5.816 61.282 2.45 6.55 11.77 6.503 14.152-.075 10.012-27.625 39.414-38.156 51.668-53.273 15.707-19.383 14.961-43.3-.047-61.066 20.125.703 44.836 5 74.696 15.539-20.739 6.957-37.985 21.07-50.75 41.773-13.735 22.273-17.367 44.21-17.516 45.133-1.11 6.906 7.02 11.465 12.34 6.93 22.355-19.079 53.121-13.708 71.242-20.797 23.024-9.012 34.719-30.176 29.93-53.926 29.297 14.27 33.097 18.5 58.894 31.644-2.89.422-5.754.98-8.586 1.692a7.54 7.54 0 1 0 3.668 14.625c12.047-3.02 24.786-2.91 37.942.34 4.488 24.46-10.625 41.75-31.91 41.75-12.903 0-34.364-8.098-57.504-5.399 6.117-8.031 14.98-17.73 26.472-25.41a7.541 7.541 0 0 0 2.082-10.457 7.546 7.546 0 0 0-10.46-2.082c-15.786 10.55-29.59 26.121-38.934 41.832-3.067 5.156-4.211 7.086-3.192 10.453a7.533 7.533 0 0 0 4.032 4.645c6.394 2.98 8.808-4.457 29.843-4.457 18.872 0 36.864 6.84 50.516 5.855 28.133-2.016 46.32-23.164 44.828-51.445 17.93 6.969 36.918 13.101 55.895 17.144-37.63 25.758-41.063 82.387-4.653 106.774 23.04 15.43 56.317 12.914 72.614-11.414 6.988-10.43 9.492-22.961 7.058-35.274-6.566-33.21-49.719-42.426-66.844-16.863-9.082 13.562-7.25 32.84 6.856 42.285 8.394 5.625 18.906 5.512 22.852 3.45 9.648-3.915 11.207-17.22 2.367-23.141-6.485-4.344-15.54-2.176-19.14 5.156-4.696-5.145-4.286-13.555-.403-19.355 9.683-14.454 35.57-8.598 39.52 11.394 1.656 8.363-.048 16.871-4.794 23.957-17.215 25.703-62.52 15.64-69.433-19.34-5.735-28.988 12.781-57.113 41.59-63.367 38.816 3.492 75.101-5 96.863-37.336a7.543 7.543 0 0 0-2.047-10.469zM78.496 110.91C44.203 96.13 29.328 65.086 29.281 27.89c17.512 16.86 41.063 23.352 50.442 31.594 17.28 15.192 14.988 36.602-1.227 51.426zm108.758 90.938c-11.621 4.547-35.969 2.613-58.191 12.492 12.585-34.555 36.937-58.953 74.386-61.238.086.039.172.074.258.113 10.184 19.601 4.77 40.324-16.453 48.633zm137.129-6.707c-12.672-35.196-.106-67.262 26.96-92.668-.34 24.304 11.02 45.937 11.415 58.414.726 23.148-16.645 35.945-38.375 34.254zm0 0" fill="#151519" data-original="#000000"/>
</svg>