<?xml version="1.0" standalone="no"?>
<!DOCTYPE svg PUBLIC "-//W3C//DTD SVG 1.1//EN" "http://www.w3.org/Graphics/SVG/1.1/DTD/svg11.dtd" >
<svg xmlns="http://www.w3.org/2000/svg" xmlns:xlink="http://www.w3.org/1999/xlink" version="1.1">
<metadata>
Created by FontForge 20170731 at Fri Nov  6 03:13:01 2020
 By Aleksey,,,
Copyright (c) 2020 by Typia Nesia Std. All rights reserved.
</metadata>
<defs>
<font id="MarrieDream-Regular" horiz-adv-x="205" >
  <font-face 
    font-family="Marrie Dream"
    font-weight="400"
    font-stretch="normal"
    units-per-em="1000"
    panose-1="0 0 0 0 0 0 0 0 0 0"
    ascent="800"
    descent="-200"
    x-height="202"
    cap-height="614"
    bbox="-274 -440 1507.27 771"
    underline-thickness="50"
    underline-position="-175"
    unicode-range="U+000D-FB02"
  />
<missing-glyph horiz-adv-x="250" 
 />
    <glyph glyph-name="fi" unicode="fi" horiz-adv-x="329" 
d="M251 -2q17 0 31 14t24.5 32.5t18 38t11.5 31.5q2 6 8 6q5 0 8 -3.5t1 -8.5q-5 -15 -13.5 -37t-20.5 -42t-28 -34.5t-36 -14.5q-21 0 -34 6t-20 14.5t-9.5 18t-2.5 16.5q-13 -18 -29 -25t-38 -7q-1 -51 -8.5 -88.5t-17.5 -61.5t-20 -35.5t-18 -11.5q-22 0 -42.5 32.5
t-20.5 90.5q0 87 11 172t29 162.5t41 143.5t47.5 114.5t48.5 76t43 27.5q17 0 31 -17.5t14 -61.5q0 -51 -21.5 -97t-49.5 -82t-53.5 -60t-33.5 -30q-10 -36 -18 -73t-16 -75q24 -4 38.5 -30t15.5 -68q27 0 42 10t26 35q2 21 5 42.5t6 40t5.5 32t4.5 17.5q1 2 7 2t13 -1
t13.5 -2.5t7.5 -2.5q8 -3 4 -12q-2 -5 -5 -22t-6.5 -38.5t-6 -45t-2.5 -43t3.5 -32.5t11.5 -13zM224 589q-7 -1 -20 -24t-28 -61t-32 -88t-33 -106q16 15 38.5 39.5t43 55.5t35 67t14.5 74q0 17 -4.5 30t-13.5 13zM217 320q0 16 10 24t20 8q21 0 32.5 -13t11.5 -25t-12 -25
t-26 -13t-25 11t-11 33zM65 111q-2 -10 -3.5 -20t-3.5 -20q5 -15 17.5 -24t28.5 -13q-2 34 -12 54.5t-27 22.5zM58 -175q4 3 11.5 14.5t14.5 32.5t13 53.5t7 79.5q-15 3 -28.5 11t-22.5 20q-4 -29 -6 -56t-2 -51q0 -48 4.5 -72.5t8.5 -31.5z" />
    <glyph glyph-name="fl" unicode="fl" horiz-adv-x="365" 
d="M58 -194q-22 0 -42.5 32.5t-20.5 90.5q0 87 11 172t29 162.5t41 143.5t47.5 114.5t48.5 76t43 27.5q17 0 31 -17.5t14 -61.5q0 -51 -21.5 -97t-49.5 -82t-53.5 -60t-33.5 -30q-10 -36 -18 -73t-16 -75q24 -4 38.5 -30t15.5 -68q19 0 31.5 5t21 14t14.5 22t11 29
q5 99 24 184.5t45 148.5t57 98.5t60 35.5q19 0 34.5 -19.5t15.5 -57.5q0 -49 -22 -105.5t-52 -106t-60 -84.5t-46 -41q-4 -26 -6 -38.5t-2.5 -23t0 -24t0.5 -42.5q0 -32 10.5 -47t22.5 -15q14 0 29 18.5t27.5 43.5t22.5 50.5t15 38.5q1 3 4.5 5t6.5 1q9 -4 6 -12
q-2 -5 -8 -22.5t-17 -40.5q-21 -48 -41.5 -77t-49.5 -29q-23 0 -38 9.5t-24 25t-12.5 35t-3.5 38.5q-13 -23 -31 -34t-45 -11q-1 -51 -8.5 -88.5t-17.5 -61.5t-20 -35.5t-18 -11.5zM224 589q-7 -1 -20 -24t-28 -61t-32 -88t-33 -106q16 15 38.5 39.5t43 55.5t35 67t14.5 74
q0 17 -4.5 30t-13.5 13zM393 545q-9 0 -26 -28t-36.5 -77.5t-38 -117t-32.5 -145.5q15 12 41.5 45.5t52.5 78t45 95t19 95.5q0 24 -8 39t-17 15zM65 111q-2 -10 -3.5 -20t-3.5 -20q5 -15 17.5 -24t28.5 -13q-2 34 -12 54.5t-27 22.5zM58 -175q4 3 11.5 14.5t14.5 32.5
t13 53.5t7 79.5q-15 3 -28.5 11t-22.5 20q-4 -29 -6 -56t-2 -51q0 -48 4.5 -72.5t8.5 -31.5z" />
    <glyph glyph-name=".notdef" horiz-adv-x="250" 
 />
    <glyph glyph-name=".null" horiz-adv-x="0" 
 />
    <glyph glyph-name=".null" horiz-adv-x="0" 
 />
    <glyph glyph-name="uni000D" unicode="&#xd;" horiz-adv-x="333" 
 />
    <glyph glyph-name="space" unicode=" " horiz-adv-x="260" 
 />
    <glyph glyph-name="exclam" unicode="!" horiz-adv-x="198" 
d="M99 100q-9 0 -9 9q0 1 -2.5 45t-4.5 112t-2.5 151.5t3.5 163.5q1 16 14 23.5t25 7.5q14 0 19.5 -9t5.5 -18q-6 -48 -11.5 -102t-10 -106.5t-8 -100.5t-6 -85t-3.5 -59t-1 -23q0 -9 -9 -9zM50 14q0 27 14.5 39t25.5 12q10 0 24.5 -12t14.5 -35t-12 -35.5t-27 -12.5
q-7 0 -14 4.5t-13 11t-9.5 14t-3.5 14.5z" />
    <glyph glyph-name="quotedbl" unicode="&#x22;" horiz-adv-x="229" 
d="M106 642q-1 -11 -3.5 -38t-4.5 -58t-3 -60t1 -45q1 -6 -3 -9t-8.5 -3t-9 2.5t-5.5 7.5q-2 17 -4 47.5t-3.5 62t-2.5 58.5t0 37q1 4 8.5 6t11.5 2t15 -3t11 -7zM168 642q-1 -11 -3 -38t-4 -58t-3 -60t0 -45q1 -6 -2.5 -9t-8 -3t-9 2.5t-5.5 7.5q-2 17 -4 47.5t-3.5 62
t-2.5 58.5t0 37q0 4 8 6t12 2q2 0 6 -1t8.5 -2.5t7.5 -3t3 -3.5z" />
    <glyph glyph-name="numbersign" unicode="#" horiz-adv-x="652" 
d="M168 -50q-10 2 -8 11q5 34 15 99t23 143q-55 -2 -91 -3t-38 -1q-9 0 -9 9t9 9q5 0 41.5 1t90.5 3q3 15 5.5 30.5t5.5 30.5q7 37 13 73.5t12 71.5q-55 2 -91.5 3.5t-38.5 1.5q-5 0 -5.5 9t6.5 9q2 0 39 -1t93 -3q8 52 14 94.5t10 67.5q1 8 13 8q8 0 15 -4t6 -10
q-4 -25 -11 -66t-17 -92q52 -2 107.5 -3.5t103.5 -3.5q11 61 17.5 106t8.5 62q1 5 6 7.5t10 2.5q6 0 10.5 -2.5t3.5 -7.5q-2 -17 -9.5 -62.5t-18.5 -106.5q29 -2 50.5 -2.5t32.5 -0.5q11 -2 9 -10q0 -9 -9 -9q-12 1 -34.5 1.5t-51.5 1.5q-8 -48 -16.5 -95t-17.5 -95h82
q9 0 9 -10t-9 -8h-85q-13 -75 -23 -134t-12 -84q-2 -8 -10 -8q-10 2 -8 10q2 25 9 83.5t18 131.5q-50 -1 -107 -2t-110 -3q-7 -39 -14.5 -75.5t-14 -68.5t-11.5 -58t-8 -43q-2 -8 -10 -8zM229 222q54 2 111 3t106 2q3 23 7 47t8 49q5 25 9 48.5t8 46.5q-48 2 -104 4t-107 4
l-18 -102t-20 -102z" />
    <glyph glyph-name="dollar" unicode="$" horiz-adv-x="474" 
d="M217 -123v86q-27 3 -56.5 14.5t-54 32.5t-40.5 51t-16 69q0 9 9 9t9 -9q0 -35 14 -61.5t36 -45t48.5 -29t51.5 -13.5q0 73 1.5 147.5t3.5 145.5q-18 19 -41 44t-43.5 52.5t-34 56.5t-13.5 55q0 31 13 54t34 38.5t46.5 24t50.5 9.5q1 13 1 23v17q1 8 1 14q0 12 10 15.5
t14 3.5t10 -4t6 -16q0 -1 -1.5 -15.5t-3.5 -40.5q24 -6 43 -20t32 -30.5t20 -32t7 -25.5q0 -9 -9 -9t-9 9q0 7 -6 19.5t-17 25t-27 23t-36 13.5q-3 -42 -6.5 -98.5t-7.5 -124.5q6 -6 12.5 -12t13.5 -12q25 -22 50 -46.5t45.5 -51t33.5 -55.5t13 -62t-13.5 -61t-38 -48.5
t-58 -32.5t-73.5 -12q0 -21 -0.5 -41.5t0.5 -40.5q0 -5 -4 -7.5t-9 -2.5q-11 0 -11 7zM226 387q2 57 3.5 105.5t3.5 84.5q-23 -6 -39 -26.5t-16 -59.5q0 -25 13 -51.5t35 -52.5zM241 -20q66 2 91 32.5t25 79.5q0 20 -9 39t-24 38.5t-34 38.5t-40 39q-3 -65 -5 -132.5
t-4 -134.5z" />
    <glyph glyph-name="percent" unicode="%" horiz-adv-x="511" 
d="M372 546q6 12 17 12q9 0 16 -7.5t2 -18.5l-312 -607q-4 -5 -10 -5t-11 5t0 13zM144 291q-8 0 -22.5 5t-28 18.5t-23.5 36.5t-10 58q0 74 22.5 103t63.5 29q29 0 48 -34t19 -91q0 -21 -5.5 -43t-15 -40t-22 -30t-26.5 -12zM152 516q-9 0 -17 -10t-13.5 -25.5t-9 -34.5
t-3.5 -37q0 -44 10.5 -69t28.5 -25q8 0 16.5 8.5t15 22.5t11 32.5t4.5 37.5q0 48 -11.5 74t-31.5 26zM392 -4q-17 0 -33.5 5.5t-30 17t-22 29t-8.5 42.5q0 55 11 87.5t26.5 49.5t33 22t29.5 5q24 0 36.5 -14.5t18.5 -34t7 -40t1 -33.5q0 -24 -3.5 -48t-12 -43.5t-21.5 -32
t-32 -12.5zM398 236q-7 0 -15.5 -8t-15.5 -25.5t-12 -45t-5 -67.5q0 -9 2.5 -22t7.5 -25t13 -20.5t19 -8.5q13 0 22.5 10.5t15.5 27.5t9 38t3 42q0 35 -4 55.5t-10.5 31.5t-14.5 14t-15 3z" />
    <glyph glyph-name="ampersand" unicode="&#x26;" horiz-adv-x="588" 
d="M274 -40q-56 0 -98 13.5t-70 37t-42 55t-14 68.5q0 63 19.5 103t47 63t57.5 32t51 9q-14 0 -32.5 3.5t-35 15t-28 32.5t-11.5 56t14 58.5t35 38t46.5 21t48.5 6.5q28 0 48.5 -12.5t34 -30.5t20.5 -38t7 -35q0 -9 -9 -9t-9 9q0 14 -4.5 29.5t-14.5 28.5t-26 22t-39 9
q-38 0 -61 -27t-23 -70q0 -47 28 -71.5t81 -24.5q10 0 10 -9t-10 -9q-16 0 -43.5 -9.5t-54 -33t-46 -62t-19.5 -95.5q0 -18 4 -44.5t19 -51t43 -42.5t76 -18q78 0 123 47.5t45 128.5q0 19 -5 35.5t-12 30t-15 23t-13 15.5q-17 -8 -34.5 -15t-34.5 -14q-10 -4 -22.5 -10.5
t-24 -15t-19.5 -19t-8 -23.5q0 -7 -4.5 -5t-4.5 12q1 29 24 50.5t46 35.5q27 17 54 30t53 27q32 18 54 35t37.5 36.5t25.5 44.5t19 59q1 5 3.5 5t4.5 -6t1.5 -19t-5.5 -36q-4 -28 -18.5 -53t-35.5 -46t-45.5 -37.5t-48.5 -27.5q13 -14 29.5 -43t16.5 -69q0 -44 -13 -80
t-37.5 -61.5t-59 -39t-76.5 -13.5z" />
    <glyph glyph-name="quotesingle" unicode="'" horiz-adv-x="146" 
d="M96 643q-1 -11 -3.5 -38t-4.5 -58t-3 -60.5t1 -44.5q1 -6 -3 -9t-8.5 -3t-9 2.5t-5.5 7.5q-2 17 -4 47t-3.5 62t-2.5 59t0 36q1 4 8.5 6.5t11.5 2.5q4 -1 15 -3.5t11 -6.5z" />
    <glyph glyph-name="parenleft" unicode="(" horiz-adv-x="227" 
d="M50 261q0 94 18 159t40 105t41 58t21 17q8 -2 6 -11q-9 -26 -21 -61.5t-23.5 -77.5t-19.5 -90t-8 -99q0 -88 14 -154.5t34 -123.5q2 -6 -13.5 2.5t-35 40t-36.5 88.5t-17 147z" />
    <glyph glyph-name="parenright" unicode=")" horiz-adv-x="222" 
d="M71 -20q-9 4 -6 12q20 60 30 140t8 171q-2 85 -13.5 157t-28.5 109q-3 8 4 12q4 2 6.5 0t5.5 -4q13 -9 28 -31t27.5 -56.5t21 -81t8.5 -104.5q0 -46 -8.5 -95.5t-20.5 -93.5t-26 -78.5t-25 -50.5q-4 -6 -11 -6z" />
    <glyph glyph-name="asterisk" unicode="*" horiz-adv-x="246" 
d="M189 345q-5 0 -7 3q-4 4 -12.5 14t-19.5 23q-5 5 -10 11l-10 12q0 -20 0.5 -37.5t1.5 -30.5q0 -10 -9 -10q-8 0 -10 9q0 13 -0.5 31t-0.5 38q-20 -19 -35.5 -34t-20.5 -20q-3 -3 -7 -3t-6 2q-7 5 -1 13q5 6 25 25t44 40q-16 18 -29 34t-19 24q-7 7 1 13q7 6 13 -2
q5 -7 14.5 -18t21.5 -25v39t1 18q0 8 9 8t9 -9q0 -1 -0.5 -19t-0.5 -44q20 19 37 33.5t23 18.5q7 5 12 -2q6 -8 -2 -13q-5 -4 -23.5 -20.5t-41.5 -36.5q8 -8 14.5 -16.5t13.5 -16.5q11 -14 19.5 -23.5t12.5 -13.5q6 -7 -2 -13q-1 -2 -5 -2z" />
    <glyph glyph-name="plus" unicode="+" horiz-adv-x="286" 
d="M238 171q9 -2 7 -11q-2 -7 -9 -7q-8 2 -29.5 3t-49.5 3v-56t2 -41q2 -6 -2.5 -9t-9.5 -3t-8.5 2.5t-4.5 7.5q-2 16 -2.5 43.5t0.5 56.5q-23 1 -44.5 1.5t-37.5 -0.5q-9 0 -9 9q0 10 9 10q15 0 37 -0.5t45 -1.5q0 29 0.5 53.5t1.5 32.5q0 9 10 9q4 -1 10 -3.5t5 -6.5
q-1 -11 -1.5 -34t-0.5 -52q29 -2 51 -3t30 -3z" />
    <glyph glyph-name="comma" unicode="," horiz-adv-x="124" 
d="M20 38q0 23 16 34t33 11q10 0 22.5 -13t12.5 -44q0 -12 -6 -27t-15.5 -28t-22 -22t-25.5 -9q-4 0 -6 5t4 10q3 2 10.5 6t15 9.5t13 11.5t5.5 12q-6 0 -15.5 1t-18.5 5t-16 13t-7 25z" />
    <glyph glyph-name="hyphen" unicode="-" horiz-adv-x="300" 
d="M248 150q-13 3 -39.5 5t-56 2.5t-57.5 0t-44 -2.5q-8 -2 -10 8q0 8 8 10q17 2 45.5 2.5t59 0t58 -2.5t40.5 -5q9 -2 7 -11q-1 -7 -11 -7z" />
    <glyph glyph-name="period" unicode="." horiz-adv-x="111" 
d="M20 36q0 12 10 24.5t25 12.5q16 0 26 -11t10 -26q0 -14 -7.5 -30t-28.5 -16q-11 0 -18 4.5t-10.5 11.5t-5 15t-1.5 15z" />
    <glyph glyph-name="slash" unicode="/" horiz-adv-x="365" 
d="M52 -5q8 27 24.5 75t39 106t48.5 122t51.5 122.5t48.5 107t40 76.5q4 6 12 7t15 -2t11 -9t1 -12q-78 -141 -138.5 -296.5t-111.5 -307.5q-3 -9 -11.5 -12t-16.5 -1t-12.5 8.5t-0.5 15.5z" />
    <glyph glyph-name="zero" unicode="0" horiz-adv-x="381" 
d="M210 -38q-20 -3 -46 -0.5t-51 14.5t-44 34t-25 58q-9 52 -12 106.5t1.5 107.5t17 100.5t34.5 85.5t54.5 63t76.5 33q12 2 30 -3t36.5 -22t35 -49.5t25.5 -86.5q6 -35 7.5 -79.5t-2.5 -91.5t-14 -93t-27 -83.5t-41 -63t-56 -30.5zM231 535q-28 -5 -48.5 -30.5t-34 -64
t-20.5 -86t-9 -97t1 -97t9 -84.5q2 -11 6.5 -27t14 -30.5t24.5 -23.5t37 -5q29 5 50 28.5t35.5 58t23 77.5t11.5 87t1 85.5t-7 73.5q-12 72 -36 106.5t-58 28.5z" />
    <glyph glyph-name="one" unicode="1" horiz-adv-x="319" 
d="M38 -1q-2 9 8 9q11 1 33.5 1.5t51.5 0.5q4 66 8 146.5t7 155t5 134t2 84.5q-8 -9 -20 -24t-26 -33t-30 -38.5t-31 -40.5q-5 -7 -12 -2q-8 6 -2 13q32 50 58 81t46 48.5t34.5 24t24.5 6.5t15 -4.5t6 -6.5t1.5 -8t1 -23.5t0 -52t-3 -94t-6.5 -149t-11 -217.5h42.5t39.5 -2
q9 0 9 -9q-2 -9 -10 -9q-29 1 -64.5 1.5t-68.5 0.5t-60 -0.5t-39 -1.5q-3 0 -6 2.5t-3 6.5z" />
    <glyph glyph-name="two" unicode="2" horiz-adv-x="370" 
d="M179 -10q-80 0 -114.5 3t-40.5 9q-4 4 -4 8q0 9 17.5 37.5t60.5 95.5q28 44 61 95.5t61 101t47 90.5t19 63q0 23 -8 37.5t-20 22.5t-27 11t-30 3q-24 0 -43 -9t-32.5 -23t-21 -30t-7.5 -31q0 -9 -9 -9t-9 9q0 17 8 36.5t23.5 36t38 27.5t52.5 11q25 0 51 -5t47.5 -17.5
t35.5 -33.5t14 -53q0 -24 -16 -65t-41 -90.5t-56.5 -102.5t-61.5 -100q-24 -38 -38 -64t-19 -38q22 -6 64 -7t88 0h51q10 0 10 -9t-10 -9h-51q-26 -1 -48 -1h-42z" />
    <glyph glyph-name="three" unicode="3" horiz-adv-x="372" 
d="M143 -20q-34 0 -57 9.5t-37.5 21t-21 21t-6.5 10.5q-3 8 4 13q9 3 12 -5q0 -1 5.5 -9t18 -17.5t32.5 -17.5t50 -8q62 0 97 47t35 131q0 36 -14 61.5t-34.5 41.5t-44 23t-43.5 7q-9 0 -9 10q0 9 9 9q31 0 55 14t40 35t24 46t8 47q0 17 -4.5 32.5t-13.5 28.5t-22 20.5
t-30 7.5q-19 0 -33 -7t-23 -16.5t-13.5 -19.5t-4.5 -15q0 -9 -10 -9q-9 0 -9 9q0 8 5.5 21t16.5 25t29 21t42 9q20 0 42.5 -5t41.5 -17t32 -33t13 -53q0 -39 -10.5 -67t-28 -45.5t-39 -26.5t-44.5 -11q25 -4 50 -13.5t44.5 -26.5t32 -43t12.5 -63q0 -64 -21 -102
t-51.5 -58.5t-65 -26.5t-61.5 -6z" />
    <glyph glyph-name="four" unicode="4" horiz-adv-x="396" 
d="M27 170q-7 0 -12 3.5t-5 11.5q0 11 13.5 24.5t38.5 19.5q9 16 21 40t27 59.5t34 83.5t42 111l3 10q3 8 12 5q9 -2 5 -11l-3 -10q-41 -112 -69.5 -179.5t-48.5 -104.5q2 0 5 0.5t5 0.5q14 0 31 -3.5t36 -7.5q23 -5 48 -10t51 -5q3 54 6.5 109t6 100.5t4.5 76t2 36.5
q1 12 15 19.5t27 7.5q19 0 19 -13q0 -18 -1.5 -50t-4.5 -76q-2 -45 -5.5 -94.5t-6.5 -100.5q17 8 27 20q7 5 13 0q7 -7 0 -13q-18 -18 -41 -28q-4 -58 -6 -110t-2 -88q0 -8 -7.5 -11t-18.5 -3q-13 0 -24.5 4.5t-11.5 12.5q0 25 2 74t6 109q-26 0 -52 5t-50 10q-18 4 -34 7
t-29 3q-6 0 -11.5 -0.5t-10.5 -1.5q-17 -27 -27.5 -35t-18.5 -8zM44 202q-6 -4 -9.5 -7.5t-5.5 -6.5q2 2 6 4.5t9 9.5z" />
    <glyph glyph-name="five" unicode="5" horiz-adv-x="393" 
d="M153 -20q-36 0 -61 13.5t-41 30t-23 30.5l-7 14q-3 9 5 12q8 4 12 -5q0 -1 6.5 -13t20 -26.5t35.5 -26t53 -11.5q30 0 57 12.5t47.5 37t32 61t11.5 84.5q0 26 -1.5 55.5t-10.5 55t-27.5 42.5t-53.5 17q-44 0 -91 -33q-9 -5 -23 -5q-11 0 -19.5 2t-10.5 3q-5 2 -5 8v13
q-1 57 -0.5 92.5t2.5 56t5 29.5t6 12q5 4 10 4q7 0 38.5 0.5t71 2t78.5 3t62 2.5q10 0 10 -8q0 -10 -9 -10q-22 -1 -53.5 -2.5t-61.5 -3t-55 -2.5t-35 -1q-1 -3 -3 -12t-3.5 -28.5t-2 -51.5t0.5 -80q47 27 89 27q31 0 60 -10t51 -32.5t35 -58.5t13 -87q0 -70 -21 -112
t-53 -64.5t-69.5 -29.5t-71.5 -7z" />
    <glyph glyph-name="six" unicode="6" horiz-adv-x="447" 
d="M264 -50q-37 0 -78.5 12.5t-76 42.5t-57 80.5t-22.5 125.5q0 89 15.5 150.5t40 103t54 65t57.5 35.5t51 15t33 3t10 -9t-10 -9q-26 0 -52 -14.5t-48 -47.5t-38 -85.5t-22 -127.5q8 12 20.5 25t28 24t35.5 18t43 7q38 0 70.5 -14t56.5 -38.5t37.5 -58.5t13.5 -74
q0 -57 -13 -100t-35 -71.5t-51.5 -43t-62.5 -14.5zM118 252q0 -12 -0.5 -24.5t-0.5 -25.5q0 -52 10.5 -95.5t30 -74t46.5 -47.5t60 -17q57 0 89.5 55.5t32.5 155.5q0 30 -9 60t-26.5 54t-43 38.5t-59.5 14.5q-30 0 -53 -13t-39 -29.5t-25.5 -31.5t-12.5 -20z" />
    <glyph glyph-name="seven" unicode="7" horiz-adv-x="386" 
d="M21 -28q7 14 28.5 57.5t50 102t60 125t59 125.5t47 103.5t24.5 60.5q-12 2 -44 3t-68.5 2t-71.5 1t-53 -1q-9 -2 -9 8t9 10q7 0 31.5 0.5t57.5 0t69.5 -0.5t68.5 -1.5t54.5 -3t26.5 -4.5q3 -2 3.5 -8.5t-10 -34t-36.5 -85.5t-76 -163q-25 -52 -49.5 -103.5t-45 -94
t-35 -71.5l-18.5 -37q-5 -7 -14 -10t-20 -3q-17 0 -30.5 6.5t-8.5 15.5z" />
    <glyph glyph-name="eight" unicode="8" horiz-adv-x="365" 
d="M171 -55q-68 0 -109.5 43t-41.5 114q0 37 15 70.5t35.5 60.5t41 46t32.5 28q-25 43 -40.5 85.5t-15.5 73.5q0 30 11.5 53t31 39.5t45 25t53.5 8.5q36 0 58.5 -10.5t35.5 -27.5t17.5 -38t4.5 -43q0 -35 -8.5 -61.5t-22 -48.5t-31 -40.5t-36.5 -37.5q18 -25 36 -50.5
t31.5 -50.5t22 -49t8.5 -46q0 -16 -5 -40.5t-23 -47.5t-52.5 -39.5t-93.5 -16.5zM236 566q-17 0 -32.5 -8t-27 -22t-18.5 -32.5t-7 -38.5q0 -17 7.5 -36.5t19.5 -41t27.5 -44t31.5 -45.5q18 18 34.5 36.5t29 39t20.5 43.5t8 48q0 23 -3.5 41.5t-14 32t-28.5 20.5t-47 7z
M152 293q-11 -9 -30.5 -27.5t-38 -44t-32.5 -56t-14 -63.5q0 -63 37 -102t97 -39q32 0 51 13.5t29.5 33.5t13.5 42.5t3 40.5q0 21 -7.5 40t-20.5 38.5t-30 41.5t-35 47q-13 18 -23 35z" />
    <glyph glyph-name="nine" unicode="9" horiz-adv-x="474" 
d="M160 -60q-34 0 -60 13.5t-43 30t-25.5 31t-9.5 15.5q-3 8 4 12q8 5 12 -4l8 -12.5t23 -27.5t38 -27.5t53 -12.5q43 0 75.5 22.5t55.5 58.5t38 82t24 92.5t12.5 90t3.5 74.5q-9 -21 -25 -48.5t-39 -52.5t-52.5 -42.5t-65.5 -17.5q-31 0 -57 11.5t-45 31.5t-29.5 48
t-10.5 61q0 101 51 159.5t141 58.5q28 0 64 -8.5t67.5 -33t53 -70.5t21.5 -121q0 -127 -22.5 -207.5t-60.5 -126.5t-89.5 -63t-110.5 -17zM237 568q-41 0 -70.5 -15.5t-49 -42.5t-28.5 -63t-9 -78q0 -25 6.5 -49.5t19.5 -43t33.5 -30t47.5 -11.5q29 0 53 13.5t44 33.5
t35 43.5t25 43.5t15 33.5t5 14.5l1 2q-11 78 -48 113.5t-80 35.5z" />
    <glyph glyph-name="colon" unicode=":" horiz-adv-x="187" 
d="M62 255q0 18 7.5 35t24.5 17t29.5 -13.5t12.5 -42.5q0 -15 -6.5 -31t-23.5 -16q-18 0 -31 14t-13 37zM50 36q0 12 10 24.5t25 12.5q16 0 26 -11t10 -26q0 -14 -7.5 -30t-28.5 -16q-11 0 -18 4.5t-10.5 11.5t-5 15t-1.5 15z" />
    <glyph glyph-name="semicolon" unicode=";" horiz-adv-x="209" 
d="M86 275q0 16 9.5 31t26.5 15t27 -15.5t10 -30.5q0 -7 -3.5 -15t-9 -14.5t-12.5 -11t-13 -4.5q-12 0 -23.5 14t-11.5 31zM50 38q0 23 16 34t33 11q10 0 22.5 -13t12.5 -44q0 -12 -6 -27t-15.5 -28t-22 -22t-25.5 -9q-4 0 -6 5t4 10q3 2 10.5 6t15 9.5t13 11.5t5.5 12
q-6 0 -15.5 1t-18.5 5t-16 13t-7 25z" />
    <glyph glyph-name="less" unicode="&#x3c;" horiz-adv-x="320" 
d="M254 30q-12 2 -29 9t-36 16.5t-37.5 20t-32.5 20.5q-24 17 -38 27.5t-20.5 19t-8.5 17t-2 20.5q0 10 19.5 29t47.5 41t59 43t53 34q8 4 12 -3q5 -8 -3 -13q-25 -15 -52 -34.5t-51 -38.5t-41.5 -35t-23.5 -23q8 -7 30.5 -23t51.5 -34t59.5 -36t53.5 -29q5 -3 4.5 -7.5
t-3.5 -9.5t-6.5 -8t-5.5 -3z" />
    <glyph glyph-name="equal" unicode="=" horiz-adv-x="359" 
d="M277 217q-13 3 -39.5 5t-56 2t-57.5 -0.5t-44 -2.5q-8 0 -10 9q0 8 8 10q17 2 45.5 2.5t59 0t58 -2.5t40.5 -5q9 -2 7 -11q-1 -7 -11 -7zM277 110q-13 3 -39.5 5t-56 2.5t-57.5 0t-44 -2.5q-8 -2 -10 8q0 8 8 10q17 2 45.5 2.5t59 0t58 -2.5t40.5 -5q9 -2 7 -11
q-1 -7 -11 -7z" />
    <glyph glyph-name="greater" unicode="&#x3e;" horiz-adv-x="325" 
d="M68 30q-5 0 -8 5q-3 8 4 13q6 3 20 14t32.5 26.5t39.5 34.5t39.5 36.5t34 32t22.5 22.5q-13 9 -42.5 27.5t-58.5 36.5q-33 20 -60.5 37t-35.5 23q-5 4 -4 10t5 11.5t9.5 9t9.5 0.5q7 -5 34.5 -22.5t59.5 -36.5q43 -26 64.5 -42t30.5 -25.5t9.5 -15.5t0.5 -12
q0 -3 -13 -16.5t-33 -33t-44 -41.5t-46.5 -41.5t-40.5 -34t-25 -17.5q-1 -1 -4 -1z" />
    <glyph glyph-name="question" unicode="?" horiz-adv-x="421" 
d="M138 107q-9 0 -9 9q0 27 8 51t20.5 46t29 43t32.5 41q17 20 32.5 40t27.5 41t19.5 43t7.5 47q0 63 -29 96t-83 33q-26 0 -49 -10.5t-40 -29t-27 -43.5t-10 -53q0 -9 -9 -9t-9 9q0 32 12.5 62t33.5 53.5t48.5 37.5t57.5 14q31 0 61 -7.5t54 -25.5t39 -49t15 -78
q0 -34 -12.5 -62.5t-31.5 -53t-42 -45t-44 -38.5q-19 -17 -36 -34t-30 -35.5t-20 -39t-7 -44.5q0 -9 -10 -9zM99 11q0 19 14 34.5t31 15.5t30.5 -12.5t13.5 -37.5q0 -5 -2 -14t-7 -17t-13 -14t-20 -6q-24 0 -35.5 17t-11.5 34z" />
    <glyph glyph-name="at" unicode="@" horiz-adv-x="739" 
d="M301 -15q-17 0 -33.5 6.5t-29 18t-20 26t-7.5 30.5q0 61 16.5 112t44 87.5t62.5 57t72 20.5q23 0 44 -9.5t35 -26.5q2 6 3 10t2 6q2 6 9 8t16 2q8 0 16 -1.5t14 -3.5t10 -4.5t3 -5.5t-3 -8.5t-4 -13.5q-75 -231 -47 -268q3 -6 11 -6q17 0 40.5 18.5t44.5 52t35.5 79
t14.5 99.5q0 37 -12.5 72.5t-37.5 63t-62 44.5t-86 17q-60 0 -114 -34.5t-95 -89.5t-65 -123.5t-24 -136.5q0 -58 16.5 -104t46 -77.5t70 -48t89.5 -16.5t88.5 18t68 39.5t44.5 39.5l16 18q6 8 13 2q8 -6 2 -13q-1 -2 -18 -21t-47 -41.5t-72.5 -41t-94.5 -18.5t-106.5 13
t-99 43.5t-72.5 81t-28 126.5q0 97 31.5 173.5t84 130t122 81.5t144.5 28q53 0 93.5 -20.5t67.5 -52.5t41 -72.5t14 -80.5q0 -57 -16.5 -107.5t-40.5 -88.5t-51.5 -60t-50.5 -22q-20 0 -35.5 10t-20.5 16q-9 13 -11.5 37t-0.5 55q-15 -23 -31.5 -45.5t-34.5 -40.5t-37 -29
t-37 -11zM447 157q11 64 32 130q-10 13 -26.5 21.5t-38.5 8.5q-16 0 -40.5 -18t-47.5 -52.5t-39 -83.5t-16 -111q0 -16 8.5 -29t24.5 -13q18 0 37 13.5t38 34.5t36 47t32 52z" />
    <glyph glyph-name="A" unicode="A" horiz-adv-x="545" 
d="M9 90q-9 0 -9 9q0 35 14.5 57.5t39 36t57 20t69.5 9.5l12 36q20 57 39.5 111t43 95t52.5 66t66 25q11 0 23.5 -2.5t23.5 -9.5t18.5 -20t7.5 -33q0 -10 -3.5 -34t-9 -57.5t-12.5 -73.5t-14 -82q34 9 56 29q7 7 13 0q7 -6 0 -13q-14 -14 -32 -22.5t-40 -13.5
q-11 -62 -18 -118t-7 -91q0 -24 11.5 -44t29.5 -20q20 0 38 19t34 45.5t27.5 54.5t17.5 46q2 8 11 6q8 -3 6 -12q-2 -4 -8.5 -22t-17.5 -41q-6 -12 -15.5 -33t-25 -42t-37 -36t-50.5 -15q-26 0 -42.5 10t-26 26.5t-13 37t-3.5 42.5q0 28 7.5 75t17.5 102q-23 -2 -46.5 -3
t-49.5 -2q-18 -1 -35.5 -1.5t-34.5 -1.5q-14 -40 -29 -79.5t-32 -75.5t-37 -66.5t-44 -54.5q-1 -3 -6 -3q-4 0 -7 3q-6 6 0 13q45 45 76.5 114.5t58.5 147.5q-33 -3 -61.5 -9t-49.5 -18t-33 -30.5t-12 -47.5q0 -9 -9 -9zM200 224q16 1 31.5 1.5t32.5 0.5q26 1 51 2t49 4
q10 54 20 108.5t16 98t5.5 71t-12.5 27.5q-33 0 -58.5 -24t-47 -63.5t-40.5 -91t-37 -106.5q-2 -8 -5 -14.5t-5 -13.5z" />
    <glyph glyph-name="B" unicode="B" horiz-adv-x="502" 
d="M194 301q-9 0 -9 9t9 9q29 0 52 18.5t39 46t24.5 60.5t8.5 62q0 21 -4.5 35t-10.5 22t-13 11t-12 3q-31 0 -55 -24.5t-43 -64.5t-32.5 -91t-23.5 -104t-17 -103t-12 -89q-8 -69 -16.5 -95t-18.5 -26q-9 0 -19.5 3t-19.5 10.5t-15 21t-6 33.5q0 40 4.5 89t11.5 100.5
t15.5 101t16 90.5t13.5 70.5t8 39.5q2 7 11 10t20 3q13 0 23.5 -4t8.5 -12q-15 -84 -29.5 -168.5t-25 -156t-14 -122.5t2.5 -68q2 12 5 35t6 48q6 43 13.5 96.5t18.5 109t26 108.5t36 94t48 66t62 25q12 0 29.5 -5t34 -17t28 -33t11.5 -54q0 -52 -18 -86t-42 -54.5t-47 -29
t-33 -10.5q29 -2 65 -11.5t67.5 -30.5t53 -54.5t21.5 -83.5q0 -7 -0.5 -13.5t-0.5 -12.5q11 3 23 5t22.5 3.5l17.5 2.5t8 1q8 2 10 -8q0 -10 -8 -10l-8 -1t-19.5 -3t-24.5 -4.5t-24 -5.5q-9 -45 -33 -83t-59 -65.5t-78.5 -42.5t-91.5 -15q-19 0 -34 12.5t-15 28.5
q0 25 19.5 52t52 51.5t75.5 44t89 29.5q3 17 3 34q0 40 -14 71t-38.5 52.5t-57.5 32.5t-71 11zM368 79q-45 -11 -85 -31.5t-69 -43t-45 -44t-15 -35.5l2.5 -5t10.5 -3q36 0 69 12.5t59 34.5t45 51.5t28 63.5z" />
    <glyph glyph-name="C" unicode="C" horiz-adv-x="339" 
d="M326 54q8 16 14 32t11 29q2 10 11 6q4 -1 5.5 -4.5t0.5 -6.5q-11 -32 -28.5 -66t-41.5 -61.5t-55 -45t-69 -17.5q-20 0 -49.5 3.5t-57.5 25.5t-47.5 69.5t-19.5 134.5q0 114 17.5 195.5t46 134t65 77.5t75.5 25q21 0 36.5 -10.5t25 -27t14.5 -37.5t5 -42q0 -9 -9 -9t-9 9
q0 18 -4 35.5t-11.5 31.5t-19.5 22.5t-28 8.5q-19 0 -40.5 -27t-39.5 -79.5t-30 -130t-12 -177.5q0 -59 9 -99.5t23 -66t30 -37t30 -11.5q25 0 47.5 10t42 26.5t35.5 37t27 42.5z" />
    <glyph glyph-name="D" unicode="D" horiz-adv-x="532" 
d="M52 19q-1 28 -0.5 75t2.5 101.5t5 111t5.5 102t4 75t1.5 30.5q1 5 8.5 7.5t18.5 2.5q16 0 30 -4.5t13 -12.5q0 -1 -1.5 -25t-4.5 -62q13 27 30 54t39.5 48.5t49.5 35.5t60 14q18 0 49 -8.5t61.5 -31.5t52.5 -63.5t22 -104.5q0 -78 -12.5 -143.5t-34.5 -119.5
q14 3 31.5 6.5t32.5 6t25 4.5t11 2q8 2 10 -8q0 -10 -8 -10l-13 -2t-30.5 -5.5t-36.5 -7.5t-31 -7q-27 -59 -64.5 -103t-81 -73t-90.5 -43t-93 -14q-19 0 -37 4.5t-31.5 14t-22 24.5t-8.5 36q0 23 16.5 42.5t43.5 35.5q-8 2 -14.5 5.5t-7.5 9.5zM419 386q0 75 -29 115
t-83 40q-36 0 -64.5 -18t-50.5 -45t-37.5 -58t-24.5 -57q-3 -43 -7 -91t-7.5 -95t-7 -88.5t-6.5 -70.5q27 12 59 22t66 18.5t68 15t65 11.5q32 70 45.5 147t13.5 154zM349 65q-46 -10 -101.5 -23.5t-103.5 -30.5t-80 -38t-32 -47q0 -18 7.5 -29.5t19 -18.5t26 -9.5
t28.5 -2.5q38 0 73 18.5t65.5 47t55 64t42.5 69.5z" />
    <glyph glyph-name="E" unicode="E" horiz-adv-x="399" 
d="M386 53q9 16 14.5 32.5t10.5 29.5q4 8 11 6q9 -4 6 -12q-1 -5 -7 -23t-18 -40q-13 -22 -30.5 -43t-40.5 -37t-50.5 -26t-59.5 -10q-43 0 -83 14t-71 40t-49.5 64.5t-18.5 86.5q0 55 21 95t54.5 65.5t75 38t81.5 12.5q-4 0 -23 5t-40 18t-38 36.5t-17 60.5q0 28 11.5 50
t31.5 37.5t46.5 24t57.5 8.5q32 0 54 -13t35.5 -29t19 -29.5l5.5 -13.5q2 -9 -7 -11t-11 8q0 1 -3.5 11.5t-13 23t-25.5 22.5t-42 10q-30 0 -55 -24t-25 -75q0 -33 13.5 -55.5t30 -36.5t30.5 -20l14 -6q6 -3 6 -10q-2 -8 -9 -8q-32 0 -65 -11.5t-60 -35.5t-44 -61t-17 -87
q0 -28 9.5 -58.5t28 -56t45.5 -42.5t61 -17q54 0 91.5 28t58.5 64z" />
    <glyph glyph-name="F" unicode="F" horiz-adv-x="303" 
d="M188 -100q-12 0 -26.5 4.5t-27 16.5t-21 32.5t-8.5 53.5q0 42 5.5 93.5t13.5 106.5q-11 14 -26 26t-29 12q-9 0 -9 9t9 9q17 0 32.5 -0.5t31.5 -1.5q8 44 16 85.5t15 76.5t13 61l9 39q-36 -2 -66.5 -8t-53 -19.5t-35.5 -35.5t-13 -57q0 -21 6.5 -37t14.5 -26.5t15 -16.5
l7 -6q9 -5 3 -13q-3 -4 -8 -4q-1 0 -5 2q-1 0 -9 6.5t-17.5 19.5t-17 31.5t-7.5 43.5q0 51 24 79t62.5 41.5t87.5 17t100 4.5q48 1 95.5 3.5t88 13t71 31.5t45.5 60q1 4 4.5 5.5t6.5 0.5q4 -2 5.5 -5.5t0.5 -6.5q-16 -43 -49 -67t-75.5 -35.5t-92 -14.5t-99.5 -4h-16
q-14 -60 -28.5 -130t-26.5 -140q43 0 81.5 11t76.5 49q7 6 13 0q7 -7 0 -13q-42 -42 -85 -54t-89 -11q-3 -19 -6 -37.5t-5 -36.5q3 -8 10.5 -30t15.5 -50t14 -59t6 -57q0 -22 -6 -35.5t-13.5 -20.5t-15.5 -9.5t-13 -2.5zM115 244l13 -13q1 3 1 6t1 5q-4 1 -7.5 1t-7.5 1z
M185 123q-9 -72 -9 -122.5t12 -66.5q3 -4 6 -4q9 0 13 7q8 10 8 32t-4.5 48t-11.5 54t-14 52z" />
    <glyph glyph-name="G" unicode="G" horiz-adv-x="414" 
d="M158 24q-29 -3 -57 2.5t-51.5 25t-40 56t-22.5 94.5q-5 49 5 109.5t38 115.5t75 95t115 47q48 5 76.5 -14.5t43.5 -45t20 -47.5t5 -23q0 -8 -9 -10q-10 0 -10 8q0 2 -4 21.5t-17 41.5t-37.5 39t-65.5 12q-32 -3 -57 -24.5t-42.5 -52.5t-29 -69t-17.5 -74.5t-7.5 -68.5
t0.5 -51q8 -79 34 -121.5t62 -38.5q21 3 41.5 19t38.5 40t33.5 51t27.5 52t19.5 43.5t9.5 23.5q1 6 7 9t14 3q10 0 18 -3.5t8 -9.5q-7 -49 -16.5 -119t-29.5 -144q25 12 45 27t31 41q6 15 11 29t7 28q2 8 7 8q5 1 8.5 -2.5t2.5 -8.5t-5.5 -21.5t-13.5 -37.5
q-14 -32 -42 -52.5t-57 -34.5q-15 -53 -37.5 -102t-53.5 -88.5t-72 -65t-94 -31.5q-35 -4 -63 13.5t-33 63.5q-3 27 15 53.5t47.5 49.5t66 42.5t70 34.5t59 24.5t33.5 12.5q20 58 33.5 113t21.5 95q-13 -27 -31 -58t-39.5 -58t-45.5 -45.5t-49 -21.5zM261 -23
q-22 -8 -51.5 -20t-59.5 -27t-59 -32.5t-51 -36t-34.5 -38.5t-10.5 -39q2 -16 8.5 -26t15 -15.5t18 -7t16.5 -0.5q36 4 66.5 25.5t56.5 54.5t47 75t38 87z" />
    <glyph glyph-name="H" unicode="H" horiz-adv-x="478" 
d="M46 -40q8 69 15 128t14 109l-28 -5q-8 0 -10 7q-2 9 7 11q3 0 34 6q17 116 30 183t21 98q-20 -18 -39 -32t-36 -26q-24 -17 -43.5 -32.5t-33.5 -34.5t-21.5 -44.5t-7.5 -63.5q0 -9 -9 -9t-9 9q0 41 8.5 69t23.5 49t35.5 37.5t45.5 34.5q22 15 46.5 34t50.5 45q7 7 26 7
q16 0 30.5 -5.5t12.5 -16.5l-4 -15t-11.5 -49t-18 -89.5t-22.5 -136.5q36 5 79.5 9t88.5 6q8 68 17 148.5t18 175.5l1 5q0 5 11 8t24 3q15 0 27.5 -3.5t11.5 -9.5v-4q-10 -96 -18 -176t-16 -146h12t12 -1q9 0 9 -9q-2 -9 -10 -9q-6 1 -12 1h-13q-17 -159 -24 -232.5
t-2 -73.5t18 15t27.5 36.5t27.5 44t19 37.5q8 17 14.5 33t10.5 29q3 8 11 6q9 -4 6 -12q-2 -4 -8 -22t-17 -41q-10 -21 -24 -49t-30 -53.5t-32 -43t-29 -17.5q-9 0 -21 2.5t-23 10.5t-18.5 23t-7.5 40q0 29 7.5 96t18.5 170q-46 -2 -89.5 -6.5t-79.5 -9.5q-8 -53 -16 -116.5
t-16 -139.5q-1 -7 -10 -10t-20 -3q-15 0 -29 5t-13 15z" />
    <glyph glyph-name="I" unicode="I" horiz-adv-x="250" 
d="M48 -100q-19 0 -36.5 9t-31 25t-21.5 37.5t-9 46.5q0 9 8 9q10 0 10 -9q0 -16 4.5 -32t12.5 -28.5t21.5 -20.5t31.5 -8q21 0 38 20t30.5 54t25 78.5t20.5 93.5t16.5 99t14.5 94q8 55 16.5 105.5t18.5 90.5q-17 -14 -36.5 -22.5t-38.5 -16.5q-35 -14 -55.5 -28.5
t-19.5 -43.5q0 -9 -9 -9t-9 9q-1 20 6 34t19 24t28 17t33 14q26 11 51.5 24t42.5 39q3 5 9 7t14 2q14 0 25.5 -5t9.5 -12q-11 -42 -23 -102.5t-23 -129.5q-21 -137 -40.5 -227t-41 -143t-48.5 -74t-64 -21z" />
    <glyph glyph-name="J" unicode="J" horiz-adv-x="386" 
d="M289 424q0 125 -50 125q-19 0 -37.5 -11t-33.5 -28.5t-24 -40t-9 -45.5q0 -9 -9 -9t-9 9q0 27 10.5 52.5t28 45.5t39.5 32.5t44 12.5q51 0 83 -37.5t32 -105.5q0 -26 -1 -62.5t-4.5 -79t-11 -88.5t-19.5 -90q12 3 27 5.5t28 5t22 4t10 1.5q8 2 10 -8q0 -10 -8 -10l-11 -2
t-26 -4.5t-31 -5.5t-27 -6q-14 -44 -34 -83t-48 -68t-65 -46t-84 -17q-25 0 -43.5 7t-30 18t-17 24.5t-5.5 27.5q0 35 30.5 61t72.5 44t86 29t70 16q26 78 35.5 162t9.5 165zM237 77q-27 -5 -67 -16t-77 -27t-63.5 -38t-26.5 -49q0 -20 15.5 -33t47.5 -13q34 0 61 17t48 43
t36.5 57t25.5 59z" />
    <glyph glyph-name="K" unicode="K" horiz-adv-x="371" 
d="M258 -24q26 0 46.5 13.5t35.5 34.5t25.5 45.5t17.5 45.5q2 8 11 6q9 -4 6 -12q-2 -4 -8.5 -22t-17.5 -41q-7 -16 -17.5 -32.5t-24.5 -30.5t-32.5 -23t-41.5 -9q-33 0 -61.5 14.5t-51 38t-40 52.5t-29.5 58q0 -14 -0.5 -27.5t-0.5 -27.5l8 -134q2 -7 -11 -11t-29 -4
q-12 0 -22.5 3t-12.5 10q-7 49 -7.5 113t3 131.5t9.5 133t11.5 117t10 83.5t4.5 33q2 5 19 5q7 2 17 2t19 -1.5t15 -3.5t5 -5q-10 -60 -16.5 -130.5t-11.5 -130.5q-1 -11 -2 -21.5t-1 -21.5q15 29 34.5 66.5t41 76t45 75t47.5 64.5q5 7 13 1q6 -6 1 -13q-27 -31 -53 -72
t-49.5 -83.5t-43.5 -82.5t-34 -69q4 -28 20 -65t40 -70t53.5 -56t59.5 -23z" />
    <glyph glyph-name="L" unicode="L" horiz-adv-x="258" 
d="M50 -95q-4 0 -7 3q-6 6 1 13q12 10 25 14l-3 42t-3 65.5t-1.5 82t0.5 92.5q-13 10 -24 25.5t-19 33t-12.5 35.5t-3.5 33q0 8 9 8t9 -9q-1 -23 12 -52t30 -49q2 49 5.5 97.5t10.5 91.5t17.5 77.5t25.5 55.5q4 5 10.5 11t16.5 11.5t23.5 8.5t30.5 2q15 0 27.5 -12t21 -32
t12.5 -47t3 -58q-2 -50 -16.5 -93t-35.5 -75t-46 -51t-48 -21q0 -21 1 -55t2 -71.5t2.5 -75t4.5 -64.5q16 0 33 -1t34 -3q20 -2 40 -3.5t39 -1.5q29 0 52 5t38 19q6 6 12 0q6 -7 0 -13q-19 -17 -46 -23t-59 -6q-19 0 -38 1.5t-39 3.5q-19 2 -37.5 3t-35.5 1q-22 0 -39.5 -3
t-28.5 -13q-3 -3 -6 -3zM207 563q-16 0 -28 -13q-24 -24 -42 -108t-17 -216q20 3 42 20.5t41 47t32 69t14 85.5q2 52 -9.5 83t-32.5 32z" />
    <glyph glyph-name="M" unicode="M" horiz-adv-x="607" 
d="M-19 -106q-2 50 1 108t7.5 115.5t10.5 110.5t11.5 94t9 66l3.5 25q1 5 9.5 7t19.5 2q16 0 30 -3.5t13 -8.5q0 -1 -5 -36t-11.5 -90t-13.5 -124t-11 -137q11 42 27 97t34.5 113t39.5 114t42.5 100t42 71t39.5 27q12 0 26.5 -3.5t27 -13.5t21.5 -26.5t9 -42.5
q0 -34 -6 -77.5t-14 -89.5q23 42 49.5 73t52.5 31q11 0 25 -2t26 -9.5t20.5 -21t8.5 -37.5q0 -23 -4 -54t-11 -68q-5 -33 -11.5 -80.5t-9 -92t1 -75.5t18.5 -31t32.5 23t33.5 54t28.5 62.5t17.5 47.5q2 10 11 6q10 -2 6 -11q-7 -21 -20.5 -55.5t-31.5 -67.5t-39 -57.5
t-43 -24.5q-39 0 -60 25q-15 18 -20.5 51.5t-4.5 73t6.5 81.5t11.5 78l8 48t5.5 44.5t0.5 35.5t-7 21q-3 4 -9 4q-12 0 -25.5 -12t-27 -31.5t-27 -44t-24.5 -49.5q-14 -66 -26.5 -116t-15.5 -64q-2 -6 -12 -8.5t-21 -2.5q-16 0 -29.5 4.5t-10.5 12.5q16 62 32 136t27.5 142
t14 119t-8.5 66q-3 3 -6 3q-15 0 -34 -30t-39.5 -79t-42.5 -111t-41.5 -126.5t-36.5 -125.5t-29 -108v-44q0 -5 -12 -8t-26 -3t-24 2.5t-10 7.5z" />
    <glyph glyph-name="N" unicode="N" horiz-adv-x="498" 
d="M1 8q-2 75 0.5 142t7 118t8.5 81l4 30q0 5 7 7t17 2q9 0 18.5 -1.5t17.5 -3.5t13 -4.5t5 -4.5l-2.5 -18t-6 -49.5t-6.5 -74.5t-5 -94q10 25 26.5 62.5t38 80.5t46.5 86t52.5 77.5t55.5 56t54 21.5q49 0 71.5 -24t22.5 -60q0 -33 -10.5 -77t-24.5 -95q-7 -27 -15.5 -60
t-15 -66.5t-10.5 -65.5t-3.5 -56.5t7.5 -39.5t22 -15q22 0 40 17t32 41t24.5 50t16.5 44q1 3 4.5 5t6.5 1q9 -4 6 -12q-7 -22 -20 -53t-30.5 -59t-39.5 -47.5t-49 -19.5q-45 0 -72.5 25.5t-27.5 77.5t14 112.5t31 126.5q9 33 17.5 65.5t13 60.5t4.5 49.5t-8 31.5q-7 9 -21 9
q-23 0 -50 -26t-55 -66t-54.5 -88.5t-47.5 -94.5t-35.5 -83t-17.5 -54v-35t1 -36q0 -7 -10.5 -10t-24.5 -3q-16 0 -30 4t-13 12z" />
    <glyph glyph-name="O" unicode="O" horiz-adv-x="392" 
d="M146 -100q-25 0 -51 7.5t-47 26t-34.5 50.5t-13.5 80q0 26 4 65.5t11.5 82t18 82t23.5 64.5q-4 2 -5 5q-12 24 -12 49q0 34 13.5 63t36.5 50t55 33t69 12q15 0 44.5 -6t59 -30t51 -71.5t21.5 -130.5q0 -8 -0.5 -17.5t-1.5 -20.5q67 26 125 89q6 7 13 0q2 -2 2.5 -6
t-2.5 -7q-33 -36 -68.5 -59.5t-72.5 -37.5q-5 -35 -15 -76t-25 -82.5t-35 -80t-45 -68.5t-54.5 -48t-64.5 -18zM67 375q9 19 18 25.5t32 6.5q10 0 19.5 -1.5t17 -4.5t11 -6.5t0.5 -7.5q-20 -29 -36 -75q29 -18 66.5 -29t80.5 -11q23 0 46 3t46 11q3 26 3 46q0 74 -18 118
t-43 66.5t-51.5 29t-44.5 6.5q-33 0 -61.5 -10.5t-49.5 -29.5t-32.5 -44.5t-11.5 -55.5q0 -21 8 -37zM276 253q-45 0 -84 11.5t-69 29.5q-14 -44 -23 -93t-12 -94t0.5 -82t14.5 -57q18 -34 54 -34q39 0 73 33.5t61 83.5t45.5 108t27.5 107q-23 -7 -45 -10t-43 -3z" />
    <glyph glyph-name="P" unicode="P" horiz-adv-x="264" 
d="M2 -88q0 1 -0.5 33.5t-1 84.5t0 118.5t2 135t5.5 133.5t11 115q1 7 10.5 10t21.5 3q14 0 26 -4t12 -12q-4 -28 -6.5 -60.5t-4.5 -68.5q14 33 35 70t45 68t50.5 51.5t51.5 20.5q15 0 35.5 -4.5t39.5 -17.5t32 -34.5t13 -56.5q0 -104 -28 -170t-73 -104t-100 -52.5
t-109 -15.5v-93t0.5 -77t1 -52.5t0.5 -20.5q0 -5 -12 -8.5t-26 -3.5q-13 0 -22.5 3t-9.5 9zM71 173q49 2 91 22.5t73 60.5t48.5 100.5t17.5 142.5q0 37 -12.5 58t-39.5 21q-26 0 -53.5 -26t-51.5 -63t-42.5 -77t-26.5 -67q-2 -43 -3 -86.5t-1 -85.5z" />
    <glyph glyph-name="Q" unicode="Q" horiz-adv-x="377" 
d="M154 -8q-51 0 -82.5 19.5t-45.5 39.5q-16 22 -21.5 52.5t-4.5 64t6.5 66t12 59t12 44t6.5 19.5q0 1 3 2q-6 23 -1.5 52.5t19.5 59.5q10 21 26 42.5t37 38t47 27t56 10.5q28 0 57 -10.5t52 -34t38 -61.5t15 -94q0 -57 -11.5 -116t-33 -110.5t-52 -91.5t-68.5 -61
q-4 -5 -14 -15.5t-25.5 -23.5t-36 -25.5t-44.5 -22.5q20 -2 43 -13t44 -25q27 -19 55 -37t56 -32.5t56 -23.5t56 -9q50 0 86 10.5t61.5 26.5t41.5 35t25 35t12.5 27t3.5 12q2 10 11 8t7 -11q0 -1 -3.5 -16.5t-13.5 -38.5t-27 -49.5t-45 -49.5t-67 -38t-92 -15q-30 0 -60 9.5
t-60 24.5t-58.5 34l-55.5 37q-46 32 -88 56.5t-77 24.5q-9 0 -9 9t9 9q28 0 53.5 7t47 17.5t39 23.5t29.5 24q-7 -1 -13.5 -1.5t-13.5 -0.5zM58 360q16 2 34 2.5t21 -0.5q8 -4 5 -12l-5 -16t-11.5 -41.5t-12 -57t-7 -63.5t3.5 -61t19 -49q12 -17 24.5 -24.5t36.5 -7.5
q47 0 84.5 31t63.5 82t40 115t14 130q0 50 -12.5 85t-33 56.5t-46.5 31t-52 9.5q-27 0 -50.5 -9.5t-42.5 -24.5t-33.5 -34t-23.5 -39q-14 -29 -17.5 -55.5t1.5 -47.5z" />
    <glyph glyph-name="R" unicode="R" horiz-adv-x="356" 
d="M2 -28q0 1 -0.5 29t-1 73.5t0 104t2 120.5t5.5 122.5t11 110.5q1 7 10.5 10t21.5 3q14 0 26 -4t12 -12q-4 -29 -7 -62t-5 -68q15 33 35.5 70.5t45 68.5t51 51.5t51.5 20.5q15 0 34.5 -5t37.5 -16.5t30 -30t12 -46.5q0 -85 -25 -146.5t-65.5 -102t-91 -61.5t-102.5 -26
q2 -13 8.5 -34.5t16.5 -46.5t24 -50.5t31 -46t36.5 -33.5t40.5 -13q22 0 41 18.5t34.5 44t27 53.5t18.5 47q2 8 11 6q9 -4 6 -12q-7 -22 -20 -53.5t-30.5 -61t-39.5 -50t-48 -20.5q-36 0 -66 24.5t-52.5 60t-37.5 74.5t-21 68v-70.5t0.5 -56t0.5 -37.5v-14q0 -6 -12 -9.5
t-26 -3.5q-12 0 -21.5 3t-9.5 9zM70 193q49 3 92 28.5t74.5 68t49.5 100.5t18 125q0 22 -14 42.5t-41 20.5q-26 0 -54 -26.5t-52 -64t-42.5 -78t-26.5 -67.5q-2 -38 -2.5 -75.5t-1.5 -73.5z" />
    <glyph glyph-name="S" unicode="S" horiz-adv-x="342" 
d="M-13 450q0 25 7 48t22 40.5t39 28t59 10.5q48 0 78 -15.5t47 -34t23.5 -34.5t6.5 -17q2 -7 -5 -9q-7 -4 -9 4q0 1 -5.5 12.5t-18.5 25t-35 25t-56 11.5q-45 0 -64.5 -26t-19.5 -71q0 -18 10.5 -42.5t27 -51.5t37.5 -55t41 -52q34 -41 60.5 -74.5t42.5 -68.5q11 3 25.5 6
t28 5.5t22.5 3.5t10 1q8 2 10 -8q0 -10 -8 -10l-9 -1t-21 -3.5t-26 -5t-25 -5.5q11 -30 11 -61t-9 -58t-28 -47.5t-49 -32.5t-73 -12q-21 0 -39.5 5.5t-32.5 16t-22 25.5t-8 33q0 27 20.5 49.5t49 39.5t59 28t49.5 15q-24 41 -61.5 84.5t-73.5 88.5t-62 92.5t-26 96.5z
M219 71q-18 -4 -46 -13t-55 -23.5t-46.5 -34t-19.5 -44.5q0 -30 23.5 -47.5t58.5 -17.5q20 0 38 8.5t32 24t22.5 37.5t8.5 49q0 15 -4 30t-12 31z" />
    <glyph glyph-name="T" unicode="T" horiz-adv-x="217" 
d="M68 -78q0 1 1.5 51t6 133.5t12.5 192t20 225.5q-37 -3 -71 -8t-60 -14.5t-41 -25.5t-15 -41q0 -5 -9 -8t-9 8q0 35 20.5 55t54 31.5t77.5 16t91 7.5q38 3 76.5 7t72.5 11t62 18.5t44 28.5q5 3 7 3q5 0 7.5 -5.5t-1.5 -10.5q-15 -17 -39 -28.5t-54.5 -19t-65 -12
t-69.5 -7.5q-13 -117 -21 -225.5t-12.5 -193t-5.5 -135.5t-1 -52q0 -6 -14 -10t-30 -4q-13 0 -23 3t-11 9z" />
    <glyph glyph-name="U" unicode="U" horiz-adv-x="394" 
d="M259 66q0 32 2 65t6 66q-14 -37 -34 -74t-42.5 -67t-45.5 -49t-43 -19q-17 0 -35 8.5t-33 26t-24.5 44t-9.5 62.5q0 50 7 111.5t17 121.5t21 111.5t18 80.5q2 7 10 10t18 3q16 0 29.5 -5.5t11.5 -14.5q-12 -50 -22.5 -103t-19 -104.5t-14 -99t-7 -87t2.5 -68t15 -41.5
q3 -5 12.5 -6.5t14.5 -1.5q19 0 41 21.5t43.5 55.5t42 75t35.5 81q1 5 1.5 10t1.5 10l2 20q8 57 16.5 114.5t20.5 114.5q1 5 6 7.5t13 2.5t16.5 -2t15.5 -5t11.5 -7t3.5 -9q-3 -15 -8 -45.5t-11.5 -70t-13.5 -84.5t-12 -89q-10 -85 -13.5 -133t-3 -71.5t4.5 -29t9 -5.5
q10 0 21 15t20.5 34.5t17 39.5t10.5 29q1 4 4.5 5.5t6.5 0.5q9 -4 6 -12q-2 -4 -8 -22t-17 -41q-17 -40 -37.5 -68t-42.5 -28q-20 0 -31.5 9t-17.5 24.5t-7.5 36.5t-1.5 46z" />
    <glyph glyph-name="V" unicode="V" horiz-adv-x="292" 
d="M131 -60q-38 0 -58 11.5t-24 16.5q-12 13 -21 44.5t-15 76.5t-9 100t-3.5 114.5t1.5 120t7 115.5q1 11 15.5 16t31.5 5t31.5 -5.5t13.5 -16.5q-9 -96 -9.5 -189.5t5 -170.5t16 -130t23.5 -67q3 -3 5 -3q12 0 27.5 26t31.5 69t31.5 97.5t27.5 112t19.5 112.5t7.5 98
q0 10 9 10q10 0 10 -10q0 -36 -7 -91t-19.5 -116.5t-29 -123t-36 -111t-40.5 -80.5t-42 -31z" />
    <glyph glyph-name="W" unicode="W" horiz-adv-x="560" 
d="M92 21q-15 0 -31.5 6.5t-30 22.5t-22 43t-8.5 66q0 42 4 92t9 95t9.5 78t6.5 42q1 9 14 13.5t29 4.5q18 0 33 -5.5t13 -15.5q-3 -16 -7.5 -48.5t-9 -72t-8 -82t-4 -80.5t2.5 -66t12 -39q3 -3 6 -3q14 0 31.5 25.5t36 64.5t35.5 85t30 87q1 20 6 37q0 2 9.5 3.5t21 2.5
t21.5 2t12 1q9 0 9 -9q0 -37 3 -84.5t9 -96t14 -95t18 -82.5t22 -58t25 -22q20 0 39 30q17 26 30.5 69t23.5 94.5t15 107t5 107t-5.5 95t-17.5 70.5q-3 8 4 12q9 3 12 -5q13 -28 19 -73t6 -98t-5 -110t-15 -110t-24 -97t-32 -72q-13 -19 -30 -36t-40 -17q-46 0 -77 36
t-49.5 90t-26.5 118t-7 121q-13 -36 -31 -78.5t-37.5 -79t-39.5 -61.5t-38 -25z" />
    <glyph glyph-name="X" unicode="X" horiz-adv-x="441" 
d="M-125 -130q-9 0 -9 9t9 9q34 0 66 22t62.5 58.5t59.5 84t57 98.5q-27 56 -48 115.5t-35.5 111t-23.5 89.5t-12 51q-2 7 2.5 13t13 10t18.5 6t20 2t17.5 -2.5t9.5 -8.5q20 -73 43 -146t48 -139q30 59 59.5 114t59 97t60 67.5t62.5 25.5q9 0 9 -9t-9 -9q-28 0 -55.5 -25
t-56 -66.5t-57 -95.5t-58.5 -111l-6 -11q21 -52 42 -97t42 -77t42 -50.5t41 -18.5t37 13.5t30 33.5t22 42t14 39q4 8 12 6q8 -3 6 -12q-7 -21 -19 -48.5t-29 -51.5t-38.5 -40.5t-47.5 -16.5q-32 0 -61 14t-54.5 38t-47.5 57t-42 70q-28 -53 -58 -100.5t-61.5 -83t-65 -56.5
t-70.5 -21z" />
    <glyph glyph-name="Y" unicode="Y" horiz-adv-x="427" 
d="M126 7q-39 -6 -71 11.5t-39 67.5q-8 52 1.5 141.5t36.5 217.5q2 10 14.5 14t25.5 4q14 0 24 -3.5t6 -11.5q-36 -164 -41.5 -265.5t20.5 -129.5q12 -12 29 -9q11 2 25.5 18t31 42t33.5 59t33.5 68.5t31.5 71.5t27 67q2 23 3 44.5t3 40.5q2 34 4 59t4 42q2 12 15.5 17
t28.5 5t26.5 -4t10.5 -11q-2 -16 -3.5 -41.5t-4.5 -59.5q-11 -148 -25 -277.5t-38 -237.5q23 -5 43.5 -12.5t36.5 -14.5t26.5 -12.5t11.5 -6.5q6 -5 3 -11q-3 -5 -7 -5q-3 -1 -5 1l-9.5 5.5t-25 12t-36 13.5t-42.5 12q-17 -74 -41 -134.5t-58 -105t-78 -72t-102 -35.5
q-33 -5 -64.5 2.5t-57 24.5t-43 42t-21.5 57q-3 20 2 49.5t30 61.5q86 107 353 134q21 88 33.5 180t20.5 174q-16 -38 -38.5 -88.5t-47.5 -96.5t-50 -79t-46 -36zM203 -71q-67 -9 -115.5 -23.5t-82.5 -31t-55.5 -33.5t-33.5 -33q-23 -29 -27 -54t-2 -43q4 -27 19 -45
t35 -28.5t42 -14t40 -0.5q43 6 78 33t62.5 68.5t48.5 95.5t37 115q-12 -2 -23.5 -3t-22.5 -3z" />
    <glyph glyph-name="Z" unicode="Z" horiz-adv-x="336" 
d="M9 -36q-11 1 -20 9t-9 30q0 12 6.5 27.5t19 29.5t30.5 23.5t40 9.5q26 41 53 93t49.5 104.5t36 101.5t11.5 85q-2 32 -15.5 40t-25.5 8q-27 0 -49.5 -14t-39.5 -31t-27 -31.5l-10 -14.5q-2 -3 -5.5 -4t-6.5 1t-4 5.5t1 6.5q1 2 13 20t33 39t49.5 38.5t62.5 17.5
q8 0 24 -3.5t32 -13t28 -27t12 -44.5q0 -46 -11.5 -96.5t-31 -100.5t-45.5 -97.5t-54 -86.5q32 -6 63.5 -27t50.5 -56q31 28 48.5 60.5t30.5 70.5q1 7 9 7q5 0 7.5 -3.5t0.5 -8.5q-14 -43 -34 -78.5t-54 -65.5q10 -28 10 -57q0 -86 -25 -143.5t-59.5 -92.5t-70.5 -50
t-59 -15q-26 0 -46.5 19t-20.5 54q0 33 16 69t44.5 72t67.5 69t85 60q-2 18 -7 34.5t-14 30t-22.5 23t-32.5 11.5q-37 -48 -72.5 -78t-62.5 -30zM64 74q-15 -3 -27.5 -11.5t-21 -19t-13 -21.5t-4.5 -19v-4q1 0 1 -1q8 0 25 20.5t40 55.5zM222 -48q-40 -26 -76 -57t-63 -64.5
t-43 -67t-16 -62.5q0 -18 11.5 -31t34.5 -13q25 0 52 27t49 69t36.5 94t14.5 102v3z" />
    <glyph glyph-name="bracketleft" unicode="[" horiz-adv-x="227" 
d="M167 -30q-23 1 -43.5 2t-36 2.5t-25 3t-10.5 2.5t-1.5 3t-0.5 11.5v28t1.5 52.5t3.5 86t5 127t5.5 127t4.5 85.5t3 52t2 27.5t1.5 11t1.5 3q2 2 11.5 2.5t22 1t25.5 0.5h21h9q9 0 9 -9t-9 -9h-10h-18q-1 -15 -3.5 -60.5t-5.5 -106.5t-6 -129t-5 -128.5t-3.5 -105
t-1.5 -58.5q8 -1 23 -2l30 -2q9 0 9 -9t-9 -9z" />
    <glyph glyph-name="backslash" unicode="\" horiz-adv-x="365" 
d="M313 -5q5 -11 -3 -18t-18 -7q-16 0 -20 14q-52 152 -112 307.5t-138 296.5q-5 9 3.5 16t19.5 7t15 -7q17 -28 40 -76.5t48.5 -107t51.5 -122.5t48.5 -122t39.5 -106t25 -75z" />
    <glyph glyph-name="bracketright" unicode="]" horiz-adv-x="235" 
d="M59 -40q-9 0 -9 9t9 9q12 0 22.5 1t15.5 2q1 9 3 37.5t4.5 69t5 90t5 100t5 100t4 90t2 69t0.5 37.5q-4 1 -15.5 2t-31.5 1q-9 0 -9 10q0 9 9 9q20 0 38 -1.5t32 -3t23 -3t10 -2.5t1.5 -3.5t1 -11.5t0.5 -28t-1.5 -53t-3.5 -86t-6 -127q-6 -113 -9.5 -175t-6 -91.5
t-4 -35t-2.5 -6.5q-2 -2 -12.5 -4t-25 -3t-29.5 -1.5t-26 -0.5z" />
    <glyph glyph-name="asciicircum" unicode="^" horiz-adv-x="312" 
d="M59 350q-1 0 -5 2q-8 4 -2 12l88 130q5 8 18 8q9 0 13 -6l89 -121q3 -4 0.5 -9.5t-7 -9t-10.5 -5t-9 2.5l-86 119l-81 -119q-3 -4 -8 -4z" />
    <glyph glyph-name="underscore" unicode="_" horiz-adv-x="402" 
d="M342 -76h-2q-8 2 -29.5 4t-49 3t-58.5 1.5t-59 0.5t-50.5 -0.5t-33.5 -1.5q-9 -2 -9 8q-2 10 8 10q11 1 34 1.5t51.5 0.5t60 -0.5t59.5 -1.5t50 -3t31 -4q10 -2 6 -11q-2 -7 -9 -7z" />
    <glyph glyph-name="grave" unicode="`" horiz-adv-x="188" 
d="M126 546q-4 0 -8 4l-63 97q-2 3 0.5 6.5t7.5 6.5t11 5t11 2q6 0 9 -3l39 -104q6 -8 -2 -12q-4 -2 -5 -2z" />
    <glyph glyph-name="a" unicode="a" horiz-adv-x="267" 
d="M190 -41q-42 0 -60.5 24.5t-16.5 72.5q-13 -21 -28 -38t-31 -17q-6 0 -15 2t-18 8t-15 18.5t-6 33.5q0 35 6.5 62t16.5 45.5t23 28.5t26 10q43 0 62 -33q2 8 4.5 16.5t5.5 16.5q6 6 20 6t27 -4.5t17 -12.5q-16 -54 -24 -91t-10 -61t0.5 -37t6.5 -19q6 -7 14 -7
q12 0 25.5 16.5t25 38.5t20 44t12.5 33q3 8 12 6q8 -3 6 -13q-5 -15 -15.5 -40t-24.5 -49.5t-31 -42t-35 -17.5zM53 19q7 0 15 8t17 20t17.5 27.5t15.5 30.5q2 8 3.5 17t3.5 18q0 15 -6 28t-22 13q-9 0 -20 -20t-19 -47t-10 -54t5 -41z" />
    <glyph glyph-name="b" unicode="b" horiz-adv-x="272" 
d="M11 -51q-1 2 -6 35t-5 92q0 96 13 191.5t35.5 171.5t53.5 123.5t67 47.5q11 0 22.5 -13t11.5 -39q0 -29 -17 -61.5t-38 -61t-39.5 -48.5t-22.5 -24q-13 -62 -21 -134t-8 -153v-21.5t1 -20.5q8 36 21 68t28 56.5t31 39t30 14.5q8 0 18.5 -2t20 -11t16 -26t6.5 -47
q0 -5 -0.5 -8.5t-0.5 -8.5q21 5 41 8t22 3q8 2 10 -8q0 -10 -8 -10q-1 0 -24 -3.5t-45 -8.5q-11 -42 -42 -70t-66 -28q-15 0 -26.5 11.5t-14.5 23.5q-8 -40 -8 -75q1 -8 -9 -12.5t-22 -4.5q-9 0 -16 3t-9 11zM171 587q-6 0 -14.5 -13.5t-19 -38t-22 -59.5t-21.5 -78
q12 14 27.5 33t29.5 41t23.5 44t9.5 41q0 30 -13 30zM162 186q-7 0 -17.5 -9t-21 -25t-20.5 -38t-18 -48q13 13 37 23t48 13q5 14 6.5 24.5t1.5 20.5q0 4 -0.5 10.5t-2 13t-4.5 11t-9 4.5zM166 81q-30 -5 -52 -18.5t-22 -22.5q0 -1 0.5 -5t2 -8t5 -7.5t10.5 -3.5
q19 0 34 20.5t22 44.5z" />
    <glyph glyph-name="c" unicode="c" horiz-adv-x="241" 
d="M184 181q-1 -20 -24 -20q-7 0 -11.5 5.5t-4.5 12.5q0 5 3.5 14t11.5 13q-9 12 -28 12q-26 0 -48 -33t-22 -103q0 -14 3.5 -32t12.5 -33.5t24 -26.5t39 -11q21 0 39.5 14t33 35t25 44t15.5 41q4 9 12 6q4 -1 5.5 -4.5t0.5 -6.5q-7 -21 -19.5 -47.5t-29.5 -50t-38.5 -39
t-47.5 -15.5q-28 0 -53 10t-43 27t-28.5 39.5t-10.5 48.5q0 44 14 73.5t34.5 47.5t43 26t38.5 8q14 0 23.5 -5.5t16.5 -13.5t10 -18t3 -18z" />
    <glyph glyph-name="d" unicode="d" horiz-adv-x="320" 
d="M57 -10q-23 0 -40 17t-17 46q0 76 29.5 119t80.5 43q20 0 34 -16q4 81 18.5 157.5t35.5 136t46.5 95.5t50.5 36q9 0 23 -16t14 -54q0 -22 -9 -50t-22.5 -57.5t-29 -57.5t-29.5 -50.5t-23.5 -37t-10.5 -15.5q-4 -32 -6 -66.5t-2 -70.5q0 -54 4 -86.5t9.5 -50t12 -23
t11.5 -5.5q25 0 41.5 21t28.5 47q8 17 14 33t11 29q2 6 8 6q5 0 8 -3.5t1 -8.5q-2 -4 -8 -22t-17 -41q-6 -15 -14.5 -29t-19.5 -25t-24.5 -18t-30.5 -7q-12 0 -26 5t-27 19.5t-23 40.5t-14 68q-8 -18 -18.5 -37.5t-22 -35t-23.5 -26t-24 -10.5zM301 594q-6 -4 -16.5 -25
t-23.5 -55.5t-25.5 -82t-21.5 -103.5q12 20 29.5 50t33 62.5t26.5 62.5t11 51q0 17 -3.5 28t-9.5 12zM143 138v11v22q-3 8 -9.5 14.5t-15.5 6.5q-7 0 -18.5 -8.5t-22 -26.5t-18.5 -46t-8 -67q0 -15 6 -21t11 -6t13 10t18 26.5t21.5 38.5t22.5 46z" />
    <glyph glyph-name="e" unicode="e" 
d="M109 -47q-17 0 -36 6.5t-35 20t-26.5 35t-10.5 52.5q0 61 14 97t33 55.5t39.5 25.5t32.5 6q6 0 14.5 -3t16 -10t12.5 -17.5t5 -25.5q0 -35 -8.5 -56.5t-20.5 -33t-25.5 -15t-23.5 -3.5q-18 0 -28 11q-1 -11 -1.5 -22.5t-0.5 -24.5q0 -15 3 -29t9.5 -25.5t15.5 -18.5
t21 -7q19 0 36.5 16.5t31.5 40t24.5 47.5t14.5 39q4 9 12 6q4 -1 5.5 -4.5t0.5 -6.5t-10 -27.5t-25.5 -53t-39 -52t-50.5 -23.5zM66 134q1 -11 6 -20t18 -9q5 0 12.5 5t15 16t13 28t5.5 41q0 19 -5 28.5t-11 9.5q-5 0 -12 -4t-15 -15.5t-15 -30.5t-12 -49z" />
    <glyph glyph-name="f" unicode="f" horiz-adv-x="196" 
d="M58 -194q-22 0 -42.5 32.5t-20.5 90.5q0 87 11 172t29 162.5t41 143.5t47.5 114.5t48.5 76t43 27.5q17 0 31 -17.5t14 -61.5q0 -51 -21.5 -97t-49.5 -82t-53.5 -60t-33.5 -30q-10 -36 -18 -73t-16 -75q24 -4 38.5 -30t15.5 -68h7q19 0 31 7.5t20.5 19.5t13.5 26.5
t10 29.5q2 6 8 6q5 0 8 -3.5t1 -8.5q-6 -19 -13 -37.5t-17.5 -33.5t-26 -24.5t-39.5 -9.5h-3q-1 -51 -8.5 -88.5t-17.5 -61.5t-20 -35.5t-18 -11.5zM224 589q-7 -1 -20 -24t-28 -61t-32 -88t-33 -106q16 15 38.5 39.5t43 55.5t35 67t14.5 74q0 17 -4.5 30t-13.5 13zM65 111
q-2 -10 -3.5 -20t-3.5 -20q5 -15 17.5 -24t28.5 -13q-2 34 -12 54.5t-27 22.5zM58 -175q4 3 11.5 14.5t14.5 32.5t13 53.5t7 79.5q-15 3 -28.5 11t-22.5 20q-4 -29 -6 -56t-2 -51q0 -48 4.5 -72.5t8.5 -31.5z" />
    <glyph glyph-name="g" unicode="g" horiz-adv-x="303" 
d="M72 -3q-9 0 -21.5 4t-23.5 13.5t-19 25t-8 37.5q0 42 10 68t25 40t32.5 19t32.5 5q25 0 44.5 -14t30.5 -31q13 68 39 94q2 1 8.5 1t14.5 -1.5t14 -4.5t6 -8q-15 -15 -25 -48.5t-16 -79t-9 -102t-4 -117.5q32 45 62.5 104t49.5 112q2 6 8 6q5 0 8 -3.5t1 -8.5
q-7 -24 -22.5 -58t-34.5 -68.5t-38 -65t-34 -47.5q-1 -17 -1 -33.5v-33.5q0 -46 -9.5 -83.5t-26.5 -64.5t-40.5 -41.5t-50.5 -14.5q-20 0 -32.5 14t-12.5 34q0 23 17 55t38.5 62.5t41.5 54t27 31.5q1 143 9 233q-9 -14 -19.5 -29t-22.5 -27.5t-24.5 -20.5t-24.5 -8zM100 191
q-7 0 -15.5 -7.5t-15.5 -24t-12 -44t-5 -67.5q0 -11 5.5 -21.5t14.5 -10.5q11 0 24 11t26.5 28t25.5 37t21 38q0 7 -5 17.5t-14.5 20t-22 16.5t-27.5 7zM154 -179q-15 -17 -33.5 -40.5t-34.5 -48.5t-27 -47.5t-11 -38.5q0 -11 6.5 -20.5t20.5 -9.5q18 0 33 18t25 45.5
t15.5 60.5t5.5 62v19z" />
    <glyph glyph-name="h" unicode="h" horiz-adv-x="278" 
d="M-1 -24q0 85 10 168t26.5 157t37.5 137t43 108.5t42.5 71.5t36.5 26q22 0 35 -24.5t13 -66.5q0 -55 -23.5 -105t-52 -88t-53 -61.5t-27.5 -25.5q-14 -65 -23 -122t-12 -121q12 26 28 56t33.5 56t35 43t30.5 17q11 0 17 -7q9 -11 8 -33.5t-6 -50.5q-1 -6 -2.5 -20.5
t-1 -29t5 -26t15.5 -11.5q14 0 25 9.5t19 23.5t14 29.5t10 27.5q3 6 9 6q5 0 7.5 -3.5t1.5 -8.5q-5 -16 -13 -36t-19.5 -37t-27.5 -28.5t-37 -11.5q-28 0 -43 14t-20.5 34t-4.5 42t4 38q1 7 2 12.5t2 10.5q-17 -22 -32.5 -46t-28 -47.5t-21.5 -44.5t-12 -37q-5 -7 -22 -7
q-10 0 -18.5 3t-10.5 9zM94 304q14 14 36 39t43 58t36 71.5t15 80.5q0 35 -5 47.5t-10 12.5q-7 0 -20.5 -23.5t-29.5 -65t-33 -98t-32 -122.5z" />
    <glyph glyph-name="i" unicode="i" horiz-adv-x="133" 
d="M21 320q0 16 10 24t20 8q21 0 32.5 -13t11.5 -25t-12 -25t-26 -13t-25 11t-11 33zM55 -2q17 0 31 14t24.5 32.5t18 38t11.5 31.5q2 6 8 6q5 0 8 -3.5t1 -8.5q-5 -15 -13.5 -37t-20.5 -42t-28 -34.5t-36 -14.5q-25 0 -38.5 8t-19.5 18.5t-7 21t-1 14.5q0 21 2.5 47.5
t6 51.5t7.5 43.5t6 23.5q1 2 7 2t13 -1t13.5 -2.5t7.5 -2.5q8 -3 4 -12q-2 -5 -5 -22t-6.5 -38.5t-6 -45t-2.5 -43t3.5 -32.5t11.5 -13z" />
    <glyph glyph-name="j" unicode="j" horiz-adv-x="144" 
d="M73 315q0 -18 -10.5 -31t-24.5 -13q-15 0 -25.5 13t-10.5 31t10.5 30.5t25.5 12.5q14 0 24.5 -12.5t10.5 -30.5zM-177 -390q-16 0 -33 8t-31.5 22.5t-23.5 34.5t-9 43q0 35 18 67t45.5 60.5t61 52t64.5 41t56 29.5t35 16q3 44 4 84t0 71t-2 49t-1 19q0 8 9 10
q2 0 9.5 -0.5t16 -1.5t15.5 -2.5t7 -3.5q0 -3 1.5 -21.5t2 -47.5t0 -67t-3.5 -80q36 28 59 64.5t36 79.5q3 7 9 7q5 0 7.5 -3.5t0.5 -8.5q-1 -5 -7.5 -23t-17.5 -40q-7 -15 -18 -30t-23 -28.5t-24.5 -24.5t-23.5 -17q-4 -42 -11 -84.5t-18.5 -81.5t-28 -73.5t-39.5 -59.5
q-18 -21 -36.5 -33t-36.5 -18t-35.5 -7.5t-33.5 -1.5zM4 -37q-14 -6 -38.5 -18.5t-53.5 -29.5t-59 -39t-54 -47t-39.5 -53t-15.5 -58q0 -40 22 -60.5t47 -20.5q37 0 64.5 16.5t48 44t34.5 62t23 71t14 71t7 61.5z" />
    <glyph glyph-name="k" unicode="k" horiz-adv-x="250" 
d="M0 -61q0 85 10.5 170.5t27 163.5t38 145t43.5 116.5t42.5 78t36.5 28.5q22 0 34.5 -24.5t12.5 -66.5q0 -37 -11 -71.5t-27.5 -65.5t-36 -56.5t-37 -44t-29.5 -30t-14 -12.5q-9 -40 -16 -82t-12 -85q27 17 46.5 39t32.5 42.5t19.5 35l6.5 14.5q4 9 12 5q8 -3 5 -12
q0 -1 -6.5 -15.5t-19.5 -35t-32.5 -43t-45.5 -40.5q3 -11 11.5 -25t21 -26t27 -20.5t28.5 -8.5q20 0 34.5 8t25.5 22t18.5 32.5t14.5 39.5q3 8 12 6q8 -3 6 -12q-7 -23 -16.5 -45.5t-22 -40.5t-30.5 -29t-42 -11q-19 0 -36.5 7t-31.5 17.5t-25 24.5t-18 27q-6 -63 -6 -125
q-5 -7 -22 -7q-10 0 -18.5 3t-10.5 9zM97 301q15 14 37 39t42.5 58t35.5 71.5t15 80.5q0 35 -5 47.5t-10 12.5q-7 0 -20.5 -23.5t-29.5 -65t-33 -98t-32 -122.5z" />
    <glyph glyph-name="l" unicode="l" horiz-adv-x="169" 
d="M154 53q8 17 14 33t11 29q1 3 4.5 5t6.5 1q9 -4 6 -12q-2 -5 -8 -22.5t-17 -40.5q-21 -48 -41.5 -77t-49.5 -29q-14 0 -28 5.5t-25 17.5t-18 30.5t-7 44.5q0 111 17.5 207.5t45 168t61 113t64.5 41.5q19 0 34.5 -19.5t15.5 -57.5q0 -49 -22 -105.5t-52 -106t-60 -84.5
t-46 -41q-4 -26 -6 -38.5t-2.5 -23t0 -24t0.5 -42.5q0 -32 10.5 -47t22.5 -15q18 0 34.5 25t34.5 64zM197 545q-9 0 -26 -28t-36.5 -77.5t-38 -117t-32.5 -145.5q15 12 41.5 45.5t52.5 78t45 95t19 95.5q0 24 -8 39t-17 15z" />
    <glyph glyph-name="m" unicode="m" horiz-adv-x="395" 
d="M327 -47q4 0 15.5 21t24.5 48.5t24.5 54.5t15.5 38q2 8 11 6q9 -4 6 -12q-4 -14 -16.5 -44t-28.5 -60t-32.5 -52.5t-29.5 -22.5q-38 0 -50.5 32.5t-12.5 102.5q0 8 3 29t4.5 43t0 39t-10.5 17q-8 0 -16 -6.5t-15.5 -17t-14.5 -22.5t-13 -24q-12 -23 -22 -37.5t-23 -14.5
q-9 0 -17 8q-10 11 -8.5 35t6.5 53q2 10 3.5 22.5t2.5 23t0 18t-5 7.5q-6 -2 -13.5 -19.5t-16 -41t-16 -49t-12.5 -43.5q-9 -30 -14.5 -48.5t-10 -28.5t-8 -13.5t-8.5 -3.5h-5t-8.5 0.5t-8 1.5t-4.5 2q-3 4 -3.5 19.5t0 37t2.5 45.5t4.5 45.5t5 38t3.5 21.5q1 4 11 4
q9 0 20 -3.5t10 -7.5q0 -6 -1 -20t-2.5 -32t-3 -38t-3.5 -38q3 14 12 45.5t21 64t25.5 57.5t26.5 25q7 0 18 -2t20.5 -13t14.5 -33t-1 -63q8 13 16.5 25.5t18 23t20 17t21.5 6.5q14 0 25.5 -3t20 -18t11.5 -46t-2 -87q-5 -53 -0.5 -83t12.5 -30z" />
    <glyph glyph-name="n" unicode="n" horiz-adv-x="310" 
d="M322 115q2 8 11 6q9 -4 6 -12q-2 -5 -8 -22.5t-17 -40.5q-10 -20 -23.5 -42.5t-28 -41t-30 -30.5t-29.5 -12q-27 0 -43.5 18.5t-16.5 52.5q0 46 10.5 91.5t21.5 78.5q3 11 6 23t5 22t2 16.5t-3 6.5q-20 0 -36.5 -17.5t-30 -43.5t-24.5 -57t-20 -57q-13 -37 -17.5 -49.5
t-12.5 -12.5q-10 0 -20.5 5.5t-15.5 13.5q-6 8 -7.5 31.5t0 52.5t4.5 58t6 49q1 4 5.5 5.5t10.5 1.5q11 0 22 -3.5t11 -8.5q-1 -25 -4 -51t-6 -49t-5 -42t-1 -30q3 7 6 16.5t6 18.5q10 30 22 63t27.5 61t35 46t44.5 18q4 0 13 -2.5t17 -12t11.5 -28t-4.5 -49.5
q-9 -35 -20 -82.5t-11 -91.5q0 -17 4 -27t14 -10q15 0 32.5 21t33.5 49t29 56.5t18 43.5z" />
    <glyph glyph-name="o" unicode="o" horiz-adv-x="225" 
d="M168 30q-5 0 -11 0.5t-11 1.5q-15 -26 -36 -42.5t-48 -16.5q-9 0 -21 3.5t-22 12t-17 21.5t-7 31q0 20 4 38.5t8.5 33.5t9.5 25t6 13q2 5 8 6t13 1q8 0 14 -0.5t8 -2.5q8 26 26 37t34 11q23 0 37.5 -16.5t14.5 -42.5q0 -20 -6 -45t-17 -49q3 -1 8 -1q32 0 49 15t29 53
q2 4 5.5 7t7.5 2q9 -4 6 -13q-11 -41 -35 -62t-57 -21zM137 55q11 23 16.5 47.5t5.5 41.5q0 15 -8 27.5t-25 12.5t-30 -16t-13 -46q0 -18 15.5 -38t38.5 -29zM128 37q-31 11 -48.5 34.5t-19.5 46.5q-4 -13 -8.5 -28t-7 -29.5t-2 -27.5t5.5 -21q8 -12 26 -12q17 0 30 10.5
t24 26.5z" />
    <glyph glyph-name="p" unicode="p" horiz-adv-x="294" 
d="M21 -301q-13 70 -17.5 146.5t-2 147t11 128t21.5 89.5q3 8 16 8q11 0 23 -6t10 -12q-10 -23 -16.5 -57.5t-10.5 -78.5q10 28 23.5 54t29.5 46.5t35 33t41 12.5q31 0 46.5 -17t15.5 -40q0 -26 -9.5 -49.5t-26.5 -43.5q22 0 37.5 3t26.5 11t19 21.5t15 35.5q2 10 12 8
q8 -3 6 -12q-11 -39 -36 -63t-56 -23q-11 1 -21 1h-19q-23 -20 -49.5 -32.5t-52.5 -12.5q-9 0 -19.5 2.5t-17.5 7.5q-2 -5 -2.5 -9t-2.5 -9q-2 -70 2.5 -145.5t17.5 -144.5q0 -6 -6.5 -8.5t-15.5 -2.5q-10 0 -18 3t-10 8zM70 49q16 8 41.5 9.5t54.5 1.5q17 22 27 47.5
t10 45.5q0 18 -10.5 22t-15.5 4q-17 0 -32 -11t-28.5 -29t-25.5 -41.5t-21 -48.5zM150 42q-50 -1 -66.5 -6t-16.5 -10q0 -7 8 -9t18 -2q15 0 29.5 7.5t27.5 19.5z" />
    <glyph glyph-name="q" unicode="q" horiz-adv-x="299" 
d="M43 -7q-18 0 -30.5 17t-12.5 44q0 57 11 90t26.5 49.5t32 21t27.5 4.5q16 0 34 -12t25 -29q8 26 14.5 48.5t12.5 42.5q0 2 6 2t13 -1t13.5 -2.5t8.5 -1.5q9 -4 6 -12q-17 -59 -34.5 -126t-32.5 -134t-26.5 -131t-17 -116t-4.5 -89t11 -50q4 -5 8 -5q1 1 6.5 6t13.5 21
q9 17 19 47t15 67t1.5 79t-21.5 83q-1 3 1 7.5t7 4.5q15 0 29.5 11t28 29.5t26.5 43t26 51.5q8 17 14.5 33t10.5 29q4 8 12 6q8 -4 6 -12q-2 -4 -8.5 -22t-17.5 -41q-13 -27 -26 -52.5t-27 -45t-29 -32t-32 -15.5q17 -48 18.5 -94t-5 -85t-18 -69t-22.5 -46
q-8 -11 -17.5 -19.5t-15.5 -8.5q-9 0 -20.5 4.5t-21.5 17t-17 35t-7 59.5t6 85t16 100.5t23 108t26 107.5q-11 -19 -22.5 -37.5t-23.5 -33t-23.5 -23.5t-21.5 -9zM105 201q-7 0 -18 -8.5t-21.5 -26.5t-18 -45.5t-7.5 -66.5q0 -12 3 -22t5 -14q8 2 19.5 14t24.5 31t26.5 42
t25.5 47q0 18 -12.5 33.5t-26.5 15.5z" />
    <glyph glyph-name="r" unicode="r" horiz-adv-x="221" 
d="M57 207q-4 -17 -9 -35t-9.5 -33t-8 -25.5l-4.5 -13.5q-3 -10 -9 -10q-2 0 -3 1h-1q-9 4 -6 11q1 5 5 17.5t9.5 30t11 36.5t10.5 37q-12 14 -21 29.5t-9 32.5t7.5 29.5t19.5 12.5q6 0 13.5 -1.5t14 -7.5t11 -17.5t4.5 -30.5q0 -11 -6 -23.5t-12 -19.5q8 -9 21 -18.5
t25 -19.5t21 -20.5t9 -20.5q0 -11 -3 -22t-7 -22q-5 -16 -12 -40t-10.5 -45.5t-1 -37t15.5 -15.5q16 0 27.5 7.5t21.5 20t18 28t17 31.5q9 17 15.5 33t10.5 29q4 8 11 6q9 -4 6 -12q-1 -4 -7.5 -22t-17.5 -41q-9 -19 -18.5 -38t-21.5 -34t-27 -24.5t-35 -9.5q-39 0 -57 23
q-9 13 -11 30.5t1 37t8.5 39.5t11.5 39q5 17 9 31.5t4 22.5q0 5 -3.5 11.5t-8.5 13t-10.5 12t-9.5 7.5z" />
    <glyph glyph-name="s" unicode="s" horiz-adv-x="185" 
d="M8 236q0 8 8 11t17 3q8 0 15 -2.5t7 -6.5q0 -10 6.5 -24.5t16.5 -32t21 -38t20 -41.5q13 6 35.5 14t46.5 8q10 0 10 -9t-10 -9q-22 0 -43 -8t-32 -13q5 -14 7.5 -27t2.5 -27q0 -37 -22 -65.5t-60 -28.5q-26 0 -40.5 13.5t-14.5 30.5q0 20 9.5 37t22.5 31t26 23.5t20 13.5
q-8 17 -16.5 33t-17.5 32q-5 -21 -9.5 -36t-6.5 -18q-3 -10 -9 -10q-2 0 -3 1h-1q-9 4 -6 11q2 6 8 27.5t14 47.5q-9 18 -15.5 33t-6.5 26zM84 73q-10 -6 -22 -15.5t-22 -21.5t-16.5 -25.5t-6.5 -26.5q0 -11 9.5 -16t18.5 -5q25 0 36.5 19t11.5 49q0 9 -2.5 20t-6.5 22z" />
    <glyph glyph-name="t" unicode="t" horiz-adv-x="182" 
d="M180 394q-17 0 -38.5 2.5t-46.5 6.5q-4 0 -6 1q-9 -78 -16 -158t-9.5 -144.5t1.5 -105.5t17 -41q17 0 41.5 28t42.5 70q8 17 14 33t11 29q2 8 11 6q8 -3 6 -12q-2 -4 -8.5 -22t-17.5 -41q-10 -22 -23 -42.5t-27.5 -37t-29 -26.5t-27.5 -10q-11 0 -23.5 6t-23.5 21.5
t-18.5 42.5t-7.5 69q0 63 7.5 148.5t21.5 193.5q-24 2 -45.5 2.5t-38.5 -2.5q-9 -2 -11 8q-2 8 7 10q19 4 42 3t49 -3q4 31 8 63t9 66q1 7 10 8.5t19.5 -1t18.5 -8.5t8 -14q-4 -28 -7.5 -58.5t-7.5 -62.5q2 0 2.5 -0.5t2.5 -0.5q33 -5 61 -8t41 1q7 4 11 -6q2 -9 -6 -11
q-10 -3 -24 -3z" />
    <glyph glyph-name="u" unicode="u" horiz-adv-x="235" 
d="M45 -10q-12 0 -28.5 15t-16.5 47q0 22 4 48t8.5 49t9 40t5.5 21q2 5 8 5q5 0 11 -2t11 -5.5t8.5 -7.5t2.5 -8q-9 -35 -15 -67t-8.5 -56t-1.5 -39.5t5 -17.5q4 0 12 10t17.5 25.5t20 34t19.5 35.5q6 33 12.5 60t8.5 33q2 5 8 5q5 0 11 -2t11 -5.5t8.5 -7.5t2.5 -8
q-9 -35 -15.5 -67.5t-8 -57.5t2.5 -40t16 -15q9 -1 23 8.5t25 30.5q8 16 14.5 33.5t10.5 30.5q4 8 12 6q8 -3 6 -12q-5 -16 -13.5 -36.5t-20.5 -39t-28 -31t-37 -12.5q-20 0 -37.5 15t-17.5 47v16q-8 -14 -17 -28t-17.5 -25t-17 -18t-14.5 -7z" />
    <glyph glyph-name="v" unicode="v" horiz-adv-x="213" 
d="M168 72q18 0 33 11t27 48q2 10 12 8q8 -3 6 -12q-11 -39 -31 -55.5t-49 -16.5q-7 0 -13 1t-12 3q-6 -10 -14.5 -22t-19 -22.5t-22 -17.5t-23.5 -7q-8 0 -18.5 3.5t-20.5 15.5t-16.5 36.5t-6.5 66.5q0 29 1.5 55t3.5 37q1 4 6 5.5t12 1.5q9 0 17 -2.5t7 -7.5
q-2 -15 -3.5 -41.5t-0.5 -54.5t5 -52t13 -34q5 -5 9 -5q8 0 15.5 5.5t14.5 13.5t13.5 17t10.5 17q-41 25 -41 83q0 20 5.5 35.5t14.5 26t20 16t21 5.5q14 0 24.5 -12t10.5 -37q0 -26 -8.5 -55t-20.5 -53q8 -4 18 -4zM135 87q11 22 18 47.5t7 49.5q0 20 -6 25.5t-10 5.5
q-10 0 -19 -15t-9 -50q0 -43 19 -63z" />
    <glyph glyph-name="w" unicode="w" horiz-adv-x="343" 
d="M49 -20q-23 0 -36 16.5t-13 39.5q0 26 4.5 68.5t21.5 99.5q1 2 6.5 1.5t12.5 -2t13.5 -3t7.5 -1.5q8 -3 6 -12q-4 -14 -10 -40.5t-10.5 -54t-6 -51t4.5 -32.5q2 -2 6 -2q5 0 14.5 13t20 33t21.5 44.5t20 47.5q2 4 7.5 5.5t12.5 1.5q8 0 14.5 -2t6.5 -7q0 -21 2 -44.5
t6.5 -44t11 -34t15.5 -13.5q10 0 22 16t23 42q-22 12 -35 34t-13 51q0 41 21 64t44 23q16 0 26.5 -13.5t10.5 -39.5t-8 -54.5t-20 -53.5q8 -3 18 -3q18 0 33.5 10.5t27.5 47.5q2 10 12 8q8 -3 6 -12q-11 -39 -31 -55.5t-49 -16.5q-12 0 -26 3q-13 -29 -29 -49.5t-33 -20.5
q-22 0 -36 10.5t-22 26.5t-12 35t-5 36q-7 -17 -17.5 -37t-22 -37.5t-23 -29.5t-21.5 -12zM246 150q0 -42 18 -62q11 23 18 48t7 48q0 20 -6.5 25.5t-9.5 5.5q-10 1 -18.5 -16t-8.5 -49z" />
    <glyph glyph-name="x" unicode="x" horiz-adv-x="270" 
d="M-59 -61q-9 0 -9 9t9 9q28 0 52.5 23.5t47.5 57.5q-12 27 -21 54t-15 49.5t-10 39t-5 22.5q-1 4 3 7.5t10.5 6t14 4t13.5 1.5q13 0 14 -6q6 -21 13.5 -52t18.5 -65q3 5 5.5 10t5.5 10q14 25 26.5 46.5t25 37.5t25 25.5t25.5 9.5q9 0 9 -9q0 -10 -9 -10t-19.5 -9.5
t-21.5 -25t-22.5 -35t-22.5 -39.5q-5 -9 -9.5 -17.5t-9.5 -16.5q9 -26 18.5 -49.5t20.5 -41.5t22.5 -29t24.5 -11q10 0 21 9.5t22 25t22 35t19.5 38.5t15 35.5t9.5 26.5q4 8 12 6q8 -3 6 -12q-6 -19 -20 -51t-32 -62.5t-39 -53t-42 -22.5q-38 0 -66.5 29t-48.5 70
q-24 -34 -50.5 -57t-58.5 -23z" />
    <glyph glyph-name="y" unicode="y" horiz-adv-x="282" 
d="M162 194q1 4 6.5 6t12.5 2q10 0 19 -3.5t8 -10.5q-1 -4 -3 -33t-7.5 -73.5t-14.5 -99.5t-24 -112q40 54 76 117t59 127q2 6 8 6q5 0 8 -3.5t1 -8.5t-8 -22.5t-17 -40.5q-12 -24 -30 -56t-38 -63.5t-39 -58.5t-32 -40q-15 -51 -36 -97.5t-48 -82t-61.5 -56.5t-77.5 -21
q-21 0 -40 17.5t-19 46.5q0 27 23 53.5t56 50.5t69.5 44t64.5 34q14 39 25 80t20 81t16.5 77t12.5 68q-12 -20 -27 -42.5t-30.5 -41t-30.5 -31t-27 -12.5q-5 0 -12.5 3t-14.5 9.5t-12 17t-5 24.5q0 16 5.5 38t13 43t14 37t7.5 19q3 7 16 7q9 0 16.5 -4t5.5 -10
q-6 -14 -13.5 -36.5t-14 -45.5t-9 -42t2.5 -26q2 -5 10 -5q9 0 23 14t29.5 36t31.5 47.5t28 49.5q3 14 3 23zM68 -212q-27 -14 -59 -32.5t-60 -39.5t-47 -42.5t-19 -40.5q0 -17 8 -25t17 -8q25 0 48 14.5t43 40t37 60t32 73.5z" />
    <glyph glyph-name="z" unicode="z" horiz-adv-x="286" 
d="M217 -90q0 -62 -18.5 -119.5t-49 -102t-70 -71.5t-81.5 -27q-25 0 -40.5 15.5t-15.5 43.5q0 26 15.5 56t39 59.5t51.5 57.5t53 50t43 36.5t22 17.5q-3 37 -14.5 46.5t-25.5 9.5q-30 0 -54 -17t-41 -39q-3 -3 -7 -3q-2 0 -11 8.5t-11 10.5q-8 6 -1 13q60 78 93 141.5
t34 95.5q1 8 -3 15.5t-15 7.5q-19 0 -35.5 -12.5t-25.5 -38.5q-13 -34 -17.5 -47.5l-5.5 -16.5q-4 -10 -10 -10q-1 0 -2 1h-1q-8 3 -5 11q2 9 7 21t14 38q16 44 40.5 60t49.5 16q7 0 16.5 -2.5t18.5 -8.5t15 -16.5t6 -25.5q0 -39 -26 -87.5t-69 -106.5q11 5 22.5 8t23.5 3
q28 0 48.5 -12t31.5 -32q13 11 26.5 30.5t25.5 42t22 45.5t16 40q1 3 4.5 5t6.5 1q9 -4 6 -12q-2 -4 -8 -22t-17 -41q-6 -15 -16 -32t-21 -32t-21.5 -26.5t-16.5 -16.5q4 -12 4 -29zM-13 -380q35 0 66.5 31t56 75t40 92.5t16.5 84.5q-17 -13 -51 -42.5t-68.5 -66
t-60.5 -75.5t-26 -70q0 -11 8.5 -20t18.5 -9z" />
    <glyph glyph-name="braceleft" unicode="{" horiz-adv-x="254" 
d="M194 -60q-7 0 -23.5 4.5t-32.5 21.5t-28.5 51t-12.5 92q0 49 -3.5 79t-9 47t-12 23.5t-13.5 8.5q-9 4 -9 9q0 7 9 9q17 4 25.5 25.5t11.5 50.5t2.5 60.5t-1.5 56.5q0 48 9.5 74.5t21.5 39t23 15t14 2.5q9 0 9 -10q0 -2 -3.5 -4.5t-7 -15t-7 -40t-3.5 -80.5
q0 -52 -7 -97.5t-33 -73.5q-4 -3 -7.5 -6t-7.5 -5q4 -3 7.5 -5.5t7.5 -6.5q23 -24 28.5 -65t5.5 -88q0 -48 5 -78t12.5 -47t15.5 -23t14 -6q9 0 9 -9t-9 -9z" />
    <glyph glyph-name="bar" unicode="|" horiz-adv-x="252" 
d="M151 627q0 -13 -1 -35t-2 -51q-2 -41 -4 -94.5t-4.5 -112t-4.5 -118t-3 -111.5t-1 -92.5t2 -62.5q2 -10 -8 -10h-1q-1 0 -6.5 0.5t-11 2.5t-10 5.5t-4.5 9.5q-2 22 -2 62.5t1 91.5t3 110t4 117.5t4 113.5t4 99q2 29 4 46t3 29q0 7 6 10t13 3q8 0 13.5 -3t5.5 -10z" />
    <glyph glyph-name="braceright" unicode="}" horiz-adv-x="270" 
d="M79 -70q-9 0 -9 9t9 9q5 0 12.5 7.5t14.5 29t12 60t5 99.5q0 43 11.5 84t42.5 72q-29 17 -44.5 48t-15.5 79q2 76 -9.5 119.5t-48.5 43.5q-9 0 -9 9t9 9q53 0 83 -37t30 -121q0 -32 2 -53.5t6.5 -37.5t11.5 -27t18 -22q3 -3 6 -4t3 -5t-3 -5.5t-6 -3.5q-5 -6 -10.5 -23
t-10 -40t-7.5 -49.5t-3 -50.5q0 -78 -13 -119t-30 -59t-33.5 -19.5t-23.5 -1.5z" />
    <glyph glyph-name="asciitilde" unicode="~" horiz-adv-x="471" 
d="M291 110q-26 0 -49 6t-46 13q-20 7 -38.5 12t-36.5 5q-17 0 -33 -6.5t-32 -22.5q-7 -7 -13 0q-8 6 0 12q20 20 39.5 27.5t39.5 7.5t40 -5.5t40 -11.5q22 -7 44 -13t45 -6q26 0 54.5 11.5t59.5 42.5q7 7 13 0q7 -6 0 -13q-34 -34 -66 -46.5t-61 -12.5z" />
    <glyph glyph-name="cent" unicode="&#xa2;" horiz-adv-x="270" 
d="M125 -50h-1q-10 0 -8 10l3 37q-13 1 -27 6t-25.5 15.5t-19 26.5t-7.5 39q0 46 10 78.5t26 53.5t34.5 32.5t36.5 14.5l3 43q2 8 10 8q9 0 9 -10l-4 -39q17 -1 33.5 -16t16.5 -36q0 -9 -9 -9q-10 0 -10 9q0 14 -11 24t-20 10q-11 0 -24.5 -13t-25 -36t-19.5 -54.5t-8 -67.5
q0 -31 15 -43.5t28 -12.5q24 0 39.5 10t24.5 22.5t12.5 24t3.5 14.5q1 3 4 5.5t7 1.5q9 -2 7 -11q-2 -11 -9 -26t-18 -28.5t-27.5 -23.5t-37.5 -12l-3 -39q0 -8 -9 -8z" />
    <glyph glyph-name="sterling" unicode="&#xa3;" horiz-adv-x="425" 
d="M286 -20q-24 0 -50.5 2.5t-53.5 6.5q-27 3 -53.5 5.5t-50.5 2.5q-8 0 -10 10q-2 9 8 9q14 0 21 18.5t10.5 53t5 83t3.5 108.5q-21 1 -41 2t-36 1q-9 0 -9 9t9 9q17 0 36.5 -0.5t41.5 -1.5q1 8 1.5 17t0.5 18q5 77 17.5 125.5t30.5 76t40 37.5t45 10q14 0 29 -8.5
t28.5 -22.5t23 -33.5t12.5 -42.5q0 -9 -9 -9q-8 0 -10 9q-2 18 -9.5 34.5t-18 28.5t-22 19t-22.5 7q-17 0 -27.5 -20.5t-16 -53.5t-8 -74.5t-4.5 -84.5q0 -9 -0.5 -18t-1.5 -18q26 -1 47.5 0t33.5 5q9 2 11 -7q4 -9 -6 -11q-22 -6 -68 -6h-9t-9 1q-2 -42 -6 -83t-11.5 -76
t-20 -62.5t-32.5 -42.5q14 -1 28 -2.5t28 -3.5l52 -6t49 -3q26 0 46 4.5t32 16.5q19 19 15 59q-2 9 8 9t10 -9q5 -48 -20 -73q-15 -14 -37.5 -19.5t-50.5 -5.5z" />
    <glyph glyph-name="yen" unicode="&#xa5;" horiz-adv-x="510" 
d="M225 15q-4 38 -5 75t-1 75q-30 0 -61.5 -1.5t-61.5 -4.5h-1q-9 0 -9 9q-1 3 1.5 6t6.5 3q30 3 62 4.5t63 1.5q-1 25 -3 42t-5 28h-69t-47 -2q-9 0 -9 9t8 9q16 2 46 2h65q-2 5 -4 8l-4 6q-16 24 -39.5 64l-47 80t-42 71t-23.5 37q-6 6 -4.5 14t8.5 15.5t16 12.5t18 5
t14 -5q4 -4 16.5 -23t30 -45.5t37.5 -59t39.5 -63t36.5 -57.5t27 -43l169 286q5 7 12 3t4 -13l-174 -293q45 -1 77.5 -1.5t36.5 -0.5q9 0 9 -9t-10 -9q-1 0 -35 0.5t-82 1.5q2 -18 3 -35t1 -35q50 -2 81.5 -4t32.5 -2q9 0 9 -9q-2 -9 -10 -9q-1 0 -32.5 2t-79.5 3
q1 -16 1.5 -35.5t0.5 -40t-0.5 -40t-1.5 -34.5q0 -7 -10.5 -10.5t-24.5 -3.5t-25 3.5t-11 11.5z" />
    <glyph glyph-name="dieresis" unicode="&#xa8;" horiz-adv-x="260" 
d="M118 588q0 -15 -10.5 -25.5t-25.5 -10.5t-25.5 10.5t-10.5 25.5t10.5 25.5t25.5 10.5t25.5 -10.5t10.5 -25.5zM213 588q0 -15 -10.5 -25.5t-25.5 -10.5t-25.5 10.5t-10.5 25.5t10.5 25.5t25.5 10.5t25.5 -10.5t10.5 -25.5z" />
    <glyph glyph-name="acute" unicode="&#xb4;" horiz-adv-x="178" 
d="M62 523q-3 0 -5 1q-8 6 -2 13l39 104q3 3 9 3q5 0 11 -2t11 -5t7.5 -6.5t0.5 -6.5l-63 -97q-3 -4 -8 -4z" />
    <glyph glyph-name="cedilla" unicode="&#xb8;" horiz-adv-x="177" 
d="M44 -151q-9 0 -9 9t9 9q23 0 43.5 16t20.5 42q0 15 -10 26.5t-20 11.5q-17 0 -23 -4t-14 -4q-2 0 -5 5q-1 3 -0.5 10.5t7.5 28.5q2 5 3 10t3 8q2 4 3 8t4.5 6t6.5 0q8 -3 6 -12q-5 -11 -8.5 -23.5t-5.5 -20.5q5 2 12.5 3.5t19.5 1.5q25 0 42 -18t17 -44q0 -20 -10 -33
t-25 -21t-33 -11.5t-34 -3.5z" />
    <glyph glyph-name="Agrave" unicode="&#xc0;" horiz-adv-x="545" 
d="M9 90q-9 0 -9 9q0 35 14.5 57.5t39 36t57 20t69.5 9.5l12 36q20 57 39.5 111t43 95t52.5 66t66 25q11 0 23.5 -2.5t23.5 -9.5t18.5 -20t7.5 -33q0 -10 -3.5 -34t-9 -57.5t-12.5 -73.5t-14 -82q34 9 56 29q7 7 13 0q7 -6 0 -13q-14 -14 -32 -22.5t-40 -13.5
q-11 -62 -18 -118t-7 -91q0 -24 11.5 -44t29.5 -20q20 0 38 19t34 45.5t27.5 54.5t17.5 46q2 8 11 6q8 -3 6 -12q-2 -4 -8.5 -22t-17.5 -41q-6 -12 -15.5 -33t-25 -42t-37 -36t-50.5 -15q-26 0 -42.5 10t-26 26.5t-13 37t-3.5 42.5q0 28 7.5 75t17.5 102q-23 -2 -46.5 -3
t-49.5 -2q-18 -1 -35.5 -1.5t-34.5 -1.5q-14 -40 -29 -79.5t-32 -75.5t-37 -66.5t-44 -54.5q-1 -3 -6 -3q-4 0 -7 3q-6 6 0 13q45 45 76.5 114.5t58.5 147.5q-33 -3 -61.5 -9t-49.5 -18t-33 -30.5t-12 -47.5q0 -9 -9 -9zM200 224q16 1 31.5 1.5t32.5 0.5q26 1 51 2t49 4
q10 54 20 108.5t16 98t5.5 71t-12.5 27.5q-33 0 -58.5 -24t-47 -63.5t-40.5 -91t-37 -106.5q-2 -8 -5 -14.5t-5 -13.5zM410 596q-4 0 -8 4l-63 97q-2 3 0.5 6.5t7.5 6.5t11 5t11 2q6 0 9 -3l39 -104q6 -8 -2 -12q-4 -2 -5 -2z" />
    <glyph glyph-name="Aacute" unicode="&#xc1;" horiz-adv-x="545" 
d="M9 90q-9 0 -9 9q0 35 14.5 57.5t39 36t57 20t69.5 9.5l12 36q20 57 39.5 111t43 95t52.5 66t66 25q11 0 23.5 -2.5t23.5 -9.5t18.5 -20t7.5 -33q0 -10 -3.5 -34t-9 -57.5t-12.5 -73.5t-14 -82q34 9 56 29q7 7 13 0q7 -6 0 -13q-14 -14 -32 -22.5t-40 -13.5
q-11 -62 -18 -118t-7 -91q0 -24 11.5 -44t29.5 -20q20 0 38 19t34 45.5t27.5 54.5t17.5 46q2 8 11 6q8 -3 6 -12q-2 -4 -8.5 -22t-17.5 -41q-6 -12 -15.5 -33t-25 -42t-37 -36t-50.5 -15q-26 0 -42.5 10t-26 26.5t-13 37t-3.5 42.5q0 28 7.5 75t17.5 102q-23 -2 -46.5 -3
t-49.5 -2q-18 -1 -35.5 -1.5t-34.5 -1.5q-14 -40 -29 -79.5t-32 -75.5t-37 -66.5t-44 -54.5q-1 -3 -6 -3q-4 0 -7 3q-6 6 0 13q45 45 76.5 114.5t58.5 147.5q-33 -3 -61.5 -9t-49.5 -18t-33 -30.5t-12 -47.5q0 -9 -9 -9zM200 224q16 1 31.5 1.5t32.5 0.5q26 1 51 2t49 4
q10 54 20 108.5t16 98t5.5 71t-12.5 27.5q-33 0 -58.5 -24t-47 -63.5t-40.5 -91t-37 -106.5q-2 -8 -5 -14.5t-5 -13.5zM385 599q-3 0 -5 1q-8 6 -2 13l39 104q3 3 9 3q5 0 11 -2t11 -5t7.5 -6.5t0.5 -6.5l-63 -97q-3 -4 -8 -4z" />
    <glyph glyph-name="Acircumflex" unicode="&#xc2;" horiz-adv-x="545" 
d="M9 90q-9 0 -9 9q0 35 14.5 57.5t39 36t57 20t69.5 9.5l12 36q20 57 39.5 111t43 95t52.5 66t66 25q11 0 23.5 -2.5t23.5 -9.5t18.5 -20t7.5 -33q0 -10 -3.5 -34t-9 -57.5t-12.5 -73.5t-14 -82q34 9 56 29q7 7 13 0q7 -6 0 -13q-14 -14 -32 -22.5t-40 -13.5
q-11 -62 -18 -118t-7 -91q0 -24 11.5 -44t29.5 -20q20 0 38 19t34 45.5t27.5 54.5t17.5 46q2 8 11 6q8 -3 6 -12q-2 -4 -8.5 -22t-17.5 -41q-6 -12 -15.5 -33t-25 -42t-37 -36t-50.5 -15q-26 0 -42.5 10t-26 26.5t-13 37t-3.5 42.5q0 28 7.5 75t17.5 102q-23 -2 -46.5 -3
t-49.5 -2q-18 -1 -35.5 -1.5t-34.5 -1.5q-14 -40 -29 -79.5t-32 -75.5t-37 -66.5t-44 -54.5q-1 -3 -6 -3q-4 0 -7 3q-6 6 0 13q45 45 76.5 114.5t58.5 147.5q-33 -3 -61.5 -9t-49.5 -18t-33 -30.5t-12 -47.5q0 -9 -9 -9zM200 224q16 1 31.5 1.5t32.5 0.5q26 1 51 2t49 4
q10 54 20 108.5t16 98t5.5 71t-12.5 27.5q-33 0 -58.5 -24t-47 -63.5t-40.5 -91t-37 -106.5q-2 -8 -5 -14.5t-5 -13.5zM381 701q5 0 22 -10.5t41 -39.5q14 -17 24 -31t11 -14q6 -8 -2.5 -16t-19.5 -8q-7 0 -12 5q0 2 -9 14t-21 26.5t-23 26.5t-15 15q-4 -3 -13 -11.5
t-20 -19.5t-23.5 -24.5t-24.5 -26.5q-7 -8 -14 -1t-1 14q1 0 13.5 13.5t28.5 29.5q33 34 42.5 45t12.5 12q1 0 1.5 0.5t1.5 0.5z" />
    <glyph glyph-name="Atilde" unicode="&#xc3;" horiz-adv-x="545" 
d="M9 90q-9 0 -9 9q0 35 14.5 57.5t39 36t57 20t69.5 9.5l12 36q20 57 39.5 111t43 95t52.5 66t66 25q11 0 23.5 -2.5t23.5 -9.5t18.5 -20t7.5 -33q0 -10 -3.5 -34t-9 -57.5t-12.5 -73.5t-14 -82q34 9 56 29q7 7 13 0q7 -6 0 -13q-14 -14 -32 -22.5t-40 -13.5
q-11 -62 -18 -118t-7 -91q0 -24 11.5 -44t29.5 -20q20 0 38 19t34 45.5t27.5 54.5t17.5 46q2 8 11 6q8 -3 6 -12q-2 -4 -8.5 -22t-17.5 -41q-6 -12 -15.5 -33t-25 -42t-37 -36t-50.5 -15q-26 0 -42.5 10t-26 26.5t-13 37t-3.5 42.5q0 28 7.5 75t17.5 102q-23 -2 -46.5 -3
t-49.5 -2q-18 -1 -35.5 -1.5t-34.5 -1.5q-14 -40 -29 -79.5t-32 -75.5t-37 -66.5t-44 -54.5q-1 -3 -6 -3q-4 0 -7 3q-6 6 0 13q45 45 76.5 114.5t58.5 147.5q-33 -3 -61.5 -9t-49.5 -18t-33 -30.5t-12 -47.5q0 -9 -9 -9zM200 224q16 1 31.5 1.5t32.5 0.5q26 1 51 2t49 4
q10 54 20 108.5t16 98t5.5 71t-12.5 27.5q-33 0 -58.5 -24t-47 -63.5t-40.5 -91t-37 -106.5q-2 -8 -5 -14.5t-5 -13.5zM442 600q-14 0 -25 6.5t-22 14.5q-10 7 -17.5 11.5t-15.5 4.5q-10 0 -24 -12q-6 -8 -12 0q-8 6 0 12q18 18 36 18q13 0 23.5 -6t20.5 -14q9 -7 17.5 -12
t18.5 -5q16 0 35 19q6 8 12 0q7 -6 1 -12q-24 -25 -48 -25z" />
    <glyph glyph-name="Adieresis" unicode="&#xc4;" horiz-adv-x="545" 
d="M9 90q-9 0 -9 9q0 35 14.5 57.5t39 36t57 20t69.5 9.5l12 36q20 57 39.5 111t43 95t52.5 66t66 25q11 0 23.5 -2.5t23.5 -9.5t18.5 -20t7.5 -33q0 -10 -3.5 -34t-9 -57.5t-12.5 -73.5t-14 -82q34 9 56 29q7 7 13 0q7 -6 0 -13q-14 -14 -32 -22.5t-40 -13.5
q-11 -62 -18 -118t-7 -91q0 -24 11.5 -44t29.5 -20q20 0 38 19t34 45.5t27.5 54.5t17.5 46q2 8 11 6q8 -3 6 -12q-2 -4 -8.5 -22t-17.5 -41q-6 -12 -15.5 -33t-25 -42t-37 -36t-50.5 -15q-26 0 -42.5 10t-26 26.5t-13 37t-3.5 42.5q0 28 7.5 75t17.5 102q-23 -2 -46.5 -3
t-49.5 -2q-18 -1 -35.5 -1.5t-34.5 -1.5q-14 -40 -29 -79.5t-32 -75.5t-37 -66.5t-44 -54.5q-1 -3 -6 -3q-4 0 -7 3q-6 6 0 13q45 45 76.5 114.5t58.5 147.5q-33 -3 -61.5 -9t-49.5 -18t-33 -30.5t-12 -47.5q0 -9 -9 -9zM200 224q16 1 31.5 1.5t32.5 0.5q26 1 51 2t49 4
q10 54 20 108.5t16 98t5.5 71t-12.5 27.5q-33 0 -58.5 -24t-47 -63.5t-40.5 -91t-37 -106.5q-2 -8 -5 -14.5t-5 -13.5zM387 631q0 -15 -10.5 -25.5t-25.5 -10.5t-25.5 10.5t-10.5 25.5t10.5 25.5t25.5 10.5t25.5 -10.5t10.5 -25.5zM482 631q0 -15 -10.5 -25.5t-25.5 -10.5
t-25.5 10.5t-10.5 25.5t10.5 25.5t25.5 10.5t25.5 -10.5t10.5 -25.5z" />
    <glyph glyph-name="Aring" unicode="&#xc5;" horiz-adv-x="545" 
d="M9 90q-9 0 -9 9q0 35 14.5 57.5t39 36t57 20t69.5 9.5l12 36q20 57 39.5 111t43 95t52.5 66t66 25q11 0 23.5 -2.5t23.5 -9.5t18.5 -20t7.5 -33q0 -10 -3.5 -34t-9 -57.5t-12.5 -73.5t-14 -82q34 9 56 29q7 7 13 0q7 -6 0 -13q-14 -14 -32 -22.5t-40 -13.5
q-11 -62 -18 -118t-7 -91q0 -24 11.5 -44t29.5 -20q20 0 38 19t34 45.5t27.5 54.5t17.5 46q2 8 11 6q8 -3 6 -12q-2 -4 -8.5 -22t-17.5 -41q-6 -12 -15.5 -33t-25 -42t-37 -36t-50.5 -15q-26 0 -42.5 10t-26 26.5t-13 37t-3.5 42.5q0 28 7.5 75t17.5 102q-23 -2 -46.5 -3
t-49.5 -2q-18 -1 -35.5 -1.5t-34.5 -1.5q-14 -40 -29 -79.5t-32 -75.5t-37 -66.5t-44 -54.5q-1 -3 -6 -3q-4 0 -7 3q-6 6 0 13q45 45 76.5 114.5t58.5 147.5q-33 -3 -61.5 -9t-49.5 -18t-33 -30.5t-12 -47.5q0 -9 -9 -9zM200 224q16 1 31.5 1.5t32.5 0.5q26 1 51 2t49 4
q10 54 20 108.5t16 98t5.5 71t-12.5 27.5q-33 0 -58.5 -24t-47 -63.5t-40.5 -91t-37 -106.5q-2 -8 -5 -14.5t-5 -13.5zM405 594q-17 0 -32.5 13t-15.5 36q0 17 12.5 33t32.5 16q18 0 31.5 -14.5t13.5 -34.5q0 -18 -11 -33.5t-31 -15.5zM402 668q-9 0 -15 -8.5t-6 -16.5
q0 -12 8 -18.5t16 -6.5t13 8t5 17q0 10 -6.5 17.5t-14.5 7.5z" />
    <glyph glyph-name="AE" unicode="&#xc6;" horiz-adv-x="755" 
d="M742 53q9 16 14.5 32.5t10.5 29.5q1 3 4.5 5t6.5 1q9 -4 6 -12q-2 -5 -7.5 -23t-17.5 -40q-13 -22 -30.5 -43t-40.5 -37t-50.5 -26t-59.5 -10q-43 0 -83 14t-71 40t-49.5 64.5t-18.5 86.5q0 9 0.5 18t1.5 17q2 10 3 21t3 22q-23 -2 -48.5 -3t-51.5 -2q-18 -1 -35.5 -1.5
t-34.5 -1.5q-14 -40 -29 -79.5t-32 -75.5t-37 -66.5t-44 -54.5q-1 -3 -6 -3q-4 0 -7 3q-6 6 0 13q45 45 76.5 114.5t58.5 147.5q-33 -3 -61.5 -9t-49.5 -18t-33 -30.5t-12 -47.5q0 -9 -9 -9t-9 9q0 35 14.5 57.5t39 36t57 20t69.5 9.5l12 36q20 57 39.5 111t43 95t52.5 66
t66 25q11 0 23.5 -2.5t23.5 -9.5t18.5 -20t7.5 -33q0 -10 -2.5 -29t-6 -44t-8 -54.5t-9.5 -61.5q32 23 71 34t77 11q-4 0 -23 5t-40.5 18t-38.5 36.5t-17 60.5q0 28 11.5 50t31.5 37.5t47 24t58 8.5q32 0 53.5 -13t35 -29t19.5 -29.5l6 -13.5q2 -9 -8 -11q-8 0 -10 8
q0 1 -3.5 11.5t-13 23t-26 22.5t-42.5 10q-15 0 -29 -6t-25 -18t-18 -30.5t-7 -44.5q0 -32 13.5 -55t30.5 -37q19 -16 43 -26q4 -1 5.5 -4t1.5 -6q-2 -8 -9 -8q-33 0 -65 -11.5t-57.5 -35.5t-41 -61t-15.5 -87q0 -28 8.5 -58.5t25.5 -56t42.5 -42.5t59.5 -17q55 0 92.5 28
t58.5 64zM200 224q16 1 31.5 1.5t32.5 0.5q54 2 103 6q8 49 18 102.5t16.5 98.5t6 74.5t-14.5 29.5q-33 0 -58.5 -24t-47 -63.5t-40.5 -91t-37 -106.5q-2 -8 -5 -14.5t-5 -13.5z" />
    <glyph glyph-name="Ccedilla" unicode="&#xc7;" horiz-adv-x="339" 
d="M326 54q8 16 14 32t11 29q2 10 11 6q4 -1 5.5 -4.5t0.5 -6.5q-11 -32 -28.5 -66t-41.5 -61.5t-55 -45t-69 -17.5q-20 0 -49.5 3.5t-57.5 25.5t-47.5 69.5t-19.5 134.5q0 114 17.5 195.5t46 134t65 77.5t75.5 25q21 0 36.5 -10.5t25 -27t14.5 -37.5t5 -42q0 -9 -9 -9t-9 9
q0 18 -4 35.5t-11.5 31.5t-19.5 22.5t-28 8.5q-19 0 -40.5 -27t-39.5 -79.5t-30 -130t-12 -177.5q0 -59 9 -99.5t23 -66t30 -37t30 -11.5q25 0 47.5 10t42 26.5t35.5 37t27 42.5zM122 -239q-9 0 -9 9t9 9q23 0 43.5 16t20.5 42q0 15 -10 26.5t-20 11.5q-17 0 -23 -4t-14 -4
q-2 0 -5 5q-1 3 -0.5 10.5t7.5 28.5q2 5 3 10t3 8q2 4 3 8t4.5 6t6.5 0q8 -3 6 -12q-5 -11 -8.5 -23.5t-5.5 -20.5q5 2 12.5 3.5t19.5 1.5q25 0 42 -18t17 -44q0 -20 -10 -33t-25 -21t-33 -11.5t-34 -3.5z" />
    <glyph glyph-name="Egrave" unicode="&#xc8;" horiz-adv-x="399" 
d="M386 53q9 16 14.5 32.5t10.5 29.5q4 8 11 6q9 -4 6 -12q-1 -5 -7 -23t-18 -40q-13 -22 -30.5 -43t-40.5 -37t-50.5 -26t-59.5 -10q-43 0 -83 14t-71 40t-49.5 64.5t-18.5 86.5q0 55 21 95t54.5 65.5t75 38t81.5 12.5q-4 0 -23 5t-40 18t-38 36.5t-17 60.5q0 28 11.5 50
t31.5 37.5t46.5 24t57.5 8.5q32 0 54 -13t35.5 -29t19 -29.5l5.5 -13.5q2 -9 -7 -11t-11 8q0 1 -3.5 11.5t-13 23t-25.5 22.5t-42 10q-30 0 -55 -24t-25 -75q0 -33 13.5 -55.5t30 -36.5t30.5 -20l14 -6q6 -3 6 -10q-2 -8 -9 -8q-32 0 -65 -11.5t-60 -35.5t-44 -61t-17 -87
q0 -28 9.5 -58.5t28 -56t45.5 -42.5t61 -17q54 0 91.5 28t58.5 64zM265 625q-4 0 -8 4l-63 97q-2 3 0.5 6.5t7.5 6.5t11 5t11 2q6 0 9 -3l39 -104q6 -8 -2 -12q-4 -2 -5 -2z" />
    <glyph glyph-name="Eacute" unicode="&#xc9;" horiz-adv-x="399" 
d="M386 53q9 16 14.5 32.5t10.5 29.5q4 8 11 6q9 -4 6 -12q-1 -5 -7 -23t-18 -40q-13 -22 -30.5 -43t-40.5 -37t-50.5 -26t-59.5 -10q-43 0 -83 14t-71 40t-49.5 64.5t-18.5 86.5q0 55 21 95t54.5 65.5t75 38t81.5 12.5q-4 0 -23 5t-40 18t-38 36.5t-17 60.5q0 28 11.5 50
t31.5 37.5t46.5 24t57.5 8.5q32 0 54 -13t35.5 -29t19 -29.5l5.5 -13.5q2 -9 -7 -11t-11 8q0 1 -3.5 11.5t-13 23t-25.5 22.5t-42 10q-30 0 -55 -24t-25 -75q0 -33 13.5 -55.5t30 -36.5t30.5 -20l14 -6q6 -3 6 -10q-2 -8 -9 -8q-32 0 -65 -11.5t-60 -35.5t-44 -61t-17 -87
q0 -28 9.5 -58.5t28 -56t45.5 -42.5t61 -17q54 0 91.5 28t58.5 64zM236 620q-3 0 -5 1q-8 6 -2 13l39 104q3 3 9 3q5 0 11 -2t11 -5t7.5 -6.5t0.5 -6.5l-63 -97q-3 -4 -8 -4z" />
    <glyph glyph-name="Ecircumflex" unicode="&#xca;" horiz-adv-x="399" 
d="M386 53q9 16 14.5 32.5t10.5 29.5q4 8 11 6q9 -4 6 -12q-1 -5 -7 -23t-18 -40q-13 -22 -30.5 -43t-40.5 -37t-50.5 -26t-59.5 -10q-43 0 -83 14t-71 40t-49.5 64.5t-18.5 86.5q0 55 21 95t54.5 65.5t75 38t81.5 12.5q-4 0 -23 5t-40 18t-38 36.5t-17 60.5q0 28 11.5 50
t31.5 37.5t46.5 24t57.5 8.5q32 0 54 -13t35.5 -29t19 -29.5l5.5 -13.5q2 -9 -7 -11t-11 8q0 1 -3.5 11.5t-13 23t-25.5 22.5t-42 10q-30 0 -55 -24t-25 -75q0 -33 13.5 -55.5t30 -36.5t30.5 -20l14 -6q6 -3 6 -10q-2 -8 -9 -8q-32 0 -65 -11.5t-60 -35.5t-44 -61t-17 -87
q0 -28 9.5 -58.5t28 -56t45.5 -42.5t61 -17q54 0 91.5 28t58.5 64zM257 738q5 0 22 -10.5t41 -39.5q14 -17 24 -31t11 -14q6 -8 -2.5 -16t-19.5 -8q-7 0 -12 5q0 2 -9 14t-21 26.5t-23 26.5t-15 15q-4 -3 -13 -11.5t-20 -19.5t-23.5 -24.5t-24.5 -26.5q-7 -8 -14 -1t-1 14
q1 0 13.5 13.5t28.5 29.5q33 34 42.5 45t12.5 12q1 0 1.5 0.5t1.5 0.5z" />
    <glyph glyph-name="Edieresis" unicode="&#xcb;" horiz-adv-x="399" 
d="M386 53q9 16 14.5 32.5t10.5 29.5q4 8 11 6q9 -4 6 -12q-1 -5 -7 -23t-18 -40q-13 -22 -30.5 -43t-40.5 -37t-50.5 -26t-59.5 -10q-43 0 -83 14t-71 40t-49.5 64.5t-18.5 86.5q0 55 21 95t54.5 65.5t75 38t81.5 12.5q-4 0 -23 5t-40 18t-38 36.5t-17 60.5q0 28 11.5 50
t31.5 37.5t46.5 24t57.5 8.5q32 0 54 -13t35.5 -29t19 -29.5l5.5 -13.5q2 -9 -7 -11t-11 8q0 1 -3.5 11.5t-13 23t-25.5 22.5t-42 10q-30 0 -55 -24t-25 -75q0 -33 13.5 -55.5t30 -36.5t30.5 -20l14 -6q6 -3 6 -10q-2 -8 -9 -8q-32 0 -65 -11.5t-60 -35.5t-44 -61t-17 -87
q0 -28 9.5 -58.5t28 -56t45.5 -42.5t61 -17q54 0 91.5 28t58.5 64zM254 660q0 -15 -10.5 -25.5t-25.5 -10.5t-25.5 10.5t-10.5 25.5t10.5 25.5t25.5 10.5t25.5 -10.5t10.5 -25.5zM349 660q0 -15 -10.5 -25.5t-25.5 -10.5t-25.5 10.5t-10.5 25.5t10.5 25.5t25.5 10.5
t25.5 -10.5t10.5 -25.5z" />
    <glyph glyph-name="Igrave" unicode="&#xcc;" horiz-adv-x="250" 
d="M48 -100q-19 0 -36.5 9t-31 25t-21.5 37.5t-9 46.5q0 9 8 9q10 0 10 -9q0 -16 4.5 -32t12.5 -28.5t21.5 -20.5t31.5 -8q21 0 38 20t30.5 54t25 78.5t20.5 93.5t16.5 99t14.5 94q8 55 16.5 105.5t18.5 90.5q-17 -14 -36.5 -22.5t-38.5 -16.5q-35 -14 -55.5 -28.5
t-19.5 -43.5q0 -9 -9 -9t-9 9q-1 20 6 34t19 24t28 17t33 14q26 11 51.5 24t42.5 39q3 5 9 7t14 2q14 0 25.5 -5t9.5 -12q-11 -42 -23 -102.5t-23 -129.5q-21 -137 -40.5 -227t-41 -143t-48.5 -74t-64 -21zM258 642q-4 0 -8 4l-63 97q-2 3 0.5 6.5t7.5 6.5t11 5t11 2
q6 0 9 -3l39 -104q6 -8 -2 -12q-4 -2 -5 -2z" />
    <glyph glyph-name="Iacute" unicode="&#xcd;" horiz-adv-x="250" 
d="M48 -100q-19 0 -36.5 9t-31 25t-21.5 37.5t-9 46.5q0 9 8 9q10 0 10 -9q0 -16 4.5 -32t12.5 -28.5t21.5 -20.5t31.5 -8q21 0 38 20t30.5 54t25 78.5t20.5 93.5t16.5 99t14.5 94q8 55 16.5 105.5t18.5 90.5q-17 -14 -36.5 -22.5t-38.5 -16.5q-35 -14 -55.5 -28.5
t-19.5 -43.5q0 -9 -9 -9t-9 9q-1 20 6 34t19 24t28 17t33 14q26 11 51.5 24t42.5 39q3 5 9 7t14 2q14 0 25.5 -5t9.5 -12q-11 -42 -23 -102.5t-23 -129.5q-21 -137 -40.5 -227t-41 -143t-48.5 -74t-64 -21zM254 650q-3 0 -5 1q-8 6 -2 13l39 104q3 3 9 3q5 0 11 -2t11 -5
t7.5 -6.5t0.5 -6.5l-63 -97q-3 -4 -8 -4z" />
    <glyph glyph-name="Icircumflex" unicode="&#xce;" horiz-adv-x="250" 
d="M48 -100q-19 0 -36.5 9t-31 25t-21.5 37.5t-9 46.5q0 9 8 9q10 0 10 -9q0 -16 4.5 -32t12.5 -28.5t21.5 -20.5t31.5 -8q21 0 38 20t30.5 54t25 78.5t20.5 93.5t16.5 99t14.5 94q8 55 16.5 105.5t18.5 90.5q-17 -14 -36.5 -22.5t-38.5 -16.5q-35 -14 -55.5 -28.5
t-19.5 -43.5q0 -9 -9 -9t-9 9q-1 20 6 34t19 24t28 17t33 14q26 11 51.5 24t42.5 39q3 5 9 7t14 2q14 0 25.5 -5t9.5 -12q-11 -42 -23 -102.5t-23 -129.5q-21 -137 -40.5 -227t-41 -143t-48.5 -74t-64 -21zM240 750q5 0 22 -10.5t41 -39.5q14 -17 24 -31t11 -14
q6 -8 -2.5 -16t-19.5 -8q-7 0 -12 5q0 2 -9 14t-21 26.5t-23 26.5t-15 15q-4 -3 -13 -11.5t-20 -19.5t-23.5 -24.5t-24.5 -26.5q-7 -8 -14 -1t-1 14q1 0 13.5 13.5t28.5 29.5q33 34 42.5 45t12.5 12q1 0 1.5 0.5t1.5 0.5z" />
    <glyph glyph-name="Idieresis" unicode="&#xcf;" horiz-adv-x="250" 
d="M48 -100q-19 0 -36.5 9t-31 25t-21.5 37.5t-9 46.5q0 9 8 9q10 0 10 -9q0 -16 4.5 -32t12.5 -28.5t21.5 -20.5t31.5 -8q21 0 38 20t30.5 54t25 78.5t20.5 93.5t16.5 99t14.5 94q8 55 16.5 105.5t18.5 90.5q-17 -14 -36.5 -22.5t-38.5 -16.5q-35 -14 -55.5 -28.5
t-19.5 -43.5q0 -9 -9 -9t-9 9q-1 20 6 34t19 24t28 17t33 14q26 11 51.5 24t42.5 39q3 5 9 7t14 2q14 0 25.5 -5t9.5 -12q-11 -42 -23 -102.5t-23 -129.5q-21 -137 -40.5 -227t-41 -143t-48.5 -74t-64 -21zM243 678q0 -15 -10.5 -25.5t-25.5 -10.5t-25.5 10.5t-10.5 25.5
t10.5 25.5t25.5 10.5t25.5 -10.5t10.5 -25.5zM338 678q0 -15 -10.5 -25.5t-25.5 -10.5t-25.5 10.5t-10.5 25.5t10.5 25.5t25.5 10.5t25.5 -10.5t10.5 -25.5z" />
    <glyph glyph-name="Eth" unicode="&#xd0;" horiz-adv-x="532" 
d="M52 19q-1 28 -0.5 75t2.5 101.5t5 111t5.5 102t4 75t1.5 30.5q1 5 8.5 7.5t18.5 2.5q16 0 30 -4.5t13 -12.5q0 -1 -1.5 -25t-4.5 -62q13 27 30 54t39.5 48.5t49.5 35.5t60 14q18 0 49 -8.5t61.5 -31.5t52.5 -63.5t22 -104.5q0 -78 -12.5 -143.5t-34.5 -119.5
q14 3 31.5 6.5t32.5 6t25 4.5t11 2q8 2 10 -8q0 -10 -8 -10l-13 -2t-30.5 -5.5t-36.5 -7.5t-31 -7q-27 -59 -64.5 -103t-81 -73t-90.5 -43t-93 -14q-19 0 -37 4.5t-31.5 14t-22 24.5t-8.5 36q0 23 16.5 42.5t43.5 35.5q-8 2 -14.5 5.5t-7.5 9.5zM419 386q0 75 -29 115
t-83 40q-36 0 -64.5 -18t-50.5 -45t-37.5 -58t-24.5 -57q-3 -43 -7 -91t-7.5 -95t-7 -88.5t-6.5 -70.5q27 12 59 22t66 18.5t68 15t65 11.5q32 70 45.5 147t13.5 154zM349 65q-46 -10 -101.5 -23.5t-103.5 -30.5t-80 -38t-32 -47q0 -18 7.5 -29.5t19 -18.5t26 -9.5
t28.5 -2.5q38 0 73 18.5t65.5 47t55 64t42.5 69.5zM221 200q-13 3 -39.5 5t-56 2.5t-57.5 0t-44 -2.5q-8 -2 -10 8q0 8 8 10q17 2 45.5 2.5t59 0t58 -2.5t40.5 -5q9 -2 7 -11q-1 -7 -11 -7z" />
    <glyph glyph-name="Ntilde" unicode="&#xd1;" horiz-adv-x="498" 
d="M1 8q-2 75 0.5 142t7 118t8.5 81l4 30q0 5 7 7t17 2q9 0 18.5 -1.5t17.5 -3.5t13 -4.5t5 -4.5l-2.5 -18t-6 -49.5t-6.5 -74.5t-5 -94q10 25 26.5 62.5t38 80.5t46.5 86t52.5 77.5t55.5 56t54 21.5q49 0 71.5 -24t22.5 -60q0 -33 -10.5 -77t-24.5 -95q-7 -27 -15.5 -60
t-15 -66.5t-10.5 -65.5t-3.5 -56.5t7.5 -39.5t22 -15q22 0 40 17t32 41t24.5 50t16.5 44q1 3 4.5 5t6.5 1q9 -4 6 -12q-7 -22 -20 -53t-30.5 -59t-39.5 -47.5t-49 -19.5q-45 0 -72.5 25.5t-27.5 77.5t14 112.5t31 126.5q9 33 17.5 65.5t13 60.5t4.5 49.5t-8 31.5q-7 9 -21 9
q-23 0 -50 -26t-55 -66t-54.5 -88.5t-47.5 -94.5t-35.5 -83t-17.5 -54v-35t1 -36q0 -7 -10.5 -10t-24.5 -3q-16 0 -30 4t-13 12zM397 566q-14 0 -25 6.5t-22 14.5q-10 7 -17.5 11.5t-15.5 4.5q-10 0 -24 -12q-6 -8 -12 0q-8 6 0 12q18 18 36 18q13 0 23.5 -6t20.5 -14
q9 -7 17.5 -12t18.5 -5q16 0 35 19q6 8 12 0q7 -6 1 -12q-24 -25 -48 -25z" />
    <glyph glyph-name="Ograve" unicode="&#xd2;" horiz-adv-x="392" 
d="M146 -100q-25 0 -51 7.5t-47 26t-34.5 50.5t-13.5 80q0 26 4 65.5t11.5 82t18 82t23.5 64.5q-4 2 -5 5q-12 24 -12 49q0 34 13.5 63t36.5 50t55 33t69 12q15 0 44.5 -6t59 -30t51 -71.5t21.5 -130.5q0 -8 -0.5 -17.5t-1.5 -20.5q67 26 125 89q6 7 13 0q2 -2 2.5 -6
t-2.5 -7q-33 -36 -68.5 -59.5t-72.5 -37.5q-5 -35 -15 -76t-25 -82.5t-35 -80t-45 -68.5t-54.5 -48t-64.5 -18zM67 375q9 19 18 25.5t32 6.5q10 0 19.5 -1.5t17 -4.5t11 -6.5t0.5 -7.5q-20 -29 -36 -75q29 -18 66.5 -29t80.5 -11q23 0 46 3t46 11q3 26 3 46q0 74 -18 118
t-43 66.5t-51.5 29t-44.5 6.5q-33 0 -61.5 -10.5t-49.5 -29.5t-32.5 -44.5t-11.5 -55.5q0 -21 8 -37zM276 253q-45 0 -84 11.5t-69 29.5q-14 -44 -23 -93t-12 -94t0.5 -82t14.5 -57q18 -34 54 -34q39 0 73 33.5t61 83.5t45.5 108t27.5 107q-23 -7 -45 -10t-43 -3zM237 586
q-4 0 -8 4l-63 97q-2 3 0.5 6.5t7.5 6.5t11 5t11 2q6 0 9 -3l39 -104q6 -8 -2 -12q-4 -2 -5 -2z" />
    <glyph glyph-name="Oacute" unicode="&#xd3;" horiz-adv-x="392" 
d="M146 -100q-25 0 -51 7.5t-47 26t-34.5 50.5t-13.5 80q0 26 4 65.5t11.5 82t18 82t23.5 64.5q-4 2 -5 5q-12 24 -12 49q0 34 13.5 63t36.5 50t55 33t69 12q15 0 44.5 -6t59 -30t51 -71.5t21.5 -130.5q0 -8 -0.5 -17.5t-1.5 -20.5q67 26 125 89q6 7 13 0q2 -2 2.5 -6
t-2.5 -7q-33 -36 -68.5 -59.5t-72.5 -37.5q-5 -35 -15 -76t-25 -82.5t-35 -80t-45 -68.5t-54.5 -48t-64.5 -18zM67 375q9 19 18 25.5t32 6.5q10 0 19.5 -1.5t17 -4.5t11 -6.5t0.5 -7.5q-20 -29 -36 -75q29 -18 66.5 -29t80.5 -11q23 0 46 3t46 11q3 26 3 46q0 74 -18 118
t-43 66.5t-51.5 29t-44.5 6.5q-33 0 -61.5 -10.5t-49.5 -29.5t-32.5 -44.5t-11.5 -55.5q0 -21 8 -37zM276 253q-45 0 -84 11.5t-69 29.5q-14 -44 -23 -93t-12 -94t0.5 -82t14.5 -57q18 -34 54 -34q39 0 73 33.5t61 83.5t45.5 108t27.5 107q-23 -7 -45 -10t-43 -3zM204 599
q-3 0 -5 1q-8 6 -2 13l39 104q3 3 9 3q5 0 11 -2t11 -5t7.5 -6.5t0.5 -6.5l-63 -97q-3 -4 -8 -4z" />
    <glyph glyph-name="Ocircumflex" unicode="&#xd4;" horiz-adv-x="392" 
d="M146 -100q-25 0 -51 7.5t-47 26t-34.5 50.5t-13.5 80q0 26 4 65.5t11.5 82t18 82t23.5 64.5q-4 2 -5 5q-12 24 -12 49q0 34 13.5 63t36.5 50t55 33t69 12q15 0 44.5 -6t59 -30t51 -71.5t21.5 -130.5q0 -8 -0.5 -17.5t-1.5 -20.5q67 26 125 89q6 7 13 0q2 -2 2.5 -6
t-2.5 -7q-33 -36 -68.5 -59.5t-72.5 -37.5q-5 -35 -15 -76t-25 -82.5t-35 -80t-45 -68.5t-54.5 -48t-64.5 -18zM67 375q9 19 18 25.5t32 6.5q10 0 19.5 -1.5t17 -4.5t11 -6.5t0.5 -7.5q-20 -29 -36 -75q29 -18 66.5 -29t80.5 -11q23 0 46 3t46 11q3 26 3 46q0 74 -18 118
t-43 66.5t-51.5 29t-44.5 6.5q-33 0 -61.5 -10.5t-49.5 -29.5t-32.5 -44.5t-11.5 -55.5q0 -21 8 -37zM276 253q-45 0 -84 11.5t-69 29.5q-14 -44 -23 -93t-12 -94t0.5 -82t14.5 -57q18 -34 54 -34q39 0 73 33.5t61 83.5t45.5 108t27.5 107q-23 -7 -45 -10t-43 -3zM229 714
q5 0 22 -10.5t41 -39.5q14 -17 24 -31t11 -14q6 -8 -2.5 -16t-19.5 -8q-7 0 -12 5q0 2 -9 14t-21 26.5t-23 26.5t-15 15q-4 -3 -13 -11.5t-20 -19.5t-23.5 -24.5t-24.5 -26.5q-7 -8 -14 -1t-1 14q1 0 13.5 13.5t28.5 29.5q33 34 42.5 45t12.5 12q1 0 1.5 0.5t1.5 0.5z" />
    <glyph glyph-name="Otilde" unicode="&#xd5;" horiz-adv-x="392" 
d="M146 -100q-25 0 -51 7.5t-47 26t-34.5 50.5t-13.5 80q0 26 4 65.5t11.5 82t18 82t23.5 64.5q-4 2 -5 5q-12 24 -12 49q0 34 13.5 63t36.5 50t55 33t69 12q15 0 44.5 -6t59 -30t51 -71.5t21.5 -130.5q0 -8 -0.5 -17.5t-1.5 -20.5q67 26 125 89q6 7 13 0q2 -2 2.5 -6
t-2.5 -7q-33 -36 -68.5 -59.5t-72.5 -37.5q-5 -35 -15 -76t-25 -82.5t-35 -80t-45 -68.5t-54.5 -48t-64.5 -18zM67 375q9 19 18 25.5t32 6.5q10 0 19.5 -1.5t17 -4.5t11 -6.5t0.5 -7.5q-20 -29 -36 -75q29 -18 66.5 -29t80.5 -11q23 0 46 3t46 11q3 26 3 46q0 74 -18 118
t-43 66.5t-51.5 29t-44.5 6.5q-33 0 -61.5 -10.5t-49.5 -29.5t-32.5 -44.5t-11.5 -55.5q0 -21 8 -37zM276 253q-45 0 -84 11.5t-69 29.5q-14 -44 -23 -93t-12 -94t0.5 -82t14.5 -57q18 -34 54 -34q39 0 73 33.5t61 83.5t45.5 108t27.5 107q-23 -7 -45 -10t-43 -3zM238 601
q-14 0 -25 6.5t-22 14.5q-10 7 -17.5 11.5t-15.5 4.5q-10 0 -24 -12q-6 -8 -12 0q-8 6 0 12q18 18 36 18q13 0 23.5 -6t20.5 -14q9 -7 17.5 -12t18.5 -5q16 0 35 19q6 8 12 0q7 -6 1 -12q-24 -25 -48 -25z" />
    <glyph glyph-name="Odieresis" unicode="&#xd6;" horiz-adv-x="392" 
d="M146 -100q-25 0 -51 7.5t-47 26t-34.5 50.5t-13.5 80q0 26 4 65.5t11.5 82t18 82t23.5 64.5q-4 2 -5 5q-12 24 -12 49q0 34 13.5 63t36.5 50t55 33t69 12q15 0 44.5 -6t59 -30t51 -71.5t21.5 -130.5q0 -8 -0.5 -17.5t-1.5 -20.5q67 26 125 89q6 7 13 0q2 -2 2.5 -6
t-2.5 -7q-33 -36 -68.5 -59.5t-72.5 -37.5q-5 -35 -15 -76t-25 -82.5t-35 -80t-45 -68.5t-54.5 -48t-64.5 -18zM67 375q9 19 18 25.5t32 6.5q10 0 19.5 -1.5t17 -4.5t11 -6.5t0.5 -7.5q-20 -29 -36 -75q29 -18 66.5 -29t80.5 -11q23 0 46 3t46 11q3 26 3 46q0 74 -18 118
t-43 66.5t-51.5 29t-44.5 6.5q-33 0 -61.5 -10.5t-49.5 -29.5t-32.5 -44.5t-11.5 -55.5q0 -21 8 -37zM276 253q-45 0 -84 11.5t-69 29.5q-14 -44 -23 -93t-12 -94t0.5 -82t14.5 -57q18 -34 54 -34q39 0 73 33.5t61 83.5t45.5 108t27.5 107q-23 -7 -45 -10t-43 -3zM196 636
q0 -15 -10.5 -25.5t-25.5 -10.5t-25.5 10.5t-10.5 25.5t10.5 25.5t25.5 10.5t25.5 -10.5t10.5 -25.5zM291 636q0 -15 -10.5 -25.5t-25.5 -10.5t-25.5 10.5t-10.5 25.5t10.5 25.5t25.5 10.5t25.5 -10.5t10.5 -25.5z" />
    <glyph glyph-name="Oslash" unicode="&#xd8;" horiz-adv-x="392" 
d="M25 -106q5 20 15 47q-18 19 -29 49t-11 74q0 26 4 65.5t11.5 82t18 82t23.5 64.5q-4 2 -5 5q-12 24 -12 49q0 34 13.5 63t36.5 50t55 33t69 12q11 0 27.5 -2.5t36.5 -10.5q12 27 22.5 48.5t18.5 35.5q4 7 15 7t20 -7t4 -17q-11 -20 -22 -41.5t-22 -45.5q15 -12 29 -29.5
t24.5 -42t16.5 -57.5t6 -76q0 -8 -0.5 -17.5t-1.5 -20.5q67 26 125 89q6 7 13 0q2 -2 2.5 -6t-2.5 -6q-33 -37 -68.5 -60.5t-72.5 -37.5q-5 -35 -15 -76t-25 -82.5t-35 -80t-45 -68.5t-54.5 -48t-64.5 -18q-17 0 -34.5 3t-34.5 11q-3 -8 -5.5 -15.5t-5.5 -15.5
q-4 -14 -20 -14q-11 0 -18.5 7t-2.5 18zM67 375q7 12 14 22q5 5 14.5 7.5t21.5 2.5q10 0 19.5 -1.5t17 -4.5t11 -6.5t0.5 -7.5q-20 -29 -36 -75q20 -13 40 -20q26 69 52.5 133.5t49.5 115.5q-17 7 -31.5 9t-25.5 2q-33 0 -61.5 -10.5t-49.5 -29.5t-32.5 -44.5t-11.5 -55.5
q0 -21 8 -37zM207 280q35 -8 69 -8q23 0 46 3t46 11q3 26 3 46q0 78 -19.5 122t-45.5 66q-25 -54 -50 -115.5t-49 -124.5zM87 74q17 47 36 97.5t39 103.5q-11 4 -20.5 9t-18.5 10q-17 -52 -26.5 -110.5t-9.5 -109.5zM276 253q-20 0 -39 2.5t-37 6.5q-28 -74 -53.5 -146.5
t-47.5 -137.5q7 -20 21 -32t37 -12q39 0 73 33.5t61 83.5t45.5 108t27.5 107q-23 -7 -45 -10t-43 -3z" />
    <glyph glyph-name="Ugrave" unicode="&#xd9;" horiz-adv-x="394" 
d="M259 66q0 32 2 65t6 66q-14 -37 -34 -74t-42.5 -67t-45.5 -49t-43 -19q-17 0 -35 8.5t-33 26t-24.5 44t-9.5 62.5q0 50 7 111.5t17 121.5t21 111.5t18 80.5q2 7 10 10t18 3q16 0 29.5 -5.5t11.5 -14.5q-12 -50 -22.5 -103t-19 -104.5t-14 -99t-7 -87t2.5 -68t15 -41.5
q3 -5 12.5 -6.5t14.5 -1.5q19 0 41 21.5t43.5 55.5t42 75t35.5 81q1 5 1.5 10t1.5 10l2 20q8 57 16.5 114.5t20.5 114.5q1 5 6 7.5t13 2.5t16.5 -2t15.5 -5t11.5 -7t3.5 -9q-3 -15 -8 -45.5t-11.5 -70t-13.5 -84.5t-12 -89q-10 -85 -13.5 -133t-3 -71.5t4.5 -29t9 -5.5
q10 0 21 15t20.5 34.5t17 39.5t10.5 29q1 4 4.5 5.5t6.5 0.5q9 -4 6 -12q-2 -4 -8 -22t-17 -41q-17 -40 -37.5 -68t-42.5 -28q-20 0 -31.5 9t-17.5 24.5t-7.5 36.5t-1.5 46zM225 596q-4 0 -8 4l-63 97q-2 3 0.5 6.5t7.5 6.5t11 5t11 2q6 0 9 -3l39 -104q6 -8 -2 -12
q-4 -2 -5 -2z" />
    <glyph glyph-name="Uacute" unicode="&#xda;" horiz-adv-x="394" 
d="M259 66q0 32 2 65t6 66q-14 -37 -34 -74t-42.5 -67t-45.5 -49t-43 -19q-17 0 -35 8.5t-33 26t-24.5 44t-9.5 62.5q0 50 7 111.5t17 121.5t21 111.5t18 80.5q2 7 10 10t18 3q16 0 29.5 -5.5t11.5 -14.5q-12 -50 -22.5 -103t-19 -104.5t-14 -99t-7 -87t2.5 -68t15 -41.5
q3 -5 12.5 -6.5t14.5 -1.5q19 0 41 21.5t43.5 55.5t42 75t35.5 81q1 5 1.5 10t1.5 10l2 20q8 57 16.5 114.5t20.5 114.5q1 5 6 7.5t13 2.5t16.5 -2t15.5 -5t11.5 -7t3.5 -9q-3 -15 -8 -45.5t-11.5 -70t-13.5 -84.5t-12 -89q-10 -85 -13.5 -133t-3 -71.5t4.5 -29t9 -5.5
q10 0 21 15t20.5 34.5t17 39.5t10.5 29q1 4 4.5 5.5t6.5 0.5q9 -4 6 -12q-2 -4 -8 -22t-17 -41q-17 -40 -37.5 -68t-42.5 -28q-20 0 -31.5 9t-17.5 24.5t-7.5 36.5t-1.5 46zM218 586q-3 0 -5 1q-8 6 -2 13l39 104q3 3 9 3q5 0 11 -2t11 -5t7.5 -6.5t0.5 -6.5l-63 -97
q-3 -4 -8 -4z" />
    <glyph glyph-name="Ucircumflex" unicode="&#xdb;" horiz-adv-x="394" 
d="M259 66q0 32 2 65t6 66q-14 -37 -34 -74t-42.5 -67t-45.5 -49t-43 -19q-17 0 -35 8.5t-33 26t-24.5 44t-9.5 62.5q0 50 7 111.5t17 121.5t21 111.5t18 80.5q2 7 10 10t18 3q16 0 29.5 -5.5t11.5 -14.5q-12 -50 -22.5 -103t-19 -104.5t-14 -99t-7 -87t2.5 -68t15 -41.5
q3 -5 12.5 -6.5t14.5 -1.5q19 0 41 21.5t43.5 55.5t42 75t35.5 81q1 5 1.5 10t1.5 10l2 20q8 57 16.5 114.5t20.5 114.5q1 5 6 7.5t13 2.5t16.5 -2t15.5 -5t11.5 -7t3.5 -9q-3 -15 -8 -45.5t-11.5 -70t-13.5 -84.5t-12 -89q-10 -85 -13.5 -133t-3 -71.5t4.5 -29t9 -5.5
q10 0 21 15t20.5 34.5t17 39.5t10.5 29q1 4 4.5 5.5t6.5 0.5q9 -4 6 -12q-2 -4 -8 -22t-17 -41q-17 -40 -37.5 -68t-42.5 -28q-20 0 -31.5 9t-17.5 24.5t-7.5 36.5t-1.5 46zM219 738q5 0 22 -10.5t41 -39.5q14 -17 24 -31t11 -14q6 -8 -2.5 -16t-19.5 -8q-7 0 -12 5
q0 2 -9 14t-21 26.5t-23 26.5t-15 15q-4 -3 -13 -11.5t-20 -19.5t-23.5 -24.5t-24.5 -26.5q-7 -8 -14 -1t-1 14q1 0 13.5 13.5t28.5 29.5q33 34 42.5 45t12.5 12q1 0 1.5 0.5t1.5 0.5z" />
    <glyph glyph-name="Udieresis" unicode="&#xdc;" horiz-adv-x="394" 
d="M259 66q0 32 2 65t6 66q-14 -37 -34 -74t-42.5 -67t-45.5 -49t-43 -19q-17 0 -35 8.5t-33 26t-24.5 44t-9.5 62.5q0 50 7 111.5t17 121.5t21 111.5t18 80.5q2 7 10 10t18 3q16 0 29.5 -5.5t11.5 -14.5q-12 -50 -22.5 -103t-19 -104.5t-14 -99t-7 -87t2.5 -68t15 -41.5
q3 -5 12.5 -6.5t14.5 -1.5q19 0 41 21.5t43.5 55.5t42 75t35.5 81q1 5 1.5 10t1.5 10l2 20q8 57 16.5 114.5t20.5 114.5q1 5 6 7.5t13 2.5t16.5 -2t15.5 -5t11.5 -7t3.5 -9q-3 -15 -8 -45.5t-11.5 -70t-13.5 -84.5t-12 -89q-10 -85 -13.5 -133t-3 -71.5t4.5 -29t9 -5.5
q10 0 21 15t20.5 34.5t17 39.5t10.5 29q1 4 4.5 5.5t6.5 0.5q9 -4 6 -12q-2 -4 -8 -22t-17 -41q-17 -40 -37.5 -68t-42.5 -28q-20 0 -31.5 9t-17.5 24.5t-7.5 36.5t-1.5 46zM224 640q0 -15 -10.5 -25.5t-25.5 -10.5t-25.5 10.5t-10.5 25.5t10.5 25.5t25.5 10.5t25.5 -10.5
t10.5 -25.5zM319 640q0 -15 -10.5 -25.5t-25.5 -10.5t-25.5 10.5t-10.5 25.5t10.5 25.5t25.5 10.5t25.5 -10.5t10.5 -25.5z" />
    <glyph glyph-name="Yacute" unicode="&#xdd;" horiz-adv-x="427" 
d="M126 7q-39 -6 -71 11.5t-39 67.5q-8 52 1.5 141.5t36.5 217.5q2 10 14.5 14t25.5 4q14 0 24 -3.5t6 -11.5q-36 -164 -41.5 -265.5t20.5 -129.5q12 -12 29 -9q11 2 25.5 18t31 42t33.5 59t33.5 68.5t31.5 71.5t27 67q2 23 3 44.5t3 40.5q2 34 4 59t4 42q2 12 15.5 17
t28.5 5t26.5 -4t10.5 -11q-2 -16 -3.5 -41.5t-4.5 -59.5q-11 -148 -25 -277.5t-38 -237.5q23 -5 43.5 -12.5t36.5 -14.5t26.5 -12.5t11.5 -6.5q6 -5 3 -11q-3 -5 -7 -5q-3 -1 -5 1l-9.5 5.5t-25 12t-36 13.5t-42.5 12q-17 -74 -41 -134.5t-58 -105t-78 -72t-102 -35.5
q-33 -5 -64.5 2.5t-57 24.5t-43 42t-21.5 57q-3 20 2 49.5t30 61.5q86 107 353 134q21 88 33.5 180t20.5 174q-16 -38 -38.5 -88.5t-47.5 -96.5t-50 -79t-46 -36zM203 -71q-67 -9 -115.5 -23.5t-82.5 -31t-55.5 -33.5t-33.5 -33q-23 -29 -27 -54t-2 -43q4 -27 19 -45
t35 -28.5t42 -14t40 -0.5q43 6 78 33t62.5 68.5t48.5 95.5t37 115q-12 -2 -23.5 -3t-22.5 -3zM240 568q-3 0 -5 1q-8 6 -2 13l39 104q3 3 9 3q5 0 11 -2t11 -5t7.5 -6.5t0.5 -6.5l-63 -97q-3 -4 -8 -4z" />
    <glyph glyph-name="Thorn" unicode="&#xde;" horiz-adv-x="385" 
d="M2 -28v36t0.5 91t2 126.5t4.5 143t7.5 140.5t11.5 118q1 7 10.5 10t20.5 3q14 0 26.5 -4t12.5 -12q-7 -51 -11.5 -119t-7.5 -142q15 33 35.5 69.5t44.5 67t50 50.5t51 20q15 0 35.5 -4.5t39.5 -17.5t32 -34.5t13 -56.5q0 -104 -28 -170t-72 -104t-98.5 -52.5
t-108.5 -15.5q-2 -63 -2 -102v-40q0 -6 -12 -9.5t-26 -3.5q-12 0 -21.5 3t-9.5 9zM73 133q48 3 90 23.5t72.5 60.5t48 100.5t17.5 141.5q0 37 -12.5 58t-39.5 21q-25 0 -51.5 -24.5t-50 -60t-42.5 -74t-28 -67.5q-2 -48 -2.5 -93t-1.5 -86z" />
    <glyph glyph-name="germandbls" unicode="&#xdf;" horiz-adv-x="315" 
d="M189 241q0 -10 6.5 -24.5t16.5 -31.5t20.5 -36t19.5 -39q14 5 35 11t44 6q10 0 10 -9t-10 -9q-20 0 -40 -5.5t-32 -10.5q11 -25 11 -49q0 -18 -7 -36.5t-22 -33.5t-39 -24.5t-58 -9.5q-26 0 -40.5 13.5t-14.5 30.5q0 20 15.5 38t35.5 32t39.5 23.5t28.5 13.5
q-6 14 -17.5 30.5t-23 35.5t-20.5 39t-9 40q0 41 20.5 75.5t45.5 68.5t45.5 69t20.5 75q0 16 -5.5 28t-13 20.5t-15 12.5t-12.5 4q-19 0 -39.5 -31.5t-40.5 -84t-38 -120.5t-31.5 -141.5t-21.5 -147t-8 -135.5q0 -48 3 -78.5t3 -44.5l-41 -1q-9 8 -12 37t-3 87q0 87 11 172
t29 162.5t41 143.5t47.5 114.5t48.5 76t43 27.5q9 0 24.5 -4t30.5 -15t26.5 -30.5t11.5 -51.5q0 -53 -18.5 -91.5t-41 -70t-41 -60t-18.5 -61.5zM214 73q-12 -5 -30.5 -14.5t-35.5 -21.5t-29 -25.5t-12 -27.5q0 -8 9.5 -14.5t18.5 -6.5q40 0 62 25.5t22 55.5q0 12 -5 29z
" />
    <glyph glyph-name="agrave" unicode="&#xe0;" horiz-adv-x="267" 
d="M190 -41q-42 0 -60.5 24.5t-16.5 72.5q-13 -21 -28 -38t-31 -17q-6 0 -15 2t-18 8t-15 18.5t-6 33.5q0 35 6.5 62t16.5 45.5t23 28.5t26 10q43 0 62 -33q2 8 4.5 16.5t5.5 16.5q6 6 20 6t27 -4.5t17 -12.5q-16 -54 -24 -91t-10 -61t0.5 -37t6.5 -19q6 -7 14 -7
q12 0 25.5 16.5t25 38.5t20 44t12.5 33q3 8 12 6q8 -3 6 -13q-5 -15 -15.5 -40t-24.5 -49.5t-31 -42t-35 -17.5zM53 19q7 0 15 8t17 20t17.5 27.5t15.5 30.5q2 8 3.5 17t3.5 18q0 15 -6 28t-22 13q-9 0 -20 -20t-19 -47t-10 -54t5 -41zM118 242q-4 0 -8 4l-63 97
q-2 3 0.5 6.5t7.5 6.5t11 5t11 2q6 0 9 -3l39 -104q6 -8 -2 -12q-4 -2 -5 -2z" />
    <glyph glyph-name="aacute" unicode="&#xe1;" horiz-adv-x="267" 
d="M190 -41q-42 0 -60.5 24.5t-16.5 72.5q-13 -21 -28 -38t-31 -17q-6 0 -15 2t-18 8t-15 18.5t-6 33.5q0 35 6.5 62t16.5 45.5t23 28.5t26 10q43 0 62 -33q2 8 4.5 16.5t5.5 16.5q6 6 20 6t27 -4.5t17 -12.5q-16 -54 -24 -91t-10 -61t0.5 -37t6.5 -19q6 -7 14 -7
q12 0 25.5 16.5t25 38.5t20 44t12.5 33q3 8 12 6q8 -3 6 -13q-5 -15 -15.5 -40t-24.5 -49.5t-31 -42t-35 -17.5zM53 19q7 0 15 8t17 20t17.5 27.5t15.5 30.5q2 8 3.5 17t3.5 18q0 15 -6 28t-22 13q-9 0 -20 -20t-19 -47t-10 -54t5 -41zM89 232q-3 0 -5 1q-8 6 -2 13l39 104
q3 3 9 3q5 0 11 -2t11 -5t7.5 -6.5t0.5 -6.5l-63 -97q-3 -4 -8 -4z" />
    <glyph glyph-name="acircumflex" unicode="&#xe2;" horiz-adv-x="267" 
d="M190 -41q-42 0 -60.5 24.5t-16.5 72.5q-13 -21 -28 -38t-31 -17q-6 0 -15 2t-18 8t-15 18.5t-6 33.5q0 35 6.5 62t16.5 45.5t23 28.5t26 10q43 0 62 -33q2 8 4.5 16.5t5.5 16.5q6 6 20 6t27 -4.5t17 -12.5q-16 -54 -24 -91t-10 -61t0.5 -37t6.5 -19q6 -7 14 -7
q12 0 25.5 16.5t25 38.5t20 44t12.5 33q3 8 12 6q8 -3 6 -13q-5 -15 -15.5 -40t-24.5 -49.5t-31 -42t-35 -17.5zM53 19q7 0 15 8t17 20t17.5 27.5t15.5 30.5q2 8 3.5 17t3.5 18q0 15 -6 28t-22 13q-9 0 -20 -20t-19 -47t-10 -54t5 -41zM131 363q5 0 22 -10.5t41 -39.5
q14 -17 24 -31t11 -14q6 -8 -2.5 -16t-19.5 -8q-7 0 -12 5q0 2 -9 14t-21 26.5t-23 26.5t-15 15q-4 -3 -13 -11.5t-20 -19.5t-23.5 -24.5t-24.5 -26.5q-7 -8 -14 -1t-1 14q1 0 13.5 13.5t28.5 29.5q33 34 42.5 45t12.5 12q1 0 1.5 0.5t1.5 0.5z" />
    <glyph glyph-name="atilde" unicode="&#xe3;" horiz-adv-x="267" 
d="M190 -41q-42 0 -60.5 24.5t-16.5 72.5q-13 -21 -28 -38t-31 -17q-6 0 -15 2t-18 8t-15 18.5t-6 33.5q0 35 6.5 62t16.5 45.5t23 28.5t26 10q43 0 62 -33q2 8 4.5 16.5t5.5 16.5q6 6 20 6t27 -4.5t17 -12.5q-16 -54 -24 -91t-10 -61t0.5 -37t6.5 -19q6 -7 14 -7
q12 0 25.5 16.5t25 38.5t20 44t12.5 33q3 8 12 6q8 -3 6 -13q-5 -15 -15.5 -40t-24.5 -49.5t-31 -42t-35 -17.5zM53 19q7 0 15 8t17 20t17.5 27.5t15.5 30.5q2 8 3.5 17t3.5 18q0 15 -6 28t-22 13q-9 0 -20 -20t-19 -47t-10 -54t5 -41zM160 251q-14 0 -25 6.5t-22 14.5
q-10 7 -17.5 11.5t-15.5 4.5q-10 0 -24 -12q-6 -8 -12 0q-8 6 0 12q18 18 36 18q13 0 23.5 -6t20.5 -14q9 -7 17.5 -12t18.5 -5q16 0 35 19q6 8 12 0q7 -6 1 -12q-24 -25 -48 -25z" />
    <glyph glyph-name="adieresis" unicode="&#xe4;" horiz-adv-x="267" 
d="M190 -41q-42 0 -60.5 24.5t-16.5 72.5q-13 -21 -28 -38t-31 -17q-6 0 -15 2t-18 8t-15 18.5t-6 33.5q0 35 6.5 62t16.5 45.5t23 28.5t26 10q43 0 62 -33q2 8 4.5 16.5t5.5 16.5q6 6 20 6t27 -4.5t17 -12.5q-16 -54 -24 -91t-10 -61t0.5 -37t6.5 -19q6 -7 14 -7
q12 0 25.5 16.5t25 38.5t20 44t12.5 33q3 8 12 6q8 -3 6 -13q-5 -15 -15.5 -40t-24.5 -49.5t-31 -42t-35 -17.5zM53 19q7 0 15 8t17 20t17.5 27.5t15.5 30.5q2 8 3.5 17t3.5 18q0 15 -6 28t-22 13q-9 0 -20 -20t-19 -47t-10 -54t5 -41zM123 282q0 -15 -10.5 -25.5
t-25.5 -10.5t-25.5 10.5t-10.5 25.5t10.5 25.5t25.5 10.5t25.5 -10.5t10.5 -25.5zM218 282q0 -15 -10.5 -25.5t-25.5 -10.5t-25.5 10.5t-10.5 25.5t10.5 25.5t25.5 10.5t25.5 -10.5t10.5 -25.5z" />
    <glyph glyph-name="aring" unicode="&#xe5;" horiz-adv-x="267" 
d="M190 -41q-42 0 -60.5 24.5t-16.5 72.5q-13 -21 -28 -38t-31 -17q-6 0 -15 2t-18 8t-15 18.5t-6 33.5q0 35 6.5 62t16.5 45.5t23 28.5t26 10q43 0 62 -33q2 8 4.5 16.5t5.5 16.5q6 6 20 6t27 -4.5t17 -12.5q-16 -54 -24 -91t-10 -61t0.5 -37t6.5 -19q6 -7 14 -7
q12 0 25.5 16.5t25 38.5t20 44t12.5 33q3 8 12 6q8 -3 6 -13q-5 -15 -15.5 -40t-24.5 -49.5t-31 -42t-35 -17.5zM53 19q7 0 15 8t17 20t17.5 27.5t15.5 30.5q2 8 3.5 17t3.5 18q0 15 -6 28t-22 13q-9 0 -20 -20t-19 -47t-10 -54t5 -41zM138 253q-17 0 -32.5 13t-15.5 36
q0 17 12.5 33t32.5 16q18 0 31.5 -14.5t13.5 -34.5q0 -18 -11 -33.5t-31 -15.5zM135 327q-9 0 -15 -8.5t-6 -16.5q0 -12 8 -18.5t16 -6.5t13 8t5 17q0 10 -6.5 17.5t-14.5 7.5z" />
    <glyph glyph-name="ae" unicode="&#xe6;" horiz-adv-x="325" 
d="M229 -47q-17 0 -36 6.5t-35 20t-26.5 35t-10.5 52.5q-7 -11 -15 -23t-16.5 -21.5t-17.5 -15.5t-18 -6q-6 0 -15 2t-18 8t-15 18.5t-6 33.5q0 35 6.5 62t16.5 45.5t23 28.5t26 10q48 0 65 -39q10 26 24 42t28.5 24.5t28 11.5t22.5 3q6 0 14.5 -3t16 -10t12.5 -17.5
t5 -25.5q0 -35 -8.5 -56.5t-20.5 -33t-25.5 -15t-23.5 -3.5q-18 0 -28 11q-1 -11 -1 -22.5v-24.5q0 -15 3 -29t9 -25.5t15 -18.5t21 -7q19 0 36.5 16.5t32 40t24.5 47.5t15 39q2 10 11 6q4 -1 5.5 -4.5t0.5 -6.5t-10 -27.5t-25 -53t-39 -52t-51 -23.5zM186 134q1 -11 6 -20
t18 -9q5 0 12.5 5t15 16t13 28t5.5 41q0 19 -5 28.5t-11 9.5q-5 0 -12 -4t-14.5 -15.5t-15 -30.5t-12.5 -49zM53 19q8 0 17.5 9.5t19 24t18.5 32t16 32.5q1 6 1.5 12t2.5 12q-2 14 -9.5 27t-21.5 13q-9 0 -20 -20t-19 -47t-10 -54t5 -41z" />
    <glyph glyph-name="ccedilla" unicode="&#xe7;" horiz-adv-x="241" 
d="M184 181q-1 -20 -24 -20q-7 0 -11.5 5.5t-4.5 12.5q0 5 3.5 14t11.5 13q-9 12 -28 12q-26 0 -48 -33t-22 -103q0 -14 3.5 -32t12.5 -33.5t24 -26.5t39 -11q21 0 39.5 14t33 35t25 44t15.5 41q4 9 12 6q4 -1 5.5 -4.5t0.5 -6.5q-7 -21 -19.5 -47.5t-29.5 -50t-38.5 -39
t-47.5 -15.5q-28 0 -53 10t-43 27t-28.5 39.5t-10.5 48.5q0 44 14 73.5t34.5 47.5t43 26t38.5 8q14 0 23.5 -5.5t16.5 -13.5t10 -18t3 -18zM124 -207q-9 0 -9 9t9 9q23 0 43.5 16t20.5 42q0 15 -10 26.5t-20 11.5q-17 0 -23 -4t-14 -4q-2 0 -5 5q-1 3 -0.5 10.5t7.5 28.5
q2 5 3 10t3 8q2 4 3 8t4.5 6t6.5 0q8 -3 6 -12q-5 -11 -8.5 -23.5t-5.5 -20.5q5 2 12.5 3.5t19.5 1.5q25 0 42 -18t17 -44q0 -20 -10 -33t-25 -21t-33 -11.5t-34 -3.5z" />
    <glyph glyph-name="egrave" unicode="&#xe8;" 
d="M109 -47q-17 0 -36 6.5t-35 20t-26.5 35t-10.5 52.5q0 61 14 97t33 55.5t39.5 25.5t32.5 6q6 0 14.5 -3t16 -10t12.5 -17.5t5 -25.5q0 -35 -8.5 -56.5t-20.5 -33t-25.5 -15t-23.5 -3.5q-18 0 -28 11q-1 -11 -1.5 -22.5t-0.5 -24.5q0 -15 3 -29t9.5 -25.5t15.5 -18.5
t21 -7q19 0 36.5 16.5t31.5 40t24.5 47.5t14.5 39q4 9 12 6q4 -1 5.5 -4.5t0.5 -6.5t-10 -27.5t-25.5 -53t-39 -52t-50.5 -23.5zM66 134q1 -11 6 -20t18 -9q5 0 12.5 5t15 16t13 28t5.5 41q0 19 -5 28.5t-11 9.5q-5 0 -12 -4t-15 -15.5t-15 -30.5t-12 -49zM129 282
q-4 0 -8 4l-63 97q-2 3 0.5 6.5t7.5 6.5t11 5t11 2q6 0 9 -3l39 -104q6 -8 -2 -12q-4 -2 -5 -2z" />
    <glyph glyph-name="eacute" unicode="&#xe9;" 
d="M109 -47q-17 0 -36 6.5t-35 20t-26.5 35t-10.5 52.5q0 61 14 97t33 55.5t39.5 25.5t32.5 6q6 0 14.5 -3t16 -10t12.5 -17.5t5 -25.5q0 -35 -8.5 -56.5t-20.5 -33t-25.5 -15t-23.5 -3.5q-18 0 -28 11q-1 -11 -1.5 -22.5t-0.5 -24.5q0 -15 3 -29t9.5 -25.5t15.5 -18.5
t21 -7q19 0 36.5 16.5t31.5 40t24.5 47.5t14.5 39q4 9 12 6q4 -1 5.5 -4.5t0.5 -6.5t-10 -27.5t-25.5 -53t-39 -52t-50.5 -23.5zM66 134q1 -11 6 -20t18 -9q5 0 12.5 5t15 16t13 28t5.5 41q0 19 -5 28.5t-11 9.5q-5 0 -12 -4t-15 -15.5t-15 -30.5t-12 -49zM67 273q-3 0 -5 1
q-8 6 -2 13l39 104q3 3 9 3q5 0 11 -2t11 -5t7.5 -6.5t0.5 -6.5l-63 -97q-3 -4 -8 -4z" />
    <glyph glyph-name="ecircumflex" unicode="&#xea;" 
d="M109 -47q-17 0 -36 6.5t-35 20t-26.5 35t-10.5 52.5q0 61 14 97t33 55.5t39.5 25.5t32.5 6q6 0 14.5 -3t16 -10t12.5 -17.5t5 -25.5q0 -35 -8.5 -56.5t-20.5 -33t-25.5 -15t-23.5 -3.5q-18 0 -28 11q-1 -11 -1.5 -22.5t-0.5 -24.5q0 -15 3 -29t9.5 -25.5t15.5 -18.5
t21 -7q19 0 36.5 16.5t31.5 40t24.5 47.5t14.5 39q4 9 12 6q4 -1 5.5 -4.5t0.5 -6.5t-10 -27.5t-25.5 -53t-39 -52t-50.5 -23.5zM66 134q1 -11 6 -20t18 -9q5 0 12.5 5t15 16t13 28t5.5 41q0 19 -5 28.5t-11 9.5q-5 0 -12 -4t-15 -15.5t-15 -30.5t-12 -49zM108 389
q5 0 22 -10.5t41 -39.5q14 -17 24 -31t11 -14q6 -8 -2.5 -16t-19.5 -8q-7 0 -12 5q0 2 -9 14t-21 26.5t-23 26.5t-15 15q-4 -3 -13 -11.5t-20 -19.5t-23.5 -24.5t-24.5 -26.5q-7 -8 -14 -1t-1 14q1 0 13.5 13.5t28.5 29.5q33 34 42.5 45t12.5 12q1 0 1.5 0.5t1.5 0.5z" />
    <glyph glyph-name="edieresis" unicode="&#xeb;" 
d="M109 -47q-17 0 -36 6.5t-35 20t-26.5 35t-10.5 52.5q0 61 14 97t33 55.5t39.5 25.5t32.5 6q6 0 14.5 -3t16 -10t12.5 -17.5t5 -25.5q0 -35 -8.5 -56.5t-20.5 -33t-25.5 -15t-23.5 -3.5q-18 0 -28 11q-1 -11 -1.5 -22.5t-0.5 -24.5q0 -15 3 -29t9.5 -25.5t15.5 -18.5
t21 -7q19 0 36.5 16.5t31.5 40t24.5 47.5t14.5 39q4 9 12 6q4 -1 5.5 -4.5t0.5 -6.5t-10 -27.5t-25.5 -53t-39 -52t-50.5 -23.5zM66 134q1 -11 6 -20t18 -9q5 0 12.5 5t15 16t13 28t5.5 41q0 19 -5 28.5t-11 9.5q-5 0 -12 -4t-15 -15.5t-15 -30.5t-12 -49zM91 316
q0 -15 -10.5 -25.5t-25.5 -10.5t-25.5 10.5t-10.5 25.5t10.5 25.5t25.5 10.5t25.5 -10.5t10.5 -25.5zM186 316q0 -15 -10.5 -25.5t-25.5 -10.5t-25.5 10.5t-10.5 25.5t10.5 25.5t25.5 10.5t25.5 -10.5t10.5 -25.5z" />
    <glyph glyph-name="igrave" unicode="&#xec;" horiz-adv-x="116" 
d="M53 8q15 0 27 12t21.5 29t16 35t10.5 30q3 6 9 6q5 0 7.5 -3.5t0.5 -8.5q-4 -15 -12 -35.5t-19.5 -38.5t-26.5 -31t-34 -13q-23 0 -35.5 6.5t-18.5 15.5t-7 17.5t-1 12.5q0 21 2.5 48t6.5 51.5t7.5 43t6.5 23.5q1 2 6.5 2t12.5 -1t13.5 -2.5t7.5 -2.5q8 -3 4 -12
q-3 -8 -8.5 -38t-9 -62.5t-1.5 -58t14 -25.5zM89 240q-4 0 -8 4l-63 97q-2 3 0.5 6.5t7.5 6.5t11 5t11 2q6 0 9 -3l39 -104q6 -8 -2 -12q-4 -2 -5 -2z" />
    <glyph glyph-name="iacute" unicode="&#xed;" horiz-adv-x="116" 
d="M53 8q15 0 27 12t21.5 29t16 35t10.5 30q3 6 9 6q5 0 7.5 -3.5t0.5 -8.5q-4 -15 -12 -35.5t-19.5 -38.5t-26.5 -31t-34 -13q-23 0 -35.5 6.5t-18.5 15.5t-7 17.5t-1 12.5q0 21 2.5 48t6.5 51.5t7.5 43t6.5 23.5q1 2 6.5 2t12.5 -1t13.5 -2.5t7.5 -2.5q8 -3 4 -12
q-3 -8 -8.5 -38t-9 -62.5t-1.5 -58t14 -25.5zM26 247q-3 0 -5 1q-8 6 -2 13l39 104q3 3 9 3q5 0 11 -2t11 -5t7.5 -6.5t0.5 -6.5l-63 -97q-3 -4 -8 -4z" />
    <glyph glyph-name="icircumflex" unicode="&#xee;" horiz-adv-x="116" 
d="M125 261q4 -5 -2 -11t-13 -6q-6 0 -9 4t-7 9q-3 4 -6.5 9.5t-8.5 10.5q-13 16 -19.5 22t-8.5 8q-7 -5 -23.5 -22.5t-34.5 -37.5q-6 -5 -11 0t0 10q5 4 10 10l9.5 9.5t10.5 11.5q11 13 18.5 21t12 12.5t6.5 6t3 1.5q9 0 19.5 -8t21 -19t19 -22.5t13.5 -18.5zM53 8
q15 0 27 12t21.5 29t16 35t10.5 30q3 6 9 6q5 0 7.5 -3.5t0.5 -8.5q-4 -15 -12 -35.5t-19.5 -38.5t-26.5 -31t-34 -13q-23 0 -35.5 6.5t-18.5 15.5t-7 17.5t-1 12.5q0 21 2.5 48t6.5 51.5t7.5 43t6.5 23.5q1 2 6.5 2t12.5 -1t13.5 -2.5t7.5 -2.5q8 -3 4 -12q-3 -8 -8.5 -38
t-9 -62.5t-1.5 -58t14 -25.5z" />
    <glyph glyph-name="idieresis" unicode="&#xef;" horiz-adv-x="116" 
d="M41 275q0 -11 -8 -19t-19 -8t-19 8t-8 19t8 18.5t19 7.5t19 -7.5t8 -18.5zM110 275q0 -11 -7.5 -19t-18.5 -8t-19 8t-8 19t8 18.5t19 7.5t18.5 -7.5t7.5 -18.5zM53 8q15 0 27 12t21.5 29t16 35t10.5 30q3 6 9 6q5 0 7.5 -3.5t0.5 -8.5q-4 -15 -12 -35.5t-19.5 -38.5
t-26.5 -31t-34 -13q-23 0 -35.5 6.5t-18.5 15.5t-7 17.5t-1 12.5q0 21 2.5 48t6.5 51.5t7.5 43t6.5 23.5q1 2 6.5 2t12.5 -1t13.5 -2.5t7.5 -2.5q8 -3 4 -12q-3 -8 -8.5 -38t-9 -62.5t-1.5 -58t14 -25.5z" />
    <glyph glyph-name="eth" unicode="&#xf0;" horiz-adv-x="447" 
d="M183 -50q-33 0 -62.5 14.5t-52 43t-35.5 71.5t-13 100q0 40 13.5 74t37.5 58.5t56.5 38.5t70.5 14q24 0 43.5 -7t35.5 -18t28 -24t21 -25q-5 55 -14.5 97t-23.5 74q-21 -11 -44 -21.5t-52 -22.5q-3 -2 -6.5 1t-5 7.5t-1 9.5t3.5 7q26 13 48.5 23.5t44.5 20.5
q-23 42 -52.5 60.5t-58.5 18.5q-9 0 -9 9t9 9t27 -2t40.5 -9.5t47.5 -22t49 -40.5q17 7 36.5 14.5t41.5 16.5q4 2 7 -1.5t5 -8.5t1.5 -10t-4.5 -6q-20 -8 -37 -14t-33 -13q30 -42 50 -108t20 -168q0 -75 -22.5 -125.5t-57 -80.5t-75.5 -42.5t-78 -12.5zM328 252
q-2 5 -11.5 20t-26 31.5t-39.5 29.5t-53 13q-33 0 -59 -14.5t-43 -38.5t-26 -54t-9 -60q0 -100 32 -155.5t90 -55.5q33 0 59.5 17t46 47.5t30 74t10.5 95.5v25.5t-1 24.5z" />
    <glyph glyph-name="ntilde" unicode="&#xf1;" horiz-adv-x="310" 
d="M322 115q2 8 11 6q9 -4 6 -12q-2 -5 -8 -22.5t-17 -40.5q-10 -20 -23.5 -42.5t-28 -41t-30 -30.5t-29.5 -12q-27 0 -43.5 18.5t-16.5 52.5q0 46 10.5 91.5t21.5 78.5q3 11 6 23t5 22t2 16.5t-3 6.5q-20 0 -36.5 -17.5t-30 -43.5t-24.5 -57t-20 -57q-13 -37 -17.5 -49.5
t-12.5 -12.5q-10 0 -20.5 5.5t-15.5 13.5q-6 8 -7.5 31.5t0 52.5t4.5 58t6 49q1 4 5.5 5.5t10.5 1.5q11 0 22 -3.5t11 -8.5q-1 -25 -4 -51t-6 -49t-5 -42t-1 -30q3 7 6 16.5t6 18.5q10 30 22 63t27.5 61t35 46t44.5 18q4 0 13 -2.5t17 -12t11.5 -28t-4.5 -49.5
q-9 -35 -20 -82.5t-11 -91.5q0 -17 4 -27t14 -10q15 0 32.5 21t33.5 49t29 56.5t18 43.5zM209 268q-14 0 -25 6.5t-22 14.5q-10 7 -17.5 11.5t-15.5 4.5q-10 0 -24 -12q-6 -8 -12 0q-8 6 0 12q18 18 36 18q13 0 23.5 -6t20.5 -14q9 -7 17.5 -12t18.5 -5q16 0 35 19q6 8 12 0
q7 -6 1 -12q-24 -25 -48 -25z" />
    <glyph glyph-name="ograve" unicode="&#xf2;" horiz-adv-x="203" 
d="M168 30q-5 0 -11 0.5t-11 1.5q-15 -26 -36 -42.5t-48 -16.5q-9 0 -21 3.5t-22 12t-17 21.5t-7 31q0 20 4 38.5t8.5 33.5t9.5 25t6 13q2 5 8 6t13 1q8 0 14 -0.5t8 -2.5q8 26 26 37t34 11q23 0 37.5 -16.5t14.5 -42.5q0 -20 -6 -45t-17 -49q3 -1 8 -1q32 0 49 15t29 53
q2 4 5.5 7t7.5 2q9 -4 6 -13q-11 -41 -35 -62t-57 -21zM137 55q11 23 16.5 47.5t5.5 41.5q0 15 -8 27.5t-25 12.5t-30 -16t-13 -46q0 -18 15.5 -38t38.5 -29zM128 37q-31 11 -48.5 34.5t-19.5 46.5q-4 -13 -8.5 -28t-7 -29.5t-2 -27.5t5.5 -21q8 -12 26 -12q17 0 30 10.5
t24 26.5zM132 240q-4 0 -8 4l-63 97q-2 3 0.5 6.5t7.5 6.5t11 5t11 2q6 0 9 -3l39 -104q6 -8 -2 -12q-4 -2 -5 -2z" />
    <glyph glyph-name="oacute" unicode="&#xf3;" horiz-adv-x="203" 
d="M168 30q-5 0 -11 0.5t-11 1.5q-15 -26 -36 -42.5t-48 -16.5q-9 0 -21 3.5t-22 12t-17 21.5t-7 31q0 20 4 38.5t8.5 33.5t9.5 25t6 13q2 5 8 6t13 1q8 0 14 -0.5t8 -2.5q8 26 26 37t34 11q23 0 37.5 -16.5t14.5 -42.5q0 -20 -6 -45t-17 -49q3 -1 8 -1q32 0 49 15t29 53
q2 4 5.5 7t7.5 2q9 -4 6 -13q-11 -41 -35 -62t-57 -21zM137 55q11 23 16.5 47.5t5.5 41.5q0 15 -8 27.5t-25 12.5t-30 -16t-13 -46q0 -18 15.5 -38t38.5 -29zM128 37q-31 11 -48.5 34.5t-19.5 46.5q-4 -13 -8.5 -28t-7 -29.5t-2 -27.5t5.5 -21q8 -12 26 -12q17 0 30 10.5
t24 26.5zM68 233q-3 0 -5 1q-8 6 -2 13l39 104q3 3 9 3q5 0 11 -2t11 -5t7.5 -6.5t0.5 -6.5l-63 -97q-3 -4 -8 -4z" />
    <glyph glyph-name="ocircumflex" unicode="&#xf4;" horiz-adv-x="203" 
d="M175 251q4 -5 -2 -11t-13 -6q-6 0 -9 4t-7 9q-3 4 -6.5 9.5t-8.5 10.5q-13 16 -19.5 22t-8.5 8q-7 -5 -23.5 -22.5t-34.5 -37.5q-6 -6 -10 0q-7 4 -1 10q5 4 10 10q5 4 10 9.5t10 11.5q11 13 18.5 21t12 12.5t6.5 6t3 1.5q9 0 19.5 -8t21 -19t19 -22.5t13.5 -18.5z
M168 30q-5 0 -11 0.5t-11 1.5q-15 -26 -36 -42.5t-48 -16.5q-9 0 -21 3.5t-22 12t-17 21.5t-7 31q0 20 4 38.5t8.5 33.5t9.5 25t6 13q2 5 8 6t13 1q8 0 14 -0.5t8 -2.5q8 26 26 37t34 11q23 0 37.5 -16.5t14.5 -42.5q0 -20 -6 -45t-17 -49q3 -1 8 -1q32 0 49 15t29 53
q2 4 5.5 7t7.5 2q9 -4 6 -13q-11 -41 -35 -62t-57 -21zM137 55q11 23 16.5 47.5t5.5 41.5q0 15 -8 27.5t-25 12.5t-30 -16t-13 -46q0 -18 15.5 -38t38.5 -29zM128 37q-31 11 -48.5 34.5t-19.5 46.5q-4 -13 -8.5 -28t-7 -29.5t-2 -27.5t5.5 -21q8 -12 26 -12q17 0 30 10.5
t24 26.5z" />
    <glyph glyph-name="otilde" unicode="&#xf5;" horiz-adv-x="203" 
d="M168 30q-5 0 -11 0.5t-11 1.5q-15 -26 -36 -42.5t-48 -16.5q-9 0 -21 3.5t-22 12t-17 21.5t-7 31q0 20 4 38.5t8.5 33.5t9.5 25t6 13q2 5 8 6t13 1q8 0 14 -0.5t8 -2.5q8 26 26 37t34 11q23 0 37.5 -16.5t14.5 -42.5q0 -20 -6 -45t-17 -49q3 -1 8 -1q32 0 49 15t29 53
q2 4 5.5 7t7.5 2q9 -4 6 -13q-11 -41 -35 -62t-57 -21zM137 55q11 23 16.5 47.5t5.5 41.5q0 15 -8 27.5t-25 12.5t-30 -16t-13 -46q0 -18 15.5 -38t38.5 -29zM128 37q-31 11 -48.5 34.5t-19.5 46.5q-4 -13 -8.5 -28t-7 -29.5t-2 -27.5t5.5 -21q8 -12 26 -12q17 0 30 10.5
t24 26.5zM148 238q-14 0 -25 6.5t-22 14.5q-10 7 -17.5 11.5t-15.5 4.5q-10 0 -24 -12q-6 -8 -12 0q-8 6 0 12q18 18 36 18q13 0 23.5 -6t20.5 -14q9 -7 17.5 -12t18.5 -5q16 0 35 19q6 8 12 0q7 -6 1 -12q-24 -25 -48 -25z" />
    <glyph glyph-name="odieresis" unicode="&#xf6;" horiz-adv-x="203" 
d="M101 275q0 -11 -8 -19t-19 -8t-18.5 8t-7.5 19t7.5 18.5t18.5 7.5t19 -7.5t8 -18.5zM170 275q0 -11 -7.5 -19t-18.5 -8t-19 8t-8 19t8 18.5t19 7.5t18.5 -7.5t7.5 -18.5zM168 30q-5 0 -11 0.5t-11 1.5q-15 -26 -36 -42.5t-48 -16.5q-9 0 -21 3.5t-22 12t-17 21.5t-7 31
q0 20 4 38.5t8.5 33.5t9.5 25t6 13q2 5 8 6t13 1q8 0 14 -0.5t8 -2.5q8 26 26 37t34 11q23 0 37.5 -16.5t14.5 -42.5q0 -20 -6 -45t-17 -49q3 -1 8 -1q32 0 49 15t29 53q2 4 5.5 7t7.5 2q9 -4 6 -13q-11 -41 -35 -62t-57 -21zM137 55q11 23 16.5 47.5t5.5 41.5q0 15 -8 27.5
t-25 12.5t-30 -16t-13 -46q0 -18 15.5 -38t38.5 -29zM128 37q-31 11 -48.5 34.5t-19.5 46.5q-4 -13 -8.5 -28t-7 -29.5t-2 -27.5t5.5 -21q8 -12 26 -12q17 0 30 10.5t24 26.5z" />
    <glyph glyph-name="oslash" unicode="&#xf8;" horiz-adv-x="203" 
d="M8 -71q4 13 8.5 26.5l9.5 28.5q-13 8 -22 22t-9 35q0 20 4 38.5t8.5 33.5t9.5 25t6 13q2 5 8 6t13 1q8 0 14 -0.5t8 -2.5q8 23 23 34.5t29 13.5q17 32 33 62.5t32 57.5q5 9 14 9q5 0 8 -5t-2 -13q-20 -35 -35 -62.5t-27 -50.5q17 -5 27 -20.5t10 -36.5q0 -20 -6 -45
t-17 -49q3 -1 8 -1q32 0 49 15t30 53q1 4 4.5 7t7.5 2q9 -3 7 -13q-11 -41 -35.5 -62t-57.5 -21q-6 0 -11.5 0.5t-10.5 1.5q-15 -26 -36 -42.5t-48 -16.5q-4 0 -7 0.5t-7 1.5q-4 -11 -8 -23t-9 -26q-2 -9 -7 -13.5t-10 -4.5t-8 5t2 16zM137 55q11 23 16.5 47.5t5.5 41.5
q0 14 -6.5 25.5t-20.5 13.5q-13 -24 -22.5 -45t-18.5 -44q7 -12 19 -22.5t27 -16.5zM83 127q5 13 11 25.5t12 25.5q-9 -7 -15.5 -19.5t-7.5 -31.5zM43 30q5 15 11.5 30.5t12.5 30.5q-3 7 -4.5 14t-2.5 13q-8 -20 -13.5 -44.5t-3.5 -43.5zM128 37q-15 5 -26.5 13.5
t-20.5 19.5q-5 -15 -10.5 -31t-12.5 -36q6 -3 16 -3q17 0 30 10.5t24 26.5z" />
    <glyph glyph-name="ugrave" unicode="&#xf9;" 
d="M45 -10q-12 0 -28.5 15t-16.5 47q0 22 4 48t8.5 49t9 40t5.5 21q2 5 8 5q5 0 11 -2t11 -5.5t8.5 -7.5t2.5 -8q-9 -35 -15 -67t-8.5 -56t-1.5 -39.5t5 -17.5q4 0 12 10t17.5 25.5t20 34t19.5 35.5q6 33 12.5 60t8.5 33q2 5 8 5q5 0 11 -2t11 -5.5t8.5 -7.5t2.5 -8
q-9 -35 -15.5 -67.5t-8 -57.5t2.5 -40t16 -15q9 -1 23 8.5t25 30.5q8 16 14.5 33.5t10.5 30.5q4 8 12 6q8 -3 6 -12q-5 -16 -13.5 -36.5t-20.5 -39t-28 -31t-37 -12.5q-20 0 -37.5 15t-17.5 47v16q-8 -14 -17 -28t-17.5 -25t-17 -18t-14.5 -7zM129 247q-4 0 -8 4l-63 97
q-2 3 0.5 6.5t7.5 6.5t11 5t11 2q6 0 9 -3l39 -104q6 -8 -2 -12q-4 -2 -5 -2z" />
    <glyph glyph-name="uacute" unicode="&#xfa;" 
d="M45 -10q-12 0 -28.5 15t-16.5 47q0 22 4 48t8.5 49t9 40t5.5 21q2 5 8 5q5 0 11 -2t11 -5.5t8.5 -7.5t2.5 -8q-9 -35 -15 -67t-8.5 -56t-1.5 -39.5t5 -17.5q4 0 12 10t17.5 25.5t20 34t19.5 35.5q6 33 12.5 60t8.5 33q2 5 8 5q5 0 11 -2t11 -5.5t8.5 -7.5t2.5 -8
q-9 -35 -15.5 -67.5t-8 -57.5t2.5 -40t16 -15q9 -1 23 8.5t25 30.5q8 16 14.5 33.5t10.5 30.5q4 8 12 6q8 -3 6 -12q-5 -16 -13.5 -36.5t-20.5 -39t-28 -31t-37 -12.5q-20 0 -37.5 15t-17.5 47v16q-8 -14 -17 -28t-17.5 -25t-17 -18t-14.5 -7zM71 258q-3 0 -5 1q-8 6 -2 13
l39 104q3 3 9 3q5 0 11 -2t11 -5t7.5 -6.5t0.5 -6.5l-63 -97q-3 -4 -8 -4z" />
    <glyph glyph-name="ucircumflex" unicode="&#xfb;" 
d="M175 251q4 -5 -2 -11t-13 -6q-6 0 -9 4t-7 9q-3 4 -6.5 9.5t-8.5 10.5q-13 16 -19.5 22t-8.5 8q-7 -5 -23.5 -22.5t-34.5 -37.5q-6 -6 -10 0q-7 4 -1 10q5 4 10 10q5 4 10 9.5t10 11.5q11 13 18.5 21t12 12.5t6.5 6t3 1.5q9 0 19.5 -8t21 -19t19 -22.5t13.5 -18.5z
M45 -10q-12 0 -28.5 15t-16.5 47q0 22 4 48t8.5 49t9 40t5.5 21q2 5 8 5q5 0 11 -2t11 -5.5t8.5 -7.5t2.5 -8q-9 -35 -15 -67t-8.5 -56t-1.5 -39.5t5 -17.5q4 0 12 10t17.5 25.5t20 34t19.5 35.5q6 33 12.5 60t8.5 33q2 5 8 5q5 0 11 -2t11 -5.5t8.5 -7.5t2.5 -8
q-9 -35 -15.5 -67.5t-8 -57.5t2.5 -40t16 -15q9 -1 23 8.5t25 30.5q8 16 14.5 33.5t10.5 30.5q4 8 12 6q8 -3 6 -12q-5 -16 -13.5 -36.5t-20.5 -39t-28 -31t-37 -12.5q-20 0 -37.5 15t-17.5 47v16q-8 -14 -17 -28t-17.5 -25t-17 -18t-14.5 -7z" />
    <glyph glyph-name="udieresis" unicode="&#xfc;" 
d="M101 275q0 -11 -8 -19t-19 -8t-18.5 8t-7.5 19t7.5 18.5t18.5 7.5t19 -7.5t8 -18.5zM170 275q0 -11 -7.5 -19t-18.5 -8t-19 8t-8 19t8 18.5t19 7.5t18.5 -7.5t7.5 -18.5zM45 -10q-12 0 -28.5 15t-16.5 47q0 22 4 48t8.5 49t9 40t5.5 21q2 5 8 5q5 0 11 -2t11 -5.5
t8.5 -7.5t2.5 -8q-9 -35 -15 -67t-8.5 -56t-1.5 -39.5t5 -17.5q4 0 12 10t17.5 25.5t20 34t19.5 35.5q6 33 12.5 60t8.5 33q2 5 8 5q5 0 11 -2t11 -5.5t8.5 -7.5t2.5 -8q-9 -35 -15.5 -67.5t-8 -57.5t2.5 -40t16 -15q9 -1 23 8.5t25 30.5q8 16 14.5 33.5t10.5 30.5q4 8 12 6
q8 -3 6 -12q-5 -16 -13.5 -36.5t-20.5 -39t-28 -31t-37 -12.5q-20 0 -37.5 15t-17.5 47v16q-8 -14 -17 -28t-17.5 -25t-17 -18t-14.5 -7z" />
    <glyph glyph-name="yacute" unicode="&#xfd;" horiz-adv-x="235" 
d="M162 194q1 4 6.5 6t12.5 2q10 0 19 -3.5t8 -10.5q-1 -4 -3 -33t-7.5 -73.5t-14.5 -99.5t-24 -112q40 54 76 117t59 127q2 6 8 6q5 0 8 -3.5t1 -8.5t-8 -22.5t-17 -40.5q-12 -24 -30 -56t-38 -63.5t-39 -58.5t-32 -40q-15 -51 -36 -97.5t-48 -82t-61.5 -56.5t-77.5 -21
q-21 0 -40 17.5t-19 46.5q0 27 23 53.5t56 50.5t69.5 44t64.5 34q14 39 25 80t20 81t16.5 77t12.5 68q-12 -20 -27 -42.5t-30.5 -41t-30.5 -31t-27 -12.5q-5 0 -12.5 3t-14.5 9.5t-12 17t-5 24.5q0 16 5.5 38t13 43t14 37t7.5 19q3 7 16 7q9 0 16.5 -4t5.5 -10
q-6 -14 -13.5 -36.5t-14 -45.5t-9 -42t2.5 -26q2 -5 10 -5q9 0 23 14t29.5 36t31.5 47.5t28 49.5q3 14 3 23zM68 -212q-27 -14 -59 -32.5t-60 -39.5t-47 -42.5t-19 -40.5q0 -17 8 -25t17 -8q25 0 48 14.5t43 40t37 60t32 73.5zM86 205q-3 0 -5 1q-8 6 -2 13l39 104q3 3 9 3
q5 0 11 -2t11 -5t7.5 -6.5t0.5 -6.5l-63 -97q-3 -4 -8 -4z" />
    <glyph glyph-name="thorn" unicode="&#xfe;" horiz-adv-x="268" 
d="M21 -301q-8 47 -12 119t-3.5 155.5t4 169.5t9.5 160.5t13.5 130.5t16.5 77q2 5 7.5 6.5t13.5 1.5q15 0 30 -5.5t12 -11.5q-7 -18 -14.5 -59.5t-14 -98t-12 -124.5t-8.5 -138q11 26 23.5 49t27.5 40.5t33 28t38 10.5q31 0 46.5 -17t15.5 -40q0 -21 -6.5 -40.5t-17.5 -36.5
q12 3 21.5 6t16 9t12 15.5t10.5 24.5q2 10 12 8q8 -3 6 -12q-9 -35 -31 -51.5t-61 -18.5q-24 -27 -55.5 -43.5t-60.5 -16.5q-8 0 -17 1.5t-16 6.5q-3 -93 -0.5 -174t11.5 -132q0 -6 -6.5 -8.5t-15.5 -2.5q-10 0 -18 3t-10 8zM203 153q0 18 -10.5 22t-15.5 4q-17 0 -32 -10.5
t-28.5 -28.5t-25 -41t-20.5 -48q11 6 25 9.5t28.5 5.5t27.5 3t21 1q14 20 22 42.5t8 40.5zM161 54q-51 -2 -72.5 -11.5t-21.5 -16.5t8 -9t18 -2q19 0 36.5 11t31.5 28z" />
    <glyph glyph-name="ydieresis" unicode="&#xff;" horiz-adv-x="235" 
d="M101 255q0 -11 -8 -19t-19 -8t-18.5 8t-7.5 19t7.5 18.5t18.5 7.5t19 -7.5t8 -18.5zM170 255q0 -11 -7.5 -19t-18.5 -8t-19 8t-8 19t8 18.5t19 7.5t18.5 -7.5t7.5 -18.5zM162 194q1 4 6.5 6t12.5 2q10 0 19 -3.5t8 -10.5q-1 -4 -3 -33t-7.5 -73.5t-14.5 -99.5t-24 -112
q40 54 76 117t59 127q2 6 8 6q5 0 8 -3.5t1 -8.5t-8 -22.5t-17 -40.5q-12 -24 -30 -56t-38 -63.5t-39 -58.5t-32 -40q-15 -51 -36 -97.5t-48 -82t-61.5 -56.5t-77.5 -21q-21 0 -40 17.5t-19 46.5q0 27 23 53.5t56 50.5t69.5 44t64.5 34q14 39 25 80t20 81t16.5 77t12.5 68
q-12 -20 -27 -42.5t-30.5 -41t-30.5 -31t-27 -12.5q-5 0 -12.5 3t-14.5 9.5t-12 17t-5 24.5q0 16 5.5 38t13 43t14 37t7.5 19q3 7 16 7q9 0 16.5 -4t5.5 -10q-6 -14 -13.5 -36.5t-14 -45.5t-9 -42t2.5 -26q2 -5 10 -5q9 0 23 14t29.5 36t31.5 47.5t28 49.5q3 14 3 23z
M68 -212q-27 -14 -59 -32.5t-60 -39.5t-47 -42.5t-19 -40.5q0 -17 8 -25t17 -8q25 0 48 14.5t43 40t37 60t32 73.5z" />
    <glyph glyph-name="Dcroat" unicode="&#x110;" horiz-adv-x="532" 
d="M52 19q-1 28 -0.5 75t2.5 101.5t5 111t5.5 102t4 75t1.5 30.5q1 5 8.5 7.5t18.5 2.5q16 0 30 -4.5t13 -12.5q0 -1 -1.5 -25t-4.5 -62q13 27 30 54t39.5 48.5t49.5 35.5t60 14q18 0 49 -8.5t61.5 -31.5t52.5 -63.5t22 -104.5q0 -78 -12.5 -143.5t-34.5 -119.5
q14 3 31.5 6.5t32.5 6t25 4.5t11 2q8 2 10 -8q0 -10 -8 -10l-13 -2t-30.5 -5.5t-36.5 -7.5t-31 -7q-27 -59 -64.5 -103t-81 -73t-90.5 -43t-93 -14q-19 0 -37 4.5t-31.5 14t-22 24.5t-8.5 36q0 23 16.5 42.5t43.5 35.5q-8 2 -14.5 5.5t-7.5 9.5zM419 386q0 75 -29 115
t-83 40q-36 0 -64.5 -18t-50.5 -45t-37.5 -58t-24.5 -57q-3 -43 -7 -91t-7.5 -95t-7 -88.5t-6.5 -70.5q27 12 59 22t66 18.5t68 15t65 11.5q32 70 45.5 147t13.5 154zM349 65q-46 -10 -101.5 -23.5t-103.5 -30.5t-80 -38t-32 -47q0 -18 7.5 -29.5t19 -18.5t26 -9.5
t28.5 -2.5q38 0 73 18.5t65.5 47t55 64t42.5 69.5zM221 200q-13 3 -39.5 5t-56 2.5t-57.5 0t-44 -2.5q-8 -2 -10 8q0 8 8 10q17 2 45.5 2.5t59 0t58 -2.5t40.5 -5q9 -2 7 -11q-1 -7 -11 -7z" />
    <glyph glyph-name="dcroat" unicode="&#x111;" horiz-adv-x="320" 
d="M57 -10q-23 0 -40 17t-17 46q0 76 29.5 119t80.5 43q20 0 34 -16q4 81 18.5 157.5t35.5 136t46.5 95.5t50.5 36q9 0 23 -16t14 -54q0 -22 -9 -50t-22.5 -57.5t-29 -57.5t-29.5 -50.5t-23.5 -37t-10.5 -15.5q-4 -32 -6 -66.5t-2 -70.5q0 -54 4 -86.5t9.5 -50t12 -23
t11.5 -5.5q25 0 41.5 21t28.5 47q8 17 14 33t11 29q2 6 8 6q5 0 8 -3.5t1 -8.5q-2 -4 -8 -22t-17 -41q-6 -15 -14.5 -29t-19.5 -25t-24.5 -18t-30.5 -7q-12 0 -26 5t-27 19.5t-23 40.5t-14 68q-8 -18 -18.5 -37.5t-22 -35t-23.5 -26t-24 -10.5zM301 594q-6 -4 -16.5 -25
t-23.5 -55.5t-25.5 -82t-21.5 -103.5q12 20 29.5 50t33 62.5t26.5 62.5t11 51q0 17 -3.5 28t-9.5 12zM143 138v11v22q-3 8 -9.5 14.5t-15.5 6.5q-7 0 -18.5 -8.5t-22 -26.5t-18.5 -46t-8 -67q0 -15 6 -21t11 -6t13 10t18 26.5t21.5 38.5t22.5 46zM349 502q-13 3 -39.5 5
t-56 2.5t-57.5 0t-44 -2.5q-8 -2 -10 8q0 8 8 10q17 2 45.5 2.5t59 0t58 -2.5t40.5 -5q9 -2 7 -11q-1 -7 -11 -7z" />
    <glyph glyph-name="dotlessi" unicode="&#x131;" horiz-adv-x="116" 
d="M53 8q15 0 27 12t21.5 29t16 35t10.5 30q3 6 9 6q5 0 7.5 -3.5t0.5 -8.5q-4 -15 -12 -35.5t-19.5 -38.5t-26.5 -31t-34 -13q-23 0 -35.5 6.5t-18.5 15.5t-7 17.5t-1 12.5q0 21 2.5 48t6.5 51.5t7.5 43t6.5 23.5q1 2 6.5 2t12.5 -1t13.5 -2.5t7.5 -2.5q8 -3 4 -12
q-3 -8 -8.5 -38t-9 -62.5t-1.5 -58t14 -25.5z" />
    <glyph glyph-name="Lslash" unicode="&#x141;" horiz-adv-x="367" 
d="M50 -95q-4 0 -7 3q-6 6 1 13q12 10 25 14l-3 42t-3 65.5t-1.5 82t0.5 92.5q-13 10 -24 25.5t-19 33t-12.5 35.5t-3.5 33q0 8 9 8t9 -9q-1 -23 12 -52t30 -49q2 49 5.5 97.5t10.5 91.5t17.5 77.5t25.5 55.5q4 5 10.5 11t16.5 11.5t23.5 8.5t30.5 2q15 0 27.5 -12t21 -32
t12.5 -47t3 -58q-2 -50 -16.5 -93t-35.5 -75t-46 -51t-48 -21q0 -21 1 -55t2 -71.5t2.5 -75t4.5 -64.5q16 0 33 -1t34 -3q20 -2 40 -3.5t39 -1.5q29 0 52 5t38 19q6 6 12 0q6 -7 0 -13q-19 -17 -46 -23t-59 -6q-19 0 -38 1.5t-39 3.5q-19 2 -37.5 3t-35.5 1q-22 0 -39.5 -3
t-28.5 -13q-3 -3 -6 -3zM207 563q-16 0 -28 -13q-24 -24 -42 -108t-17 -216q20 3 42 20.5t41 47t32 69t14 85.5q2 52 -9.5 83t-32.5 32zM220 96q-13 3 -39.5 5t-56 2.5t-57.5 0t-44 -2.5q-8 -2 -10 8q0 8 8 10q17 2 45.5 2.5t59 0t58 -2.5t40.5 -5q9 -2 7 -11q-1 -7 -11 -7z
" />
    <glyph glyph-name="lslash" unicode="&#x142;" horiz-adv-x="169" 
d="M154 53q8 17 14 33t11 29q1 3 4.5 5t6.5 1q9 -4 6 -12q-2 -5 -8 -22.5t-17 -40.5q-21 -48 -41.5 -77t-49.5 -29q-14 0 -28 5.5t-25 17.5t-18 30.5t-7 44.5q0 78 9 148.5t24 131.5q-11 0 -19 -0.5t-15 -1.5q-10 0 -10 9q0 8 8 10q8 1 18.5 1t22.5 1q14 53 32 95.5
t37.5 72.5t40.5 46.5t40 16.5t34.5 -19.5t15.5 -57.5q0 -37 -12.5 -78t-32.5 -82q2 0 3.5 -0.5t3.5 -0.5q9 -2 7 -11q-2 -7 -9 -7h-2q-8 2 -12 2q-16 -31 -34 -58.5t-35.5 -49t-32.5 -35.5t-24 -17q-4 -26 -6 -38.5t-2.5 -23t0 -24t0.5 -42.5q0 -32 10.5 -47t22.5 -15
q18 0 34.5 25t34.5 64zM197 545q-7 0 -18 -15t-24 -42t-27 -65.5t-27 -85.5q20 0 39.5 -0.5t35.5 -2.5q20 38 33 79t13 78q0 24 -8 39t-17 15zM64 177q16 13 45.5 51t57.5 88q-31 3 -72 3q-8 -32 -16 -68t-15 -74z" />
    <glyph glyph-name="OE" unicode="&#x152;" horiz-adv-x="739" 
d="M726 53q9 16 14.5 32.5t10.5 29.5q4 8 11 6q9 -4 6 -12q-1 -5 -7 -23t-18 -40q-13 -22 -30.5 -43t-40.5 -37t-50.5 -26t-59.5 -10q-43 0 -83 14t-71 40t-49.5 64.5t-18.5 86.5v10t1 10q-17 -34 -38.5 -66t-46 -56t-52.5 -38.5t-58 -14.5q-25 0 -51 7.5t-47 26.5
t-34.5 50.5t-13.5 80.5q0 51 15.5 106.5t41.5 106.5q-4 2 -7 9t-5.5 15.5t-3.5 17t-1 12.5q0 34 13.5 63t36.5 50t55 33t69 12q15 0 44.5 -6t59 -30t51 -71.5t21.5 -130.5q0 -32 -11 -73q35 45 87.5 66t105.5 21q-4 0 -23 5t-40 18t-38 36.5t-17 60.5q0 28 11.5 50
t31.5 37.5t47 24t58 8.5q32 0 53.5 -13t35 -29t19 -29.5l5.5 -13.5q2 -9 -7 -11q-9 0 -11 8q0 1 -3.5 11.5t-13 23t-25.5 22.5t-42 10q-30 0 -55 -24t-25 -75q0 -33 13.5 -55.5t30 -36.5t30.5 -20l14 -6q3 -1 4.5 -4t1.5 -6q-2 -8 -9 -8q-32 0 -64 -11.5t-57.5 -35.5
t-41.5 -61t-16 -87q0 -28 8.5 -58.5t26 -56t43 -42.5t59.5 -17q54 0 91.5 28t58.5 64zM67 375q7 12 14 22q5 5 14.5 7.5t21.5 2.5q10 0 19.5 -1.5t17 -4.5t11 -6.5t0.5 -7.5q-22 -32 -39 -74q29 -19 67.5 -30.5t82.5 -11.5q45 0 91 15q2 12 3 23.5t1 22.5q0 74 -18 118
t-43 66.5t-51.5 29t-44.5 6.5q-33 0 -61.5 -10.5t-49.5 -29.5t-32.5 -44.5t-11.5 -55.5q0 -21 8 -37zM276 253q-46 0 -86 11.5t-71 31.5q-13 -34 -21 -70t-10 -69t1.5 -61t13.5 -48q20 -34 54 -34q38 0 71.5 24t60.5 60.5t46 81t28 86.5q-43 -13 -87 -13z" />
    <glyph glyph-name="oe" unicode="&#x153;" horiz-adv-x="354" 
d="M258 -47q-17 0 -35.5 6t-34.5 19.5t-26.5 34t-11.5 50.5q-14 -29 -36 -49t-51 -20q-9 0 -19.5 3.5t-20.5 11.5t-16.5 20t-6.5 30q0 19 3.5 36.5t8 31.5t9 23t5.5 12q2 4 8 5.5t12.5 1.5t12.5 -0.5t8 -1.5q8 23 25 34t32 11q35 0 46 -34q10 23 23.5 37.5t27.5 22.5
t27 10.5t22 2.5q6 0 14 -3t15.5 -10t12.5 -17.5t5 -25.5q0 -35 -8 -56.5t-20 -33t-25.5 -15t-23.5 -3.5q-18 0 -28 11q-1 -11 -1.5 -22.5t-0.5 -24.5q0 -15 3 -29t9 -25.5t15 -18.5t21 -7q19 0 36.5 16.5t32 40t24.5 47.5t15 39q4 9 12 6q3 -1 5 -4.5t1 -6.5t-10 -27.5
t-25.5 -53t-39.5 -52t-51 -23.5zM216 134q1 -11 6 -20t18 -9q5 0 12.5 5t15 16t13 28t5.5 41q0 19 -5 28.5t-11 9.5q-5 0 -12 -4t-15 -15.5t-15 -30.5t-12 -49zM136 74q10 21 14.5 43.5t4.5 38.5q0 14 -7.5 26t-23.5 12t-28.5 -15t-12.5 -44q0 -19 16.5 -37t36.5 -24z
M127 57q-24 8 -43.5 29.5t-21.5 45.5q-4 -12 -8.5 -26.5t-7 -28.5t-2 -26t5.5 -20q7 -11 25 -11q17 0 29.5 10t22.5 27z" />
    <glyph glyph-name="Scaron" unicode="&#x160;" horiz-adv-x="342" 
d="M-13 450q0 25 7 48t22 40.5t39 28t59 10.5q48 0 78 -15.5t47 -34t23.5 -34.5t6.5 -17q2 -7 -5 -9q-7 -4 -9 4q0 1 -5.5 12.5t-18.5 25t-35 25t-56 11.5q-45 0 -64.5 -26t-19.5 -71q0 -18 10.5 -42.5t27 -51.5t37.5 -55t41 -52q34 -41 60.5 -74.5t42.5 -68.5q11 3 25.5 6
t28 5.5t22.5 3.5t10 1q8 2 10 -8q0 -10 -8 -10l-9 -1t-21 -3.5t-26 -5t-25 -5.5q11 -30 11 -61t-9 -58t-28 -47.5t-49 -32.5t-73 -12q-21 0 -39.5 5.5t-32.5 16t-22 25.5t-8 33q0 27 20.5 49.5t49 39.5t59 28t49.5 15q-24 41 -61.5 84.5t-73.5 88.5t-62 92.5t-26 96.5z
M219 71q-18 -4 -46 -13t-55 -23.5t-46.5 -34t-19.5 -44.5q0 -30 23.5 -47.5t58.5 -17.5q20 0 38 8.5t32 24t22.5 37.5t8.5 49q0 15 -4 30t-12 31zM7 694q-5 8 2.5 16t18.5 8q8 0 12 -5q4 -6 10 -12q4 -6 9.5 -13t11.5 -15q18 -22 26.5 -31t11.5 -11q5 3 13.5 11.5t19.5 20
t23.5 25t24.5 26.5q6 7 14 1q7 -7 0 -14q0 -1 -12.5 -14t-28.5 -29q-16 -17 -26.5 -28t-16.5 -17.5t-8.5 -9.5t-4.5 -3q-10 0 -25 11.5t-29.5 26.5t-27 31t-18.5 25z" />
    <glyph glyph-name="scaron" unicode="&#x161;" horiz-adv-x="185" 
d="M-13 353q-5 5 1 11t14 6q6 0 9 -4t7 -9q3 -4 6.5 -9t8.5 -11q13 -16 19 -22l8 -8q7 5 24 22.5t35 37.5q5 5 10 0q5 -4 1 -10q-1 0 -10 -9t-20 -22q-23 -26 -31 -33.5t-10 -7.5q-8 0 -18.5 8t-21 19t-19 22.5t-13.5 18.5zM8 236q0 8 8 11t17 3q8 0 15 -2.5t7 -6.5
q0 -10 6.5 -24.5t16.5 -32t21 -38t20 -41.5q13 6 35.5 14t46.5 8q10 0 10 -9t-10 -9q-22 0 -43 -8t-32 -13q5 -14 7.5 -27t2.5 -27q0 -37 -22 -65.5t-60 -28.5q-26 0 -40.5 13.5t-14.5 30.5q0 20 9.5 37t22.5 31t26 23.5t20 13.5q-8 17 -16.5 33t-17.5 32q-5 -21 -9.5 -36
t-6.5 -18q-3 -10 -9 -10q-2 0 -3 1h-1q-9 4 -6 11q2 6 8 27.5t14 47.5q-9 18 -15.5 33t-6.5 26zM84 73q-10 -6 -22 -15.5t-22 -21.5t-16.5 -25.5t-6.5 -26.5q0 -11 9.5 -16t18.5 -5q25 0 36.5 19t11.5 49q0 9 -2.5 20t-6.5 22z" />
    <glyph glyph-name="Ydieresis" unicode="&#x178;" horiz-adv-x="427" 
d="M126 7q-39 -6 -71 11.5t-39 67.5q-8 52 1.5 141.5t36.5 217.5q2 10 14.5 14t25.5 4q14 0 24 -3.5t6 -11.5q-36 -164 -41.5 -265.5t20.5 -129.5q12 -12 29 -9q11 2 25.5 18t31 42t33.5 59t33.5 68.5t31.5 71.5t27 67q2 23 3 44.5t3 40.5q2 34 4 59t4 42q2 12 15.5 17
t28.5 5t26.5 -4t10.5 -11q-2 -16 -3.5 -41.5t-4.5 -59.5q-11 -148 -25 -277.5t-38 -237.5q23 -5 43.5 -12.5t36.5 -14.5t26.5 -12.5t11.5 -6.5q6 -5 3 -11q-3 -5 -7 -5q-3 -1 -5 1l-9.5 5.5t-25 12t-36 13.5t-42.5 12q-17 -74 -41 -134.5t-58 -105t-78 -72t-102 -35.5
q-33 -5 -64.5 2.5t-57 24.5t-43 42t-21.5 57q-3 20 2 49.5t30 61.5q86 107 353 134q21 88 33.5 180t20.5 174q-16 -38 -38.5 -88.5t-47.5 -96.5t-50 -79t-46 -36zM203 -71q-67 -9 -115.5 -23.5t-82.5 -31t-55.5 -33.5t-33.5 -33q-23 -29 -27 -54t-2 -43q4 -27 19 -45
t35 -28.5t42 -14t40 -0.5q43 6 78 33t62.5 68.5t48.5 95.5t37 115q-12 -2 -23.5 -3t-22.5 -3zM252 636q0 -15 -10.5 -25.5t-25.5 -10.5t-25.5 10.5t-10.5 25.5t10.5 25.5t25.5 10.5t25.5 -10.5t10.5 -25.5zM347 636q0 -15 -10.5 -25.5t-25.5 -10.5t-25.5 10.5t-10.5 25.5
t10.5 25.5t25.5 10.5t25.5 -10.5t10.5 -25.5z" />
    <glyph glyph-name="Zcaron" unicode="&#x17d;" horiz-adv-x="336" 
d="M9 -36q-11 1 -20 9t-9 30q0 12 6.5 27.5t19 29.5t30.5 23.5t40 9.5q26 41 53 93t49.5 104.5t36 101.5t11.5 85q-2 32 -15.5 40t-25.5 8q-27 0 -49.5 -14t-39.5 -31t-27 -31.5l-10 -14.5q-2 -3 -5.5 -4t-6.5 1t-4 5.5t1 6.5q1 2 13 20t33 39t49.5 38.5t62.5 17.5
q8 0 24 -3.5t32 -13t28 -27t12 -44.5q0 -46 -11.5 -96.5t-31 -100.5t-45.5 -97.5t-54 -86.5q32 -6 63.5 -27t50.5 -56q31 28 48.5 60.5t30.5 70.5q1 7 9 7q5 0 7.5 -3.5t0.5 -8.5q-14 -43 -34 -78.5t-54 -65.5q10 -28 10 -57q0 -86 -25 -143.5t-59.5 -92.5t-70.5 -50
t-59 -15q-26 0 -46.5 19t-20.5 54q0 33 16 69t44.5 72t67.5 69t85 60q-2 18 -7 34.5t-14 30t-22.5 23t-32.5 11.5q-37 -48 -72.5 -78t-62.5 -30zM64 74q-15 -3 -27.5 -11.5t-21 -19t-13 -21.5t-4.5 -19v-4q1 0 1 -1q8 0 25 20.5t40 55.5zM222 -48q-40 -26 -76 -57t-63 -64.5
t-43 -67t-16 -62.5q0 -18 11.5 -31t34.5 -13q25 0 52 27t49 69t36.5 94t14.5 102v3zM81 688q-5 8 2.5 16t18.5 8q8 0 12 -5q4 -6 10 -12q4 -6 9.5 -13t11.5 -15q18 -22 26.5 -31t11.5 -11q5 3 13.5 11.5t19.5 20t23.5 25t24.5 26.5q6 7 14 1q7 -7 0 -14q0 -1 -12.5 -14
t-28.5 -29q-16 -17 -26.5 -28t-16.5 -17.5t-8.5 -9.5t-4.5 -3q-10 0 -25 11.5t-29.5 26.5t-27 31t-18.5 25z" />
    <glyph glyph-name="zcaron" unicode="&#x17e;" horiz-adv-x="286" 
d="M47 343q-5 5 1 11t14 6q6 0 9 -4t7 -9q3 -4 6.5 -9t8.5 -11q13 -16 19 -22l8 -8q7 5 24 22.5t35 37.5q5 5 10 0q5 -4 1 -10q-1 0 -10 -9t-20 -22q-23 -26 -31 -33.5t-10 -7.5q-8 0 -18.5 8t-21 19t-19 22.5t-13.5 18.5zM217 -90q0 -62 -18.5 -119.5t-49 -102t-70 -71.5
t-81.5 -27q-25 0 -40.5 15.5t-15.5 43.5q0 26 15.5 56t39 59.5t51.5 57.5t53 50t43 36.5t22 17.5q-3 37 -14.5 46.5t-25.5 9.5q-30 0 -54 -17t-41 -39q-3 -3 -7 -3q-2 0 -11 8.5t-11 10.5q-8 6 -1 13q60 78 93 141.5t34 95.5q1 8 -3 15.5t-15 7.5q-19 0 -35.5 -12.5
t-25.5 -38.5q-13 -34 -17.5 -47.5l-5.5 -16.5q-4 -10 -10 -10q-1 0 -2 1h-1q-8 3 -5 11q2 9 7 21t14 38q16 44 40.5 60t49.5 16q7 0 16.5 -2.5t18.5 -8.5t15 -16.5t6 -25.5q0 -39 -26 -87.5t-69 -106.5q11 5 22.5 8t23.5 3q28 0 48.5 -12t31.5 -32q13 11 26.5 30.5t25.5 42
t22 45.5t16 40q1 3 4.5 5t6.5 1q9 -4 6 -12q-2 -4 -8 -22t-17 -41q-6 -15 -16 -32t-21 -32t-21.5 -26.5t-16.5 -16.5q4 -12 4 -29zM-13 -380q35 0 66.5 31t56 75t40 92.5t16.5 84.5q-17 -13 -51 -42.5t-68.5 -66t-60.5 -75.5t-26 -70q0 -11 8.5 -20t18.5 -9z" />
    <glyph glyph-name="circumflex" unicode="&#x2c6;" horiz-adv-x="308" 
d="M166 646q5 0 22 -10.5t41 -39.5q14 -17 24 -31t11 -14q6 -8 -2.5 -16t-19.5 -8q-7 0 -12 5q0 2 -9 14t-21 26.5t-23 26.5t-15 15q-4 -3 -13 -11.5t-20 -19.5t-23.5 -24.5t-24.5 -26.5q-7 -8 -14 -1t-1 14q1 0 13.5 13.5t28.5 29.5q33 34 42.5 45t12.5 12q1 0 1.5 0.5
t1.5 0.5z" />
    <glyph glyph-name="caron" unicode="&#x2c7;" horiz-adv-x="281" 
d="M36 649q-5 8 2.5 16t18.5 8q8 0 12 -5q4 -6 10 -12q4 -6 9.5 -13t11.5 -15q18 -22 26.5 -31t11.5 -11q5 3 13.5 11.5t19.5 20t23.5 25t24.5 26.5q6 7 14 1q7 -7 0 -14q0 -1 -12.5 -14t-28.5 -29q-16 -17 -26.5 -28t-16.5 -17.5t-8.5 -9.5t-4.5 -3q-10 0 -25 11.5
t-29.5 26.5t-27 31t-18.5 25z" />
    <glyph glyph-name="breve" unicode="&#x2d8;" horiz-adv-x="260" 
d="M121 544q-19 0 -31.5 9t-19.5 21.5t-10 26.5t-3 23q0 5 6 8t14 3q7 0 12.5 -2.5t5.5 -8.5q0 -7 3 -18t7.5 -20.5t10.5 -16.5t12 -7q14 0 28.5 16t14.5 46q0 9 9 9t9 -9q0 -39 -21.5 -59.5t-46.5 -20.5z" />
    <glyph glyph-name="dotaccent" unicode="&#x2d9;" horiz-adv-x="194" 
d="M145 580q0 -18 -13 -31t-32 -13q-18 0 -31 13t-13 31q0 19 13 32t31 13q19 0 32 -13t13 -32z" />
    <glyph glyph-name="ring" unicode="&#x2da;" horiz-adv-x="186" 
d="M102 526q-17 0 -32.5 13t-15.5 36q0 17 12.5 33t32.5 16q18 0 31.5 -14.5t13.5 -34.5q0 -18 -11 -33.5t-31 -15.5zM99 600q-9 0 -15 -8.5t-6 -16.5q0 -12 8 -18.5t16 -6.5t13 8t5 17q0 10 -6.5 17.5t-14.5 7.5z" />
    <glyph glyph-name="ogonek" unicode="&#x2db;" horiz-adv-x="133" 
d="M87 74q-32 0 -52 17.5t-20 49.5q0 17 5.5 31.5t13.5 26t17.5 20t17.5 13.5l7 3.5t7 -1.5q8 -6 2 -13q-9 -12 -15.5 -26.5t-10 -29.5t-3.5 -28.5t6 -22.5q12 -19 48 -13q9 2 11 -8q1 -4 -9.5 -11.5t-24.5 -7.5z" />
    <glyph glyph-name="tilde" unicode="&#x2dc;" horiz-adv-x="260" 
d="M160 533q-14 0 -25 6.5t-22 14.5q-10 7 -17.5 11.5t-15.5 4.5q-10 0 -24 -12q-6 -8 -12 0q-8 6 0 12q18 18 36 18q13 0 23.5 -6t20.5 -14q9 -7 17.5 -12t18.5 -5q16 0 35 19q6 8 12 0q7 -6 1 -12q-24 -25 -48 -25z" />
    <glyph glyph-name="hungarumlaut" unicode="&#x2dd;" horiz-adv-x="230" 
d="M132 624q-22 -23 -45 -47.5t-37 -39.5q-6 -6 -12 -6t-9 4t0 9q23 31 36.5 48.5t25.5 28.5q2 2 9.5 5.5t19.5 4.5q4 0 9 -2.5t3 -4.5zM197 624q-22 -23 -45 -47.5t-38 -39.5q-6 -6 -12 -6q-5 0 -8 4t0 9q23 31 36.5 48.5t25.5 28.5q2 2 9.5 5.5t18.5 4.5q4 0 9.5 -2.5
t3.5 -4.5z" />
    <glyph glyph-name="quoteleft" unicode="&#x2018;" horiz-adv-x="184" 
d="M134 537q0 -24 -16 -34.5t-33 -10.5q-10 0 -22.5 12.5t-12.5 43.5q0 12 6 27t16 28t22 22t25 9q4 0 6 -5t-4 -9q-3 -2 -10 -6.5t-14.5 -9.5t-13.5 -11t-6 -12q6 0 15.5 -1t18.5 -5.5t16 -13t7 -24.5z" />
    <glyph glyph-name="quoteright" unicode="&#x2019;" horiz-adv-x="184" 
d="M50 589q0 24 16 34.5t33 10.5q10 0 22.5 -12.5t12.5 -43.5q0 -12 -6 -27t-15.5 -28t-22 -22t-25.5 -9q-4 0 -6 5t4 9q3 2 10.5 6.5t15 9.5t13 11t5.5 12q-6 0 -15.5 1t-18.5 5.5t-16 13t-7 24.5z" />
    <glyph glyph-name="quotedblleft" unicode="&#x201c;" horiz-adv-x="297" 
d="M134 537q0 -24 -16 -34.5t-33 -10.5q-10 0 -22.5 12.5t-12.5 43.5q0 12 6 27t16 28t22 22t25 9q4 0 6 -5t-4 -9q-3 -2 -10 -6.5t-14.5 -9.5t-13.5 -11t-6 -12q6 0 15.5 -1t18.5 -5.5t16 -13t7 -24.5zM247 537q0 -24 -16 -34.5t-33 -10.5q-10 0 -22.5 12.5t-12.5 43.5
q0 12 6 27t15.5 28t22 22t25.5 9q4 0 5.5 -5t-4.5 -9q-3 -2 -10 -6.5t-14.5 -9.5t-13 -11t-5.5 -12q6 0 15.5 -1t18.5 -5.5t16 -13t7 -24.5z" />
    <glyph glyph-name="quotedblright" unicode="&#x201d;" horiz-adv-x="297" 
d="M163 589q0 24 16 34.5t32 10.5q11 0 23.5 -12.5t12.5 -43.5q0 -12 -6 -27t-15.5 -28t-22 -22t-25.5 -9q-5 0 -6.5 5t4.5 9q3 2 10.5 6.5t15 9.5t13 11t5.5 12q-6 0 -15.5 1t-18.5 5.5t-16 13t-7 24.5zM50 589q0 24 16 34.5t33 10.5q10 0 22.5 -12.5t12.5 -43.5
q0 -12 -6 -27t-15.5 -28t-22 -22t-25.5 -9q-4 0 -6 5t4 9q3 2 10.5 6.5t15 9.5t13 11t5.5 12q-6 0 -15.5 1t-18.5 5.5t-16 13t-7 24.5z" />
    <glyph glyph-name="Euro" unicode="&#x20ac;" horiz-adv-x="484" 
d="M435 183q10 0 8 -10q-3 -36 -13.5 -70.5t-27.5 -62t-41 -44t-53 -16.5q-24 0 -51.5 9t-52.5 29t-43.5 53.5t-23.5 81.5q-4 41 -6 75q-28 1 -50 1h-32q-9 0 -9 9t9 9h82q0 26 1 50t4 46h-39q-9 0 -9 9q0 10 9 10t19.5 -0.5t21.5 -0.5q10 60 30 102.5t46.5 69.5t57.5 39.5
t63 12.5q30 0 47 -12.5t26.5 -31t13 -39.5t4.5 -38q2 -9 -8 -9q-8 0 -10 9q-5 51 -19 77t-52 26q-23 0 -41.5 -17t-33.5 -46t-25.5 -67t-17.5 -80q33 -2 63.5 -4.5t50.5 -4.5q9 0 9 -10q-2 -8 -9 -8q-21 2 -52.5 4.5t-64.5 4.5q-3 -23 -5 -46.5t-3 -46.5q35 -1 67 -2.5
t51 -3.5q8 0 8 -10q-2 -8 -9 -8q-20 2 -51.5 3t-66.5 2q0 -26 2.5 -65t12.5 -75.5t30 -62.5t54 -26q26 0 46.5 15.5t36 40.5t24.5 57t12 65q0 9 10 7z" />
    <glyph glyph-name="a.001" horiz-adv-x="252" 
d="M200 21q12 0 22.5 11t19 26t14 31t8.5 26q4 8 12 6q8 -4 6 -12q-4 -14 -11.5 -33.5t-18.5 -37t-25 -29.5t-32 -12q-36 0 -54.5 20t-12.5 71q-7 -14 -16.5 -30t-20 -30t-21.5 -23.5t-22 -9.5q-18 0 -33 15.5t-15 47.5q0 42 7.5 71t18.5 47t23.5 26t23.5 8q14 0 25.5 -6
t20 -15t14 -20t8.5 -21q4 14 9 28t11 30q4 5 15 5q10 0 20.5 -5.5t14.5 -13.5q-16 -54 -22 -87t-6 -52t5.5 -25.5t11.5 -6.5zM95 175q-14 0 -27.5 -42.5t-14.5 -117.5q7 4 16 14.5t19 25.5t19.5 33.5t17.5 36.5q1 1 1 2q0 6 -1 14.5t-4.5 16t-9.5 12.5t-16 5z" />
    <glyph glyph-name="c.001" horiz-adv-x="247" 
d="M108 -73q-15 0 -33.5 6.5t-35 22.5t-28 42.5t-11.5 66.5q0 80 26 125.5t67 45.5q14 0 23.5 -8t15 -19.5t7.5 -25t2 -25.5q0 -9 -3.5 -22t-16.5 -13q-9 0 -16 9.5t-7 23.5q0 12 6.5 20t15.5 10q-3 12 -9 22t-18 10q-8 0 -14.5 -13t-11.5 -34.5t-7.5 -48.5t-2.5 -55
q0 -21 3.5 -41t11 -36t19.5 -25.5t30 -9.5q27 0 49 16.5t39 40.5t30 52t20 51q1 3 4 5t7 0q10 -2 6 -11q-9 -27 -24.5 -59t-36.5 -59t-48 -45.5t-59 -18.5z" />
    <glyph glyph-name="e.001" horiz-adv-x="177" 
d="M189 114q3 8 12 6q8 -4 5 -12q-1 -4 -6.5 -19.5t-16.5 -38.5q-11 -24 -33.5 -44.5t-54.5 -20.5q-16 0 -33 5.5t-31 17.5t-22.5 30t-8.5 43q0 41 10 67t24 41t29 21t25 6q13 0 29.5 -11t16.5 -36q0 -22 -7 -36.5t-16.5 -23.5t-21 -12.5t-20.5 -3.5q-13 0 -23 10
q-1 -5 -1 -10.5v-11.5q0 -35 12.5 -53.5t37.5 -18.5q21 0 36.5 10t26.5 25.5t18.5 34t12.5 35.5zM49 131q2 -4 6.5 -11.5t13.5 -7.5q12 0 23.5 14.5t11.5 50.5q0 12 -5.5 16.5t-10.5 4.5q-9 0 -21 -14t-18 -53z" />
    <glyph glyph-name="g.001" horiz-adv-x="298" 
d="M177 98q1 17 1.5 32.5t1.5 29.5q-49 -77 -80.5 -119t-45.5 -42q-7 0 -16.5 3.5t-18 10t-14 17t-5.5 23.5q0 42 10.5 73t26 51.5t33 31t31.5 10.5q19 0 37.5 -15.5t24.5 -35.5q5 8 9.5 15t9.5 15q3 28 7.5 47t13.5 27q4 4 13.5 2.5t18 -5.5t13 -10.5t-1.5 -12.5t-9 -21
t-5 -37t-3 -48.5t-3 -54.5q-2 -25 -3 -47.5t-3 -43.5q38 30 58.5 64t34.5 79q1 7 9 7q5 0 7.5 -3.5t0.5 -8.5q-1 -5 -7.5 -23t-17.5 -40q-15 -29 -40 -57.5t-47 -41.5q-5 -58 -11.5 -100.5t-14 -75t-17 -58t-21.5 -49.5q-35 -73 -87 -100t-118 -27q-20 0 -40.5 8.5t-37 23.5
t-27 36t-10.5 46q0 30 20.5 63t53 64.5t71.5 60.5t76.5 52t68.5 38.5t47 19.5q3 35 4 67t2 59zM108 197q-7 0 -16.5 -10.5t-17.5 -30t-14 -47.5t-6 -62q0 -19 7 -19q4 0 13 10t20.5 26.5t25.5 38t29 43.5q-1 21 -13 36t-28 15zM170 -49q-16 -6 -46 -21t-65 -37.5t-71 -49.5
t-65.5 -56t-48 -58t-18.5 -55q0 -28 19.5 -52t54.5 -24q67 0 111 32t70.5 82.5t39.5 113.5t19 125z" />
    <glyph glyph-name="h.001" horiz-adv-x="352" 
d="M0 10q0 85 13 163.5t33.5 146.5t46.5 123.5t52 95t49.5 61t39.5 21.5q22 0 34.5 -25t12.5 -67q0 -34 -13 -69t-33.5 -67.5t-45.5 -61t-48 -51.5t-41 -38.5t-25 -21.5q-8 -36 -13.5 -73.5t-8.5 -76.5q13 27 31.5 59t39 60t39.5 46.5t34 18.5q7 0 16 -2t16.5 -7.5t13 -15
t5.5 -24.5q0 -6 -4.5 -23.5t-11.5 -42t-14.5 -52.5t-14.5 -56t-11.5 -53t-4.5 -42t9.5 -28t17.5 -11q22 0 45.5 26t44 61t37 72t23.5 59q2 8 11 6q9 -4 6 -12q-2 -5 -8 -22.5t-17 -40.5q-10 -24 -24.5 -55.5t-33 -59.5t-41 -47.5t-49.5 -19.5q-13 0 -26.5 5t-24.5 14.5
t-18 23t-7 29.5q0 42 10 85t22.5 80.5t22.5 66t10 41.5q0 15 -11 15q-8 0 -21.5 -13t-28.5 -34t-30 -46t-27.5 -48.5t-20 -43t-7.5 -28.5v-6q-5 -7 -22 -7q-10 0 -18.5 3t-10.5 9zM82 250q20 17 50.5 47.5t59.5 68t50 79.5t21 84q0 36 -5 48.5t-10 12.5q-9 0 -29 -25.5
t-44.5 -70.5t-49.5 -107.5t-43 -136.5z" />
    <glyph glyph-name="i.001" horiz-adv-x="186" 
d="M135 315q0 -17 -10.5 -28.5t-26.5 -11.5q-15 0 -25.5 11.5t-10.5 28.5t10.5 28.5t25.5 11.5q16 0 26.5 -11.5t10.5 -28.5zM80 -80q-12 0 -26 4.5t-26 15.5t-20 29t-8 44q0 32 7 68.5t16 68.5t16.5 54t8.5 25q1 2 8 3t15 2t15.5 1t9.5 -1q8 -3 5 -12q-8 -21 -19 -57.5
t-19 -75t-9 -73t11 -51.5q9 -12 24 -12q19 0 36.5 19t32 45t25 53.5t15.5 44.5q4 8 12 5q8 -2 6 -11q-7 -21 -20 -53.5t-30.5 -62.5t-39 -51.5t-46.5 -21.5z" />
    <glyph glyph-name="k.001" horiz-adv-x="250" 
d="M51 -5q-5 -7 -22 -7q-10 0 -18.5 3t-10.5 9q0 128 10.5 247.5t30 212t48 148t63.5 55.5q22 0 42 -24.5t20 -66.5q0 -53 -15 -98.5t-37 -79t-48 -54t-48 -23.5q-6 -56 -9.5 -110.5t-5.5 -102.5q10 24 23 52t26.5 51.5t26.5 39t23 15.5q2 0 7.5 -0.5t11.5 -3t11 -6.5t5 -12
q0 -14 -5.5 -35t-17.5 -42q-11 -20 -30 -38.5t-42 -16.5q2 -13 6 -33.5t13 -40t23.5 -33t36.5 -13.5q18 0 32.5 14.5t26.5 34.5t20.5 41.5t13.5 36.5q1 3 4.5 5t6.5 1q9 -4 6 -12q-6 -18 -15.5 -42t-23.5 -45.5t-31.5 -36.5t-39.5 -15q-27 0 -45.5 15t-29.5 36.5t-16.5 44.5
t-7.5 38q-8 -20 -13.5 -35.5t-5.5 -22.5q0 -3 -1 -4q0 -14 0.5 -25t0.5 -22zM68 339q20 8 40.5 30.5t37.5 54t27.5 70t10.5 78.5q0 35 -6.5 47.5t-11.5 12.5q-18 0 -33 -24t-27 -64.5t-21.5 -93.5t-16.5 -111zM146 242q-5 -4 -12.5 -15t-16.5 -26t-18 -32.5t-17 -35.5
q14 4 24 14t17 20q13 22 18.5 43.5t4.5 31.5z" />
    <glyph glyph-name="l.001" horiz-adv-x="234" 
d="M95 -123q-18 0 -35.5 8t-30.5 27.5t-21 52t-8 81.5q0 63 9 130.5t24 132t35.5 121.5t43.5 100.5t48 68.5t49 25q8 0 15.5 -5t13.5 -13t9.5 -17.5t3.5 -17.5q0 -34 -12.5 -70t-31 -69t-40 -63t-40.5 -52t-32.5 -36t-15.5 -15q-2 -2 -3 -2q-3 -12 -8.5 -44t-10.5 -72.5
t-8 -84.5t0 -80.5t13.5 -60t32.5 -23.5q18 0 42 26t46.5 61.5t39.5 71.5t23 57q4 8 12 5q3 -1 5 -4t0 -7q-7 -23 -25 -62.5t-42 -77t-50.5 -65t-50.5 -27.5zM212 602q-9 0 -24.5 -24t-33.5 -65t-37 -97t-34 -120q16 17 41.5 47.5t49.5 68t41 79t17 80.5q0 17 -6.5 24
t-13.5 7z" />
    <glyph glyph-name="o.001" horiz-adv-x="213" 
d="M65 -10q-31 0 -47 17.5t-16 34.5q0 23 5 48q-27 24 -27 60q0 23 8 41.5t21.5 31.5t30 20.5t32.5 7.5q19 0 37 -5t32.5 -15.5t23 -26.5t8.5 -38q0 -26 -6 -50.5t-16 -46.5q9 0 20 3.5t21.5 10.5t20 18.5t15.5 29.5q2 10 12 8q8 -3 6 -12q-10 -36 -39 -55.5t-65 -19.5
q-17 -28 -37 -45t-40 -17zM12 111q2 5 5.5 14.5t8.5 18.5t11 16t12 7q10 0 22 -5t14 -7q8 -6 2 -13q-5 -7 -9 -16q-5 -8 -9.5 -17.5t-9.5 -20.5q11 -5 30.5 -10.5t42.5 -7.5q10 20 16.5 45t6.5 51q0 24 -11.5 37.5t-26.5 20t-28.5 8t-16.5 1.5q-12 0 -25 -5.5t-24 -16
t-18 -26t-7 -35.5q0 -22 14 -39zM52 71q-2 -8 -4 -16.5t-2 -16.5q0 -5 4 -15.5t20 -10.5q13 0 26.5 11t25.5 30q-23 2 -41 7.5t-29 10.5z" />
    <glyph glyph-name="r.001" horiz-adv-x="261" 
d="M248 53q8 17 14.5 33t10.5 29q4 8 12 6q8 -4 6 -12q-2 -5 -8.5 -22.5t-17.5 -40.5q-18 -40 -38.5 -85t-43 -82.5t-47 -62t-50.5 -24.5q-36 0 -51.5 26.5t-15.5 70.5q0 15 3.5 38.5t8.5 51t11.5 56t12.5 52.5q9 32 15.5 59t6.5 38q0 3 -4.5 7.5t-10.5 9.5l-5 5
q-5 -18 -10 -35.5t-9.5 -32.5l-7.5 -25t-4 -13q-3 -10 -9 -10q-2 0 -3 1h-1q-9 4 -6 11q1 5 5 17.5t9 29t10.5 35.5t10.5 37q-11 11 -18.5 27t-7.5 37q0 18 6 29t17 11q6 0 14 -2t15.5 -7t12.5 -15t5 -26q0 -11 -6.5 -28.5t-6.5 -31.5q5 -3 15.5 -9.5t21.5 -14t19.5 -15.5
t8.5 -14q0 -12 -4 -28l-13 -52q-6 -22 -12.5 -48.5t-11.5 -52t-8.5 -47.5t-3.5 -36q0 -26 8 -44.5t22 -18.5q12 0 27.5 19t33 49.5t36 70t36.5 79.5z" />
    <glyph glyph-name="s.001" horiz-adv-x="165" 
d="M48 50q-15 24 -29 48t-23.5 47.5t-12.5 47t5 45.5q3 8 18 8q11 0 21 -4t8 -10q-6 -19 -3 -40t12 -43t22 -44.5t27 -45.5q7 -11 13 -21l12 -20q19 27 34 57t25 62q1 7 9 7q5 0 7.5 -3.5t0.5 -8.5q-11 -35 -28 -68.5t-39 -62.5q10 -20 16 -37.5t6 -34.5q0 -22 -8.5 -37
t-20 -24.5t-24 -13.5t-20.5 -4q-20 0 -36 11.5t-16 39.5q0 12 6.5 24.5t15.5 24t19.5 21.5t18.5 17q-9 17 -18.5 33t-17.5 29zM91 -28q-17 -14 -33 -34t-16 -37q0 -12 3 -18.5t7.5 -10t8.5 -4t7 -0.5q11 0 22.5 13.5t11.5 47.5q0 10 -3 20.5t-8 22.5z" />
    <glyph glyph-name="t.001" horiz-adv-x="152" 
d="M-194 341q-8 3 -5 12q11 31 36.5 42.5t58.5 11.5q29 0 62 -6t66 -14q2 0 3 -0.5t3 -0.5q11 61 22.5 106.5t20.5 62.5q2 5 9.5 7t15.5 2q11 0 20.5 -4t6.5 -12q-8 -15 -19 -63.5t-21 -111.5q23 -4 42 -0.5t34 22.5q5 7 13 1q6 -6 1 -13q-19 -23 -43 -28t-50 0
q-9 -60 -15.5 -123t-7 -115t5.5 -85.5t22 -33.5q13 0 25 14t22.5 33t18 38.5t10.5 31.5q3 8 12 6q8 -3 6 -12q-2 -4 -6 -17t-15 -36q-17 -35 -39.5 -60.5t-41.5 -25.5q-3 0 -15.5 2t-26.5 14.5t-25 40t-11 78.5q0 57 7.5 127t18.5 136q-2 0 -3.5 0.5t-3.5 0.5
q-34 8 -65.5 14t-58.5 6q-29 0 -49.5 -9.5t-28.5 -32.5q-2 -5 -4.5 -5.5t-7.5 -0.5z" />
    <glyph glyph-name="u.001" horiz-adv-x="266" 
d="M44 -13q-6 0 -13.5 2t-14.5 8.5t-11.5 18t-4.5 30.5q0 18 2.5 39t6.5 40t7.5 34.5t5.5 21.5q2 5 8 8t14 3q9 0 16.5 -3.5t5.5 -11.5q-6 -21 -11 -46.5t-8 -49t-3 -41.5t5 -24q1 -1 3 -1q6 0 17 13t24.5 34t28 47.5t27.5 54.5q5 23 11 42.5t11 34.5q1 7 13 7
q11 0 23.5 -7.5t10.5 -16.5q-16 -47 -26.5 -87.5t-16 -71.5t-4.5 -52t7 -30q3 -4 8 -4q15 0 29.5 16t26.5 38t21.5 45t13.5 37q3 8 12 6q8 -3 6 -12q-6 -17 -17.5 -44t-27 -52.5t-34 -44t-38.5 -18.5t-36.5 18t-16.5 51q0 31 8 74q-11 -19 -23 -38t-23.5 -34t-22.5 -24.5
t-20 -9.5z" />
    <glyph glyph-name="w.001" horiz-adv-x="343" 
d="M47 0q-17 0 -32 15t-15 47q0 20 3 43.5t7 45t8 39t6 24.5q1 5 6 6.5t12 1.5q12 0 23.5 -4t9.5 -9q-6 -22 -11.5 -53t-9 -59t-4 -48t3.5 -20q5 2 13 14.5t18.5 32t21.5 44.5t22 51q5 16 8 27t4 15q2 6 14 6t24.5 -5.5t10.5 -13.5q-7 -21 -14 -48t-13 -56t-10.5 -56.5
t-5.5 -49.5t2.5 -35.5t11.5 -13.5t19 9.5t22 25t22.5 36.5t21.5 44q-18 11 -30.5 30.5t-12.5 48.5q0 45 17 71.5t37 26.5q11 0 24 -13.5t13 -41.5q0 -25 -6.5 -53.5t-17.5 -57.5q7 -4 17 -4q18 0 38.5 15.5t32.5 52.5q2 10 12 8q8 -3 6 -12q-11 -39 -36 -60.5t-54 -21.5
q-12 0 -23 4q-11 -26 -25 -50t-29 -42t-31 -28.5t-31 -10.5q-6 0 -15 3t-17 10.5t-14 20.5t-6 33t3 44t8 49q-17 -32 -32.5 -55t-26.5 -23zM255 80q9 26 15 51.5t6 46.5q0 19 -5.5 27.5t-12.5 8.5q-6 0 -13.5 -22.5t-7.5 -52.5q0 -16 4.5 -32t13.5 -27z" />
    <glyph glyph-name="y.001" horiz-adv-x="256" 
d="M45 2q-5 0 -12.5 3t-14.5 9.5t-12 17t-5 24.5q0 16 5 37t11 40.5t12 34.5t7 18q3 7 16 7q9 0 16.5 -4t5.5 -10q-6 -14 -13 -35.5t-12.5 -43t-7.5 -39.5t3 -25q3 -5 11 -5q9 0 24.5 12.5t32.5 32t34 44t30 47.5q5 23 7.5 36.5t2.5 14.5q1 5 5.5 7.5t10.5 2.5q10 0 20 -5
t9 -12q-1 -5 -5 -33.5t-12 -72.5t-21 -99t-31 -113q21 5 48.5 13.5t54 18.5t48.5 19.5t32 17.5q8 5 13 -2t-2 -12q-11 -8 -35.5 -19t-54 -22t-59.5 -20t-51 -14q-20 -59 -46 -115.5t-59.5 -100.5t-74.5 -70.5t-90 -26.5q-16 0 -31.5 7t-27.5 19.5t-19.5 29.5t-7.5 37
q0 34 20.5 63.5t51 53t67.5 42t69.5 31t56 19t28.5 7.5q24 67 42 132t29 116q-13 -18 -28.5 -38.5t-32 -37.5t-31.5 -28t-27 -11zM85 -151l-36 -12t-54 -20.5t-61 -29t-57 -37t-42.5 -45t-16.5 -52.5q0 -17 6 -29t14.5 -19.5t18 -11.5t16.5 -4q33 0 63 21.5t56.5 57.5t50 83
t42.5 98z" />
    <glyph glyph-name="z.001" horiz-adv-x="278" 
d="M-30 -400q-39 0 -54.5 23.5t-15.5 50.5q0 32 20.5 72t52 81t69 80.5t70 71t56 52t27.5 23.5q-14 23 -40 23q-16 0 -29.5 -6t-24.5 -14q-9 -13 -16.5 -23t-13.5 -17q-1 -3 -7 -3q-2 0 -12.5 6t-12.5 7q-7 5 -1 13q20 25 40.5 55.5t32.5 57t11.5 44.5t-24.5 18
q-11 0 -26 -12.5t-24 -38.5q-13 -34 -17.5 -47.5l-5.5 -16.5q-4 -10 -10 -10q-1 0 -2 1h-1q-8 3 -5 11q2 9 7 21t14 38q16 44 40.5 60t49.5 16q5 0 13 -2.5t15 -8.5t12 -16.5t5 -27.5q0 -18 -11.5 -42.5t-27.5 -49.5q15 5 31 5q17 0 35 -5.5t32.5 -17.5t24 -31t9.5 -46
q0 -77 -29 -148t-72.5 -126t-93.5 -88t-91 -33zM203 37q-9 -8 -33.5 -30t-56 -53t-66 -68t-63.5 -74.5t-47.5 -73.5t-18.5 -64q0 -18 13.5 -30t28.5 -12q24 0 52 18.5t56 48.5t53.5 68.5t45 79t31 79.5t11.5 69q0 24 -6 42z" />
    <glyph glyph-name="a_a" horiz-adv-x="536" 
d="M215 -2q-34 0 -53.5 20t-14.5 76q-10 -18 -21.5 -35.5t-23.5 -31.5t-24 -22.5t-23 -8.5q-6 0 -15.5 3t-18.5 10t-15 18.5t-6 28.5q0 30 5.5 62.5t18.5 59.5t35.5 44.5t56.5 17.5q17 0 31.5 -14.5t21.5 -37.5q3 9 6 19t7 21q5 5 14 5q11 0 22 -6t15 -14q-22 -63 -29 -101
t-5.5 -58t8.5 -26t13 -6q16 0 35 23t30 56q8 58 29.5 82.5t40.5 24.5q15 0 26.5 -6t19.5 -15t13.5 -20t8.5 -21q5 14 9.5 28t10.5 30q4 5 15 5t21.5 -5.5t14.5 -13.5q-16 -54 -22 -87t-5 -51t7.5 -24t14.5 -6q11 0 20.5 11.5t17 26.5t13 30.5t8.5 24.5q3 8 12 6q8 -4 6 -12
q-2 -4 -7 -19t-16 -38q-11 -25 -29 -39.5t-36 -14.5q-35 0 -53.5 19.5t-13.5 70.5q-7 -14 -16.5 -30.5t-20 -31t-22 -24t-22.5 -9.5q-17 0 -32 15t-15 47q-13 -21 -30 -39t-38 -18zM119 216q-12 0 -24.5 -18t-22.5 -44.5t-16.5 -57t-6.5 -54.5q0 -28 6 -28q9 0 21.5 12
t26 31.5t27.5 44t26 48.5q-1 30 -11.5 48t-25.5 18zM378 173q-14 0 -30.5 -42.5t-17.5 -117.5q8 3 18 14.5t21 27t21.5 34.5t18.5 37q0 6 -1 14t-4.5 15.5t-9.5 12.5t-16 5z" />
    <glyph glyph-name="i_i" horiz-adv-x="250" 
d="M49 338q0 15 9 25.5t21 10.5q13 0 23.5 -9.5t10.5 -26.5t-12 -26.5t-24 -9.5t-20 11t-8 25zM171 313q0 14 9.5 21t17.5 7q19 0 29 -11.5t10 -22.5t-11 -22.5t-23 -11.5t-22 10t-10 30zM261 115q4 8 12 5q8 -2 6 -11q-2 -5 -8.5 -22.5t-17.5 -40.5q-6 -12 -15 -23.5
t-19 -20.5t-20 -14t-19 -5q-21 0 -33 5.5t-18.5 13t-8.5 16t-2 13.5q-12 -19 -26.5 -33.5t-29.5 -14.5q-23 0 -35.5 6.5t-18.5 15.5t-7 17.5t-1 12.5q0 21 5 52t11.5 60.5t13 52t8.5 27.5q4 7 18 7q13 0 24.5 -6t6.5 -15q-10 -21 -19.5 -52t-15 -62t-6.5 -57t5 -35
q2 -6 11 -6q14 0 29 23.5t30 50.5q3 21 7 42t8 39t7.5 31t5.5 17q1 2 7 1.5t13 -2t13.5 -3.5t7.5 -3q9 -4 5 -12q-10 -21 -18 -48t-11.5 -52.5t-3 -47t6.5 -30.5l4 -4t7 -2q14 0 27.5 13.5t24 31.5t18.5 37.5t11 31.5z" />
    <glyph glyph-name="u_u" horiz-adv-x="436" 
d="M45 -5q-12 0 -28.5 13t-16.5 44q0 23 4.5 54t10.5 61t11.5 52.5t6.5 26.5q1 5 9 5q10 0 22 -7t10 -15q-9 -36 -16.5 -73.5t-11.5 -68t-4 -50.5t6 -20q4 0 14 14t22.5 34t25.5 42t22 40q3 20 7 38.5t7.5 32t5.5 21l2 7.5q1 5 9 5q10 0 22 -7t11 -15q-9 -36 -16 -75
t-10.5 -72t-3.5 -55.5t4 -24.5q4 0 12 12.5t18 30.5t20.5 38.5t19.5 38.5q5 33 11.5 60t8.5 33q2 5 9 5q10 0 22 -7.5t10 -15.5q-9 -35 -14.5 -67t-8 -56t-1.5 -39.5t5 -17.5q3 0 11 10t18 25.5t20 34t19 35.5q6 33 12.5 60t8.5 33q2 5 8 5q5 0 11 -2t11 -5.5t8.5 -7.5
t2.5 -8q-9 -35 -15 -67.5t-8.5 -57.5t-1.5 -40t5 -15q8 0 16.5 13t16.5 29.5t14 32.5t8 23q4 8 12 6q8 -3 6 -12q-2 -4 -8.5 -22t-17.5 -41q-11 -24 -23.5 -37.5t-26.5 -13.5q-12 0 -28.5 15t-16.5 47v7.5t1 8.5q-8 -14 -17 -28t-18 -25t-17.5 -18t-14.5 -7q-12 0 -28.5 15
t-16.5 47v12q-8 -16 -17 -31.5t-17.5 -28.5t-17 -21t-14.5 -8q-24 0 -34.5 22.5t-10.5 54.5q0 9 0.5 18t1.5 20q-9 -17 -20 -34.5t-22 -32t-20.5 -24t-16.5 -9.5z" />
    <glyph glyph-name="e_e" horiz-adv-x="327" 
d="M313 53q8 17 14.5 32.5t11.5 28.5q2 10 11 6q10 -2 6 -11q-6 -18 -13.5 -38t-19 -37t-27 -28t-38.5 -11q-10 0 -22.5 3t-24 10.5t-20.5 20.5t-12 32q-6 -12 -15 -24.5t-20 -23t-25 -17t-31 -6.5q-4 0 -18 2t-29.5 12t-28 29.5t-12.5 54.5q0 38 8 66t20.5 47.5t28.5 29
t32 9.5q26 0 37.5 -17t11.5 -37q0 -39 -18.5 -62.5t-50.5 -23.5q-9 0 -19 7v-19q0 -45 12 -62.5t26 -17.5q23 0 40 15.5t28.5 34.5t17.5 34.5t6 16.5q4 32 15.5 52.5t25 32.5t26 16.5t19.5 4.5q13 0 27 -9.5t14 -34.5q0 -21 -6 -36t-15 -24.5t-19.5 -14t-19.5 -4.5
q-8 0 -13 2.5t-10 6.5q-1 -5 -1 -10v-11q0 -28 10.5 -47t24.5 -19q16 0 30 9t25 30zM54 130q2 -5 7.5 -8.5t7.5 -3.5q12 0 19.5 7.5t12 18t6.5 22.5t2 20q0 23 -5 27t-7 4q-17 0 -27.5 -26.5t-15.5 -60.5zM227 130q2 -4 6.5 -12t13.5 -8q12 0 23.5 14.5t11.5 51.5
q0 11 -5.5 16t-10.5 5q-9 0 -21 -14.5t-18 -52.5z" />
    <glyph glyph-name="o_o" horiz-adv-x="432" 
d="M82 -10q-14 0 -28.5 3.5t-26.5 12.5t-19.5 24t-7.5 38q0 19 4 39.5t10.5 39.5t14.5 34.5t16 25.5q4 5 15 5q6 0 12.5 -1.5t11.5 -4t7 -5.5t0 -6q-10 -12 -19.5 -32.5t-15 -43.5t-6.5 -45t5 -36q9 -19 32 -19q28 0 48.5 23t34.5 54q-29 11 -46.5 35.5t-17.5 53.5
q0 36 15.5 52.5t32.5 16.5q8 0 17.5 -4t17.5 -12t13.5 -21.5t5.5 -33.5q0 -15 -3 -35t-10 -40q3 -1 9 -1q11 0 20 3t15 7q5 17 10 29.5t7 15.5q2 4 8 5.5t12.5 1.5t12.5 -0.5t8 -1.5q8 23 25 34t32 11q22 0 36 -15.5t14 -40.5q0 -38 -19 -84q23 2 35.5 14t23.5 45q2 10 12 8
q8 -3 6 -12q-10 -38 -28.5 -56t-58.5 -18q-14 -25 -34.5 -42t-47.5 -17q-9 0 -19.5 3.5t-20.5 11.5t-16.5 20t-6.5 30q0 19 3 35q-13 -5 -29 -5h-8t-8 1q-16 -39 -42.5 -69.5t-63.5 -30.5zM154 236q-11 0 -20.5 -12.5t-9.5 -38.5q0 -23 15 -43.5t38 -29.5q6 20 9.5 38
t3.5 33q0 29 -12.5 41t-23.5 12zM366 74q10 21 14.5 43.5t4.5 38.5q0 14 -7.5 26t-23.5 12t-28.5 -15t-12.5 -44q0 -19 16.5 -37t36.5 -24zM357 57q-24 8 -43.5 29.5t-21.5 45.5q-4 -12 -8.5 -26.5t-7 -28.5t-2 -26t5.5 -20q7 -11 25 -11q17 0 29.5 10t22.5 27z" />
    <glyph glyph-name="B_r" horiz-adv-x="749" 
d="M244 313q40 -2 77.5 -14.5t66 -35.5t46 -56.5t17.5 -77.5q25 20 49.5 48.5t38.5 63.5q-12 12 -22.5 29.5t-10.5 42.5q0 18 6 29t17 11q6 0 14 -2t15.5 -7t12.5 -15t5 -26q0 -10 -6.5 -28t-5.5 -32q4 -3 14.5 -9.5t21.5 -14t19.5 -15.5t8.5 -14q0 -12 -3.5 -28t-13.5 -52
q-6 -22 -11.5 -53t-10 -61.5t-7.5 -57t-3 -40.5q0 -26 7.5 -44.5t27.5 -18.5q15 0 29 19t27.5 49.5t28.5 70t33 79.5q8 17 14 33t11 29q1 3 4.5 5.5t7.5 0.5q8 -2 6 -12q-2 -5 -8.5 -22.5t-17.5 -40.5q-18 -40 -34 -85t-33 -82.5t-36.5 -62t-45.5 -24.5q-22 0 -38.5 10
t-27.5 26.5t-16 37.5t-5 43q0 15 3 40t7.5 53.5t10.5 58.5t12 54q8 32 15 59t7 38q0 3 -4.5 7t-10.5 9q-17 -39 -46.5 -71t-57.5 -52q-6 -51 -32.5 -98.5t-65.5 -84t-87.5 -58.5t-98.5 -22q-18 0 -33.5 11.5t-15.5 30.5q0 29 18 56.5t47 52t65.5 44.5t73.5 34q13 5 25.5 10
t25.5 10q2 8 2.5 15t1.5 15q0 36 -19 68.5t-46.5 57t-59 39t-56.5 14.5q-9 0 -9 10q0 9 9 9q29 0 52 18t39 45.5t24.5 60.5t8.5 62q0 21 -4.5 35t-10.5 22.5t-13 11.5t-12 3q-31 0 -55 -24.5t-43 -64.5t-32.5 -91t-23.5 -104t-17 -103.5t-12 -88.5q-8 -69 -16.5 -95.5
t-18.5 -26.5q-9 0 -19.5 3t-19.5 11t-15 21.5t-6 33.5q0 40 4.5 89t11.5 100t15.5 100.5t16 90.5t13.5 70.5t8 39.5q2 7 11 10t20 3q13 0 23.5 -4t8.5 -12q-15 -84 -29.5 -168.5t-25 -156t-14 -122.5t2.5 -67q2 12 5 34.5t6 47.5q6 43 13.5 97t18.5 109.5t26 108t36 94
t48 66.5t62 25q12 0 28 -5t30.5 -17t25 -33t10.5 -54q0 -52 -17 -86t-39 -54.5t-43.5 -29.5t-31.5 -11zM147 -123q34 0 68.5 18t64.5 45.5t52.5 61.5t32.5 67l-39 -15q-34 -13 -68 -31.5t-61.5 -40.5t-45 -45.5t-17.5 -46.5q0 -5 2.5 -9t10.5 -4z" />
    <glyph glyph-name="D_r" horiz-adv-x="740" 
d="M266 563q18 0 48.5 -7.5t60.5 -28.5t51.5 -57.5t21.5 -93.5q0 -74 -8 -135.5t-23 -113.5q38 23 73 53t63 68q-8 11 -13 24.5t-5 30.5q0 18 5.5 29t16.5 11q6 0 14.5 -2t16 -7t12.5 -15t5 -27q0 -10 -6.5 -27.5t-6.5 -31.5h1q5 -4 15.5 -10t21 -13.5t19 -15.5t8.5 -14
t-4 -18.5t-10 -29t-12 -35.5t-11 -37q-6 -22 -12 -39.5t-10.5 -31.5t-7.5 -27t-3 -27q0 -26 8.5 -37.5t19.5 -11.5q19 0 41 28t42 66t36 76t23 59q1 3 4.5 5.5t7.5 0.5q8 -2 6 -12q-2 -5 -8.5 -22.5t-17.5 -40.5q-18 -40 -35.5 -77t-36 -65t-38.5 -44.5t-42 -16.5
q-38 0 -57 23t-19 67q0 25 11.5 64.5t26 79.5t26 74.5t11.5 50.5q0 3 -4.5 7.5t-10.5 9.5q-4 3 -8 6.5t-8 8.5q-32 -44 -72 -76t-84 -55q-24 -70 -59.5 -120t-78.5 -82t-91 -47t-96 -16q-21 0 -43 4t-40 14t-29.5 27t-11.5 42q0 26 10.5 45.5t29.5 33.5q-1 38 -0.5 89.5
t1 107t1.5 109t2.5 96.5t2 70t0.5 28q0 5 9.5 7.5t20.5 2.5q14 0 27.5 -3.5t12.5 -11.5q0 -1 -1.5 -35.5t-3.5 -88.5q11 29 28.5 62t41.5 61t55 46.5t69 18.5zM69 311q-1 -34 -3 -71t-3.5 -73.5t-3 -70.5t-3.5 -64q20 6 43 10t47 6q38 3 79 10.5t84 21.5q29 61 46.5 135.5
t17.5 160.5q0 76 -29 116t-84 40q-30 0 -55 -13.5t-45.5 -34t-35.5 -46.5t-26.5 -50.5t-18.5 -45t-10 -31.5zM2 -41q0 5 -0.5 10t-0.5 11q-23 -25 -23 -55q0 -32 26.5 -50t75.5 -19q23 0 50.5 14t56.5 40t58 63t53 85q-41 -13 -79 -19.5t-71 -8.5q-55 -4 -93 -18
q-2 -32 -3 -53q0 -8 -7 -11t-15 -3q-10 0 -18 3.5t-10 10.5z" />
    <glyph glyph-name="S_r" horiz-adv-x="642" 
d="M193 249q28 -30 52.5 -62t41.5 -64q40 20 72.5 51t49.5 80q-9 11 -15.5 25.5t-6.5 33.5q0 18 6 29t17 11q6 0 14 -2t15.5 -7.5t12.5 -15.5t5 -26q0 -10 -6 -27.5t-6 -31.5q5 -4 15.5 -10.5t21 -14t19 -15t8.5 -13.5q0 -12 -3.5 -38t-13.5 -62q-6 -22 -11 -49.5
t-8.5 -54.5t-5.5 -50t-2 -37q0 -26 9 -45t26 -19q15 0 30.5 19t31.5 49.5t32 70t34 79.5q8 17 14.5 33t10.5 29q4 8 12 6q8 -3 6 -12q-2 -5 -8.5 -22.5t-17.5 -40.5q-18 -40 -35 -85t-36 -82.5t-40.5 -62t-47.5 -24.5q-22 0 -38.5 10t-27 26.5t-15.5 37.5t-5 43q0 15 2 37
t5.5 47t8.5 51.5t11 50.5q4 16 8 34.5t7 35t5 29.5t2 18q0 3 -5 7.5t-10 9.5q-2 2 -5 4.5t-5 4.5q-19 -49 -53.5 -80.5t-75.5 -51.5q22 -46 22 -89q0 -73 -44 -110t-115 -37q-60 0 -93.5 26t-33.5 73q0 32 12.5 51.5t33 32t47.5 20t55 13.5l16 4l16 4q-25 42 -61.5 85.5
t-69.5 87.5t-56.5 87.5t-23.5 84.5q0 25 5 48.5t19.5 41.5t41 28.5t68.5 10.5q48 0 78 -15.5t47 -34t23.5 -34.5t6.5 -17q2 -7 -5 -9q-7 -4 -9 4q0 1 -5.5 12.5t-18.5 25t-35 25t-56 11.5q-45 0 -64.5 -25.5t-19.5 -70.5q0 -18 10 -41t26.5 -48.5t37.5 -52t43 -49.5z
M154 -112q40 0 66 27t26 82q0 19 -7 39.5t-18 41.5q-19 -6 -38 -9q-28 -6 -52 -13t-42 -17.5t-28.5 -27t-10.5 -42.5t11.5 -42t28 -24.5t34 -11.5t30.5 -3z" />
    <glyph glyph-name="b_r" horiz-adv-x="453" 
d="M11 -45q-1 2 -6 35.5t-5 91.5q0 96 13 191.5t35.5 171.5t53.5 123.5t67 47.5q11 0 22.5 -13t11.5 -39q0 -29 -17 -61.5t-38 -61t-39.5 -48.5t-22.5 -24q-13 -62 -21 -134t-8 -153v-21.5t1 -20.5q8 36 21 68t28 56.5t31 39t30 14.5q12 0 29 -6t26 -34q19 14 34 31t23 34
l-11 13q-3 5 -9.5 11t-12.5 12.5t-10.5 12.5t-4.5 10q0 8 5.5 15.5t13 13.5t15.5 9.5t14 3.5t13.5 -2t13.5 -8t10.5 -17.5t4.5 -30.5q0 -11 -7.5 -22t-14.5 -18q4 -3 7 -6l6 -6q6 -7 17.5 -14.5t22.5 -16.5t19 -18.5t8 -20.5q0 -10 -2.5 -21t-6.5 -23q-4 -16 -11.5 -39.5
t-11 -45t-1.5 -37t15 -15.5q18 0 35 14.5t30.5 35t23.5 43t15 38.5q4 9 11 6q4 -1 6 -4.5t0 -6.5q-7 -20 -17.5 -46t-25.5 -49.5t-34.5 -40t-43.5 -16.5q-40 0 -56 23q-9 13 -11 30.5t1 37t8.5 39.5t11.5 39q5 17 9 31t4 22q0 10 -8.5 20t-20.5 22l-4 4l-4 4
q-12 -22 -29 -40t-36 -32q1 -5 1.5 -11.5t0.5 -13.5q0 -27 -9.5 -51.5t-25.5 -42.5t-36.5 -29t-41.5 -11q-15 0 -26.5 11.5t-14.5 23.5q-8 -40 -8 -75q1 -8 -9 -12.5t-22 -4.5q-9 0 -16 3t-9 11zM171 593q-6 0 -14.5 -13.5t-19 -38t-22 -59.5t-21.5 -78q12 14 27.5 33
t29.5 41t23.5 44t9.5 41q0 30 -13 30zM96 105q11 8 24 14.5t27 12.5q7 3 15 7t16 9v5q0 4 -0.5 10.5t-2 13t-4.5 11t-9 4.5q-13 0 -31.5 -24t-34.5 -63zM176 125q-6 -3 -11.5 -5.5t-10.5 -4.5q-32 -14 -49.5 -26.5t-17.5 -35.5q0 -3 -1 -4q2 -10 7.5 -18.5t16.5 -8.5
q10 0 19.5 7t17 18.5t14 26.5t10.5 31q1 5 3 10z" />
    <glyph glyph-name="J_r" horiz-adv-x="542" 
d="M129 524q51 0 83 -39.5t32 -111.5q0 -13 -1 -38.5t-3 -60t-6.5 -75.5t-12.5 -85q35 19 61 46t40 66q-11 12 -19.5 28.5t-8.5 38.5q0 18 6 29t17 11q6 0 14 -2t15.5 -7t12.5 -15t5 -26q0 -11 -6 -28.5t-6 -31.5q4 -3 14.5 -9.5t22 -14t20 -15.5t8.5 -14q0 -12 -4 -28
t-14 -52q-12 -45 -21.5 -84t-9.5 -68q0 -25 8 -43t22 -20q15 0 31 13.5t31.5 35.5t30.5 48.5t27.5 53.5t22.5 50.5t15 38.5q1 3 4.5 5.5t7.5 0.5q8 -2 6 -12q-2 -5 -8.5 -22.5t-17.5 -40.5q-18 -40 -37.5 -78.5t-40.5 -68.5t-43 -48.5t-46 -18.5q-40 0 -59 31.5t-19 75.5
q0 30 9 68.5t22 87.5q8 32 15 59t7 38q0 3 -5 7.5t-10 9.5q-3 1 -4 4q-17 -45 -49 -74t-72 -49q-6 -28 -15 -63t-22.5 -70.5t-31.5 -69t-42 -59.5t-53.5 -41.5t-66.5 -15.5h-7h-5q-48 4 -75.5 31.5t-27.5 72.5q0 31 16 59.5t43 51.5t61.5 41t71.5 28q21 6 42.5 13t43.5 15
l5 19q7 26 12 62.5t8 75.5t4.5 76.5t1.5 64.5q0 125 -50 125q-19 0 -37.5 -11t-33.5 -28.5t-24 -40t-9 -45.5q0 -9 -9 -9t-9 9q0 27 10.5 52.5t27.5 45.5t39 32.5t45 12.5zM-24 -210q28 2 52.5 26.5t45.5 63t38 85.5t30 95q-19 -6 -37.5 -11.5t-37.5 -11.5
q-36 -10 -68.5 -26.5t-57 -38t-39 -46t-14.5 -51.5q0 -38 23 -60.5t65 -24.5z" />
    <glyph glyph-name="T_h" horiz-adv-x="502" 
d="M54 -55q0 1 1 49.5t5.5 130t12.5 188.5t20 224q-52 -3 -93.5 -23.5t-62.5 -69.5q-2 -6 -8 -6q-1 0 -1.5 0.5t-1.5 0.5q-8 3 -5 12q13 31 33 51t45.5 32t55.5 17t63 5q44 0 89 -6t88 -14q32 88 78 132t113 44q33 0 52 -20.5t19 -57.5q0 -24 -9.5 -48t-27 -43t-42 -31
t-54.5 -12q-13 0 -28.5 2t-30.5 4q-16 -55 -28.5 -118t-22.5 -127t-17 -126t-12 -115q12 29 28 61t32 59t32 44.5t28 17.5q11 0 17 -8q10 -11 8.5 -33t-6.5 -51q-1 -6 -2 -20t0.5 -29t6.5 -26t16 -11q14 0 25 9.5t19 23.5t14 29.5t10 27.5q3 6 9 6q5 0 7.5 -3.5t1.5 -8.5
q-6 -16 -14 -36t-19.5 -37t-27 -28.5t-36.5 -11.5q-28 0 -44 12.5t-23.5 31t-8 39t1.5 35.5q2 7 2.5 13t2.5 11q-12 -19 -24.5 -43.5t-24 -49.5t-21 -48.5t-15.5 -41.5q-1 -5 -1 -10.5t-1 -10.5q-1 -11 -11 -16.5t-23 -5.5q-15 0 -27.5 8t-12.5 26q0 1 1.5 32.5t5.5 83.5
t11.5 119t19.5 138q10 59 21.5 108.5t25.5 91.5q-29 5 -59 10t-59 7q-13 -115 -21.5 -214.5t-14.5 -176.5t-9 -128.5t-5 -69.5q-1 -15 -12.5 -23.5t-24.5 -8.5q-12 0 -21 7.5t-9 23.5zM370 523q14 -2 28.5 -3.5t25.5 -1.5q26 0 47 10.5t36 27t23 37t8 41.5q0 60 -52 60
q-35 0 -64 -48t-52 -123z" />
    <glyph glyph-name="s_r" horiz-adv-x="380" 
d="M282 -34q16 0 27.5 7.5t21.5 20t18 28t17 31.5q9 17 15.5 33t10.5 29q4 8 12 6q8 -4 5 -12q-1 -5 -7.5 -22.5t-17.5 -40.5q-9 -19 -18.5 -38t-21.5 -34t-27 -24.5t-35 -9.5q-39 0 -57 23q-9 13 -11 30.5t1 37t8.5 39.5t11.5 39q5 17 9 31.5t4 22.5q0 10 -8.5 20t-19.5 21
q-8 -37 -33 -63.5t-57 -46.5q6 -15 10 -30t4 -30q0 -18 -7 -35t-19 -30t-28.5 -21t-35.5 -8q-26 0 -39.5 15.5t-13.5 32.5q0 19 9 35t21.5 28.5t25.5 21.5t21 13q-7 17 -16 34t-19 34q-5 -21 -9.5 -36t-6.5 -18q-3 -10 -9 -10q-2 0 -3 1h-1q-9 4 -6 11q2 6 8 27.5t14 47.5
q-9 18 -15.5 33t-6.5 26q0 8 8 11t17 3q8 0 15 -2.5t7 -6.5q0 -10 7 -24t17.5 -31t22 -36t21.5 -40q32 20 54.5 46.5t24.5 63.5q-11 11 -20.5 27.5t-9.5 37.5q0 17 7.5 29.5t19.5 12.5q6 0 13.5 -1.5t14 -7.5t11 -17.5t4.5 -30.5q0 -11 -7.5 -22t-13.5 -18q9 -11 22.5 -21
t26 -20t21.5 -20t9 -21t-3 -22t-7 -22q-5 -16 -12 -40t-10.5 -45.5t-1 -37t15.5 -15.5zM85 69q-10 -5 -21.5 -13.5t-21.5 -19t-16.5 -23t-6.5 -25.5q0 -11 8.5 -18t17.5 -7q25 0 36.5 19t11.5 49q0 16 -8 38z" />
    <glyph glyph-name="o_r" horiz-adv-x="427" 
d="M158 87l-1 -3q-18 -39 -43 -60t-51 -21q-9 0 -19.5 3.5t-20.5 11.5t-16.5 20t-6.5 30q0 19 4 37.5t9.5 34t10.5 26t6 13.5q2 5 7.5 6t12.5 1t12.5 -0.5t7.5 -2.5q8 -3 5 -12q-4 -9 -11 -27t-12.5 -37.5t-6.5 -37.5t5 -29q8 -11 25 -11q19 0 35.5 16.5t27.5 42.5
q-23 8 -39.5 28t-16.5 44q0 32 13.5 47t28.5 15q22 0 36 -16t14 -41q0 -15 -2.5 -30t-7.5 -30q13 0 25 5t23 17.5t20 34.5t15 58q-11 13 -21 30t-10 34t7.5 29.5t19.5 12.5q6 0 13.5 -1.5t14 -7.5t11 -17.5t4.5 -30.5q0 -11 -7 -21.5t-13 -17.5v-4q3 -2 5.5 -5t5.5 -5
q6 -6 17.5 -13.5t22.5 -16.5t19 -18.5t8 -20.5t-3 -22t-7 -22q-5 -16 -11.5 -39.5t-9.5 -45.5t0 -37t16 -15q16 0 27.5 7.5t21.5 20t18 28t17 31.5q8 17 14.5 33t11.5 29q2 8 11 6q9 -4 6 -12q-2 -5 -8.5 -22.5t-17.5 -40.5q-9 -19 -18.5 -38t-21.5 -34t-27 -24.5t-35 -9.5
q-39 0 -54 17t-16.5 42.5t6.5 55t15 53.5q5 17 9.5 31.5t4.5 22.5q0 10 -9 20t-20 21q-5 -22 -12.5 -43t-19.5 -37t-30 -26t-44 -10zM145 105q5 14 7.5 30t2.5 30t-7.5 26t-23.5 12q-6 0 -15 -8.5t-9 -34.5q0 -18 13 -33.5t32 -21.5z" />
    <glyph glyph-name="C_r" horiz-adv-x="561" 
d="M168 -109q-20 0 -48.5 4.5t-55 27.5t-45.5 71t-19 135q0 114 17.5 196t46 134.5t65 77.5t75.5 25q21 0 36.5 -10.5t25 -27t14.5 -37.5t5 -42q0 -9 -9 -9t-9 9q0 18 -4 35.5t-11.5 31.5t-19.5 22.5t-28 8.5q-19 0 -40.5 -27t-39.5 -79.5t-30 -130t-12 -177.5
q0 -59 9 -99.5t23 -66t30 -37t30 -11.5q25 0 49.5 23t47 57t42 74t34 74.5t23 58t8.5 24.5q-9 11 -17 25.5t-8 33.5q0 17 7.5 29.5t19.5 12.5q6 0 13.5 -1.5t14 -7.5t11 -17.5t4.5 -30.5q0 -11 -7.5 -22t-14.5 -18q9 -10 23 -20.5t26.5 -20.5t21.5 -20t9 -21t-3 -22t-7 -22
q-5 -16 -12 -40t-10.5 -45.5t-1 -37t15.5 -15.5q16 0 27.5 7.5t21.5 20t18 28t17 31.5q9 17 15 33t11 29q4 8 11 6q9 -4 6 -12q-1 -5 -7.5 -22.5t-17.5 -40.5q-9 -19 -18.5 -38t-21.5 -34t-27 -24.5t-35 -9.5q-38 0 -52.5 18t-16 44t6.5 55t15 52q5 17 9 31.5t4 22.5
q0 10 -8.5 20t-19.5 21q-2 1 -4 3t-5 4q-3 -11 -12.5 -39t-23.5 -64t-33.5 -74t-43 -70t-51.5 -52.5t-60 -20.5z" />
    <glyph glyph-name="E_r" horiz-adv-x="616" 
d="M201 -83q-43 0 -80 12t-64 36t-42 60t-15 84q0 55 21 95t54.5 65.5t75 38t81.5 12.5q-4 0 -23 5t-40 18t-38 36t-17 60q0 28 11.5 50t31.5 37.5t47 24t58 8.5q32 0 53.5 -13t35 -28.5t19 -29l5.5 -13.5q2 -9 -7 -11t-11 7q0 1 -3.5 12t-13 23.5t-25.5 22.5t-42 10
q-30 0 -55 -24t-25 -76q0 -32 13.5 -54.5t30 -36.5t30.5 -20l14 -6q6 -3 6 -10q-2 -8 -9 -8q-32 0 -64 -11.5t-57.5 -35.5t-41.5 -61t-16 -87q0 -28 8 -55.5t24.5 -49.5t41 -35.5t58.5 -13.5q32 0 58 18.5t46.5 47t35.5 62.5t25.5 65t16.5 55l8 32q-8 10 -13 22.5t-5 27.5
q0 17 8 29t20 12q6 0 13.5 -1.5t13.5 -7.5t10.5 -17.5t4.5 -30.5q0 -11 -7.5 -22t-13.5 -18q9 -10 23 -20.5t26.5 -20.5t21.5 -20t9 -21t-3.5 -22t-6.5 -22q-5 -16 -11 -39.5t-9 -45.5t0 -37t16 -15q16 0 27.5 7.5t21.5 20t18 28t17 31.5q8 17 14.5 33t11.5 29q2 8 11 6
q9 -4 6 -12q-2 -5 -8 -22.5t-17 -40.5q-9 -19 -19 -38t-21.5 -34t-26.5 -24.5t-35 -9.5q-39 0 -55 17t-17.5 42.5t6 54.5t15.5 54q5 17 9 31.5t4 22.5q0 10 -8.5 20t-20.5 21q-2 2 -6 5.5t-9 9.5q-2 -13 -8.5 -40.5t-18.5 -61t-29.5 -68.5t-43 -64.5t-59 -48t-76.5 -18.5z
" />
    <glyph glyph-name="t_t" horiz-adv-x="386" 
d="M75 -80q-11 0 -24 6t-24 21.5t-18.5 42.5t-7.5 69q0 60 7.5 141.5t20.5 182.5q-44 4 -77.5 2t-49.5 -15q-7 -6 -13 2q-6 7 2 13q20 15 56.5 17.5t83.5 -1.5q5 35 9.5 71.5t9.5 75.5q1 5 6 7t13 2q15 0 31.5 -6.5t15.5 -17.5q-6 -33 -10.5 -68t-9.5 -71q10 -1 19.5 -2
t20.5 -3q22 -3 44.5 -5.5t44.5 -4.5q4 29 8 61t9 67q1 10 18 10q14 0 29.5 -7t14.5 -18q-4 -28 -7.5 -57.5t-7.5 -60.5q38 -1 66.5 4.5t39.5 22.5q6 8 13 2q7 -5 3 -13q-14 -20 -42.5 -27t-67.5 -7h-14q-8 -73 -13 -145t-5.5 -129t5.5 -92t20 -35q6 0 16 7.5t21 21t22 31
t20 38.5q8 17 14 33t11 29q2 8 11 6q9 -4 6 -12q-2 -4 -8.5 -22t-17.5 -41q-10 -22 -23 -42.5t-27.5 -37t-29 -26.5t-27.5 -10q-10 0 -24.5 6.5t-27 21.5t-21.5 39.5t-9 61.5v7q-11 -22 -25.5 -47.5t-31 -47.5t-34 -36.5t-34.5 -14.5zM201 112q2 52 7.5 112t14.5 136
q-32 3 -64.5 7t-64.5 9q-10 -81 -16 -158t-8 -138t0.5 -98t11.5 -37q12 0 27.5 16.5t32 41t32 54t27.5 55.5z" />
    <glyph glyph-name="l_l" horiz-adv-x="346" 
d="M252 -45q17 0 42 28t42 70q8 17 14 33t11 29q2 8 11 6q9 -4 6 -12q-2 -4 -8.5 -22t-17.5 -41q-10 -22 -23 -42.5t-27.5 -37t-29 -26.5t-27.5 -10q-28 0 -52 22t-25 72q-8 -23 -18.5 -47t-22 -43.5t-24 -31.5t-25.5 -12q-14 0 -28 5.5t-25 17.5t-18 30.5t-7 44.5
q0 66 7 134.5t18 134t24 124.5t25.5 105.5t23 77t15.5 38.5q10 17 24 17q11 0 17 -11t1 -31q-4 -16 -12 -41t-18 -63.5t-22.5 -94t-25.5 -133.5l-4 -23q-4 -26 -8 -57t-7.5 -63.5t-5.5 -64.5t-2 -61q0 -32 10.5 -47t22.5 -15q11 0 22.5 17t23 43t22 56.5t18.5 58.5
q3 88 14 165.5t23.5 137t23.5 97t15 44.5q3 7 8.5 9.5t10.5 2.5q9 0 15.5 -6.5t3.5 -17.5q-2 -6 -7.5 -29.5t-13 -60.5t-15.5 -84.5t-14.5 -101.5t-11 -112.5t-4.5 -116.5q0 -32 11.5 -46.5t23.5 -14.5z" />
    <glyph glyph-name="r_r" horiz-adv-x="465" 
d="M366 -60q-30 0 -46.5 14t-23 36t-6 48.5t4 51t7.5 44t4 26.5q0 10 -12 23.5t-24 24.5l-6 -34q-15 -86 -27.5 -148.5t-25.5 -104.5t-27 -66.5t-33 -33.5q-11 -7 -26 -7q-38 0 -63 25t-25 69q0 15 3.5 35.5t8.5 44t11.5 49t12.5 49.5q9 32 15.5 59t6.5 38q0 2 -4.5 5.5
t-10 8t-11.5 9t-9 7.5q-5 -18 -10.5 -36.5t-10.5 -34.5t-8.5 -27.5t-4.5 -14.5q-3 -10 -9 -10q-2 0 -3 1h-1q-9 4 -6 11q1 5 5 18.5t9.5 31.5t11.5 38t11 38q-11 12 -20.5 29t-9.5 40q0 18 5.5 29t16.5 11q6 0 14.5 -2t16 -7t12.5 -15t5 -26q0 -11 -6.5 -28.5t-6.5 -31.5h1
q5 -4 18.5 -12.5t28 -18t26 -19.5t11.5 -16q0 -12 -4 -28l-13 -52q-6 -22 -12 -48.5t-10.5 -52t-8 -47.5t-5.5 -36q-3 -26 2 -44.5t20 -18.5q17 0 32 22.5t27.5 57.5t22.5 76.5t17.5 79.5t12.5 67.5t7 39.5l9 45q-10 11 -17 24.5t-7 42.5q0 20 7 35t18 15q5 0 11.5 -1
t11.5 -6t8.5 -15.5t3.5 -29.5q0 -11 -4 -28t-7 -28l12 -12q7 -7 18 -14.5t22 -16t19 -18t8 -20.5q0 -3 -2 -18t-3.5 -35.5t-3 -43.5t-0.5 -42.5t5 -32t13 -12.5q16 0 28 7.5t22 20t18 28t17 31.5q8 17 14.5 33t11.5 29q2 8 11 6q9 -4 6 -12q-2 -5 -8.5 -22.5t-17.5 -40.5
q-9 -19 -18.5 -38t-21.5 -34t-27 -24.5t-35 -9.5z" />
    <glyph glyph-name="s_s" horiz-adv-x="375" 
d="M205 -57q-26 0 -40.5 13.5t-14.5 30.5q0 20 15.5 38t35.5 32t39.5 23.5t28.5 12.5q-7 17 -16 34.5t-19 34.5q-3 7 -6.5 13t-6.5 13q-17 -34 -42.5 -54.5t-55.5 -37.5q13 -34 13 -62q0 -37 -22 -65.5t-60 -28.5q-26 0 -40.5 13.5t-14.5 30.5q0 20 9.5 37t22.5 31t26 23.5
t20 13.5q-8 17 -16.5 33t-17.5 32q-5 -21 -9.5 -36t-6.5 -18q-3 -10 -9 -10q-2 0 -3 1h-1q-9 4 -6 11q2 6 8 27.5t14 47.5q-9 18 -15.5 33t-6.5 26q0 8 8 11t17 3q8 0 15 -2.5t7 -6.5q0 -10 6 -23.5t15.5 -30t20 -35.5t19.5 -39q29 17 54.5 39.5t39.5 56.5q-7 15 -11.5 29
t-4.5 25q0 7 8.5 10t18.5 3t17 -2t7 -6q0 -17 12 -43.5t26 -53.5l16 -30t15 -30q13 5 34 10.5t43 5.5q10 0 10 -9t-10 -9q-20 0 -39 -5t-31 -10q5 -13 7.5 -24.5t2.5 -22.5q0 -18 -7 -36.5t-22 -33.5t-39 -24.5t-58 -9.5zM275 76q-13 -5 -31 -14.5t-35 -21.5t-29 -25.5
t-12 -27.5q0 -8 9.5 -14.5t18.5 -6.5q39 0 61.5 25.5t22.5 55.5q0 12 -5 29zM84 73q-10 -6 -22 -15.5t-22 -21.5t-16.5 -25.5t-6.5 -26.5q0 -11 9.5 -16t18.5 -5q25 0 36.5 19t11.5 49q0 9 -2.5 20t-6.5 22z" />
    <glyph glyph-name="t_h" horiz-adv-x="474" 
d="M78 -87q-11 0 -24 5t-24 18.5t-18.5 37.5t-7.5 61q0 34 3 79.5t8.5 99t12.5 114t15 123.5q-45 -6 -79 -26.5t-53 -64.5q-2 -4 -5 -4.5t-6 -0.5q-9 4 -5 12q21 51 60.5 74t89.5 29q4 25 7 50t7 50q1 10 18 10q14 0 29.5 -7t14.5 -18q-3 -19 -5.5 -39.5t-5.5 -43.5
q38 -2 75.5 -7t74.5 -11q31 128 76 192.5t120 64.5q41 0 63.5 -28t22.5 -79q0 -48 -21.5 -80.5t-54.5 -52.5t-72 -30t-74 -12q-11 -50 -20.5 -104t-17 -107t-13.5 -103.5t-10 -94.5q12 29 28 61t32 58.5t32 44t28 17.5q11 0 17 -8q10 -11 8.5 -33t-6.5 -51q-1 -6 -2 -20
t0 -28.5t6 -25.5t16 -11q14 0 25 9.5t19 23.5t14 29.5t10 27.5q3 6 9 6q5 0 8 -3.5t1 -8.5q-5 -16 -13 -36t-19.5 -37t-27.5 -28.5t-37 -11.5q-28 0 -42.5 13t-19.5 31.5t-3.5 39.5t4.5 36q1 7 2 13t2 11q-13 -22 -29 -51.5t-30 -58.5t-25 -55t-14 -42q-1 -11 -9 -16.5
t-18 -5.5q-12 0 -22 8t-10 26q0 1 1 27.5t5 71.5q-12 -22 -27.5 -45t-31.5 -42t-32 -31t-30 -12zM324 448q32 3 67 12t64.5 27t49 46.5t19.5 70.5t-17 64.5t-48 24.5q-19 0 -35 -14t-29.5 -35.5t-25 -48.5t-20 -54t-15 -51.5t-10.5 -41.5zM204 96q8 86 20 170.5t32 169.5
q-36 6 -74 11t-74 7q-7 -55 -13.5 -114t-11.5 -115.5t-8 -107t-3 -88.5t3 -60.5t11 -22.5q12 0 27 14t31 36t32 48.5t28 51.5z" />
    <glyph glyph-name="O_i" horiz-adv-x="524" 
d="M146 -80q-25 0 -51 7.5t-47 26t-34.5 50.5t-13.5 80q0 26 4 62.5t11.5 75t18 75t23.5 61.5q-4 2 -7 9t-5.5 15.5t-3.5 17t-1 12.5q0 34 13.5 63t36.5 50t55 33t69 12q15 0 44.5 -6t59 -30t51 -71.5t21.5 -130.5q0 -29 -9 -70.5t-24.5 -87.5t-38 -91.5t-49.5 -81.5
t-58 -58.5t-65 -22.5zM67 375q7 12 14 22q5 5 14.5 7.5t21.5 2.5q10 0 19.5 -1.5t17 -4.5t11 -6.5t0.5 -7.5q-11 -16 -20 -35t-17 -40q29 -18 66.5 -29t80.5 -11q23 0 46 3t46 11q2 13 3 24.5t1 21.5q0 74 -18 118t-43 66.5t-51.5 29t-44.5 6.5q-33 0 -61.5 -10.5
t-49.5 -29.5t-32.5 -44.5t-11.5 -55.5q0 -21 8 -37zM427 320q0 16 10 24t20 8q21 0 32.5 -13t11.5 -25t-12 -25t-26 -13t-25 11t-11 33zM122 294q-14 -41 -22.5 -86.5t-11.5 -87.5t0.5 -77t14.5 -55q18 -34 54 -34q35 0 68 31t60.5 77.5t47.5 101.5t30 102q-43 -13 -87 -13
q-45 0 -84 11.5t-70 29.5zM461 8q15 0 27 12t21.5 29t16 35t10.5 30q3 6 9 6q5 0 7.5 -3.5t1.5 -8.5q-5 -15 -13 -35.5t-19.5 -38.5t-26.5 -31t-34 -13q-23 0 -35.5 6.5t-18.5 15.5t-7 17.5t-1 12.5q0 21 2.5 47.5t6.5 51.5t7.5 43.5t6.5 23.5q1 2 6.5 2t12.5 -1t13.5 -2.5
t7.5 -2.5q8 -3 4 -12q-3 -8 -8.5 -38t-9 -62.5t-1.5 -58t14 -25.5z" />
    <glyph glyph-name="O_j" horiz-adv-x="565" 
d="M146 -70q-25 0 -51 7.5t-47 26t-34.5 50.5t-13.5 80q0 26 4 61t11.5 72t18 71.5t23.5 59.5q-4 2 -7 9t-5.5 15.5t-3.5 17t-1 12.5q0 34 13.5 63t36.5 50t55 33t69 12q15 0 44.5 -6t59 -30t51 -71.5t21.5 -130.5q0 -29 -9 -70t-24.5 -85.5t-38 -88.5t-49.5 -79t-58 -57
t-65 -22zM67 375q9 19 18 25.5t32 6.5q10 0 19.5 -1.5t17 -4.5t11 -6.5t0.5 -7.5q-11 -16 -20 -35t-17 -40q29 -18 66.5 -29t80.5 -11q23 0 46 3t46 11q2 13 3 24.5t1 21.5q0 74 -18 118t-43 66.5t-51.5 29t-44.5 6.5q-33 0 -61.5 -10.5t-49.5 -29.5t-32.5 -44.5
t-11.5 -55.5q0 -21 8 -37zM494 315q0 -18 -10.5 -31t-25.5 -13q-14 0 -24.5 13t-10.5 31t10.5 30.5t24.5 12.5q15 0 25.5 -12.5t10.5 -30.5zM122 295q-14 -40 -22.5 -84t-11.5 -84.5t0.5 -74.5t14.5 -54q18 -34 54 -34q35 0 67.5 30t60 75t48 98t30.5 99q-43 -13 -87 -13
q-45 0 -84 11.5t-70 30.5zM244 -390q-16 0 -33 8t-31.5 22.5t-23.5 34.5t-9 43q0 35 18 67t45.5 60.5t61 52t64.5 41t56 29.5t35 16q3 44 4 84t0 71t-2 49t-1 19q0 8 8 10q2 0 10 -0.5t16.5 -1.5t15.5 -2.5t7 -3.5q0 -3 1.5 -21.5t2 -47.5t0 -67t-3.5 -80q20 16 34.5 32
t25 33t19 36.5t16.5 42.5q1 7 8 7q5 0 8 -3.5t1 -8.5q-16 -47 -43 -92t-71 -71q-4 -42 -11 -84.5t-18.5 -81.5t-28 -73.5t-39.5 -59.5q-18 -21 -36.5 -33t-36.5 -18t-35 -7.5t-34 -1.5zM425 -37q-14 -6 -38.5 -18.5t-53.5 -29.5t-59 -39t-54 -47t-39.5 -53t-15.5 -58
q0 -40 22 -60.5t47 -20.5q37 0 64.5 16.5t48 44t34.5 62t23 71t13.5 71t7.5 61.5z" />
    <glyph glyph-name="O_r" horiz-adv-x="618" 
d="M471 204q-3 3 -6 5.5t-6 5.5q-17 -39 -50 -72t-76 -46q-16 -35 -35.5 -67t-43 -56t-50.5 -38.5t-58 -14.5q-25 0 -51 7.5t-47 26t-34.5 50.5t-13.5 80q0 18 2 42t6 51.5t9 55.5t12 53q-10 39 -10 88q0 44 14.5 80t40.5 61.5t62.5 39.5t80.5 14q16 0 45 -7t57.5 -31
t49.5 -71.5t21 -128.5q0 -38 -12.5 -95.5t-35.5 -117.5q22 9 39.5 23t30 30t21 32t13.5 27q-10 12 -16.5 26t-6.5 28q0 17 7.5 29.5t19.5 12.5q6 0 13.5 -1.5t14 -7.5t11 -17.5t4.5 -30.5q0 -11 -6 -23.5t-12 -19.5q8 -9 21 -18.5t25 -19.5t21 -20.5t9 -20.5q0 -11 -3 -22
t-7 -22q-5 -16 -12 -40t-10.5 -45.5t-1 -37t15.5 -15.5q16 0 27.5 7.5t21.5 20t18 28t17 31.5q9 17 15.5 33t10.5 29q4 8 12 6q8 -4 5 -12q-1 -5 -7.5 -22.5t-17.5 -40.5q-9 -19 -18.5 -38t-21.5 -34t-27 -24.5t-35 -9.5q-39 0 -57 23q-9 13 -11 30.5t1 37t8.5 39.5t11.5 39
q5 17 9 31.5t4 22.5q0 10 -8.5 20t-19.5 21zM214 552q-46 0 -79.5 -15.5t-55 -40t-32 -56.5t-10.5 -65q0 -27 3 -53q2 5 3.5 8.5t3.5 7.5l15 29q5 8 9.5 15.5t9.5 15.5q5 5 14.5 7t21.5 2q10 0 19.5 -1.5t17 -4t11 -6t0.5 -7.5q-24 -37 -41.5 -90t-27.5 -109
q30 -36 77.5 -58t115.5 -22q7 0 13.5 0.5t11.5 1.5q14 30 24.5 60.5t17.5 59.5t11 55t4 46q0 75 -18 118.5t-43 66t-51.5 29t-44.5 6.5zM290 91q-56 0 -107 17t-90 58q-8 -56 -6 -103.5t16 -73.5q18 -34 54 -34q22 0 43 10.5t39.5 29.5t35 44t30.5 53q-5 -1 -15 -1z" />
    <glyph glyph-name="O_l" horiz-adv-x="584" 
d="M27 288q-6 41 -6 87q0 44 14.5 80t40.5 61.5t62.5 39.5t80.5 14q17 -1 46 -8.5t57 -32t48 -71t20 -126.5q0 -42 -17.5 -99t-48.5 -111q32 11 58 29.5t45 35.5q11 89 31.5 169.5t46.5 141.5t54.5 96.5t54.5 35.5q9 0 18 -2.5t16 -9.5t11.5 -19t4.5 -31q0 -25 -18 -68.5
t-45 -93t-58 -98.5t-58 -84q-17 -100 -17 -198q0 -32 10.5 -47t22.5 -15q14 0 29 18.5t27.5 43t22.5 50t15 39.5q1 3 4.5 5t6.5 1q9 -4 6 -12q-2 -5 -8 -22.5t-17 -40.5q-21 -48 -41.5 -77t-49.5 -29q-14 0 -28 5.5t-25 17.5t-18 30.5t-7 44.5q0 32 1.5 63t5.5 63
q-25 -21 -54.5 -37.5t-59.5 -26.5q-16 -25 -35 -47t-40 -38t-43.5 -25.5t-46.5 -9.5q-25 0 -51 7.5t-47 26.5t-34.5 50.5t-13.5 80.5q0 35 7 71.5t20 71.5zM492 263q24 35 51 79.5t50 87.5t38 80t15 58q0 24 -8 31t-17 7q-8 0 -17.5 -13t-19.5 -32.5t-19 -43t-17 -45.5
t-13.5 -39t-7.5 -23q-11 -36 -19.5 -72.5t-15.5 -74.5zM214 552q-45 0 -78 -15.5t-54.5 -40.5t-32 -56.5t-10.5 -64.5v-25.5t2 -24.5q19 41 40 72q5 5 14.5 7.5t21.5 2.5q10 0 19.5 -1.5t17 -4.5t11 -6.5t0.5 -7.5q-29 -44 -48 -97.5t-26 -105.5q25 -34 64.5 -54.5
t97.5 -20.5q25 0 47 6q17 26 30 54.5t22 57t14 56t5 49.5q0 74 -18 118t-43 66.5t-51.5 29t-44.5 6.5zM253 91q-57 0 -97.5 15.5t-67.5 44.5q-2 -31 1.5 -57.5t13.5 -45.5q19 -34 54 -34q37 0 69.5 22.5t59.5 57.5q-16 -3 -33 -3z" />
    <glyph glyph-name="a.002" horiz-adv-x="1030" 
d="M807 -55q-54 0 -111 18.5t-108 50.5q-54 -42 -107 -59t-95 -17q-39 0 -79.5 8t-75.5 26t-61.5 47t-37.5 70q-6 -13 -15 -28.5t-19.5 -29t-21.5 -22.5t-22 -9q-6 0 -15 2t-18 8t-15 18.5t-6 33.5q0 34 6.5 61t16.5 46t23 29t26 10q37 0 56 -25q2 7 2.5 13.5t2.5 13.5
q6 6 20 6t27 -5t17 -13q-13 -47 -9 -83t18 -63q14 -25 35.5 -43t46.5 -29.5t51 -16.5t49 -5q24 0 49 6t49 15.5t45.5 21.5t39.5 25q-53 38 -81.5 82t-28.5 88q0 33 19.5 48t43.5 15q13 0 24 -6t20 -15.5t15 -21.5t9 -23q9 24 27 45t46 21q21 0 39.5 -14t18.5 -44
q0 -26 -10.5 -52t-28 -49t-39 -42t-42.5 -32q45 -29 97.5 -46t106.5 -17q51 0 92.5 20t67.5 41q32 25 50 48t21 31q2 8 11 6q8 -3 6 -12q-4 -11 -23.5 -36t-53.5 -51q-28 -23 -72 -44t-99 -21zM524 241q-3 0 -10.5 -1t-15 -5.5t-13.5 -13.5t-6 -25q0 -42 29.5 -84t77.5 -75
q20 9 41.5 27.5t38.5 41.5t28 48t11 47q0 21 -12.5 30.5t-27.5 9.5q-12 0 -23.5 -8.5t-20.5 -22t-14.5 -31.5t-5.5 -38q0 -9 -9 -9h-1q-9 0 -9 9q0 21 -4.5 39t-12.5 31.5t-18.5 21.5t-22.5 8zM52 18q10 0 21.5 13t22 30.5t19 34.5t11.5 25q-1 5 -1 10.5v11.5
q-1 14 -7.5 25.5t-20.5 11.5q-9 0 -20 -20t-19 -47t-10.5 -54t4.5 -41z" />
    <glyph glyph-name="b.001" horiz-adv-x="1136" 
d="M913 -55q-57 0 -118 20.5t-114 56.5q-54 38 -84 83.5t-30 90.5q0 33 19.5 48t43.5 15q33 0 55 -37q4 -7 7.5 -14t5.5 -15q4 14 14 29q25 37 59 37q21 0 39.5 -14t18.5 -44q0 -36 -17.5 -67t-36.5 -52q-18 -20 -36 -34t-30 -22q45 -29 97.5 -46t106.5 -17q51 0 92.5 20
t67.5 41q32 25 50 48t21 31q2 8 11 6q8 -3 6 -12q-4 -11 -24 -36t-53 -51q-29 -23 -72.5 -44t-98.5 -21zM630 241q-3 0 -10.5 -1t-15 -5.5t-13.5 -13.5t-6 -25q0 -42 29.5 -84t77.5 -75q10 5 30 19.5t40 37.5q17 19 33 47t16 60q0 21 -12.5 30.5t-27.5 9.5q-12 0 -23.5 -8.5
t-20.5 -22t-14.5 -31.5t-5.5 -38q0 -9 -9 -9h-1q-9 0 -9 9q0 21 -4.5 39t-12.5 31.5t-18.5 21.5t-22.5 8zM231 587q-6 0 -14.5 -13.5t-19 -38t-22 -59.5t-21.5 -78q12 14 27.5 33t29.5 41t23.5 44t9.5 41q0 30 -13 30zM130 39q0 26 17 35.5t37 9.5q26 0 57 -17t69 -37
t83.5 -37t100.5 -17q59 0 109.5 15.5t85.5 43.5q2 1 4.5 -0.5t5.5 -4t4.5 -5.5t-0.5 -4q-28 -20 -56 -33t-55.5 -20t-52.5 -9.5t-47 -2.5q-54 0 -102.5 18t-89 39t-71 39t-50.5 18q-17 0 -28 -7.5t-11 -19.5q0 -11 7.5 -19t22.5 -8q17 0 29.5 15.5t21 36.5t13 43.5t4.5 35.5
q0 4 -0.5 10.5t-2 13t-4.5 11t-9 4.5q-8 0 -19 -11t-22.5 -30t-22.5 -43.5t-19 -50.5q-8 -31 -10 -54.5t-2 -42.5v-2q0 -7 -8 -11.5t-18 -5.5t-19 2.5t-11 11.5q-1 2 -6 35t-5 92q0 96 13 191.5t35.5 171.5t53.5 123.5t67 47.5q11 0 22.5 -13t11.5 -40q0 -28 -17 -60.5
t-38 -61t-39.5 -48.5t-22.5 -24q-13 -62 -21 -134t-8 -153v-21.5t1 -20.5q8 36 21 68t28 56.5t31 39t30 14.5q8 0 18.5 -2t20 -11t16 -26t6.5 -47q0 -22 -8.5 -46t-23.5 -43.5t-35.5 -32t-45.5 -12.5q-12 0 -20.5 5t-14.5 12.5t-8.5 15.5t-2.5 14z" />
    <glyph glyph-name="c.002" horiz-adv-x="985" 
d="M762 -55q-54 0 -111.5 18.5t-108.5 50.5q-28 -19 -63.5 -34t-71.5 -26t-70 -17t-58 -6q-59 -2 -110 6.5t-88.5 28.5t-59 52t-21.5 77q0 38 14 64.5t34.5 43.5t43 25t38.5 8q14 0 23.5 -5.5t16.5 -13.5t10 -18t3 -18q-1 -20 -24 -20q-7 0 -11.5 5.5t-4.5 12.5
q0 6 3.5 14.5t11.5 12.5q-9 12 -28 12q-26 0 -48 -32.5t-22 -89.5q0 -66 57 -106.5t164 -38.5q31 0 65.5 7t67.5 17.5t62.5 24t49.5 26.5q-53 38 -81.5 82t-28.5 88q0 33 19.5 48t43.5 15q13 0 24 -6t20 -15.5t15 -21.5t9 -23q9 24 27 45t46 21q21 0 39.5 -14t18.5 -44
q0 -26 -10.5 -52t-28 -49t-39 -42t-42.5 -32q45 -29 97.5 -46t106.5 -17q51 0 92.5 20t67.5 41q32 25 50 48t21 31q2 8 11 6q8 -3 6 -12q-4 -11 -23.5 -36t-53.5 -51q-28 -23 -72 -44t-99 -21zM479 241q-3 0 -10.5 -1t-15 -5.5t-13.5 -13.5t-6 -25q0 -42 29.5 -84t77.5 -75
q20 9 41.5 27.5t38.5 41.5t28 48t11 47q0 21 -12.5 30.5t-27.5 9.5q-12 0 -23.5 -8.5t-20.5 -22t-14.5 -31.5t-5.5 -38q0 -9 -9 -9h-1q-9 0 -9 9q0 21 -4.5 39t-12.5 31.5t-18.5 21.5t-22.5 8z" />
    <glyph glyph-name="d.001" horiz-adv-x="1085" 
d="M862 -55q-54 0 -111.5 18.5t-108.5 50.5q-54 -38 -117 -60.5t-126 -22.5q-49 1 -93.5 11.5t-78.5 31.5t-56 52t-26 73q-8 -18 -18.5 -37.5t-22 -35t-23.5 -26t-24 -10.5q-23 0 -40 17t-17 46q0 76 29.5 119t80.5 43q20 0 34 -16q4 81 18.5 157.5t35.5 136t46.5 95.5
t50.5 36q9 0 23 -16t14 -54q0 -22 -9 -50t-22.5 -57.5t-29 -57.5t-29.5 -50.5t-23.5 -37t-10.5 -15.5q-4 -32 -6 -66.5t-2 -70.5q0 -54 16 -91.5t43 -61t63.5 -34.5t78.5 -11q38 0 71 7t61 17.5t51.5 24t41.5 26.5q-53 38 -81.5 82t-28.5 88q0 33 19.5 48t43.5 15
q13 0 24 -6t20 -15.5t15 -21.5t9 -23q9 24 27 45t46 21q21 0 39.5 -14t18.5 -44q0 -26 -10.5 -52t-28 -49t-39 -42t-42.5 -32q45 -29 97.5 -46t106.5 -17q51 0 92.5 20t67.5 41q32 25 50 48t21 31q2 8 11 6q8 -3 6 -12q-4 -11 -23.5 -36t-53.5 -51q-28 -23 -72 -44t-99 -21z
M301 594q-6 -4 -16.5 -25t-23.5 -55.5t-25.5 -82t-21.5 -103.5q12 20 29.5 50t33 62.5t26.5 62.5t11 51q0 17 -3.5 28t-9.5 12zM579 241q-3 0 -10.5 -1t-15 -5.5t-13.5 -13.5t-6 -25q0 -42 29.5 -84t77.5 -75q20 9 41.5 27.5t38.5 41.5t28 48t11 47q0 21 -12.5 30.5
t-27.5 9.5q-12 0 -23.5 -8.5t-20.5 -22t-14.5 -31.5t-5.5 -38q0 -9 -9 -9h-1q-9 0 -9 9q0 21 -4.5 39t-12.5 31.5t-18.5 21.5t-22.5 8zM143 138v11v22q-3 8 -9.5 14.5t-15.5 6.5q-7 0 -18.5 -8.5t-22 -26.5t-18.5 -46t-8 -67q0 -15 6 -21t11 -6t13 10t18 26.5t21.5 38.5
t22.5 46z" />
    <glyph glyph-name="e.002" horiz-adv-x="861" 
d="M638 -55q-54 0 -111 18.5t-108 50.5q-54 -40 -105.5 -61.5t-108.5 -21.5q-40 1 -77 12.5t-65 32t-45 49t-17 62.5q0 49 13.5 81t32 50.5t39 25.5t34.5 7q6 0 14.5 -3t16 -10t12.5 -17.5t5 -25.5q0 -35 -8.5 -56.5t-20.5 -33t-25.5 -15t-23.5 -3.5q-18 0 -29 11
q0 -5 -0.5 -9t-0.5 -8q0 -30 11.5 -54.5t31.5 -41t47 -25.5t57 -9q34 0 62 6.5t52 17t44 24t37 26.5q-53 38 -81.5 82.5t-28.5 88.5q0 33 19.5 48t43.5 15q13 0 24 -6t20 -15.5t15 -21.5t9 -23q9 24 27 45t46 21q21 0 39.5 -14t18.5 -44q0 -26 -10.5 -52t-28 -49t-39 -42
t-42.5 -32q45 -29 97.5 -46t106.5 -17q51 0 92.5 20t67.5 41q32 25 50 48t21 31q2 8 11 6q8 -3 6 -12q-4 -11 -23.5 -36t-53.5 -51q-28 -23 -72 -44t-99 -21zM355 241q-3 0 -10.5 -1t-15 -5.5t-13.5 -13.5t-6 -25q0 -42 29.5 -84t77.5 -75q20 9 41.5 27.5t38.5 41.5t28 48
t11 47q0 21 -12.5 30.5t-27.5 9.5q-12 0 -23.5 -8.5t-20.5 -22t-14.5 -31.5t-5.5 -38q0 -9 -9 -9h-1q-9 0 -9 9q0 21 -4.5 39t-12.5 31.5t-18.5 21.5t-22.5 8zM64 123q4 -8 10.5 -13t15.5 -5q5 0 12.5 5t15 16t13 28t5.5 41q0 19 -5 28.5t-11 9.5q-12 0 -21.5 -10.5t-16 -27
t-11 -35.5t-7.5 -37zM58 154v-8v8z" />
    <glyph glyph-name="f.001" horiz-adv-x="931" 
d="M68 129q18 -3 28.5 -15.5t16.5 -29t8 -34.5t2 -32v-11.5t-1 -10.5q29 -19 67 -32t88 -13q34 0 62 6.5t52 17t44 24t37 26.5q-53 38 -81.5 82.5t-28.5 88.5q0 33 19.5 48t43.5 15q13 0 24 -6t20 -15.5t15 -21.5t9 -23q9 24 27 45t46 21q21 0 39.5 -14t18.5 -44
q0 -26 -10.5 -52t-28 -49t-39 -42t-42.5 -32q45 -29 97.5 -46t106.5 -17q51 0 92.5 20t67.5 41q32 25 50 48t21 31q2 8 11 6q8 -3 6 -12q-4 -11 -23.5 -36t-53.5 -51q-28 -23 -72 -44t-99 -21q-54 0 -111 18.5t-108 50.5q-54 -40 -105.5 -61.5t-108.5 -21.5q-49 0 -87 12.5
t-67 29.5q-1 -3 -1 -9q-1 -16 -4.5 -36.5t-8.5 -41.5t-13 -39.5t-20 -30.5q-3 -4 -7 -7t-9 -3q-22 0 -42.5 32.5t-20.5 90.5q0 87 11 172t29 162.5t41 143.5t47.5 114.5t48.5 76t43 27.5q17 0 31 -17.5t14 -61.5q0 -51 -21.5 -97t-49.5 -82t-53 -60t-33 -30
q-10 -36 -18.5 -73t-16.5 -75zM224 589q-7 -1 -20 -24t-28.5 -61t-32 -88t-32.5 -106q16 15 38.5 39.5t43 55.5t35 67t14.5 74q0 17 -4.5 30t-13.5 13zM425 241q-3 0 -10.5 -1t-15 -5.5t-13.5 -13.5t-6 -25q0 -42 29.5 -84t77.5 -75q20 9 41.5 27.5t38.5 41.5t28 48t11 47
q0 21 -12.5 30.5t-27.5 9.5q-12 0 -23.5 -8.5t-20.5 -22t-14.5 -31.5t-5.5 -38q0 -9 -9 -9h-1q-9 0 -9 9q0 21 -4.5 39t-12.5 31.5t-18.5 21.5t-22.5 8zM55 53q10 -10 22 -21.5t27 -22.5q-3 45 -12.5 72.5t-26.5 30.5q-2 -8 -5 -26t-5 -33zM58 -175q4 3 10.5 13.5t13.5 29
t13 47.5t8 70q-15 10 -28 20.5t-24 20.5q-6 -53 -6 -97q0 -48 4.5 -72.5t8.5 -31.5z" />
    <glyph glyph-name="g.002" horiz-adv-x="971" 
d="M748 -55q-54 0 -111 18.5t-108 50.5q-37 -27 -78.5 -43t-84 -25.5t-84 -15.5t-79.5 -13q-1 -36 -1 -66v-49q0 -46 -9.5 -83.5t-26.5 -64.5t-40.5 -41.5t-50.5 -14.5q-15 0 -30.5 8t-28 24.5t-20.5 41.5t-8 60q0 48 12.5 81.5t35 56t53 36t66.5 22.5q2 46 3.5 84t4.5 70
q-9 -14 -19.5 -29t-22.5 -27.5t-24.5 -20.5t-24.5 -8q-9 0 -21.5 4t-23.5 13.5t-19 25t-8 37.5q0 42 10 68t25 40t32.5 19t32.5 5q25 0 44.5 -14t30.5 -31q13 68 39 94q2 1 8.5 1t14.5 -1.5t14 -4.5t6 -8q-15 -15 -25 -48t-16 -76t-9 -90.5t-4 -92.5q38 7 79 12.5t81 14.5
t78 23.5t71 37.5q-53 38 -81.5 82t-28.5 88q0 33 19.5 48t43.5 15q13 0 24 -6t20 -15.5t15 -21.5t9 -23q9 24 27 45t46 21q21 0 39.5 -14t18.5 -44q0 -26 -10.5 -52t-28 -49t-39 -42t-42.5 -32q45 -29 97.5 -46t106.5 -17q51 0 92.5 20t67.5 41q32 25 50 48t21 31q2 8 11 6
q8 -3 6 -12q-4 -11 -23.5 -36t-53.5 -51q-28 -23 -72 -44t-99 -21zM465 241q-3 0 -10.5 -1t-15 -5.5t-13.5 -13.5t-6 -25q0 -42 29.5 -84t77.5 -75q20 9 41.5 27.5t38.5 41.5t28 48t11 47q0 21 -12.5 30.5t-27.5 9.5q-12 0 -23.5 -8.5t-20.5 -22t-14.5 -31.5t-5.5 -38
q0 -9 -9 -9h-1q-9 0 -9 9q0 21 -4.5 39t-12.5 31.5t-18.5 21.5t-22.5 8zM100 191q-7 0 -15.5 -7.5t-15.5 -24t-12 -44t-5 -67.5q0 -11 5.5 -21.5t14.5 -10.5q11 0 24 11t26.5 28t25.5 37t21 38q0 7 -5 17.5t-14.5 20t-22 16.5t-27.5 7zM14 -268q0 -60 18 -88t43 -28
q18 0 33 18t25 45.5t15.5 60.5t5.5 62v28v39t1 37q-31 -8 -57 -20.5t-44.5 -32.5t-29 -49.5t-10.5 -71.5z" />
    <glyph glyph-name="h.002" horiz-adv-x="1052" 
d="M383 -49q37 0 69 6.5t58.5 17t47.5 24t36 26.5q-54 38 -82.5 82.5t-28.5 88.5q0 33 19.5 48t43.5 15q13 0 24 -6t20 -15.5t15 -21.5t9 -23q9 24 27 45t46 21q21 0 39.5 -14t18.5 -44q0 -26 -10.5 -52t-28 -49t-39 -42t-42.5 -32q45 -29 97.5 -46t106.5 -17q51 0 92.5 20
t67.5 41q32 25 50 48t21 31q2 8 11 6q8 -3 6 -12q-4 -11 -23.5 -36t-53.5 -51q-28 -23 -72 -44t-99 -21q-54 0 -111 18t-108 51q-46 -38 -105.5 -60.5t-122.5 -22.5q-82 0 -131.5 19t-75 47.5t-32 62.5t-3.5 63q0 7 1.5 12.5t2.5 10.5q-17 -22 -32.5 -46t-28 -47.5
t-21.5 -44.5t-12 -37q-5 -7 -22 -7q-10 0 -18.5 3t-10.5 9q0 85 10 168t26.5 157t37.5 137t43 108.5t42.5 71.5t36.5 26q22 0 35 -24.5t13 -66.5q0 -55 -23.5 -105t-52 -88t-53 -61.5t-27.5 -25.5q-14 -65 -23 -122t-12 -121q12 26 27.5 56t33 56t34.5 43t32 17
q11 0 15.5 -7.5t6 -20.5t0 -29t-2.5 -34q-1 -23 4.5 -51t25 -52t57 -40.5t98.5 -16.5zM94 304q14 14 36 39t43 58t36 71.5t15 80.5q0 35 -5 47.5t-10 12.5q-7 0 -20.5 -23.5t-29.5 -65t-33 -98t-32 -122.5zM546 241q-3 0 -10.5 -1t-15 -5.5t-13.5 -13.5t-6 -25
q0 -42 29.5 -84t77.5 -75q20 9 41.5 27.5t38.5 41.5t28 48t11 47q0 21 -12.5 30.5t-27.5 9.5q-12 0 -23.5 -8.5t-20.5 -22t-14.5 -31.5t-5.5 -38q0 -9 -9 -9h-1q-9 0 -9 9q0 21 -4.5 39t-12.5 31.5t-18.5 21.5t-22.5 8z" />
    <glyph glyph-name="i.002" horiz-adv-x="875" 
d="M21 320q0 16 10 24t20 8q21 0 32.5 -13t11.5 -25t-12 -25t-26 -13t-25 11t-11 33zM211 -69q-45 1 -84.5 9t-69 24.5t-46.5 43t-17 63.5q0 60 8 93.5t13 43.5q1 2 7 2t13 -1t13.5 -2.5t7.5 -2.5q8 -3 4 -12q-2 -8 -10.5 -38t-8.5 -75q0 -60 44.5 -94t126.5 -34
q37 0 68.5 6.5t57 17t45 24t34.5 26.5q-54 38 -82.5 82.5t-28.5 88.5q0 33 19.5 48t43.5 15q13 0 24 -6t20 -15.5t15 -21.5t9 -23q9 24 27 45t46 21q21 0 39.5 -14t18.5 -44q0 -26 -10.5 -52t-28 -49t-39 -42t-42.5 -32q45 -29 97.5 -46t106.5 -17q51 0 92.5 20t67.5 41
q32 25 50 48t21 31q2 8 11 6q8 -3 6 -12q-4 -11 -23.5 -36t-53.5 -51q-28 -23 -72 -44t-99 -21q-54 0 -111 18t-108 51q-46 -38 -102.5 -61t-119.5 -22zM369 241q-3 0 -10.5 -1t-15 -5.5t-13.5 -13.5t-6 -25q0 -42 29.5 -84t77.5 -75q20 9 41.5 27.5t38.5 41.5t28 48t11 47
q0 21 -12.5 30.5t-27.5 9.5q-12 0 -23.5 -8.5t-20.5 -22t-14.5 -31.5t-5.5 -38q0 -9 -9 -9h-1q-9 0 -9 9q0 21 -4.5 39t-12.5 31.5t-18.5 21.5t-22.5 8z" />
    <glyph glyph-name="j.001" horiz-adv-x="821" 
d="M73 315q0 -18 -10.5 -31t-24.5 -13q-15 0 -25.5 13t-10.5 31t10.5 30.5t25.5 12.5q14 0 24.5 -12.5t10.5 -30.5zM598 -55q-54 0 -111 18.5t-108 50.5q-32 -23 -70.5 -38t-80 -25.5t-85.5 -17.5t-87 -13q-5 -36 -12.5 -71.5t-18.5 -68t-26 -60.5t-34 -50
q-18 -21 -36.5 -33t-36.5 -18t-35.5 -7.5t-33.5 -1.5t-33 8t-31.5 22.5t-23.5 34.5t-9 43q0 56 22 93t60 61t87.5 37.5t105.5 22.5q6 50 7.5 95t1.5 77q0 26 -0.5 51.5t-2.5 51.5q0 8 9 10q2 0 9.5 -0.5t16 -1.5t15.5 -2.5t7 -3.5q2 -26 3 -52t1 -52q0 -35 -2 -77t-7 -87
q42 6 83.5 12.5t80.5 16t74.5 23t64.5 33.5q-53 38 -81.5 82t-28.5 88q0 33 19.5 48t43.5 15q13 0 24 -6t20 -15.5t15 -21.5t9 -23q9 24 27 45t46 21q21 0 39.5 -14t18.5 -44q0 -26 -10.5 -52t-28 -49t-39 -42t-42.5 -32q45 -29 97.5 -46t106.5 -17q51 0 92.5 20t67.5 41
q32 25 50 48t21 31q2 8 11 6q8 -3 6 -12q-4 -11 -23.5 -36t-53.5 -51q-28 -23 -72 -44t-99 -21zM315 241q-3 0 -10.5 -1t-15 -5.5t-13.5 -13.5t-6 -25q0 -42 29.5 -84t77.5 -75q20 9 41.5 27.5t38.5 41.5t28 48t11 47q0 21 -12.5 30.5t-27.5 9.5q-12 0 -23.5 -8.5t-20.5 -22
t-14.5 -31.5t-5.5 -38q0 -9 -9 -9h-1q-9 0 -9 9q0 21 -4.5 39t-12.5 31.5t-18.5 21.5t-22.5 8zM-256 -282q0 -40 22 -60.5t47 -20.5q44 0 76 24t53.5 62.5t35 87.5t20.5 99q-52 -9 -98.5 -21t-81 -33.5t-54.5 -54.5t-20 -83z" />
    <glyph glyph-name="k.002" horiz-adv-x="1045" 
d="M822 -55q-54 0 -110.5 18t-106.5 50q-54 -57 -118 -89.5t-128 -32.5q-70 0 -122 16.5t-88.5 41t-58.5 54t-33 56.5q-6 -63 -6 -125q-5 -7 -22 -7q-10 0 -18.5 3t-10.5 9q0 85 10.5 170.5t27 163.5t38 145t43.5 116.5t42.5 78t36.5 28.5q22 0 34.5 -24.5t12.5 -66.5
q0 -37 -11 -71.5t-27.5 -65.5t-36 -56.5t-37 -44t-29.5 -30t-14 -12.5q-9 -40 -16 -82t-12 -85q27 17 46.5 39t32.5 42.5t19.5 35l6.5 14.5q4 9 12 5q8 -3 5 -12q0 -1 -6.5 -15.5t-19.5 -35t-32.5 -43t-45.5 -40.5q3 -13 21.5 -43t53.5 -61t86.5 -54.5t119.5 -23.5
q38 0 71.5 10.5t62 27t52 36.5t41.5 39q-54 38 -83 82.5t-29 89.5q0 33 19.5 48t43.5 15q13 0 24 -6t20 -15.5t15 -21.5t9 -23q9 24 27 45t46 21q21 0 39.5 -14t18.5 -44q0 -26 -10.5 -52t-28 -49t-39 -42t-42.5 -32q45 -29 97.5 -46t106.5 -17q51 0 92.5 20t67.5 41
q32 25 50 48t21 31q2 8 11 6q8 -3 6 -12q-4 -11 -23.5 -36t-53.5 -51q-28 -23 -72 -44t-99 -21zM97 301q15 14 37 39t42.5 58t35.5 71.5t15 80.5q0 35 -5 47.5t-10 12.5q-7 0 -20.5 -23.5t-29.5 -65t-33 -98t-32 -122.5zM539 241q-3 0 -10.5 -1t-15 -5.5t-13.5 -13.5t-6 -25
q0 -42 29.5 -84t77.5 -75q20 9 41.5 27.5t38.5 41.5t28 48t11 47q0 21 -12.5 30.5t-27.5 9.5q-12 0 -23.5 -8.5t-20.5 -22t-14.5 -31.5t-5.5 -38q0 -9 -9 -9h-1q-9 0 -9 9q0 21 -4.5 39t-12.5 31.5t-18.5 21.5t-22.5 8z" />
    <glyph glyph-name="l.002" horiz-adv-x="1009" 
d="M786 -55q-54 0 -111.5 18.5t-108.5 50.5q-27 -19 -59 -35t-65.5 -27.5t-67 -18t-64.5 -6.5q-160 0 -233.5 64.5t-73.5 185.5q0 40 8.5 84.5t22.5 87.5t32.5 83t39 70t40.5 48t38 18q19 0 34.5 -19.5t15.5 -57.5q0 -46 -20 -99.5t-47.5 -101.5t-56.5 -84t-48 -48
q4 -56 26 -95.5t56.5 -64.5t78.5 -36t92 -11q38 0 72.5 7t64.5 17.5t55 24t43 26.5q-53 38 -81.5 82t-28.5 88q0 33 19.5 48t43.5 15q13 0 24 -6t20 -15.5t15 -21.5t9 -23q9 24 27 45t46 21q21 0 39.5 -14t18.5 -44q0 -26 -10.5 -52t-28 -49t-39 -42t-42.5 -32
q45 -29 97.5 -46t106.5 -17q51 0 92.5 20t67.5 41q32 25 50 48t21 31q2 8 11 6q8 -3 6 -12q-4 -11 -23.5 -36t-53.5 -51q-28 -23 -72 -44t-99 -21zM191 545q-16 0 -31.5 -21.5t-30 -55t-27 -75t-21.5 -82t-14.5 -75.5t-5.5 -56q16 14 42 48t51 77.5t43.5 92.5t18.5 93
q0 24 -8 39t-17 15zM503 241q-3 0 -10.5 -1t-15 -5.5t-13.5 -13.5t-6 -25q0 -42 29.5 -84t77.5 -75q20 9 41.5 27.5t38.5 41.5t28 48t11 47q0 21 -12.5 30.5t-27.5 9.5q-12 0 -23.5 -8.5t-20.5 -22t-14.5 -31.5t-5.5 -38q0 -9 -9 -9h-1q-9 0 -9 9q0 21 -4.5 39t-12.5 31.5
t-18.5 21.5t-22.5 8z" />
    <glyph glyph-name="m.001" horiz-adv-x="1150" 
d="M927 -55q-54 0 -111 18.5t-108 50.5q-54 -42 -107 -59t-95 -17q-81 0 -126 19t-67 47t-27 61.5t-6 61.5t-5 47t-24 19q-8 0 -16 -6.5t-15.5 -17t-14.5 -22.5t-13 -24q-12 -23 -22 -37.5t-23 -14.5q-9 0 -17 8q-10 11 -8.5 35t6.5 53q2 10 3.5 22.5t2.5 23t0 18t-5 7.5
q-6 -2 -13.5 -19.5t-16 -41t-16 -49t-12.5 -43.5q-9 -30 -14.5 -48.5t-10 -28.5t-8 -13.5t-8.5 -3.5h-5t-8.5 0.5t-8 1.5t-4.5 2q-3 4 -3.5 19.5t0 37t2.5 45.5t4.5 45.5t5 38t3.5 21.5q1 4 11 4q9 0 20 -3.5t10 -7.5q0 -6 -1 -20t-2.5 -32t-3 -38t-3.5 -38q3 14 12 45.5
t21 64t25.5 57.5t26.5 25q7 0 18 -2t20.5 -13t14.5 -33t-1 -63q8 13 16.5 25.5t18 23t20 17t21.5 6.5q34 0 47.5 -19.5t18.5 -48.5t9 -63t20.5 -63t51 -48.5t101.5 -19.5q24 0 49 6t49 15.5t45.5 21.5t39.5 25q-53 38 -81.5 82t-28.5 88q0 33 19.5 48t43.5 15q13 0 24 -6
t20 -15.5t15 -21.5t9 -23q9 24 27 45t46 21q21 0 39.5 -14t18.5 -44q0 -26 -10.5 -52t-28 -49t-39 -42t-42.5 -32q45 -29 97.5 -46t106.5 -17q51 0 92.5 20t67.5 41q32 25 50 48t21 31q2 8 11 6q8 -3 6 -12q-4 -11 -23.5 -36t-53.5 -51q-28 -23 -72 -44t-99 -21zM644 241
q-3 0 -10.5 -1t-15 -5.5t-13.5 -13.5t-6 -25q0 -42 29.5 -84t77.5 -75q20 9 41.5 27.5t38.5 41.5t28 48t11 47q0 21 -12.5 30.5t-27.5 9.5q-12 0 -23.5 -8.5t-20.5 -22t-14.5 -31.5t-5.5 -38q0 -9 -9 -9h-1q-9 0 -9 9q0 21 -4.5 39t-12.5 31.5t-18.5 21.5t-22.5 8z" />
    <glyph glyph-name="n.001" horiz-adv-x="1040" 
d="M817 -55q-54 0 -111 18.5t-108 50.5q-27 -21 -57.5 -35.5t-60 -23.5t-56.5 -13t-48 -4q-72 0 -116 12.5t-67 33t-29.5 46.5t-3 53.5t12 53.5t15.5 46.5t8 33t-11 12.5q-20 0 -37 -17.5t-30.5 -43.5t-24 -56.5t-19.5 -57.5q-13 -37 -17.5 -49.5t-12.5 -12.5
q-10 0 -20.5 5.5t-15.5 13.5q-6 8 -7.5 31.5t-0.5 52.5t4 58t7 49q1 4 5.5 5.5t10.5 1.5q11 0 22 -3.5t11 -8.5q-1 -25 -4 -51t-6 -49t-5 -42t-1 -30q3 7 6 16.5t6 18.5q10 30 22 63t27.5 61t35 46t44.5 18q28 0 37 -12.5t8 -33t-8 -46.5t-11.5 -53t-2.5 -53t18.5 -46.5
t52.5 -33t99 -12.5q24 0 52 6t55 15.5t52 21.5t44 25q-53 38 -81.5 82t-28.5 88q0 33 19.5 48t43.5 15q13 0 24 -6t20 -15.5t15 -21.5t9 -23q9 24 27 45t46 21q21 0 39.5 -14t18.5 -44q0 -26 -10.5 -52t-28 -49t-39 -42t-42.5 -32q45 -29 97.5 -46t106.5 -17q51 0 92.5 20
t67.5 41q32 25 50 48t21 31q2 8 11 6q8 -3 6 -12q-4 -11 -23.5 -36t-53.5 -51q-28 -23 -72 -44t-99 -21zM534 241q-3 0 -10.5 -1t-15 -5.5t-13.5 -13.5t-6 -25q0 -42 29.5 -84t77.5 -75q20 9 41.5 27.5t38.5 41.5t28 48t11 47q0 21 -12.5 30.5t-27.5 9.5q-12 0 -23.5 -8.5
t-20.5 -22t-14.5 -31.5t-5.5 -38q0 -9 -9 -9h-1q-9 0 -9 9q0 21 -4.5 39t-12.5 31.5t-18.5 21.5t-22.5 8z" />
    <glyph glyph-name="o.002" horiz-adv-x="1010" 
d="M787 -55q-54 0 -111.5 18.5t-108.5 50.5q3 2 5.5 3.5t4.5 3.5q2 1 0.5 4t-4.5 5.5t-5.5 4t-4.5 0.5q-3 -2 -6.5 -4.5t-6.5 -4.5q5 -3 8.5 -6t8.5 -6q-27 -18 -56.5 -30t-59 -18.5t-56.5 -9t-49 -2.5q-21 0 -47.5 3.5t-55 11t-57 18.5t-52.5 27q-14 -18 -32 -29.5
t-40 -11.5q-9 0 -21 3.5t-22 12t-17 21.5t-7 31q0 20 5.5 43t12.5 43.5t13 35t7 17.5q2 7 10 9.5t16 2.5t16 -2t10 -6q10 10 21 14.5t20 4.5q23 0 37.5 -16.5t14.5 -42.5q0 -20 -6 -45t-17 -49l-9 -18q-1 -1 -1.5 -2t-1.5 -2q24 -15 52 -25.5t56.5 -16.5t53.5 -9t43 -3
q59 0 112.5 15.5t89.5 36.5q-52 38 -80.5 82t-28.5 88q0 33 19.5 48t43.5 15q13 0 24 -6t20 -15.5t15 -21.5t9 -23q9 24 27 45t46 21q21 0 39.5 -14t18.5 -44q0 -26 -10.5 -52t-28 -49t-39 -42t-42.5 -32q45 -29 97.5 -46t106.5 -17q51 0 92.5 20t67.5 41q32 25 50 48t21 31
q2 8 11 6q8 -3 6 -12q-4 -11 -23.5 -36t-53.5 -51q-28 -23 -72 -44t-99 -21zM504 241q-3 0 -10.5 -1t-15 -5.5t-13.5 -13.5t-6 -25q0 -42 29.5 -84t77.5 -75q20 9 41.5 27.5t38.5 41.5t28 48t11 47q0 21 -12.5 30.5t-27.5 9.5q-12 0 -23.5 -8.5t-20.5 -22t-14.5 -31.5
t-5.5 -38q0 -9 -9 -9h-1q-9 0 -9 9q0 21 -4.5 39t-12.5 31.5t-18.5 21.5t-22.5 8zM128 38q16 25 23.5 55.5t7.5 50.5q0 15 -8 27.5t-25 12.5t-30 -16t-13 -46q0 -26 12.5 -46.5t32.5 -37.5zM119 25q-23 18 -39 41.5t-19 52.5q-5 -13 -9.5 -28t-7 -30t-2 -28t5.5 -21
q8 -12 26 -12q14 0 25 7t20 18z" />
    <glyph glyph-name="p.001" horiz-adv-x="1066" 
d="M93 -3q-9 0 -19.5 2.5t-17.5 7.5q-2 -5 -2.5 -9t-2.5 -9q-2 -70 2.5 -145.5t17.5 -144.5q0 -6 -6.5 -8.5t-15.5 -2.5q-10 0 -18 3t-10 8q-13 70 -17.5 146.5t-2 147t11 128t21.5 89.5q3 8 16 8q11 0 23 -6t10 -12q-10 -23 -16.5 -57.5t-10.5 -78.5q10 28 23.5 54
t29.5 46.5t35 33t41 12.5q31 0 46.5 -17t15.5 -40q0 -26 -11 -52t-30 -47q26 -9 50 -22t50 -25.5t56.5 -21.5t70.5 -9q58 0 102.5 13t72.5 36q-54 38 -82.5 82.5t-28.5 88.5q0 33 19.5 48t43.5 15q13 0 24 -6t20 -15.5t15 -21.5t9 -23q9 24 27 45t46 21q21 0 39.5 -14
t18.5 -44q0 -26 -10.5 -52t-28 -49t-39 -42t-42.5 -32q45 -29 97.5 -46t106.5 -17q51 0 92.5 20t67.5 41q32 25 50 48t21 31q2 8 11 6q8 -3 6 -12q-4 -11 -23.5 -36t-53.5 -51q-28 -23 -72 -44t-99 -21q-54 0 -111 18t-108 51q-45 -36 -96 -47t-96 -11q-41 0 -75 9.5
t-63.5 22.5t-55 27t-49.5 22q-21 -18 -45.5 -29t-50.5 -11zM560 241q-3 0 -10.5 -1t-15 -5.5t-13.5 -13.5t-6 -25q0 -42 29.5 -84t77.5 -75q20 9 41.5 27.5t38.5 41.5t28 48t11 47q0 21 -12.5 30.5t-27.5 9.5q-12 0 -23.5 -8.5t-20.5 -22t-14.5 -31.5t-5.5 -38q0 -9 -9 -9
h-1q-9 0 -9 9q0 21 -4.5 39t-12.5 31.5t-18.5 21.5t-22.5 8zM147 64h10.5t10.5 -1q16 21 25.5 45.5t9.5 44.5q0 18 -10.5 22t-15.5 4q-17 0 -32.5 -11t-29 -29.5t-25.5 -42t-21 -48.5q13 8 34.5 12t43.5 4zM152 45q-3 0 -17 -0.5t-29 -2.5t-27 -5.5t-12 -9.5q0 -8 8 -10
t18 -2q16 0 31 8t28 22z" />
    <glyph glyph-name="q.001" horiz-adv-x="1040" 
d="M817 -55q-54 0 -111 18.5t-108 50.5q-53 -40 -104.5 -61.5t-107.5 -21.5q-44 0 -77 9t-57 23t-41 31t-30 32q9 -31 14.5 -76t6.5 -95t-2.5 -99t-12 -88.5t-23 -64t-35.5 -24.5q-9 0 -20 4.5t-21.5 17t-17.5 35t-7 59.5t6 85t16 100.5t23 108t26 107.5
q-11 -19 -22.5 -37.5t-23.5 -33t-23.5 -23.5t-21.5 -9q-18 0 -30.5 17t-12.5 44q0 57 11 90t26.5 49.5t32 21t27.5 4.5q16 0 34 -12t25 -29q8 26 14.5 48.5t12.5 42.5q0 2 6 2t13 -1t13.5 -2.5t8.5 -1.5q9 -4 6 -12q-13 -44 -26 -92.5t-25 -99.5q10 -15 26.5 -34t41.5 -36
t58.5 -29t76.5 -12q35 0 63.5 7t53 17.5t45 23.5t37.5 26q-53 38 -81.5 82.5t-28.5 88.5q0 33 19.5 48t43.5 15q13 0 24 -6t20 -15.5t15 -21.5t9 -23q9 24 27 45t46 21q21 0 39.5 -14t18.5 -44q0 -26 -10.5 -52t-28 -49t-39 -42t-42.5 -32q45 -29 97.5 -46t106.5 -17
q51 0 92.5 20t67.5 41q32 25 50 48t21 31q2 8 11 6q8 -3 6 -12q-4 -11 -23.5 -36t-53.5 -51q-28 -23 -72 -44t-99 -21zM534 241q-3 0 -10.5 -1t-15 -5.5t-13.5 -13.5t-6 -25q0 -42 29.5 -84t77.5 -75q20 9 41.5 27.5t38.5 41.5t28 48t11 47q0 21 -12.5 30.5t-27.5 9.5
q-12 0 -23.5 -8.5t-20.5 -22t-14.5 -31.5t-5.5 -38q0 -9 -9 -9h-1q-9 0 -9 9q0 21 -4.5 39t-12.5 31.5t-18.5 21.5t-22.5 8zM105 201q-7 0 -18 -8.5t-21.5 -26.5t-18 -45.5t-7.5 -66.5q0 -12 3 -22t5 -14q8 2 19.5 14t24.5 31t26.5 42t25.5 47q0 18 -12.5 33.5t-26.5 15.5z
M134 -397q13 5 21.5 30.5t13.5 63t7 82t1.5 88t-3.5 80.5t-8 60q-15 -69 -27 -135t-18.5 -120t-5.5 -92t11 -52q4 -5 8 -5z" />
    <glyph glyph-name="r.002" horiz-adv-x="990" 
d="M312 -42q28 0 58.5 6t60 15.5t55.5 21.5t45 25q-53 38 -81.5 82t-28.5 88q0 33 19.5 48t43.5 15q13 0 24 -6t20 -15.5t15 -21.5t9 -23q9 24 27 45t46 21q21 0 39.5 -14t18.5 -44q0 -26 -10.5 -52t-28 -49t-39 -42t-42.5 -32q45 -29 97.5 -46t106.5 -17q51 0 92.5 20
t67.5 41q32 25 50 48t21 31q2 8 11 6q8 -3 6 -12q-4 -11 -23.5 -36t-53.5 -51q-28 -23 -72 -44t-99 -21q-54 0 -111 18.5t-108 50.5q-28 -21 -60.5 -35.5t-64.5 -23.5t-61 -13t-50 -4q-71 0 -117.5 8.5t-74 22.5t-40 32t-15 37t1.5 37.5t9 33.5q5 17 9 31.5t4 22.5
q0 5 -3.5 11.5t-8.5 13t-10.5 12t-9.5 7.5q-4 -17 -9 -35t-9.5 -33t-8 -25.5l-4.5 -13.5q-3 -10 -9 -10q-2 0 -3 1h-1q-9 4 -6 11q1 5 5 17.5t9.5 30t11 36.5t10.5 37q-12 14 -21 29.5t-9 32.5t7.5 29.5t19.5 12.5q6 0 13.5 -1.5t14 -7.5t11 -17.5t4.5 -30.5q0 -11 -6 -23.5
t-12 -19.5q8 -9 21 -18.5t25 -19.5t21 -20.5t9 -20.5q0 -11 -3 -22t-7 -22q-3 -11 -6.5 -26t-2 -31.5t10.5 -32t30.5 -28t57.5 -20.5t91 -8zM484 241q-3 0 -10.5 -1t-15 -5.5t-13.5 -13.5t-6 -25q0 -42 29.5 -84t77.5 -75q20 9 41.5 27.5t38.5 41.5t28 48t11 47
q0 21 -12.5 30.5t-27.5 9.5q-12 0 -23.5 -8.5t-20.5 -22t-14.5 -31.5t-5.5 -38q0 -9 -9 -9h-1q-9 0 -9 9q0 21 -4.5 39t-12.5 31.5t-18.5 21.5t-22.5 8z" />
    <glyph glyph-name="s.002" horiz-adv-x="986" 
d="M763 -55q-54 0 -111.5 18.5t-108.5 50.5q-54 -36 -106.5 -47t-94.5 -11q-65 0 -117 17t-93 33q-8 -28 -28 -47t-50 -19q-26 0 -42 14.5t-16 39.5q0 23 18 36.5t44 13.5q14 0 34 -5q-1 14 -6.5 29t-13 30.5t-15.5 30t-14 25.5q-5 -21 -9.5 -36t-6.5 -18q-3 -10 -9 -10
q-2 0 -3 1h-1q-9 4 -6 11q2 6 8 27.5t14 47.5q-9 18 -15.5 33t-6.5 26q0 8 8 11t17 3q8 0 15 -2.5t7 -6.5q0 -10 6.5 -24.5t16.5 -32t21 -38t20 -41.5l7 -17q5 -14 7.5 -27t2.5 -27q0 -6 -1 -9q41 -15 91.5 -32t117.5 -17q54 0 101 13t82 37q-53 38 -81.5 82t-28.5 88
q0 33 19.5 48t43.5 15q13 0 24 -6t20 -15.5t15 -21.5t9 -23q9 24 27 45t46 21q21 0 39.5 -14t18.5 -44q0 -26 -10.5 -52t-28 -49t-39 -42t-42.5 -32q45 -29 97.5 -46t106.5 -17q51 0 92.5 20t67.5 41q32 25 50 48t21 31q2 8 11 6q8 -3 6 -12q-4 -11 -23.5 -36t-53.5 -51
q-28 -23 -72 -44t-99 -21zM480 241q-3 0 -10.5 -1t-15 -5.5t-13.5 -13.5t-6 -25q0 -42 29.5 -84t77.5 -75q20 9 41.5 27.5t38.5 41.5t28 48t11 47q0 21 -12.5 30.5t-27.5 9.5q-12 0 -23.5 -8.5t-20.5 -22t-14.5 -31.5t-5.5 -38q0 -9 -9 -9h-1q-9 0 -9 9q0 21 -4.5 39
t-12.5 31.5t-18.5 21.5t-22.5 8zM92 20q-18 7 -36 7q-21 0 -31.5 -11t-10.5 -22q0 -19 11 -25t20 -6q23 0 34 15.5t13 41.5z" />
    <glyph glyph-name="t.002" horiz-adv-x="979" 
d="M313 -46q26 0 55 5.5t57 15.5t52.5 23t42.5 27q-53 38 -81.5 82.5t-28.5 88.5q0 33 19.5 48t43.5 15q13 0 24 -6t20 -15.5t15 -21.5t9 -23q9 24 27 45t46 21q21 0 39.5 -14t18.5 -44q0 -26 -10.5 -52t-28 -49t-39 -42t-42.5 -32q45 -29 97.5 -46t106.5 -17q51 0 92.5 20
t67.5 41q32 25 50 48t21 31q2 8 11 6q8 -3 6 -12q-4 -11 -23.5 -36t-53.5 -51q-28 -23 -72 -44t-99 -21q-54 0 -111 18t-108 51q-53 -45 -114 -65t-117 -20q-54 0 -109.5 12t-99.5 38.5t-70 67.5t-23 98q8 111 27 266q-24 2 -45.5 2.5t-38.5 -2.5q-9 -2 -11 8q-2 8 7 10
q16 3 37 3q26 0 54 -3q4 31 8 63t9 66q2 9 16 9q13 0 27 -6.5t13 -17.5q-4 -28 -7.5 -58.5t-7.5 -62.5q2 0 2.5 -0.5t2.5 -0.5q33 -5 61 -8t41 1q7 4 11 -6q2 -9 -6 -11q-10 -3 -24 -3q-17 0 -38.5 2.5t-46.5 6.5q-4 0 -5 1q-8 -59 -13.5 -119t-9.5 -114q-4 -64 13.5 -105.5
t51 -66t80.5 -34.5t101 -11zM473 241q-3 0 -10.5 -1t-15 -5.5t-13.5 -13.5t-6 -25q0 -42 29.5 -84t77.5 -75q20 9 41.5 27.5t38.5 41.5t28 48t11 47q0 21 -12.5 30.5t-27.5 9.5q-12 0 -23.5 -8.5t-20.5 -22t-14.5 -31.5t-5.5 -38q0 -9 -9 -9h-1q-9 0 -9 9q0 21 -4.5 39
t-12.5 31.5t-18.5 21.5t-22.5 8z" />
    <glyph glyph-name="u.002" horiz-adv-x="999" 
d="M316 -36q27 0 57 3.5t60 11.5t57.5 19.5t49.5 26.5q-53 38 -81.5 82.5t-28.5 88.5q0 33 19.5 48t43.5 15q13 0 24 -6t20 -15.5t15 -21.5t9 -23q9 24 27 45t46 21q21 0 39.5 -14t18.5 -44q0 -26 -10.5 -52t-28 -49t-39 -42t-42.5 -32q45 -29 97.5 -46t106.5 -17
q51 0 92.5 20t67.5 41q32 25 50 48t21 31q2 8 11 6q8 -3 6 -12q-4 -11 -23.5 -36t-53.5 -51q-28 -23 -72 -44t-99 -21q-54 0 -113 18.5t-110 52.5q-25 -20 -56.5 -33.5t-64.5 -21.5t-65.5 -12t-60.5 -4q-59 0 -97 10.5t-59.5 26.5t-30 35t-8.5 35v16q-8 -14 -17 -28
t-17.5 -25t-17 -18t-14.5 -7q-13 0 -29 15t-16 47q0 22 4 48t8.5 49t9 40t5.5 21q2 5 8 5q5 0 11 -2t11 -5.5t8.5 -7.5t2.5 -8q-9 -35 -15 -67t-8.5 -56t-1.5 -39.5t5 -17.5q4 0 12 10t17.5 25.5t20 34t19.5 35.5q6 33 12.5 60t8.5 33q2 5 8 5q5 0 11 -2t11 -5.5t8.5 -7.5
t2.5 -8q-15 -60 -18 -103.5t11 -71t48.5 -40.5t95.5 -13zM493 241q-3 0 -10.5 -1t-15 -5.5t-13.5 -13.5t-6 -25q0 -42 29.5 -84t77.5 -75q20 9 41.5 27.5t38.5 41.5t28 48t11 47q0 21 -12.5 30.5t-27.5 9.5q-12 0 -23.5 -8.5t-20.5 -22t-14.5 -31.5t-5.5 -38q0 -9 -9 -9h-1
q-9 0 -9 9q0 21 -4.5 39t-12.5 31.5t-18.5 21.5t-22.5 8z" />
    <glyph glyph-name="v.001" horiz-adv-x="949" 
d="M130 77q-47 39 -47 93q0 26 16.5 44.5t39.5 18.5q14 0 27 -12t13 -37q0 -23 -6 -48t-17 -48q27 -23 69 -37.5t97 -14.5q27 -1 62 3.5t71 14.5q-38 29 -61.5 65t-23.5 81q0 31 19.5 45t43.5 14q13 0 24 -6t20 -15.5t15 -21.5t9 -23q9 24 27 45t46 21q21 0 39.5 -14
t18.5 -44t-11 -53.5t-29.5 -42.5t-43 -33t-52.5 -24q27 -16 57.5 -28.5t61 -20.5t60.5 -12.5t55 -4.5q34 0 70.5 10t68 27t55.5 38.5t33 45.5q2 8 11 6q8 -3 6 -10q-10 -27 -35.5 -51t-59.5 -42.5t-73 -29.5t-76 -11q-29 0 -62 5t-66.5 14.5t-66 24t-61.5 32.5
q-40 -11 -80.5 -16t-73.5 -5q-54 0 -98.5 12t-76.5 33q-6 -10 -15 -23t-20 -24.5t-23.5 -19.5t-24.5 -8q-8 0 -18.5 3.5t-20.5 15.5t-16.5 36.5t-6.5 66.5q0 29 1.5 55t3.5 37q1 4 6 5.5t12 1.5q9 0 17 -2.5t7 -7.5q-2 -15 -3.5 -41.5t-0.5 -54.5t5 -52t13 -34q5 -5 9 -5
q8 0 16 6t16 15.5t15 20.5t13 21zM614 201q0 21 -12.5 30.5t-27.5 9.5q-12 0 -23.5 -8.5t-20.5 -22t-14.5 -31.5t-5.5 -38q0 -9 -9 -9h-1q-9 0 -9 9q0 21 -4.5 39t-12.5 31.5t-18.5 21.5t-22.5 8q-3 0 -10.5 -1t-15 -5t-13.5 -12.5t-6 -23.5q0 -42 25 -77t63 -61q28 9 53 22
t44 30.5t30 39t11 48.5zM142 103q8 19 13 40t5 41t-8.5 25.5t-12.5 5.5q-13 0 -18 -12.5t-5 -32.5q0 -36 26 -67z" />
    <glyph glyph-name="w.002" horiz-adv-x="1079" 
d="M213 170q0 34 16 50.5t37 16.5q15 0 28 -14t13 -39q0 -24 -6 -48t-16 -47q26 -23 68.5 -38t98.5 -15q27 -1 62 3.5t71 14.5q-38 29 -61.5 65t-23.5 81q0 31 19.5 45t43.5 14q13 0 24 -6t20 -15.5t15 -21.5t9 -23q9 24 27 45t46 21q21 0 39.5 -14t18.5 -44t-11 -53.5
t-29.5 -42.5t-43 -33t-52.5 -24q27 -16 57.5 -28.5t61 -20.5t60.5 -12.5t55 -4.5q34 0 70.5 10t68 27t55.5 38.5t33 45.5q2 8 11 6q8 -3 6 -10q-10 -27 -35.5 -51t-59.5 -42.5t-73 -29.5t-76 -11q-29 0 -62 5t-66.5 14.5t-66 24t-61.5 32.5q-40 -11 -80.5 -16t-73.5 -5
q-54 0 -99 12t-77 33q-5 -12 -12.5 -25.5t-16 -25t-18 -19t-19.5 -7.5q-22 0 -36 10.5t-22 26.5t-12 35t-5 36q-7 -17 -17.5 -37t-22 -37.5t-23 -29.5t-21.5 -12q-23 0 -36 16.5t-13 39.5q0 26 4.5 68.5t21.5 99.5q1 2 6.5 1.5t12.5 -2t13.5 -3t7.5 -1.5q8 -3 6 -12
q-4 -14 -10 -40.5t-10.5 -54t-6 -51t4.5 -32.5q2 -2 6 -2q5 0 14.5 13t20 33t21.5 44.5t20 47.5q2 4 7.5 5.5t12.5 1.5q8 0 14.5 -2t6.5 -7q0 -21 2 -45t6.5 -44.5t11 -34t15.5 -13.5q6 0 13 7t14 18t13 23.5t11 22.5q-22 19 -34 42.5t-12 50.5zM606 61q28 9 53 22t44 30.5
t30 39t11 48.5q0 21 -12.5 30.5t-27.5 9.5q-12 0 -23.5 -8.5t-20.5 -22t-14.5 -31.5t-5.5 -38q0 -9 -9 -9h-1q-9 0 -9 9q0 21 -4.5 39t-12.5 31.5t-18.5 21.5t-22.5 8q-3 0 -10.5 -1t-15 -5t-13.5 -12.5t-6 -23.5q0 -42 25 -77t63 -61zM271 104q8 19 13 39.5t5 40.5
t-6.5 25.5t-9.5 5.5q-10 0 -18.5 -9.5t-8.5 -35.5q0 -37 25 -66z" />
    <glyph glyph-name="y.002" horiz-adv-x="971" 
d="M748 -55q-54 0 -111 18.5t-108 50.5q-36 -26 -80.5 -44.5t-92 -33.5t-97 -27.5t-96.5 -25.5q-10 -47 -25.5 -101.5t-40.5 -101.5t-61.5 -78.5t-89.5 -31.5q-13 0 -26 5t-23.5 15.5t-17.5 26t-7 36.5q0 51 18.5 88t50 65t74.5 48t91 35q9 35 16 69.5t12.5 65t10 55.5
t7.5 43q-12 -20 -27 -42.5t-30.5 -41t-30.5 -31t-27 -12.5q-5 0 -12.5 3t-14.5 9.5t-12 17t-5 24.5q0 16 5.5 37.5t12.5 42t13.5 36.5t7.5 19q3 7 15 7q9 0 17 -4.5t6 -10.5q-6 -14 -13.5 -36t-13.5 -44.5t-8.5 -41t2.5 -25.5q2 -5 10 -5q9 0 23 14t29.5 36t31.5 47.5
t28 49.5q3 14 3 23q1 4 6.5 6t12.5 2q10 0 19 -3.5t8 -10.5q-3 -20 -4 -40.5t-3 -40.5q-12 -102 -33 -200q47 12 94 23.5t92 25t85.5 30.5t72.5 40q-53 38 -81.5 82t-28.5 88q0 33 19.5 48t43.5 15q13 0 24 -6t20 -15.5t15 -21.5t9 -23q9 24 27 45t46 21q21 0 39.5 -14
t18.5 -44q0 -26 -10.5 -52t-28 -49t-39 -42t-42.5 -32q45 -29 97.5 -46t106.5 -17q51 0 92.5 20t67.5 41q32 25 50 48t21 31q2 8 11 6q8 -3 6 -12q-4 -11 -23.5 -36t-53.5 -51q-28 -23 -72 -44t-99 -21zM465 241q-3 0 -10.5 -1t-15 -5.5t-13.5 -13.5t-6 -25q0 -42 29.5 -84
t77.5 -75q20 9 41.5 27.5t38.5 41.5t28 48t11 47q0 21 -12.5 30.5t-27.5 9.5q-12 0 -23.5 -8.5t-20.5 -22t-14.5 -31.5t-5.5 -38q0 -9 -9 -9h-1q-9 0 -9 9q0 21 -4.5 39t-12.5 31.5t-18.5 21.5t-22.5 8zM-102 -347q0 -22 12.5 -37.5t29.5 -15.5q27 0 50.5 22.5t43.5 59
t36.5 84t29.5 97.5q-43 -14 -80 -32.5t-64 -43t-42.5 -57.5t-15.5 -77z" />
    <glyph glyph-name="x.001" horiz-adv-x="936" 
d="M268 -76q30 -2 60.5 7.5t58.5 24.5t52 33.5t41 34.5q-54 38 -83.5 82.5t-29.5 89.5q0 33 19.5 48t43.5 15q13 0 24 -6t20 -15.5t15 -21.5t9 -23q9 24 27 45t46 21q21 0 39.5 -14t18.5 -44q0 -25 -11 -50.5t-27.5 -49t-37 -44t-40.5 -34.5q45 -28 97 -44t103 -16t92.5 20
t67.5 41q32 25 50 48t21 31q2 8 11 6q8 -3 6 -12q-4 -11 -23.5 -36t-53.5 -51q-28 -23 -72 -44t-99 -21q-53 0 -109.5 17.5t-107.5 49.5q-52 -48 -108 -80t-125 -32q-68 0 -123 25.5t-90 93.5q-24 -34 -50.5 -57t-58.5 -23q-9 0 -9 9t9 9q28 0 52.5 23.5t47.5 57.5
q-12 27 -21 54t-15 49.5t-10 39t-5 22.5q-1 4 3 7.5t10.5 6t14 4t13.5 1.5q13 0 14 -6q6 -21 13.5 -52t18.5 -65q3 5 5.5 10t5.5 10q14 25 26.5 46.5t25 37.5t25 25.5t25.5 9.5q9 0 9 -9q0 -10 -9 -10t-19.5 -9t-21.5 -24t-22.5 -34t-22.5 -39q-5 -8 -9.5 -16.5t-9.5 -16.5
q9 -25 22.5 -52.5t35 -50.5t52 -38t73.5 -15zM496 34q9 5 27.5 21t38.5 39q17 19 33 47t16 60q0 21 -12.5 30.5t-27.5 9.5q-12 0 -23.5 -8.5t-20.5 -22t-14.5 -31.5t-5.5 -38q0 -9 -9 -9h-1q-9 0 -9 9q0 21 -4.5 39t-12.5 31.5t-18.5 21.5t-22.5 8q-3 0 -10.5 -1t-15 -5.5
t-13.5 -13.5t-6 -25q0 -25 10 -48t26 -44t36 -38.5t39 -31.5z" />
    <glyph glyph-name="z.002" horiz-adv-x="1011" 
d="M788 -55q-54 0 -111 18.5t-108 50.5q-35 -25 -77 -43.5t-88 -32.5t-93.5 -26t-93.5 -24q-4 -59 -25 -113t-53 -95t-71.5 -65.5t-79.5 -24.5q-14 0 -28 5t-25.5 15t-19 25t-7.5 36q0 49 20.5 85t55.5 62.5t82 45t99 33.5q1 4 1 8v8q0 10 -1 22.5t-5 22.5t-12 17t-22 7
q-30 0 -54 -17t-41 -39q-3 -3 -7 -3q-2 0 -11 8.5t-11 10.5q-8 6 -1 13q60 78 93 141.5t34 95.5q1 8 -3 15.5t-15 7.5q-19 0 -35.5 -12.5t-25.5 -38.5q-13 -34 -17.5 -47.5l-5.5 -16.5q-4 -10 -10 -10q-1 0 -2 1h-1q-8 3 -5 11q2 10 7 22t14 37q16 44 40.5 60t49.5 16
q7 0 16.5 -2.5t18.5 -8.5t15 -16.5t6 -25.5q0 -39 -26 -87.5t-69 -106.5q11 5 22.5 8t23.5 3q41 0 66 -24.5t25 -65.5q46 11 92.5 22t90 24.5t82.5 30t70 38.5q-53 38 -81.5 82t-28.5 88q0 33 19.5 48t43.5 15q13 0 24 -6t20 -15.5t15 -21.5t9 -23q9 24 27 45t46 21
q21 0 39.5 -14t18.5 -44q0 -26 -10.5 -52t-28 -49t-39 -42t-42.5 -32q45 -29 97.5 -46t106.5 -17q51 0 92.5 20t67.5 41q32 25 50 48t21 31q2 8 11 6q8 -3 6 -12q-4 -11 -23.5 -36t-53.5 -51q-28 -23 -72 -44t-99 -21zM505 241q-3 0 -10.5 -1t-15 -5.5t-13.5 -13.5t-6 -25
q0 -42 29.5 -84t77.5 -75q20 9 41.5 27.5t38.5 41.5t28 48t11 47q0 21 -12.5 30.5t-27.5 9.5q-12 0 -23.5 -8.5t-20.5 -22t-14.5 -31.5t-5.5 -38q0 -9 -9 -9h-1q-9 0 -9 9q0 21 -4.5 39t-12.5 31.5t-18.5 21.5t-22.5 8zM-66 -329q0 -29 15 -40t28 -11q33 0 63 26t54.5 64
t42 82.5t24.5 80.5q-47 -14 -88.5 -31t-72.5 -40.5t-48.5 -55.5t-17.5 -75z" />
    <glyph glyph-name="hyphen_hyphen_one" horiz-adv-x="1455" 
d="M136 16q-24 0 -46.5 3.5t-40.5 13.5t-29 28t-11 46q0 19 9.5 32.5t24.5 22.5t32.5 13t33.5 4q44 0 83.5 -19.5t71.5 -47.5q7 -5 1 -13q-6 -6 -13 -1q-29 26 -66.5 44.5t-77.5 18.5q-12 0 -26 -3t-26.5 -9.5t-20.5 -16.5t-8 -25q0 -39 26 -55q26 -18 83 -18q73 0 141 7
t145 16q47 6 97.5 12t107.5 10.5t121 7.5t137 3q50 0 108.5 -5.5t118.5 -12.5t118.5 -12.5t107.5 -5.5h1q105 0 130 32q6 8 13 2q7 -5 1 -13q-17 -23 -55 -31t-90 -8q-49 0 -107.5 5.5t-120.5 12.5q-60 7 -118 12.5t-107 5.5q-73 0 -136.5 -3t-120 -7.5t-107 -10.5
t-97.5 -12q-77 -9 -145.5 -16t-142.5 -7z" />
    <glyph glyph-name="hyphen_hyphen_two" horiz-adv-x="1370" 
d="M1268 14q-14 0 -39 5q-53 15 -104 63q-2 2 -2.5 6t2.5 6q5 7 13 1q37 -35 70.5 -49t60.5 -14q12 0 25 3.5t23.5 10t17.5 17t7 24.5q0 23 -8 37t-22 22t-31.5 10.5t-37.5 2.5q-66 0 -128.5 -6.5t-131.5 -16.5q-43 -6 -89.5 -11.5t-98.5 -10.5t-110.5 -8t-125.5 -3
q-45 0 -99 5.5t-108 12.5t-107.5 13t-98.5 6h-1q-94 0 -118 -33q-5 -7 -12 -2q-8 6 -2 13q16 23 50.5 31.5t81.5 8.5q45 0 98.5 -5.5t110.5 -13.5q54 -7 107 -12.5t98 -5.5q133 0 234.5 11t186.5 22q70 10 133 16.5t130 6.5q24 0 45 -4t37 -14t25.5 -27.5t9.5 -44.5
q0 -18 -8.5 -31.5t-22 -23t-29.5 -14t-32 -4.5z" />
    <glyph glyph-name="hyphen_hyphen_three" horiz-adv-x="1457" 
d="M60 112q-18 0 -34 3.5t-16 19.5q0 20 44 20q14 0 28.5 -6.5t19.5 -18.5q72 2 148 7.5t157 11.5q111 9 235.5 17.5t264.5 8.5q72 0 140.5 -5.5t130.5 -11.5q51 -5 96.5 -8.5t83.5 -3.5q48 0 82 8t51 28q6 8 13 1q6 -6 1 -12q-33 -39 -126 -42q-42 -2 -92.5 2t-109.5 9
q-62 6 -130 11.5t-140 5.5q-140 0 -264 -8.5t-234 -17.5q-94 -8 -180.5 -13.5t-168.5 -5.5zM29 134q1 -1 7.5 -2.5t23.5 -1.5h19q-10 7 -25 7q-11 0 -17 -1t-8 -2z" />
    <glyph glyph-name="hyphen_hyphen_four" horiz-adv-x="1358" 
d="M20 104q-3 0 -5 2q-7 5 -2 12q18 24 52 33t82 9q38 0 83 -4.5t96 -9.5q58 -6 122 -12t129 -6q124 0 229 9t197 19q78 8 151.5 15t146.5 7q6 0 14 -0.5t15 -2.5t12 -7t5 -14q0 -7 -7.5 -13.5t-33.5 -6.5q-12 0 -25.5 7t-17.5 18q-63 -2 -126.5 -7.5t-131.5 -13.5
q-93 -10 -198 -19t-230 -9q-66 0 -130 6t-123 12l-95 9.5t-83 4.5q-43 0 -73.5 -7.5t-45.5 -26.5q-3 -4 -7 -4zM1285 159q4 -2 10 -4.5t11 -2.5q11 0 16 1t7 3q-1 0 -2 1q-6 3 -26 3h-8t-8 -1z" />
    <glyph glyph-name="hyphen_hyphen_five" horiz-adv-x="1470" 
d="M1495 134q4 -6 -1 -13q-17 -14 -54 -20t-101 -6h-1q-57 0 -129.5 4.5t-159.5 9.5q-115 8 -248 15t-276 7q-118 0 -237.5 -7t-235.5 -25q0 -4 -1 -9t-3 -11q-5 -12 -10.5 -19.5t-10.5 -6.5q-4 2 -3.5 11.5t5.5 21.5q2 6 4 10q-6 -1 -11.5 -1.5t-10.5 -1.5q-10 0 -11 7
q-2 10 8 10q9 2 18 3t18 3q-3 2 -6.5 3.5t-6.5 3.5q-11 6 -17.5 13t-4.5 11t11.5 2t20.5 -9q20 -12 22 -21q113 17 228.5 23t230.5 6q145 0 279 -7t250 -14q86 -5 158 -9.5t129 -4.5h1q60 0 94.5 5.5t48.5 16.5q7 5 13 -1z" />
    <glyph glyph-name="hyphen_hyphen_six" horiz-adv-x="1339" 
d="M1306 155q-1 -3 -2 -5.5t-2 -5.5q6 2 11.5 2.5t11.5 2.5q4 1 7 -1.5t4 -5.5q1 -4 -1.5 -7t-5.5 -4q-9 -2 -18 -3.5t-18 -3.5q3 -1 11 -5q11 -7 17.5 -14t4.5 -11q-2 -3 -11.5 -1t-20.5 8q-8 5 -14 10.5t-8 9.5q-99 -16 -199 -22t-200 -6q-128 0 -245.5 7t-220.5 15
q-76 5 -140 9t-114 4h-1q-102 0 -125 -21q-6 -7 -13 0q-5 7 1 13q14 14 47 20t90 6h1q51 0 115 -4t140 -9q102 -8 220 -15t245 -7q103 0 206 6.5t204 23.5q0 10 4 21q5 12 10.5 20t9.5 6q5 -2 4.5 -11.5t-5.5 -21.5z" />
    <glyph glyph-name="l_t" horiz-adv-x="358" 
d="M356 394q-17 0 -38.5 2.5t-46.5 6.5q-4 0 -6 1q-9 -78 -16 -158t-9.5 -144.5t1.5 -105.5t17 -41q17 0 41.5 28t42.5 70q8 17 14 33t11 29q2 8 11 6q8 -3 6 -12q-2 -4 -8.5 -22t-17.5 -41q-10 -22 -23 -42.5t-27.5 -37t-29 -26.5t-27.5 -10q-11 0 -23.5 6t-23.5 21.5
t-18.5 42.5t-7.5 69q0 63 7.5 148.5t21.5 193.5q-24 2 -45.5 2.5t-38.5 -2.5q-9 -2 -11 8q-2 8 7 10q19 4 42 3t49 -3q4 31 8 63t9 66q1 7 10 8.5t19.5 -1t18.5 -8.5t8 -14q-4 -28 -7.5 -58.5t-7.5 -62.5q2 0 2.5 -0.5t2.5 -0.5q33 -5 61 -8t41 1q7 4 11 -6q2 -9 -6 -11
q-10 -3 -24 -3zM121 527q-35 -139 -52 -267t-17 -234q0 -32 10.5 -47t22.5 -15q18 0 34.5 25t34.5 64q8 17 14 33t11 29q1 3 4.5 5t6.5 1q9 -4 6 -12q-2 -5 -8 -22.5t-17 -40.5q-21 -48 -41.5 -77t-49.5 -29q-14 0 -28 5.5t-25 17.5t-18 30.5t-7 44.5q0 63 4.5 126t12.5 121
t18.5 108.5t22 87.5t23 58.5t22.5 21.5q14 0 16.5 -10.5t-0.5 -23.5z" />
    </font>
</defs>
</svg>
