<?xml version="1.0" standalone="no"?>
<!DOCTYPE svg PUBLIC "-//W3C//DTD SVG 1.1//EN" "http://www.w3.org/Graphics/SVG/1.1/DTD/svg11.dtd" >
<svg xmlns="http://www.w3.org/2000/svg" xmlns:xlink="http://www.w3.org/1999/xlink" version="1.1">
<metadata>
Created by FontForge 20170731 at Sat Jul  2 13:12:08 2022
 By Aleksey,,,
Copyright (c) 2020 by Typia Nesia Std. All rights reserved.
</metadata>
<defs>
<font id="MarrieDream-Regular" horiz-adv-x="419" >
  <font-face 
    font-family="Marrie Dream"
    font-weight="400"
    font-stretch="normal"
    units-per-em="2048"
    panose-1="0 0 0 0 0 0 0 0 0 0"
    ascent="1638"
    descent="-410"
    x-height="414"
    cap-height="1257"
    bbox="-561 -901 3086.55 1579"
    underline-thickness="102"
    underline-position="-358"
    unicode-range="U+000D-FB02"
  />
<missing-glyph horiz-adv-x="512" 
 />
    <glyph glyph-name="fi" unicode="fi" horiz-adv-x="673" 
d="M514 -4q32 0 62 26.5t52.5 70t35.5 75.5t24 65q3 13 17 13q10 0 15.5 -8t2.5 -17q-86 -262 -201 -262q-40 0 -68.5 12t-41.5 31.5t-18.5 36t-6.5 33.5q-47 -66 -137 -66q-2 -80 -12.5 -149t-25 -114.5t-32 -78t-33 -47t-28.5 -14.5q-48 0 -88.5 70t-40.5 182
q0 204 31.5 419t82 390.5t110 317t119.5 220t107 78.5q39 0 65.5 -39.5t26.5 -122.5q0 -78 -30.5 -160.5t-70 -142.5t-91.5 -119t-80 -84.5t-51 -44.5q-37 -133 -70 -303q50 -8 80 -61.5t31 -139.5q55 0 85 20.5t54 72.5q7 81 21 166.5t22 103.5q7 6 41 1t43 -9q16 -6 8 -25
q-10 -32 -24.5 -122.5t-15.5 -182.5t30 -92zM459 1206q-31 -6 -98.5 -172.5t-133.5 -398.5q32 30 62.5 62t70 83t68 101.5t48.5 113.5t20 123q0 36 -9.5 62t-27.5 26zM444 655q0 30 19.5 48t42.5 18q40 0 65 -25t25 -53q0 -25 -25.5 -51.5t-52.5 -26.5q-31 0 -52.5 24
t-21.5 66zM133 227q-6 -25 -14 -82q20 -58 94 -75q-3 69 -24.5 110.5t-55.5 46.5zM119 -358q11 8 24 30.5t29 63.5t27.5 113t13.5 161q-65 13 -104 64q-17 -136 -17 -219q0 -164 27 -213z" />
    <glyph glyph-name="fl" unicode="fl" horiz-adv-x="747" 
d="M119 -397q-48 0 -88.5 70t-40.5 182q0 204 31.5 419t82 390.5t110 317t119.5 220t107 78.5q39 0 65.5 -39.5t26.5 -122.5q0 -78 -30.5 -160.5t-70 -142.5t-91.5 -119t-80 -84.5t-51 -44.5q-37 -133 -70 -303q50 -8 80 -61.5t31 -139.5q71 0 103 34t57 110
q10 197 49 377.5t92.5 305.5t117 199t122.5 74q41 0 71.5 -42t30.5 -115q0 -94 -45 -215t-106.5 -219.5t-122.5 -171.5t-95 -85q-8 -46 -11 -65.5t-4.5 -43.5t-1.5 -33t0.5 -47t0.5 -73q0 -62 20 -94.5t47 -32.5q80 0 193 310q1 6 9 10t14 2q19 -8 12 -25q-24 -73 -51 -129
q-49 -110 -90.5 -163.5t-96.5 -53.5q-45 0 -78 19.5t-49.5 53t-24 69.5t-7.5 79q-51 -92 -156 -92q-2 -80 -12.5 -149t-25 -114.5t-32 -78t-33 -47t-28.5 -14.5zM459 1206q-31 -6 -98.5 -172.5t-133.5 -398.5q32 30 62.5 62t70 83t68 101.5t48.5 113.5t20 123q0 36 -9.5 62
t-27.5 26zM805 1116q-27 0 -76 -96t-105.5 -277t-91.5 -381q33 26 85 94t106.5 158t93.5 198t39 194q0 48 -15.5 79t-35.5 31zM133 227q-6 -25 -14 -82q20 -58 94 -75q-3 69 -24.5 110.5t-55.5 46.5zM119 -358q11 8 24 30.5t29 63.5t27.5 113t13.5 161q-65 13 -104 64
q-17 -136 -17 -219q0 -164 27 -213z" />
    <glyph glyph-name=".notdef" horiz-adv-x="512" 
 />
    <glyph glyph-name="uni0000" horiz-adv-x="0" 
 />
    <glyph glyph-name="uni0000" horiz-adv-x="0" 
 />
    <glyph glyph-name="uni000D" unicode="&#xd;" horiz-adv-x="681" 
 />
    <glyph glyph-name="space" unicode=" " horiz-adv-x="532" 
 />
    <glyph glyph-name="exclam" unicode="!" horiz-adv-x="405" 
d="M203 205q-8 0 -13.5 5.5t-5.5 12.5l-1 20q-1 20 -3 54.5t-4 81.5t-4.5 106t-4 123.5t-2.5 137.5t-1 145.5t2 150.5t6 148q1 30 26.5 46.5t53.5 16.5q26 0 38.5 -16.5t12.5 -38.5q-23 -176 -43.5 -421t-29.5 -392.5t-9 -161.5q0 -7 -5.5 -12.5t-12.5 -5.5zM102 29
q0 50 27.5 77t54.5 27q25 0 52.5 -27.5t27.5 -68.5q0 -44 -24 -71t-56 -27q-28 0 -55 30.5t-27 59.5z" />
    <glyph glyph-name="quotedbl" unicode="&#x22;" horiz-adv-x="468" 
d="M217 1315q-1 -8 -6.5 -77.5t-9 -118.5t-6.5 -123.5t2 -92.5q1 -11 -7 -17.5t-20 -6.5q-24 0 -27 20q-7 66 -14.5 222t-5.5 198q1 7 16 11.5t25 4.5t31.5 -6.5t21.5 -13.5zM344 1315q0 -5 -6 -77.5t-8.5 -118.5t-6 -123.5t0.5 -92.5q3 -11 -5 -17.5t-20 -6.5q-24 0 -27 20
q-8 71 -15.5 226t-4.5 194q1 7 16 11.5t25 4.5q6 0 18 -3t23 -7.5t10 -9.5z" />
    <glyph glyph-name="numbersign" unicode="#" horiz-adv-x="1335" 
d="M365 -86q-3 -16 -21 -16q-8 2 -12.5 8.5t-3.5 13.5q47 312 78 496q-66 -2 -131.5 -4t-99 -3t-34.5 -1q-7 0 -12.5 5t-5.5 13t5.5 13t12.5 5q4 0 40 1.5t102 3.5t129 4q4 20 11 62t11 63q11 63 51 296q-63 3 -131 5.5t-100.5 4t-34.5 1.5q-7 0 -10 9.5t0.5 18.5t11.5 9
q1 0 36 -1.5t101.5 -3.5t133.5 -4q9 62 18.5 127.5t18.5 125t12 79.5q3 17 26 17q16 0 30 -9t13 -20q-18 -126 -57 -324q78 -2 228.5 -7t203.5 -7q46 261 53 344q3 21 33 21q13 0 21.5 -5.5t7.5 -15.5q-6 -68 -58 -346q117 -6 170 -6q22 -4 19 -21q0 -7 -5.5 -12.5
t-13.5 -5.5q-45 3 -176 6q-26 -165 -69 -389h168q7 0 12.5 -6.5t5.5 -14.5t-5.5 -12.5t-12.5 -3.5h-174q-67 -388 -72 -446q-2 -6 -8 -11.5t-13 -5.5q-19 4 -16 21q18 201 55 440q-184 -3 -444 -10q-15 -77 -39 -194.5t-38.5 -192t-20.5 -115.5zM469 455q265 7 444 10
q4 35 15.5 102.5t15.5 94.5q4 24 16.5 91.5t18.5 102.5q-210 10 -432 16q-56 -313 -78 -417z" />
    <glyph glyph-name="dollar" unicode="$" horiz-adv-x="970" 
d="M444 -252v176q-59 6 -117 30.5t-109.5 65t-83.5 105t-32 141.5q0 8 6 13.5t13 5.5t12.5 -5.5t5.5 -13.5q0 -68 28.5 -125t74 -93.5t98 -58.5t106.5 -28q0 246 11 600q-50 51 -86.5 92t-84.5 103t-74 121.5t-26 109.5q0 60 26.5 109.5t70 80.5t94.5 48.5t104 19.5l4 111
q0 21 17.5 30t32.5 9q11 0 21.5 -9.5t10.5 -31.5q0 -1 -1 -13.5t-4 -42.5t-5 -59q61 -15 111.5 -59.5t74 -88.5t23.5 -73q0 -8 -5.5 -13.5t-12.5 -5.5q-8 0 -13.5 5.5t-5.5 13.5q0 38 -51.5 96t-124.5 70q-18 -253 -29 -457q9 -9 54 -49q41 -37 59.5 -54.5t56 -54.5
t56.5 -60.5t45.5 -60.5t39.5 -67t23 -68t10 -75q0 -135 -106 -225t-268 -91v-168q0 -20 -27 -20q-23 0 -23 14zM463 793q3 78 7.5 209t6.5 180q-51 -13 -81.5 -56.5t-30.5 -119.5q0 -93 98 -213zM494 -41q128 3 182.5 62.5t54.5 166.5q0 32 -13.5 66t-29.5 60t-52 66t-56 60
t-68 66q-12 -255 -18 -547z" />
    <glyph glyph-name="percent" unicode="%" horiz-adv-x="1046" 
d="M152 -127l610 1245q12 25 35 25q20 0 33 -16t4 -37l-639 -1244q-7 -10 -21 -10q-13 0 -21.5 11.5t-0.5 25.5zM295 596q-20 0 -46.5 11.5t-56 36.5t-49.5 75.5t-20 118.5q0 145 44.5 207.5t131.5 62.5q60 0 98.5 -70.5t38.5 -185.5q0 -89 -43 -172.5t-98 -83.5zM311 1057
q-35 0 -61.5 -70t-26.5 -149q0 -89 21.5 -141t58.5 -52q33 0 64.5 65t31.5 142q0 97 -23.5 151t-64.5 54zM803 -8q-77 0 -135 49t-58 143q0 72 10 128.5t28 91.5t38.5 59.5t45.5 36t44 16t39 4.5q31 0 54.5 -13t36.5 -37.5t21.5 -47.5t12 -57t4 -51.5t0.5 -43.5
q0 -51 -7.5 -98t-23.5 -88.5t-44.5 -66.5t-65.5 -25zM815 483q-16 0 -32 -17t-31.5 -50.5t-25 -94t-9.5 -137.5q0 -29 8.5 -63t29.5 -63t48 -29q50 0 76 72t26 169q0 67 -8 112.5t-22.5 66t-28.5 27.5t-31 7z" />
    <glyph glyph-name="ampersand" unicode="&#x26;" horiz-adv-x="1204" 
d="M561 -82q-221 0 -340 99.5t-119 256.5q0 97 26.5 174.5t66.5 123t90.5 75.5t93.5 40.5t82 10.5q-26 0 -52 4.5t-57.5 18.5t-54.5 37t-39 64.5t-16 95.5q0 55 19 99t49 72t69.5 47t78.5 27t79 8q54 0 99 -25t71 -62.5t40.5 -77t14.5 -72.5q0 -8 -6 -13.5t-13 -5.5
t-12.5 5.5t-5.5 13.5q0 67 -43.5 124.5t-128.5 57.5q-76 0 -124 -55t-48 -143q0 -95 58 -146t165 -51q8 0 14.5 -6t6.5 -13t-6.5 -12.5t-14.5 -5.5q-29 0 -68.5 -12t-87 -42.5t-86.5 -75t-65.5 -118t-26.5 -162.5q0 -36 4.5 -71t22.5 -82t48 -82t86 -59.5t130 -24.5
q159 0 251.5 97t92.5 263q0 115 -92 213q-117 -50 -141 -59q-152 -66 -152 -139q0 -10 -6 -11q-11 4 -12 25q2 91 143 176q44 27 124.5 68.5t94.5 48.5q131 75 187.5 147t91.5 211q2 14 10 10q18 -11 5 -87l-7 -37q-16 -107 -103.5 -195.5t-199.5 -140.5q94 -105 94 -230
q0 -181 -104 -289t-277 -108z" />
    <glyph glyph-name="quotesingle" unicode="'" horiz-adv-x="299" 
d="M197 1317q-1 -11 -6.5 -78t-9.5 -119t-6.5 -123t1.5 -92q1 -11 -6.5 -17.5t-19.5 -6.5q-24 0 -27 20q-7 65 -15 221.5t-6 196.5q1 7 16.5 12.5t24.5 5.5q54 -11 54 -20z" />
    <glyph glyph-name="parenleft" unicode="(" horiz-adv-x="464" 
d="M102 535q0 105 13 199.5t34 163t46.5 126.5t51 95t48 63t36.5 37t17 10q16 -3 12 -23q-3 -9 -26.5 -77t-33.5 -100t-30 -104.5t-30 -125.5t-18.5 -125t-8.5 -139q0 -292 98 -570q2 -6 -5 -6q-23 2 -62 48q-105 123 -133 367q-9 76 -9 161z" />
    <glyph glyph-name="parenright" unicode=")" horiz-adv-x="454" 
d="M168 -29q-7 -12 -23 -12q-19 8 -12 25q84 248 78 637q-5 174 -28 321.5t-58 222.5q-7 17 8 25q8 5 25 -8q63 -44 118.5 -194.5t55.5 -364.5q0 -174 -56 -374t-108 -278z" />
    <glyph glyph-name="asterisk" unicode="*" horiz-adv-x="503" 
d="M387 707q-11 0 -14 6q-4 4 -13.5 14.5t-25 28.5t-27.5 32q-2 3 -17.5 21t-23.5 27q0 -70 4 -140q0 -8 -5.5 -14t-12.5 -6q-17 0 -21 18q0 15 -1 64t-1 78q-108 -104 -114 -111q-6 -6 -15 -6q-8 0 -12 4q-14 11 -2 27q40 46 141 133q-77 87 -98 118q-6 6 -5 14t7 13
q6 4 14 3t13 -7q37 -48 73 -88q0 111 2 117q0 6 6 11t13 5q8 0 13 -5.5t5 -12.5v-7q0 -7 -0.5 -19t-1 -27.5t-0.5 -35.5v-40q96 89 123 106q14 11 25 -4q5 -6 4 -14.5t-8 -12.5q-21 -15 -133 -116q9 -10 28 -33.5t29 -34.5q57 -68 65 -76q11 -15 -4 -26q-2 -4 -10 -4z" />
    <glyph glyph-name="plus" unicode="+" horiz-adv-x="585" 
d="M487 350q8 -2 12 -8.5t3 -13.5q-4 -15 -19 -15q-31 6 -161 13q0 -160 4 -199q3 -11 -5 -18t-20 -7q-24 0 -27 21q-7 77 -4 205q-125 4 -168 2q-8 0 -13 5t-5 13t5.5 14.5t12.5 6.5q42 0 168 -4q0 130 4 176q0 7 6.5 12.5t14.5 5.5q11 -2 21.5 -7.5t9.5 -12.5
q-4 -58 -4 -177q141 -7 165 -12z" />
    <glyph glyph-name="comma" unicode="," horiz-adv-x="253" 
d="M41 78q0 44 31 68t69 24q25 0 48.5 -30t23.5 -87q0 -53 -45.5 -114.5t-95.5 -61.5q-9 0 -12 11t8 20q1 1 15 9t24 14.5t23 16.5t20.5 20.5t7.5 19.5q-117 0 -117 90z" />
    <glyph glyph-name="hyphen" unicode="-" horiz-adv-x="614" 
d="M530 322q-3 -15 -22 -15q-49 12 -196 14.5t-208 -4.5q-16 -3 -20 17q0 17 16 20q65 7 215 4.5t201 -14.5q18 -4 14 -22z" />
    <glyph glyph-name="period" unicode="." horiz-adv-x="227" 
d="M41 74q0 27 21.5 51.5t50.5 24.5q32 0 52.5 -22.5t20.5 -53.5q0 -36 -17 -65t-56 -29q-41 0 -56.5 28.5t-15.5 65.5z" />
    <glyph glyph-name="slash" unicode="/" horiz-adv-x="747" 
d="M106 -10q49 178 234 630t283 617q8 14 30 14q23 0 40.5 -14.5t8.5 -32.5q-144 -259 -262.5 -555t-249.5 -682q-8 -28 -40 -28q-24 0 -39 14.5t-5 36.5z" />
    <glyph glyph-name="zero" unicode="0" horiz-adv-x="780" 
d="M430 -78q-34 -3 -74 -3t-83.5 15.5t-80 39t-65 66.5t-37.5 99q-22 131 -26 262.5t15 260.5t61.5 231.5t119.5 173t182 88.5q23 3 48.5 -2t58 -26t60.5 -56t53.5 -98.5t39.5 -147.5q15 -88 16.5 -199t-15.5 -229.5t-49 -219.5t-90 -171.5t-134 -83.5zM473 1096
q-83 -14 -137.5 -119t-74 -251.5t-18.5 -297.5t21 -272q4 -22 9.5 -43.5t19 -49.5t31 -47t46 -30.5t62.5 -5.5q68 12 119 77.5t78.5 159.5t41 204.5t11.5 213t-16 184.5q-25 146 -74.5 217.5t-118.5 59.5z" />
    <glyph glyph-name="one" unicode="1" horiz-adv-x="653" 
d="M78 -2q-1 7 3.5 12.5t12.5 5.5q62 4 174 4q48 867 45 1065q-63 -71 -219 -278q-11 -14 -24 -4q-15 11 -4 26q119 183 201 255.5t132 72.5q18 0 29.5 -7.5t13.5 -14.5q19 -96 -36 -1115q116 0 167 -4q8 0 13.5 -5.5t5.5 -12.5q-4 -18 -21 -18q-130 5 -272 4.5t-203 -4.5
q-6 0 -12 5.5t-6 12.5z" />
    <glyph glyph-name="two" unicode="2" horiz-adv-x="757" 
d="M367 -20q-294 0 -318 24q-8 8 -8 16q0 18 33 73.5t127 199.5q107 166 174.5 274t139 248t71.5 195q0 151 -174 151q-92 0 -152.5 -61.5t-60.5 -128.5q0 -7 -5.5 -13t-13.5 -6q-7 0 -12.5 5.5t-5.5 13.5q0 36 17 74.5t47 73t79 57t107 22.5q55 0 105 -11t96.5 -35
t74 -69.5t27.5 -107.5q0 -89 -108.5 -301t-250.5 -432q-79 -123 -116 -209q70 -19 311 -15h104q8 0 14.5 -5.5t6.5 -12.5t-6.5 -12.5t-14.5 -5.5h-104q-70 -2 -184 -2z" />
    <glyph glyph-name="three" unicode="3" horiz-adv-x="761" 
d="M293 -41q-52 0 -97 13.5t-71 29.5t-47 38t-26.5 31t-8.5 15q-6 16 8 27q18 7 25 -11q3 -5 8 -13t23 -26t40.5 -31.5t61.5 -24.5t84 -11q126 0 198 97t72 267q0 71 -28 126t-71.5 85.5t-89.5 46t-89 15.5q-7 0 -13 6t-6 14q0 7 6 13t13 6q80 0 141.5 48t90 113t28.5 130
q0 73 -38.5 127.5t-105.5 54.5q-70 0 -110.5 -43.5t-40.5 -75.5q0 -7 -6.5 -12.5t-14.5 -5.5q-7 0 -12.5 5t-5.5 13q0 46 51 101t139 55q44 0 87 -10.5t84.5 -34t67.5 -69t26 -107.5q0 -77 -21.5 -136.5t-58 -95t-79 -54t-91.5 -22.5q55 -8 102.5 -27.5t90 -53.5t67 -90
t24.5 -128q0 -100 -29 -175t-71 -115.5t-101 -65.5t-106.5 -32t-99.5 -7z" />
    <glyph glyph-name="four" unicode="4" horiz-adv-x="811" 
d="M55 348q-14 0 -24.5 8.5t-10.5 22.5q0 25 29.5 52t77.5 38q97 171 254 602l6 21q7 17 25 10q7 -1 10 -8.5t0 -14.5l-6 -20q-153 -420 -242 -582q3 0 10.5 1t10.5 1q25 0 137 -22q140 -31 203 -31q7 122 16.5 286.5t15.5 262t6 110.5q1 23 29 39.5t57 16.5q39 0 39 -27
q0 -80 -12 -258q-3 -70 -12.5 -214t-11.5 -185q33 17 55 41q13 10 26 0q6 -6 6 -14t-6 -13q-38 -38 -84 -57q-16 -253 -16 -406q0 -28 -53 -28q-29 0 -51.5 9t-22.5 25q0 116 16 375q-62 0 -208 31q-98 20 -129 20q-17 0 -45 -4q-54 -88 -95 -88zM90 414q-17 -11 -31 -29
q18 12 31 29z" />
    <glyph glyph-name="five" unicode="5" horiz-adv-x="804" 
d="M313 -41q-55 0 -103 18.5t-77.5 44t-51 53t-30 45t-8.5 19.5q-7 18 10 25q6 3 14 0t11 -10q2 -6 8.5 -19t26 -38.5t44.5 -47t66.5 -37.5t89.5 -16q131 0 217 105t86 294q0 40 -0.5 64.5t-4.5 65.5t-10.5 67t-20.5 57.5t-34 50t-50.5 31t-69.5 12.5q-92 0 -186 -67
q-18 -10 -47 -10q-42 0 -62 10q-10 3 -10 16v27q-7 352 26 389q11 8 21 8q42 0 236 6t276 11q8 0 14 -5t6 -12q0 -20 -18 -20q-130 -8 -420 -19q-21 -41 -16 -352q94 55 182 55q66 0 123 -21.5t103.5 -65t73 -120t26.5 -178.5q0 -436 -441 -436z" />
    <glyph glyph-name="six" unicode="6" horiz-adv-x="915" 
d="M541 -102q-65 0 -128 15.5t-128 54.5t-113.5 97.5t-79.5 153t-31 213.5q0 149 24.5 270t62 198.5t89.5 135.5t99 87t100 46.5t83 21t56 3.5q9 0 15 -5t6 -13t-6 -13.5t-15 -5.5q-55 0 -106.5 -31t-97.5 -95t-78.5 -176.5t-44.5 -260.5q42 61 108 106t152 45
q157 0 260.5 -107t103.5 -271q0 -225 -94 -347t-237 -122zM242 516q0 -16 -1 -50t-1 -52q0 -215 83 -347.5t218 -132.5q117 0 183.5 115t66.5 318q0 86 -31.5 162.5t-97.5 128t-154 51.5q-46 0 -89 -19t-70 -41t-54 -55.5t-35 -46.5t-18 -31z" />
    <glyph glyph-name="seven" unicode="7" horiz-adv-x="790" 
d="M43 -57q77 149 301.5 620t249.5 555q-48 7 -230.5 10t-254.5 0q-7 -1 -13 4t-6 13t6 14t13 6q39 4 324 0.5t306 -18.5q7 -5 8 -11.5t-8 -38t-34.5 -91.5t-77 -173.5t-131.5 -281.5q-236 -502 -303 -627q-17 -26 -70 -26q-37 0 -63.5 13.5t-16.5 31.5z" />
    <glyph glyph-name="eight" unicode="8" horiz-adv-x="747" 
d="M350 -113q-138 0 -223.5 88.5t-85.5 233.5q0 71 29.5 142.5t75.5 127.5t81 90t68 60q-115 198 -115 325q0 117 85 187.5t204 70.5q238 0 238 -243q0 -40 -7 -77t-14 -63.5t-27 -59.5t-30.5 -49.5t-39.5 -48.5t-39 -42.5t-44 -44.5q63 -87 99.5 -142t69 -129t32.5 -131
q0 -33 -5.5 -65t-27.5 -76t-58.5 -76t-105 -55t-160.5 -23zM483 1159q-70 0 -122 -62t-52 -145q0 -43 28.5 -105.5t60 -110.5t87.5 -126q89 89 139 168.5t50 173.5q0 104 -40 155.5t-151 51.5zM311 600q-33 -27 -64 -59t-74.5 -85t-70 -118t-26.5 -129q0 -129 75.5 -209
t198.5 -80q50 0 87.5 18.5t58 46t33.5 66t16.5 70t3.5 65.5q0 33 -9 64t-30.5 67t-40 61.5t-54.5 73t-57 76.5q-34 49 -47 72z" />
    <glyph glyph-name="nine" unicode="9" horiz-adv-x="970" 
d="M328 -123q-53 0 -101.5 19t-78.5 43t-56 54.5t-34 44.5t-13 23q-7 17 8 25q8 4 15 2t10 -10l4 -6q3 -6 9.5 -15.5t15.5 -22t21.5 -26t27.5 -27t34 -25.5t39.5 -21.5t46 -15t52.5 -5.5q73 0 135 34.5t105 91t77 133t54.5 155.5t33.5 164t18 153.5t5 128.5q-18 -40 -39 -78
t-57 -86t-74.5 -83t-92 -59t-110.5 -24q-127 0 -209 88.5t-82 223.5q0 206 105 326t288 120q53 0 103.5 -9.5t111 -41t104 -81t73.5 -139t30 -206.5q0 -202 -30.5 -353.5t-81 -244.5t-126.5 -150.5t-157.5 -78.5t-183.5 -21zM485 1163q-108 0 -181.5 -55.5t-106.5 -145
t-33 -206.5q0 -73 22.5 -133.5t73.5 -101t123 -40.5q66 0 127.5 38.5t102.5 92t72 109.5t45.5 92.5t14.5 40.5l3 4q-21 150 -94.5 227.5t-168.5 77.5z" />
    <glyph glyph-name="colon" unicode=":" horiz-adv-x="382" 
d="M127 522q0 41 17.5 74t48.5 33q38 0 62 -29t24 -86q0 -37 -15 -66.5t-47 -29.5q-38 0 -64 29t-26 75zM102 74q0 27 21.5 51.5t50.5 24.5q32 0 53 -22.5t21 -53.5q0 -36 -17.5 -65t-56.5 -29q-41 0 -56.5 28.5t-15.5 65.5z" />
    <glyph glyph-name="semicolon" unicode=";" horiz-adv-x="428" 
d="M176 563q0 35 21 64.5t53 29.5t54 -30.5t22 -63.5q0 -30 -26 -61t-52 -31q-25 0 -48.5 29t-23.5 63zM102 78q0 44 31.5 68t69.5 24q25 0 48 -30t23 -87q0 -53 -45.5 -114.5t-95.5 -61.5q-9 0 -12 11t8 20q1 1 15 9t24 14.5t23 16.5t20.5 20.5t7.5 19.5q-117 0 -117 90z
" />
    <glyph glyph-name="less" unicode="&#x3c;" horiz-adv-x="655" 
d="M520 61q-45 7 -129.5 50t-146.5 86q-98 69 -120 95.5t-22 76.5q0 36 127.5 135t239.5 166q6 3 14 1.5t11 -7.5q10 -17 -7 -27q-93 -56 -203.5 -144.5t-140.5 -123.5q33 -32 171.5 -119.5t228.5 -130.5q17 -10 1.5 -35t-24.5 -23z" />
    <glyph glyph-name="equal" unicode="=" horiz-adv-x="735" 
d="M590 459q-3 -15 -23 -15q-48 12 -195.5 14t-207.5 -5q-17 0 -21 18q0 18 17 21q65 7 214 4.5t201 -15.5q8 -2 12 -8.5t3 -13.5zM590 240q-3 -15 -23 -15q-49 13 -195.5 15.5t-207.5 -4.5q-17 -3 -21 16q0 17 17 20q65 7 214.5 5t200.5 -15q8 -2 12 -8.5t3 -13.5z" />
    <glyph glyph-name="greater" unicode="&#x3e;" horiz-adv-x="665" 
d="M139 61q-9 0 -16 11q-6 15 8 26q32 14 182 148.5t203 191.5q-11 8 -207 131q-160 94 -196 123q-11 12 -5.5 28.5t21 29.5t25.5 6q39 -30 192 -121q63 -39 105.5 -68t64.5 -46.5t32.5 -33t11.5 -21.5t1 -19v-3.5v-3.5q0 -18 -185.5 -187.5t-228.5 -189.5q-2 -2 -8 -2z" />
    <glyph glyph-name="question" unicode="?" horiz-adv-x="862" 
d="M283 219q-7 0 -13 5.5t-6 13.5q0 42 12 85t26 74t44.5 76t47 66t55.5 69q45 55 68 85t53.5 78t43.5 93.5t13 93.5q0 127 -60 196t-170 69q-106 0 -182 -82t-76 -197q0 -8 -5.5 -13t-12.5 -5q-8 0 -13.5 5.5t-5.5 12.5q0 131 95 236.5t217 105.5q53 0 100.5 -9.5
t93.5 -32.5t79 -59.5t53 -94.5t20 -132q0 -39 -10 -77t-21.5 -67t-38 -64.5t-42 -54.5t-52.5 -53.5t-50 -45.5t-52 -45q-96 -85 -143.5 -153.5t-47.5 -159.5q0 -8 -5.5 -13.5t-14.5 -5.5zM203 23q0 38 28.5 70t63.5 32q37 0 63.5 -27t26.5 -75q0 -32 -21.5 -68.5
t-64.5 -36.5q-46 0 -71 33t-25 72z" />
    <glyph glyph-name="at" unicode="@" horiz-adv-x="1513" 
d="M616 -31q-71 0 -127.5 51t-56.5 115q0 121 34 228t90 180.5t128 116t147 42.5q46 0 89.5 -19.5t72.5 -53.5q3 7 5 13.5t4 12.5t2 7q7 20 51 20q21 0 42.5 -5t34.5 -12t11 -14q-1 -2 -6.5 -17t-8.5 -28q-154 -473 -96 -549q6 -12 23 -12q36 0 83 39t90 104t73 163.5
t30 203.5q0 77 -26.5 148t-75.5 128.5t-128 92t-175 34.5q-119 0 -233 -71t-196 -182.5t-132 -253.5t-50 -279q0 -235 125.5 -369.5t329.5 -134.5q72 0 143.5 24t118.5 52.5t93 69t60.5 56.5t27.5 33l1 1q5 6 13 7t14 -3q6 -5 7 -13t-3 -14q-14 -17 -26 -31.5t-62 -59.5
t-99.5 -75.5t-128.5 -57t-159 -26.5q-91 0 -176 16t-168.5 55.5t-145 99.5t-99.5 155t-38 215q0 193 64.5 355t173 268t249.5 164.5t296 58.5q105 0 191 -41t139.5 -108.5t82.5 -148.5t29 -165q0 -111 -33.5 -219t-83 -183t-106 -121t-103.5 -46q-36 0 -67.5 17.5
t-46.5 35.5q-35 49 -25 188q-163 -258 -287 -258zM915 322q21 127 66 266q-47 61 -133 61q-35 0 -84 -38.5t-96 -105t-80 -173.5t-33 -226q0 -34 18.5 -60t49.5 -26q46 0 102 48.5t100.5 111t89.5 142.5z" />
    <glyph glyph-name="A" unicode="A" horiz-adv-x="1116" 
d="M18 184q-7 0 -12.5 5.5t-5.5 13.5q0 55 19.5 97.5t52 69.5t81.5 45t100 26.5t116 13.5l12 36t12 37q35 103 54 156.5t53 138t62.5 129.5t67 94t82 70t93.5 21q25 0 48.5 -5.5t47.5 -19t38.5 -41.5t14.5 -67q0 -24 -10.5 -92.5t-34 -205.5t-35.5 -208q71 18 115 59
q13 13 27 0q6 -5 6 -13t-6 -14q-50 -50 -148 -73q-51 -295 -51 -428q0 -51 24 -91t60 -40q37 0 76.5 38t72 96.5t54.5 108.5t37 95q3 16 22 12q17 -7 13 -25q0 -1 -5.5 -15.5t-11.5 -30t-16 -39t-21 -44.5q-1 -3 -11.5 -25.5t-16 -34t-18.5 -36t-24 -39.5t-27.5 -36.5
t-33.5 -34.5t-37.5 -26.5t-44 -19.5t-49.5 -6q-174 0 -174 238q0 79 51 362q-63 -6 -196 -10q-110 -4 -144 -6q-73 -207 -138 -342.5t-153 -222.5q-4 -7 -12 -7q-7 0 -14 7q-11 11 0 26q83 83 146.5 214.5t129.5 322.5q-58 -5 -102.5 -13.5t-87 -24.5t-69.5 -38.5
t-43.5 -57.5t-16.5 -81q0 -7 -5.5 -13t-13.5 -6zM410 459q86 4 131 4q137 4 204 12q68 363 79 458q19 167 -19 167q-29 0 -56.5 -11t-50.5 -27.5t-47 -47.5t-42 -58t-40 -74t-36.5 -81t-35.5 -92t-33.5 -93.5t-33.5 -99.5q-3 -11 -10.5 -31t-9.5 -26z" />
    <glyph glyph-name="B" unicode="B" horiz-adv-x="1028" 
d="M397 616q-7 0 -12.5 5.5t-5.5 13.5q0 7 5.5 12.5t12.5 5.5q75 0 135 63.5t89.5 149.5t29.5 170q0 77 -27 111.5t-55 34.5q-59 0 -109.5 -43.5t-88.5 -136t-64 -171t-50 -216t-33.5 -199t-25.5 -187.5q-2 -15 -3 -22q-30 -248 -72 -248q-48 0 -85.5 32t-37.5 107
q0 78 9.5 184.5t23 202.5t32.5 208.5t32 183t28 147t16 80.5q6 26 64 26q28 0 48 -9t17 -23q-80 -448 -119 -721.5t-16 -333.5q9 47 23 170q50 394 104 594q115 428 313 428q28 0 60.5 -10.5t68 -33.5t59 -70t23.5 -109q0 -80 -25 -146t-60 -104.5t-78 -66.5t-72.5 -38.5
t-50.5 -13.5q52 -3 105.5 -16t112 -41t103 -68t74 -103.5t29.5 -140.5q0 -9 -1 -27t-1 -26q27 6 62 12.5t57.5 9.5t25.5 3q16 3 20 -17q0 -20 -16 -20q-2 0 -27.5 -3.5t-64.5 -11t-64 -14.5q-35 -185 -186.5 -303.5t-349.5 -118.5q-38 0 -69 26t-31 58q0 101 146.5 211.5
t336.5 151.5q6 35 6 69q0 158 -105.5 250t-265.5 92zM754 162q-89 -22 -174 -64.5t-142.5 -88t-91.5 -90t-31 -73.5q0 -1 0.5 -2.5t1 -2.5t1.5 -2.5t2 -2.5t3 -2.5t4.5 -2t6 -1t8.5 -0.5q146 0 260 95t152 237z" />
    <glyph glyph-name="C" unicode="C" horiz-adv-x="694" 
d="M668 111q31 67 51 125q2 8 8.5 11.5t13.5 0.5q7 -1 11 -8.5t2 -14.5q-19 -56 -44 -108.5t-62 -104.5t-79.5 -90t-97.5 -62t-115 -24q-26 0 -41.5 0.5t-47 5t-52.5 12t-51.5 24.5t-51.5 40t-43.5 59.5t-36.5 82.5t-23 111t-9 142q0 181 23 330t62.5 250.5t93.5 171
t114 101.5t125 32q80 0 123 -72t43 -168q0 -7 -5.5 -12.5t-13.5 -5.5q-7 0 -12.5 5t-5.5 13q0 80 -33.5 140.5t-95.5 60.5q-31 0 -65 -35t-67 -107t-59.5 -170.5t-42.5 -238t-16 -297.5q0 -114 18.5 -203t47.5 -138t60 -73t62 -24q95 0 178 69.5t134 168.5z" />
    <glyph glyph-name="D" unicode="D" horiz-adv-x="1089" 
d="M106 39q-3 64 0 190.5t9 263.5t12 263.5t11 211.5l5 85q3 20 56 20q22 0 42 -4t33.5 -12t12.5 -19q0 -9 -13 -178q23 47 48 88.5t60 83.5t73 71.5t86.5 48.5t99.5 19q34 0 77.5 -10.5t98 -40t98.5 -74.5t74.5 -123.5t30.5 -177.5q0 -299 -96 -538q190 39 204 39
q7 1 13 -4t8 -13q0 -20 -16 -20q-2 0 -43 -7.5t-98 -18.5t-87 -19q-73 -157 -185 -266.5t-236 -160t-253 -50.5q-86 0 -144 39.5t-58 121.5q0 89 123 160q-43 7 -46 31zM858 791q0 153 -59.5 235t-169.5 82q-56 0 -108.5 -25t-90 -62.5t-71.5 -89.5t-55 -96t-38 -92
q-46 -598 -57 -706q161 74 528 137q121 261 121 617zM715 133q-48 -11 -80 -18t-84 -19t-88 -22t-84.5 -24t-83 -27.5t-73 -29t-64.5 -32t-48 -34.5t-33 -38t-11 -41q0 -46 26.5 -74.5t61 -38t77.5 -9.5q75 0 149.5 36.5t136 98t110.5 129.5t88 143z" />
    <glyph glyph-name="E" unicode="E" horiz-adv-x="817" 
d="M791 109q18 31 51 127q8 16 22 12q8 -3 12 -10.5t1 -14.5q-9 -51 -52 -129q-59 -102 -153.5 -169.5t-216.5 -67.5q-88 0 -169.5 29t-145.5 81t-102 132.5t-38 176.5q0 87 28.5 160t75.5 122.5t109 84t128.5 50.5t133.5 16q-8 0 -26 4.5t-46.5 14t-57.5 28.5t-54.5 44
t-41.5 65.5t-16 88.5q0 111 86.5 178.5t215.5 67.5q49 0 91.5 -18t67 -42.5t42.5 -51.5t25 -43t7 -19q4 -18 -14 -22q-7 -1 -14 3.5t-9 12.5q-17 51 -40 79q-49 58 -132 58q-67 0 -115.5 -52.5t-48.5 -150.5q0 -50 18.5 -93t44 -69t53 -45t45 -26.5t19.5 -7.5q13 -7 13 -21
q-3 -16 -19 -16q-68 0 -134 -24.5t-122 -72t-90.5 -126.5t-34.5 -177q0 -58 20.5 -120t57 -115t93.5 -87t124 -34q103 0 181.5 53.5t126.5 135.5z" />
    <glyph glyph-name="F" unicode="F" horiz-adv-x="620" 
d="M385 -205q-29 0 -56 10t-54 32.5t-43.5 68t-16.5 108.5q0 156 39 410q-62 78 -113 78q-7 0 -12.5 5t-5.5 13t5.5 13.5t12.5 5.5q45 0 131 -4q34 197 109 536q-80 -5 -137.5 -17.5t-107 -39t-74.5 -74t-25 -115.5q0 -108 87 -175v-1h1q7 -4 9 -12t-3 -14q-6 -9 -16 -9
q-3 0 -11 4q-3 2 -12.5 9.5t-26 25.5t-30.5 41t-24.5 58t-10.5 73q0 184 174 247q103 37 331 43q18 0 56 1q233 5 332 24q212 41 276 181q4 8 7 16q1 7 8.5 11t13.5 2q7 -3 10.5 -10.5t1.5 -14.5q-15 -39 -38 -70.5t-47.5 -55t-62 -42t-68.5 -31t-78.5 -21.5t-81.5 -13.5
t-89.5 -8t-88.5 -4.5t-92 -2h-1h-33q-59 -249 -112 -553q99 0 175.5 25.5t147.5 97.5q6 5 14.5 5t12.5 -5q6 -6 6 -13.5t-6 -12.5q-80 -80 -165 -108t-191 -26q-21 -131 -23 -151q94 -253 94 -402q0 -42 -11.5 -72t-29 -43.5t-31.5 -18.5t-26 -5zM236 500q4 -4 13 -13.5
t13 -13.5q1 4 2 12t2 11q-5 1 -15 2t-15 2zM379 252q-42 -325 6 -387q5 -8 12 -8q19 0 27 14q49 69 -45 381z" />
    <glyph glyph-name="G" unicode="G" horiz-adv-x="847" 
d="M324 49q-51 -5 -94.5 1t-87.5 29t-77 63.5t-57.5 109.5t-34.5 162q-7 50 -3 107t13 117t30 120.5t48 116.5t67 105.5t86.5 88t107.5 64t129 32.5q69 7 124 -15.5t84 -53.5t51.5 -79.5t27 -68.5t9.5 -45l1 -4q0 -6 -6 -12.5t-13 -7.5q-7 0 -13.5 5t-6.5 11q-12 62 -25 93
q-62 149 -212 141q-8 0 -17 -1q-75 -8 -135.5 -68t-95 -143.5t-56 -179t-27 -174.5t-0.5 -131q17 -160 70 -248t127 -80q41 5 84.5 38t80 83.5t68.5 103t57 108t38 87t20 49.5q1 11 14 18t29 7q21 0 37 -7.5t16 -19.5q-2 -11 -9.5 -70t-11.5 -86t-13 -85.5t-16.5 -99
t-19 -95t-24.5 -102.5q60 29 98 60t58 79q31 79 37 117q3 16 14 16q10 1 17.5 -6t5.5 -16q-9 -52 -39 -121q-25 -58 -77.5 -100t-125.5 -78q-161 -549 -526 -588q-78 -8 -133.5 30.5t-63.5 127.5q-5 46 22.5 94.5t72.5 88t108.5 79.5t120.5 68.5t120.5 55t95.5 38.5t56 20
q74 212 113 426q-31 -63 -65 -120t-78.5 -116t-95 -96.5t-99.5 -42.5zM535 -47q-64 -24 -129.5 -52t-145.5 -70.5t-139 -84t-97.5 -92t-33.5 -96.5q7 -59 43 -82t76 -19q248 25 426 496z" />
    <glyph glyph-name="H" unicode="H" horiz-adv-x="978" 
d="M94 -82q18 173 60 485q-14 -2 -29.5 -5t-21.5 -4t-7 -1q-16 0 -20 15q-4 18 14 22q6 0 70 12q59 410 104 576q-61 -55 -153 -119q-42 -30 -62.5 -45t-51 -42t-45 -50t-30.5 -56.5t-22 -74t-6 -90.5q0 -7 -6 -13t-13 -6t-12.5 5.5t-5.5 13.5q0 55 7 99t24 80.5t33 62
t48 54.5t54 45.5t65 47.5q121 84 199 162q14 14 53 14q36 0 64 -12.5t24 -32.5l-3 -10q-3 -10 -8.5 -31.5t-13 -53t-17.5 -80.5t-21 -107t-25 -139.5t-27 -172.5q220 27 344 31q35 276 72 663l2 10q0 10 22 16.5t50 6.5q21 0 39.5 -3.5t30 -9.5t10.5 -14v-8
q-46 -444 -70 -659q33 0 49 -2q8 0 13.5 -6t5.5 -13q-4 -18 -21 -18q-16 2 -51 2q-57 -545 -57 -600q0 -27 4 -27q21 0 91.5 104.5t96.5 168.5q41 93 51 127q6 16 23 12q19 -8 12 -25l-8 -22q-7 -22 -18.5 -51t-24.5 -56q-24 -53 -50 -102.5t-60 -106t-67.5 -91t-58.5 -34.5
q-22 0 -43.5 6t-45.5 21t-39 48t-15 81q0 65 53 545q-126 -6 -346 -33q-33 -236 -65 -524q-3 -27 -62 -27q-34 0 -60.5 11t-25.5 30z" />
    <glyph glyph-name="I" unicode="I" horiz-adv-x="512" 
d="M98 -205q-79 0 -137 70.5t-63 171.5q0 18 16 18q8 0 14 -5.5t6 -12.5q2 -74 38 -128t106 -54q47 0 87.5 54.5t69 139t54.5 201.5t43.5 225.5t35.5 228.5q1 11 2 17.5t2.5 15.5t2.5 17q46 300 71 401q-51 -40 -153 -80q-85 -34 -120 -63t-34 -84q0 -8 -5.5 -13.5
t-12.5 -5.5t-13 5.5t-6 13.5q-1 32 9.5 58.5t23.5 42.5t42 33.5t46.5 25t55.5 22.5q36 15 55.5 23.5t49 24.5t50.5 36t37 45q10 18 47 18q29 0 52.5 -10.5t19.5 -23.5q-40 -150 -94 -475q-30 -194 -56 -331.5t-54.5 -248t-57 -179t-64 -113.5t-75 -63t-91.5 -18z" />
    <glyph glyph-name="J" unicode="J" horiz-adv-x="790" 
d="M592 868q0 256 -103 256q-77 0 -145 -81.5t-68 -174.5q0 -8 -5 -13t-13 -5t-13 5t-5 13q0 109 78.5 201t170.5 92q106 0 171 -78.5t65 -214.5q0 -392 -74 -655q160 33 178 33q7 1 13 -4t8 -13q0 -20 -16 -20q-1 0 -36 -6t-83.5 -15.5t-75.5 -15.5q-139 -438 -473 -438
q-97 0 -147 46.5t-50 110.5q0 45 28.5 86.5t78 72.5t104.5 56t120 44t110.5 30t89.5 19q92 270 92 669zM485 158q-69 -14 -139.5 -34t-153 -53t-134.5 -80t-52 -100q0 -42 33.5 -68t95.5 -26q53 0 102 23.5t85 59.5t69 86t54.5 95.5t39.5 96.5z" />
    <glyph glyph-name="K" unicode="K" horiz-adv-x="759" 
d="M528 -49q161 0 256 285q3 16 23 12q19 -8 12 -25q-1 -1 -6 -15.5t-10.5 -30t-15.5 -39t-21 -44.5q-88 -194 -238 -194q-65 0 -124.5 29t-105.5 79t-80.5 105.5t-61.5 119.5q0 -20 -1 -57t-1 -55l16 -275q2 -9 -10 -16t-31 -10.5t-41 -3.5q-63 0 -72 26q-12 81 -15 193.5
t2 228t13.5 235.5t19.5 225t21 187.5t17 132.5l6 50q3 10 39 10q22 3 48 2.5t47 -6t19 -13.5q-24 -144 -57 -534q0 -5 -3 -38t-3 -50q154 301 240 433q55 87 104 144q11 14 27 2q12 -12 2 -26q-26 -30 -55 -70.5t-52 -74.5t-54 -88.5t-47.5 -83.5t-48.5 -91t-41 -79t-40 -79
l-31 -63q8 -58 41 -133t80.5 -143t110.5 -115t122 -47z" />
    <glyph glyph-name="L" unicode="L" horiz-adv-x="528" 
d="M102 -195q-7 0 -14 7q-12 12 2 26q25 21 51 29q-22 213 -14 577q-51 39 -87.5 119.5t-33.5 141.5q0 16 19 16q7 0 12.5 -5.5t5.5 -13.5q-1 -45 24.5 -105t61.5 -101q15 504 121 659q19 28 61 49.5t105 18.5q61 -1 98.5 -89.5t32.5 -215.5q-4 -99 -33.5 -190.5t-73 -154.5
t-94.5 -102.5t-98 -44.5q7 -406 20 -545q44 0 138 -8q138 -10 161 -10q133 0 185 49q4 4 12 4t12 -4q12 -15 0 -27q-67 -59 -215 -59q-70 0 -158 10q-102 8 -149 8q-105 0 -139 -32q-7 -7 -13 -7zM424 1153q-33 0 -57 -27q-53 -53 -87.5 -230t-33.5 -433q41 5 86 42.5
t83.5 96t65 142.5t29.5 174q3 106 -20 170t-66 65z" />
    <glyph glyph-name="M" unicode="M" horiz-adv-x="1243" 
d="M-39 -217q-2 70 0 145t6.5 155t11 158t14.5 153.5t15.5 142t15 123.5t13 97.5t9.5 64.5l3 24q3 18 60 18q22 0 42.5 -3t33.5 -8.5t12 -12.5l-3 -25q-4 -25 -10 -69t-13.5 -102t-16 -130t-16 -147t-14.5 -159.5t-11 -160.5q27 101 56 199.5t69.5 228t82 236.5t85 202
t87 149t80.5 54q27 0 54 -8t55 -26.5t45.5 -55t17.5 -86.5q0 -125 -40 -342q117 213 208 213q164 0 164 -143q0 -83 -30 -250q-14 -86 -24 -168.5t-18 -182t1.5 -160.5t37.5 -61q29 0 66.5 46t70 114t56 125t37.5 98q2 8 8.5 12t13.5 1q8 -2 12 -9t1 -14q-18 -54 -43 -115
t-62.5 -135t-82.5 -122t-87 -48q-81 0 -123 51q-93 111 -14 582q15 84 21.5 134t6.5 102.5t-14 68.5q-5 8 -18 8q-46 0 -103.5 -81.5t-109.5 -198.5q-16 -78 -35.5 -161t-34 -140.5t-16.5 -67.5q-8 -22 -68 -22q-36 0 -62 9.5t-20 25.5q80 312 127.5 602.5t6.5 345.5
q-6 6 -13 6q-35 0 -85 -87.5t-100.5 -219.5t-103.5 -298t-94.5 -312t-72.5 -271v-90q0 -10 -24 -16.5t-54 -6.5q-70 0 -70 21z" />
    <glyph glyph-name="N" unicode="N" horiz-adv-x="1019" 
d="M2 16q-5 183 5 372.5t21.5 287t14.5 100.5q0 19 49 19q35 0 73 -10t38 -19q-2 -2 -9.5 -61t-17.5 -178.5t-14 -243.5q28 73 67 160t101 202.5t123 206t133.5 154t134.5 63.5q96 0 144 -47t48 -125q0 -42 -11.5 -105.5t-23 -109.5t-36.5 -137q-13 -48 -23.5 -90.5
t-23.5 -99.5t-21.5 -104.5t-16 -98.5t-7.5 -90t5 -71.5t19 -49.5t37 -17q28 0 55.5 15.5t50 44.5t41 58t36 70t27 65.5t21.5 58.5q1 6 9 10t14 2q19 -8 12 -25q-19 -58 -42.5 -111t-59.5 -116t-83.5 -101t-98.5 -38q-94 0 -149.5 54t-55.5 157q0 66 15.5 157t29.5 149
t47 183q23 86 36 137.5t25.5 117.5t10.5 107.5t-17 61.5q-15 18 -43 18q-66 0 -157.5 -111.5t-169 -258.5t-135.5 -281.5t-70 -191.5q0 -97 2 -146q0 -26 -72 -26q-22 0 -42 3.5t-33.5 11t-12.5 17.5z" />
    <glyph glyph-name="O" unicode="O" horiz-adv-x="802" 
d="M299 -205q-44 0 -84.5 9.5t-80.5 33.5t-69 60.5t-47 96.5t-18 136q0 121 33.5 314.5t83.5 287.5q-9 5 -11 10q-24 49 -24 101q0 138 102 230.5t254 92.5q23 0 47 -3t61 -14.5t69.5 -31t67.5 -57t59.5 -86.5t40.5 -125.5t16 -169.5q0 -20 -4 -78q137 55 256 182
q5 6 12.5 6t13.5 -6q13 -13 0 -26q-128 -139 -289 -199q-13 -91 -39 -189t-69.5 -202.5t-97.5 -186t-128 -134t-155 -52.5zM137 768q19 40 39 53t64 13q65 0 93 -21q12 -10 5 -20q-42 -59 -74 -154q131 -82 301 -82q98 0 189 29q6 52 6 94q0 84 -13 152.5t-33.5 114.5
t-50 80.5t-58 53.5t-62 30.5t-57.5 15t-48 3.5q-136 0 -226.5 -81.5t-90.5 -204.5q0 -43 16 -76zM565 518q-172 0 -313 84q-59 -182 -72 -382.5t31 -285.5q37 -69 111 -69q75 0 147.5 68t126 173.5t92 219t57.5 219.5q-91 -27 -180 -27z" />
    <glyph glyph-name="P" unicode="P" horiz-adv-x="540" 
d="M4 -180v7q-15 754 24 1165l11 98q3 26 65 26q30 0 54 -9.5t24 -23.5q-16 -124 -22 -264q31 73 72 144.5t90 137.5t104.5 107t105.5 41q28 0 57.5 -5.5t64 -22t61.5 -41t45 -66.5t18 -96q0 -119 -20 -217.5t-54 -169.5t-83.5 -126t-103.5 -89t-119.5 -56.5t-126.5 -32
t-128 -10.5v-112v-104t0.5 -91t1 -78t1 -59t0.5 -39l1 -14q0 -10 -24 -17.5t-53 -7.5q-28 0 -47 6.5t-19 18.5zM145 354q102 4 186.5 46.5t148.5 123t100 208t36 290.5q0 162 -106 162q-50 0 -109 -53t-107 -130t-85.5 -155.5t-54.5 -138.5q-9 -176 -9 -353z" />
    <glyph glyph-name="Q" unicode="Q" horiz-adv-x="772" 
d="M315 -16q-94 0 -160 35.5t-102 84.5q-26 37 -39 92t-14.5 107.5t6.5 118t17 110.5t23.5 98t19 67.5t10.5 31.5q0 1 6 4q-26 103 37 230q47 99 136 170t204 71q48 0 93.5 -13t89.5 -44t76.5 -77t52.5 -116.5t20 -158.5q0 -244 -94 -469.5t-244 -307.5q-17 -21 -44.5 -48
t-84.5 -66.5t-117 -63.5q72 -5 178 -78q63 -43 92 -62t87 -53.5t96 -50t88 -29t94 -13.5q83 0 153.5 16.5t117.5 42t84.5 58t58.5 63t34.5 58.5t18 43t4.5 18q2 8 8.5 12.5t13.5 3.5t12 -8t3 -15q0 -4 -5 -25t-20 -60.5t-37.5 -83t-63 -89.5t-91 -82.5t-126.5 -60
t-165 -23.5q-58 0 -119.5 17.5t-131 55.5t-111.5 64.5t-118 78.5q-81 56 -125.5 84t-105.5 54.5t-106 26.5q-7 0 -13 5.5t-6 13.5q0 7 5.5 12.5t13.5 5.5q181 0 346 148q-36 -4 -56 -4zM119 737q93 9 112 4q17 -9 11 -24q-3 -5 -15.5 -46.5t-28.5 -115t-25 -150t0 -154
t42 -124.5q27 -36 52.5 -51t72.5 -15q124 0 220.5 109.5t145 275t48.5 349.5q0 98 -25.5 173t-69 116.5t-94 62t-106.5 20.5q-104 0 -183.5 -64t-123.5 -155q-56 -118 -33 -211z" />
    <glyph glyph-name="R" unicode="R" horiz-adv-x="729" 
d="M4 -57v7q-15 667 26 1062q4 41 9 78q3 26 65 26q30 0 54 -9.5t24 -23.5q-14 -112 -24 -266q32 74 73.5 145.5t91 138t105 107.5t104.5 41q34 0 71.5 -10.5t75.5 -32t62.5 -62.5t24.5 -95q0 -135 -33.5 -248t-89.5 -189.5t-132 -132t-157.5 -83.5t-169.5 -36
q5 -34 22 -87.5t47.5 -118.5t67.5 -121t86.5 -93.5t98.5 -37.5q129 0 248 334q2 6 8.5 9.5t13.5 2.5q19 -8 12 -25q-18 -56 -42 -111.5t-60.5 -121t-83.5 -106t-96 -40.5q-70 0 -134.5 49.5t-109.5 125t-74.5 150t-44.5 140.5v-85t0.5 -77.5t0.5 -66.5v-56t0.5 -42t0.5 -28
v-9q0 -12 -24 -19.5t-53 -7.5q-26 0 -45 7t-19 18zM143 395q203 11 341.5 199t138.5 461q0 49 -30.5 89t-82.5 40q-50 0 -109.5 -54t-108 -132.5t-86 -158t-54.5 -139.5q-6 -148 -9 -305z" />
    <glyph glyph-name="S" unicode="S" horiz-adv-x="700" 
d="M-27 922q0 53 14.5 98.5t44 82.5t81 58t120.5 21q53 0 99.5 -12t77 -27.5t57.5 -41t40 -42t25.5 -41.5t14 -29t4.5 -14q4 -16 -10 -19q-6 -3 -11.5 0t-7.5 9l-1 1q-32 82 -110 122q-55 28 -124 28q-172 0 -172 -198q0 -66 70 -181t167 -231q5 -6 26.5 -32t27 -32.5
t24 -29.5t24.5 -30.5t21.5 -27.5t22 -30t18 -27t18.5 -29t15 -26.5t14 -28.5q27 8 70.5 16t73 12.5t32.5 4.5q7 1 13 -4t8 -13q0 -8 -5 -14t-12 -6q-2 0 -29.5 -4t-68.5 -12t-67 -15q22 -61 22 -125q0 -136 -80.5 -221.5t-245.5 -85.5q-87 0 -147.5 45.5t-60.5 118.5
q0 53 41 101.5t103 82t118 55t102 31.5q-33 58 -96 136t-121.5 147t-115 145t-90.5 157.5t-34 156.5zM449 145q-44 -9 -95.5 -27t-110.5 -46.5t-98 -71.5t-39 -90q0 -60 48 -96.5t120 -36.5q85 0 146 67t61 176q0 56 -32 125z" />
    <glyph glyph-name="T" unicode="T" horiz-adv-x="444" 
d="M139 -160q0 30 5.5 175t26 459.5t50.5 598.5q-70 -5 -119.5 -11.5t-103 -20t-86 -32t-53.5 -48.5t-21 -70q0 -11 -18.5 -16t-18.5 16q0 28 6.5 52t21.5 43t30.5 34t44 27t50 21t60.5 16t64 11.5t71.5 8.5t72.5 6t77 6q195 13 328 41.5t194 91.5q9 6 15 6q11 0 15 -11.5
t-3 -20.5q-38 -43 -117 -73t-159.5 -43t-190.5 -22q-31 -285 -51.5 -593.5t-26.5 -475t-4 -172.5q0 -12 -28 -20t-62 -8q-67 0 -70 24z" />
    <glyph glyph-name="U" unicode="U" horiz-adv-x="806" 
d="M530 135q0 115 17 268q-61 -162 -161 -295t-177 -133q-78 0 -143.5 77t-65.5 212q0 178 43.5 438t85.5 433q6 26 57 26q34 0 60.5 -11.5t23.5 -29.5q-38 -162 -67 -319.5t-47 -306t-13.5 -257t35.5 -147.5q11 -16 55 -16q48 0 112 76t119.5 180.5t100.5 220.5q1 7 3 20.5
t3 20.5l4 41q53 362 76 469q3 20 39 20q33 0 66 -14.5t30 -32.5q-1 -8 -15.5 -91t-25.5 -148.5t-26 -167t-25 -185.5q-26 -218 -31 -331.5t1.5 -135.5t23.5 -22q35 0 77 85.5t64 156.5q1 7 8.5 10.5t14.5 1.5q19 -8 12 -25l-8 -22q-7 -22 -18.5 -51t-24.5 -56
q-85 -196 -164 -196q-32 0 -54.5 12.5t-35 31t-19.5 52.5t-8.5 64t-1.5 77z" />
    <glyph glyph-name="V" unicode="V" horiz-adv-x="598" 
d="M268 -123q-47 0 -87 12.5t-56.5 24t-24.5 20.5q-46 50 -73 248.5t-27.5 439t18.5 482.5q1 20 30 31.5t67 11.5t65.5 -12t26.5 -33q-33 -394 -8.5 -737t80.5 -404q6 -6 10 -6q48 0 119.5 188.5t124.5 442t53 424.5q0 8 5.5 14t12.5 6q9 0 15 -6t6 -14q0 -113 -32 -302.5
t-81 -375t-116 -320.5t-128 -135z" />
    <glyph glyph-name="W" unicode="W" horiz-adv-x="1146" 
d="M188 43q-74 -2 -131 67t-57 216q0 150 23 356.5t36 271.5q1 18 27 27.5t61 9.5q40 0 69.5 -12t25.5 -31q-11 -59 -25 -170t-25.5 -243t-7 -241.5t28.5 -139.5l10 -7q52 0 132.5 169.5t142.5 367.5q3 41 12 76q1 5 58.5 11.5t72.5 6.5q7 0 12.5 -5t5.5 -13q0 -161 24 -367
t68.5 -368t94.5 -162q40 0 80 61q67 104 110 328.5t42 450.5t-48 333q-7 18 8 25q18 7 25 -10q50 -113 51.5 -344.5t-42.5 -462t-114 -340.5q-75 -109 -143 -109q-72 0 -130 48.5t-95 125.5t-61 177.5t-33.5 199.5t-8.5 197q-32 -86 -64.5 -162.5t-74 -158.5t-83.5 -130.5
t-77 -48.5z" />
    <glyph glyph-name="X" unicode="X" horiz-adv-x="903" 
d="M-256 -266q-8 0 -13 5t-5 13t5.5 13.5t12.5 5.5q66 0 133 42.5t132 123.5t119 167t118 205q-42 86 -80 185.5t-66.5 194.5t-46.5 162t-34.5 137.5t-16.5 72.5q-7 27 30 45t81 18q49 0 55 -22q83 -311 186 -584q45 88 71 137.5t67.5 125t70.5 119t68.5 96t72 80t70.5 46.5
t74 19q7 0 12.5 -5.5t5.5 -13.5t-5 -13t-13 -5q-43 0 -90.5 -34t-88.5 -84.5t-92.5 -135.5t-90.5 -158t-95 -182q-2 -5 -4 -8.5t-4 -7.5l-12 -23q196 -498 342 -498q39 0 75 27t62.5 71t44 84.5t29.5 80.5q8 15 24 12q17 -7 13 -25q-16 -50 -39.5 -100.5t-58 -103t-81 -85
t-96.5 -32.5q-231 0 -420 366q-51 -95 -95 -167.5t-98 -144.5t-104 -118t-108 -75t-117 -29z" />
    <glyph glyph-name="Y" unicode="Y" horiz-adv-x="874" 
d="M258 14q-86 -13 -149 26.5t-76 135.5q-31 221 78 735q4 19 28 28t54 9q31 0 49.5 -8t11.5 -22q-74 -335 -85.5 -542.5t42.5 -266.5q25 -25 59 -19q43 6 116 123.5t138 260t119 284.5q7 110 12 174q10 156 17 207q3 23 29 34t61 11q32 0 54.5 -9t21.5 -22
q-2 -20 -7.5 -89.5t-9.5 -117.5q-28 -363 -56 -609.5t-73 -445.5q22 -5 45.5 -11.5t43.5 -14t40 -15.5t35.5 -15t30.5 -14t23.5 -11.5t15.5 -8.5l8 -4q12 -9 6 -22q-7 -11 -14 -11q-5 -3 -11 3q-3 3 -32.5 18t-87 37t-111.5 33q-36 -156 -85 -275.5t-117 -213.5
t-160.5 -149.5t-208.5 -72.5q-135 -20 -248.5 55t-132.5 203q-18 122 65 227q177 219 723 275q74 307 111 725q-40 -97 -80.5 -185.5t-94 -191.5t-106 -167.5t-92.5 -70.5zM416 -145q-441 -62 -588 -248q-72 -92 -59 -199q9 -68 59 -113t108 -60t111 -7q309 46 463 639
q-19 -3 -53 -7t-41 -5z" />
    <glyph glyph-name="Z" unicode="Z" horiz-adv-x="688" 
d="M18 -74q-59 4 -59 80q0 56 57 120t140 64q123 200 218.5 426t88.5 361q-4 59 -27.5 78.5t-56.5 19.5q-136 0 -256 -183l-2 -3q-3 -6 -11 -8t-14 2q-6 3 -8 10.5t2 13.5q4 7 17.5 28t45.5 58.5t68.5 69.5t88.5 56t104 24q21 0 49.5 -7.5t63.5 -25.5t59 -56.5t24 -90.5
q0 -180 -84 -394.5t-207 -386.5q70 -13 133.5 -57t100.5 -113q103 93 162 269q3 14 18 14q9 0 14.5 -8t2.5 -17q-59 -186 -181 -295q21 -61 21 -116q0 -133 -34 -243t-84 -177.5t-112 -113.5t-114.5 -64.5t-93.5 -18.5q-56 0 -97 41t-41 109q0 134 123 288t314 265
q-8 81 -46 137.5t-110 64.5q-78 -102 -150.5 -161.5t-126.5 -59.5zM131 152q-57 -10 -96 -59.5t-39 -86.5l2 -10q32 0 133 156zM455 -98q-171 -108 -288.5 -252.5t-117.5 -261.5q0 -38 25 -64t69 -26q67 0 140.5 91.5t122.5 232.5t49 274v6z" />
    <glyph glyph-name="bracketleft" unicode="[" horiz-adv-x="464" 
d="M342 -61q-91 3 -161 9t-75 11q-4 5 -4.5 29t4 166.5t17.5 435.5t20.5 434.5t10 165t6.5 27.5q5 5 64.5 7.5t99.5 0.5h18q7 0 12.5 -5.5t5.5 -13.5t-5 -13t-13 -5h-20h-37q-9 -88 -30.5 -600.5t-21.5 -603.5q72 -7 109 -9q8 0 13 -5.5t5 -12.5t-5 -12.5t-13 -5.5z" />
    <glyph glyph-name="backslash" unicode="\" horiz-adv-x="747" 
d="M641 -10q8 -22 -6.5 -36.5t-36.5 -14.5q-33 0 -41 28q-129 378 -249 677.5t-263 559.5q-10 18 7 32.5t40 14.5t31 -14q97 -164 282 -615t236 -632z" />
    <glyph glyph-name="bracketright" unicode="]" horiz-adv-x="481" 
d="M121 -82q-7 0 -13 6t-6 13t5.5 12.5t13.5 5.5q42 0 78 6q10 76 36 607t23 608q-30 6 -96 6q-7 0 -13 6t-6 14t5.5 13.5t13.5 5.5q48 0 99 -4.5t79.5 -9.5t32.5 -7q14 -18 -17 -633q-31 -621 -45 -630q-7 -8 -71.5 -13.5t-118.5 -5.5z" />
    <glyph glyph-name="asciicircum" unicode="^" horiz-adv-x="638" 
d="M121 717q-2 0 -10 4q-6 3 -7.5 10.5t2.5 13.5l181 267q10 16 37 16q17 0 26 -12l182 -248q12 -17 -13.5 -37.5t-39.5 -5.5l-176 244l-166 -244q-5 -8 -16 -8z" />
    <glyph glyph-name="underscore" unicode="_" horiz-adv-x="823" 
d="M719 -141q-3 -15 -23 -15q-49 13 -280 17.5t-293 -2.5q-7 -1 -13 3.5t-6 12.5q-1 7 4 14t13 7q64 7 298.5 2.5t287.5 -17.5q8 -2 11.5 -8.5t0.5 -13.5z" />
    <glyph glyph-name="grave" unicode="`" horiz-adv-x="385" 
d="M258 1118q-8 0 -16 8l-129 199q-7 12 16 26.5t45 14.5q13 0 19 -6l79 -213q5 -6 3.5 -14t-7.5 -11q-8 -4 -10 -4z" />
    <glyph glyph-name="a" unicode="a" horiz-adv-x="546" 
d="M389 -84q-85 0 -123 49.5t-35 149.5q-69 -113 -120 -113q-16 0 -32 4t-35.5 16t-31.5 39.5t-12 67.5q0 134 44.5 216.5t102.5 82.5q87 0 127 -68q8 31 21 68q12 12 41 12t56 -9.5t34 -24.5q-106 -357 -55 -426q12 -15 28 -15q24 0 52 32.5t52 81t40 88t26 69.5
q6 16 25 12q16 -6 12 -27q-12 -38 -32.5 -83.5t-49.5 -98.5t-65 -88t-70 -35zM109 39q25 0 62 52t71 124q9 50 14 72q0 35 -13.5 59.5t-43.5 24.5q-18 0 -41 -41t-38.5 -96.5t-21 -110.5t10.5 -84z" />
    <glyph glyph-name="b" unicode="b" horiz-adv-x="557" 
d="M23 -104q-2 4 -7 32t-10.5 92t-5.5 136q0 264 44 514t125 414.5t177 164.5q25 0 47.5 -28t22.5 -78q0 -55 -32.5 -123.5t-82.5 -131.5t-77 -93.5t-48 -51.5q-59 -283 -59 -587q0 -59 2 -86q32 146 100 255t125 109q125 0 125 -176q0 -6 -1 -17.5t-1 -17.5q94 23 129 23
q16 3 20 -17q0 -20 -16 -20q-2 0 -23.5 -3t-56.5 -9.5t-61 -12.5q-23 -86 -86 -143t-135 -57q-29 0 -53.5 22t-30.5 49q-17 -87 -17 -153q1 -16 -17.5 -25.5t-45.5 -9.5q-45 0 -51 29zM350 1202q-16 0 -42 -46t-57.5 -137t-57.5 -204q70 79 127 168t57 158q0 61 -27 61z
M332 381q-32 0 -79.5 -71.5t-78.5 -174.5q26 26 75 47t99 27q17 52 17 92q0 80 -33 80zM340 166q-59 -10 -105.5 -37t-46.5 -47q0 -49 37 -49q36 0 68 40t47 93z" />
    <glyph glyph-name="c" unicode="c" horiz-adv-x="493" 
d="M377 371q-2 -22 -12.5 -31.5t-36.5 -9.5q-13 0 -23 11.5t-10 25.5t8 31t23 24q-17 24 -58 24q-58 0 -100.5 -72t-42.5 -206q0 -33 7.5 -66.5t24.5 -67.5t50.5 -55.5t79.5 -21.5q53 0 104 50t80.5 108.5t46.5 115.5q3 8 10.5 12t14.5 1q7 -1 10.5 -8.5t1.5 -14.5
q-13 -39 -30 -77.5t-43.5 -82t-55.5 -76t-68 -54t-79 -21.5q-116 0 -196.5 75t-80.5 181q0 85 28.5 150t71.5 99.5t85.5 51t80.5 16.5q51 0 80 -36t29 -76z" />
    <glyph glyph-name="d" unicode="d" horiz-adv-x="655" 
d="M117 -20q-49 0 -83 36t-34 93q0 155 60 243t165 88q41 0 70 -32q10 216 57 418t115.5 327t136.5 125q25 0 50.5 -37t25.5 -106q0 -168 -254 -549q-16 -141 -16 -281q0 -84 5.5 -147.5t13 -98.5t18.5 -57t20 -28.5t18 -6.5q47 0 81 37.5t63 101.5q33 73 51 127q3 13 16 13
q10 0 16 -8t3 -17l-7 -22q-8 -22 -19.5 -51t-24.5 -56q-71 -162 -183 -162q-29 0 -55 11.5t-53.5 39t-47.5 84.5t-28 138q-42 -91 -89.5 -157t-90.5 -66zM616 1217q-17 -11 -48.5 -78.5t-69 -196t-60.5 -270.5q205 335 205 463q0 35 -7.5 57.5t-19.5 24.5zM293 283v22v45
q-15 43 -51 43q-16 0 -38 -18.5t-45 -53t-39 -96t-16 -135.5q0 -28 11 -41.5t24 -13.5q19 0 64 73.5t90 174.5z" />
    <glyph glyph-name="e" unicode="e" 
d="M223 -96q-37 0 -74.5 13.5t-71 39.5t-54.5 73t-21 107q0 79 13 142.5t35.5 103t48 67t54.5 41t51 18.5t42 5q32 0 65 -30t33 -85q0 -68 -16.5 -115t-43.5 -68.5t-51 -29.5t-49 -8q-37 0 -57 23q-4 -58 -4 -97q0 -65 26.5 -114t73.5 -49q36 0 73.5 33t66 83t48.5 94.5
t31 81.5q3 8 10.5 12t14.5 1q7 -1 10.5 -8.5t1.5 -14.5q-3 -12 -13.5 -39.5t-35 -78.5t-53 -93.5t-70 -75t-84.5 -32.5zM135 274q4 -59 49 -59q11 0 26.5 11t31 32t26.5 58.5t11 82.5q0 36 -10 57t-23 21q-12 0 -25.5 -9.5t-29.5 -30t-31 -63t-25 -100.5z" />
    <glyph glyph-name="f" unicode="f" horiz-adv-x="401" 
d="M119 -397q-48 0 -88.5 70t-40.5 182q0 204 31.5 419t82 390.5t110 317t119.5 220t107 78.5q39 0 65.5 -39.5t26.5 -122.5q0 -78 -30.5 -160.5t-70 -142.5t-91.5 -119t-80 -84.5t-51 -44.5q-37 -133 -70 -303q50 -8 80 -61.5t31 -139.5h14q35 0 60 11.5t43 41t25.5 46.5
t21.5 60q1 3 2 5.5t2 5.5q3 13 16 13q10 0 16 -8t3 -17q-10 -31 -14.5 -45t-16 -41.5t-20.5 -41.5t-24.5 -33.5t-32 -29t-39.5 -17t-50 -7.5h-6q-2 -80 -12.5 -149t-25 -114.5t-32 -78t-33 -47t-28.5 -14.5zM459 1206q-31 -6 -98.5 -172.5t-133.5 -398.5q32 30 62.5 62
t70 83t68 101.5t48.5 113.5t20 123q0 36 -9.5 62t-27.5 26zM133 227q-6 -25 -14 -82q20 -58 94 -75q-3 69 -24.5 110.5t-55.5 46.5zM119 -358q11 8 24 30.5t29 63.5t27.5 113t13.5 161q-65 13 -104 64q-17 -136 -17 -219q0 -164 27 -213z" />
    <glyph glyph-name="g" unicode="g" horiz-adv-x="620" 
d="M147 -6q-20 0 -44 9t-48 26.5t-39.5 51.5t-15.5 77q0 66 14 116t35 78.5t49.5 46t54 23.5t52.5 6q48 0 87.5 -26.5t65.5 -65.5q26 138 80 192q9 6 48.5 -1t39.5 -25q-103 -105 -110 -711q65 89 127.5 210.5t101.5 231.5q3 13 17 13q10 0 15.5 -8t2.5 -17
q-32 -99 -118 -260.5t-146 -228.5q-2 -47 -2 -138q0 -186 -73 -301.5t-187 -115.5q-40 0 -66.5 28.5t-26.5 69.5q0 44 32.5 110t82.5 133t82 106t57 67q3 278 19 477q-105 -174 -187 -174zM205 391q-16 0 -32 -15.5t-31.5 -48t-25.5 -92t-10 -137.5q0 -25 11.5 -45t29.5 -20
q40 0 98 73t101 160q0 34 -42.5 79.5t-98.5 45.5zM315 -367q-80 -91 -148.5 -195.5t-68.5 -162.5q0 -25 15 -43t41 -18q47 0 85.5 62.5t57 148.5t18.5 169v39z" />
    <glyph glyph-name="h" unicode="h" horiz-adv-x="569" 
d="M-2 -49q0 200 29 409t75 376t100 301t106 208t91 74q44 0 71.5 -51t27.5 -135q0 -85 -33.5 -175.5t-73.5 -153t-95.5 -126t-77 -83.5t-40.5 -36q-62 -280 -72 -498q57 128 134 240.5t127 112.5q22 0 34 -15q12 -14 15 -42t0 -56.5t-10 -73.5q0 -2 -1 -8q-2 -16 -3 -27.5
t-3 -35t0 -39.5t5.5 -33t12.5 -26t23 -9q84 0 140 184q6 13 18 13q9 0 14.5 -8t3.5 -17q-14 -43 -28 -75.5t-38 -72t-57.5 -61.5t-74.5 -22q-44 0 -74.5 19.5t-43.5 47.5t-17.5 66.5t-2.5 68t7 60.5q1 8 2.5 16.5t3 17.5t2.5 13q-71 -91 -125.5 -191.5t-67.5 -166.5
q-11 -15 -45 -15q-50 0 -59 25zM193 623q40 40 76.5 83.5t84 113t76.5 152t29 161.5q0 122 -31 122q-21 0 -60 -81t-87.5 -230t-87.5 -321z" />
    <glyph glyph-name="i" unicode="i" horiz-adv-x="272" 
d="M43 655q0 30 19 48t42 18q40 0 65.5 -25t25.5 -53q0 -25 -25.5 -51.5t-52.5 -26.5q-31 0 -52.5 24t-21.5 66zM113 -4q32 0 62 26.5t52.5 70t35.5 75.5t24 65q3 13 16 13q10 0 16 -8t3 -17q-86 -262 -201 -262q-38 0 -65.5 11.5t-40.5 26t-20 35.5t-8 31.5t-1 22.5
q0 79 17 197.5t28 142.5q7 6 41 1t43 -9q16 -6 8 -25q-10 -32 -24.5 -122.5t-15.5 -182.5t30 -92z" />
    <glyph glyph-name="j" unicode="j" horiz-adv-x="294" 
d="M150 645q0 -37 -21.5 -63.5t-50.5 -26.5q-31 0 -52.5 26.5t-21.5 63.5t21.5 62.5t52.5 25.5q29 0 50.5 -25.5t21.5 -62.5zM-362 -799q-71 0 -135 65t-64 156q0 59 28 119t70.5 108.5t101 96.5t112 82t111.5 65.5t91 47t59 26.5q3 39 5 79t2.5 75.5t1 70.5t0 64t-1.5 55
t-1.5 46.5t-1.5 35t-2 23.5v8q0 16 19 20q17 0 57.5 -5t40.5 -11q2 -16 4.5 -69t2.5 -161.5t-7 -211.5q139 108 195 295q6 14 18 14q9 0 14 -8t2 -17q-8 -47 -51 -129q-30 -60 -83 -118.5t-99 -85.5q-39 -437 -199 -613q-67 -76 -136 -99.5t-154 -23.5zM8 -76
q-47 -21 -100.5 -48.5t-135 -80t-143.5 -106.5t-107.5 -126t-45.5 -141q0 -77 42.5 -121t98.5 -44q62 0 115 26t90.5 67t68.5 100.5t50 117.5t33.5 127.5t21.5 121.5t12 107z" />
    <glyph glyph-name="k" unicode="k" horiz-adv-x="512" 
d="M0 -125q0 200 29.5 416t76.5 393.5t101 322t107.5 225.5t91.5 81q44 0 70 -51t26 -136t-33 -175.5t-73.5 -153t-95 -125.5t-76.5 -83t-40 -36q-34 -147 -57 -342q65 40 118.5 108t75 111t21.5 49q3 7 11 10t14 0q17 -7 10 -24q-1 -5 -9 -22.5t-26 -49.5t-41.5 -66
t-60 -72t-76.5 -65q12 -49 69.5 -106t110.5 -57q40 0 71 15.5t53 47t36.5 64.5t30.5 82q6 16 24 12q16 -6 12 -25q-19 -57 -35 -94.5t-43 -79.5t-64.5 -63t-84.5 -21q-74 0 -135 46.5t-92 109.5q-13 -140 -13 -256q-11 -15 -45 -15q-50 0 -59 25zM199 616q30 29 59 61.5
t68.5 86.5t68.5 107.5t49.5 121.5t20.5 133q0 123 -31 123q-21 0 -60 -81.5t-87.5 -230.5t-87.5 -321z" />
    <glyph glyph-name="l" unicode="l" horiz-adv-x="346" 
d="M174 -74q80 0 193 310q1 6 8.5 10t13.5 2q19 -8 12 -25q-24 -73 -51 -129q-49 -111 -90 -164t-96 -53q-65 0 -112.5 50.5t-47.5 150.5q0 218 36.5 423t92.5 347.5t124 228.5t132 86q41 0 72 -42.5t31 -114.5q0 -94 -45 -215t-106.5 -219.5t-122.5 -171.5t-95 -85
q-8 -48 -11 -65.5t-5 -44t-2 -33t0.5 -47t0.5 -72.5q0 -62 20.5 -94.5t47.5 -32.5zM403 1116q-27 0 -76 -96t-105 -276.5t-91 -381.5q33 26 85 94t106.5 158t93.5 198t39 194q0 47 -16 78.5t-36 31.5z" />
    <glyph glyph-name="m" unicode="m" horiz-adv-x="808" 
d="M670 -96q15 0 80 137t84 195q3 16 22 12q19 -8 12 -25q-11 -34 -35.5 -91t-56.5 -120.5t-67.5 -109t-59.5 -45.5q-75 0 -102 63.5t-27 212.5q0 8 9.5 82.5t8 127t-23.5 52.5q-21 0 -45 -25.5t-39 -50.5t-37 -67q-17 -31 -24.5 -44t-20 -31t-23.5 -25t-24 -7q-18 0 -35 17
q-13 15 -15.5 46t0.5 55.5t11 78.5q5 34 7 48t4.5 43t0 41.5t-9.5 12.5q-29 -9 -119 -313q-35 -123 -50 -157.5t-34 -34.5q-48 0 -53 8q-15 39 -1 209t26 215q3 8 22 8q12 0 27 -3.5t25.5 -9t9.5 -10.5q0 -60 -21 -262q10 43 25.5 95t40.5 126.5t54 123t54 48.5
q10 0 17.5 -1t20 -3.5t22 -9t20.5 -17t17.5 -28t11 -40t4.5 -55.5t-6 -73q87 148 155 148q19 0 31 -1.5t27.5 -8t25 -19t18.5 -36t12.5 -56.5t3.5 -82.5t-5 -112.5q-6 -72 -4 -123.5t9.5 -79.5t19.5 -28z" />
    <glyph glyph-name="n" unicode="n" horiz-adv-x="634" 
d="M428 -113q28 0 65 42t70 102t58 114.5t38 90.5q2 6 9 9.5t14 2.5q19 -8 12 -25q-24 -73 -51 -129q-33 -65 -67 -118t-79 -96.5t-81 -43.5q-56 0 -89.5 39t-33.5 107q0 146 65 348q33 123 25 136q-1 3 -4 3q-26 0 -50.5 -15t-46.5 -47t-39 -62t-36 -79t-29 -77.5
t-26 -77.5q-37 -106 -46 -118q-7 -9 -16 -9q-21 0 -42.5 11t-31.5 28q-14 21 -15.5 97t5.5 155t17 139q3 14 32 14q22 0 45 -8t23 -17q-3 -68 -19 -194.5t-14 -157.5q7 16 25 72q17 53 29 86.5t32 85t40 84t45 65t55 48.5t63 16q7 0 15.5 -2.5t22 -8.5t23.5 -20t17.5 -33.5
t7.5 -52t-10 -72.5q-1 -4 -7.5 -29.5t-8.5 -33.5t-8.5 -33t-9 -36.5t-7.5 -35.5t-7.5 -38.5t-6 -36.5t-5 -39t-3 -36.5t-1.5 -37.5q0 -76 37 -76z" />
    <glyph glyph-name="o" unicode="o" horiz-adv-x="460" 
d="M344 61q-10 0 -45 5q-71 -121 -172 -121q-29 0 -58.5 13t-54 46.5t-24.5 79.5q0 111 57 225q7 15 43 15q34 0 45 -7q16 49 51.5 74t71.5 25q46 0 76.5 -34.5t30.5 -86.5q0 -91 -48 -193q6 -2 17 -2q64 0 99.5 31t60.5 109q9 21 26 18q19 -7 12 -27q-22 -82 -71 -126
t-117 -44zM281 113q45 89 45 182q0 33 -18 57.5t-50 24.5q-36 0 -62 -34t-26 -93q0 -37 32.5 -78t78.5 -59zM262 76q-60 22 -98 70t-41 96q-59 -165 -25 -217q16 -25 54 -25q59 0 110 76z" />
    <glyph glyph-name="p" unicode="p" horiz-adv-x="602" 
d="M43 -616q-51 292 -40.5 600.5t67.5 445.5q6 16 32 16q24 0 48 -12t20 -24q-39 -88 -55 -279q47 129 114 214t150 85q60 0 93.5 -33.5t33.5 -83.5q0 -103 -74 -190q92 0 132 28.5t69 116.5q2 8 9.5 13t14.5 4q17 -7 13 -25q-22 -80 -74 -128.5t-115 -47.5q-31 2 -82 2
q-102 -92 -209 -92q-49 0 -75 20q-2 -6 -5.5 -18.5t-5.5 -18.5q-10 -319 41 -593q0 -23 -45 -23q-50 0 -57 23zM143 100q49 23 197 23q34 45 55 97t21 93q0 22 -12 35.5t-22 16t-20 2.5q-64 0 -120 -75t-99 -192zM307 86q-170 -2 -170 -33q0 -22 53 -22q59 0 117 55z" />
    <glyph glyph-name="q" unicode="q" horiz-adv-x="612" 
d="M88 -14q-37 0 -62.5 35t-25.5 90q0 89 15.5 155t36.5 100t51 54t51.5 24.5t44.5 4.5q33 0 70 -25t50 -59q11 39 30 101t26 85q2 10 84 -6q19 -8 12 -25q-75 -253 -137 -532t-89 -505.5t13 -285.5q8 -10 16 -10q25 25 41 55q22 39 40 97.5t30 134.5t2.5 165t-43.5 168
q-2 7 2.5 16t13.5 9q57 0 110 72t116 205q33 65 51 127q8 15 25 12q15 -8 12 -25q-44 -110 -53 -129q-30 -65 -54 -109.5t-54 -88.5t-61.5 -69t-64.5 -30q32 -92 37.5 -190t-10 -177.5t-37 -139t-45.5 -95.5q-15 -23 -35.5 -40t-32.5 -17q-22 0 -42.5 9.5t-43 33t-36 73.5
t-13.5 121q0 260 145 822q-120 -211 -186 -211zM215 412q-16 0 -37.5 -18t-43.5 -52.5t-37 -95.5t-15 -135q0 -47 16 -74q58 10 197 274q0 36 -26 68.5t-54 32.5z" />
    <glyph glyph-name="r" unicode="r" horiz-adv-x="452" 
d="M182 334q0 18 -23.5 50t-41.5 40q-49 -184 -64 -219q-7 -21 -18 -21l-8 2q-19 8 -13 23q2 10 15 51t30.5 98.5t28.5 98.5q-61 68 -61 127q0 35 15.5 60.5t39.5 25.5q88 0 88 -117q0 -22 -11.5 -47.5t-25.5 -40.5q14 -15 57.5 -47.5t71 -61.5t27.5 -53q0 -25 -21 -90
q-48 -160 -51 -216q-3 -67 35 -67q14 0 26.5 3t24.5 10t21 13t20 20t17 21.5t16.5 26t15 26.5t16 30t15.5 29q34 62 53 127q8 16 23 12q19 -8 12 -25q-8 -38 -51 -129q-52 -109 -80 -145q-56 -71 -129 -72q-79 0 -117 47q-15 20 -20 50t-4.5 54.5t10.5 67.5t15.5 61.5
t19.5 65.5q26 84 26 111z" />
    <glyph glyph-name="s" unicode="s" horiz-adv-x="378" 
d="M16 483q0 14 15.5 21.5t36.5 7.5q18 0 31.5 -5.5t13.5 -12.5q0 -24 21 -66.5t56 -104.5t54 -108q98 45 168 45q20 0 20 -18q0 -8 -5.5 -13.5t-14.5 -5.5q-59 0 -154 -43q21 -65 21 -110q0 -78 -47 -135.5t-121 -57.5q-51 0 -82 26.5t-31 63.5t18.5 74t47.5 65.5t51.5 46
t42.5 29.5q-24 53 -70 133q-21 -86 -33 -110q-7 -21 -18 -21l-8 2q-19 8 -13 23q2 7 8.5 29.5t17.5 58.5t19 65q-45 88 -45 121zM172 150q-49 -28 -93 -80t-44 -103q0 -21 17.5 -32t39.5 -11q49 0 73.5 37.5t24.5 101.5q0 31 -18 87z" />
    <glyph glyph-name="t" unicode="t" horiz-adv-x="372" 
d="M369 807q-52 0 -174 18q-9 0 -11 2q-21 -171 -34.5 -325t-19.5 -292.5t3 -220t35 -81.5q35 0 86 59t86 142q33 73 51 127q3 16 23 12q16 -6 12 -25q-1 -1 -6 -15.5t-10.5 -30t-15.5 -39t-21 -44.5q-42 -94 -105.5 -165.5t-113.5 -71.5q-25 0 -49 12.5t-48 42t-38.5 88.5
t-14.5 141q0 234 59 701q-114 10 -172 0q-7 -1 -13.5 3.5t-8.5 12.5q-3 18 14 21q35 6 76 6q53 0 111 -6q5 38 34 264q3 18 35 18q28 0 54.5 -14.5t25.5 -34.5q-21 -157 -31 -248q2 0 5.5 -1t5.5 -1q171 -23 209 -14q14 7 22 -12q1 -7 -2.5 -14t-9.5 -9q-21 -6 -49 -6z" />
    <glyph glyph-name="u" unicode="u" horiz-adv-x="481" 
d="M92 -20q-31 0 -61.5 33.5t-30.5 92.5q0 25 2.5 54.5t7.5 59t10 56.5t11 54.5t10.5 45l9 35t4.5 19.5q3 10 17 10q21 0 45.5 -16.5t21.5 -30.5q-36 -141 -47.5 -252t6.5 -116q14 1 59.5 71t82.5 144q11 62 43 190q3 10 16 10q21 0 46 -16.5t22 -30.5q-20 -78 -32 -140
t-16.5 -115.5t4.5 -83t33 -29.5q21 -2 50 18.5t49 60.5q29 53 51 132q8 15 24 12q17 -7 13 -25q-80 -243 -203 -243q-45 0 -79 32.5t-34 93.5v33q-90 -159 -135 -159z" />
    <glyph glyph-name="v" unicode="v" horiz-adv-x="436" 
d="M344 147q41 0 70.5 25.5t52.5 95.5q2 8 10 13t15 4q16 -6 12 -25q-40 -147 -164 -147q-19 0 -51 8q-34 -54 -77 -97.5t-85 -43.5q-127 0 -127 249q0 137 10 189q3 14 37 14q20 0 35 -5.5t14 -14.5q-7 -48 -9 -121t7 -150t31 -102q10 -10 18 -10q48 0 111 108
q-84 52 -84 170q0 77 39.5 123.5t85.5 46.5q31 0 51.5 -25.5t20.5 -74.5q0 -101 -60 -221q18 -9 37 -9zM276 178q52 106 52 199q0 19 -3.5 32.5t-9.5 19.5t-10.5 8.5t-9.5 2.5q-23 0 -40 -33t-17 -100q0 -88 38 -129z" />
    <glyph glyph-name="w" unicode="w" horiz-adv-x="702" 
d="M100 -41q-44 0 -72 34t-28 81q0 163 53 344q4 10 82 -10q16 -6 12 -25q-81 -314 -45 -365q4 -4 13 -4q21 0 69 90.5t86 192.5q6 14 41 14q43 0 43 -18q0 -98 20 -188.5t52 -90.5q39 0 92 119q-45 25 -71.5 71t-26.5 103q0 80 41 129t92 49q33 0 54.5 -28.5t21.5 -79.5
q0 -101 -58 -221q15 -6 37 -6q42 0 72 24.5t53 93.5q2 8 10 13t15 4q16 -6 12 -25q-40 -147 -164 -147q-26 0 -53 6q-28 -64 -61.5 -104t-65.5 -40q-42 0 -73 20.5t-47 56t-23.5 70t-10.5 75.5q-25 -56 -51 -104.5t-61 -91t-60 -42.5zM504 307q0 -87 37 -127q51 107 51 197
q0 25 -7 40.5t-13.5 19t-12.5 3.5q-22 2 -38.5 -35t-16.5 -98z" />
    <glyph glyph-name="x" unicode="x" horiz-adv-x="552" 
d="M-121 -125q-7 0 -12.5 5.5t-5.5 13.5t5.5 13t12.5 5q95 0 205 166q-19 41 -35.5 87t-28 87t-19.5 72.5t-14 59.5t-7 32q-3 14 26 26.5t57 12.5q26 0 29 -13q5 -18 16.5 -62.5t24 -90t25.5 -86.5q4 7 11 20.5t11 20.5q27 48 37.5 66t33 55.5t35.5 52t32 35t36 27.5t35 7
q8 0 13.5 -5.5t5.5 -12.5q0 -8 -6 -14t-13 -6q-24 0 -56.5 -36.5t-56.5 -76.5t-63 -111q-7 -14 -20.5 -36.5t-18.5 -32.5q90 -269 176 -269q29 0 65.5 42t68 101.5t55 115t34.5 90.5q8 15 25 12q16 -6 12 -25q-16 -47 -42.5 -106t-63.5 -125.5t-81.5 -111t-84.5 -44.5
q-135 0 -236 203q-56 -78 -109.5 -121t-113.5 -43z" />
    <glyph glyph-name="y" unicode="y" horiz-adv-x="577" 
d="M332 397q1 7 13 12t26 5q22 0 39 -8t16 -21q-1 -3 -4 -46t-10 -106t-17 -141.5t-28.5 -174.5t-40.5 -183q192 259 276 499q3 13 16 13q11 0 17 -8t2 -17q-24 -73 -51 -129q-49 -103 -141 -247.5t-144 -198.5q-159 -527 -457 -527q-46 0 -83 37t-37 94q0 155 436 373
q87 249 151 627q-157 -260 -235 -260q-28 0 -59 29t-31 81q0 55 33 151.5t49 129.5q6 14 32 14q20 0 34.5 -8.5t10.5 -19.5q-34 -85 -60.5 -183.5t-8.5 -124.5q3 -10 20 -10q34 0 102.5 94.5t127.5 206.5q6 27 6 47zM139 -434q-63 -32 -122 -67.5t-120.5 -79.5t-99 -89
t-37.5 -82q0 -33 15.5 -50t36.5 -17q184 0 327 385z" />
    <glyph glyph-name="z" unicode="z" horiz-adv-x="585" 
d="M444 -184q0 -124 -38 -244.5t-99.5 -210.5t-144 -145.5t-166.5 -55.5q-52 0 -83.5 32.5t-31.5 88.5q0 60 46 139t104.5 144.5t134 135t112.5 99.5t62 49q-5 68 -26.5 91.5t-55.5 23.5q-103 0 -195 -115q-6 -6 -14 -6q-6 0 -45 39q-6 5 -7 13t5 14q119 153 188.5 285.5
t71.5 199.5q2 17 -7.5 32t-29.5 15q-40 0 -73.5 -26t-51.5 -78q-42 -109 -47 -131q-8 -21 -20 -21l-6 2q-17 7 -11 23q0 2 43 121q56 155 185 155q39 0 76.5 -26t37.5 -82q0 -75 -49.5 -172t-144.5 -225q53 22 94 22q113 0 164 -90q49 40 101 138.5t83 185.5q1 6 9 10t14 2
q19 -8 12 -25l-7 -22q-8 -22 -19.5 -51t-24.5 -56q-23 -57 -73 -125t-81 -94q8 -24 8 -59zM-27 -778q67 0 135 63t116.5 153.5t80.5 189.5t35 173q-37 -29 -80 -65.5t-107.5 -98.5t-113.5 -119.5t-85 -122.5t-36 -114q0 -22 17.5 -40.5t37.5 -18.5z" />
    <glyph glyph-name="braceleft" unicode="{" horiz-adv-x="520" 
d="M397 -123q-11 0 -24 2t-33 11t-38 23t-37.5 40.5t-33.5 61.5t-23 88.5t-9 119.5q0 96 -6.5 161t-19 97.5t-24.5 46.5t-28 19q-19 8 -19 18q0 15 19 19q31 8 50.5 50t24 98.5t6 120t-2.5 114.5v12q0 74 13.5 128.5t30 80.5t39.5 40.5t34 16.5t22 2q18 0 18 -20
q0 -1 -1 -2.5t-3.5 -3.5t-5 -6.5t-5.5 -10.5t-6.5 -17t-6.5 -25t-5.5 -35.5t-5 -47.5t-3.5 -61.5t-1 -77.5q0 -126 -16.5 -212t-65.5 -138q-25 -20 -30 -23q3 -3 9.5 -7.5t11.5 -8.5t9 -8q43 -45 56.5 -121.5t13.5 -192.5q0 -75 7 -133t17.5 -91.5t24.5 -55t25 -28.5t22 -7
q8 0 13.5 -5.5t5.5 -12.5q0 -8 -6 -13.5t-13 -5.5z" />
    <glyph glyph-name="bar" unicode="|" horiz-adv-x="516" 
d="M309 1284q0 -18 -2.5 -77.5t-3.5 -98.5q-44 -1049 -31 -1210q2 -8 -3.5 -14.5t-12.5 -6.5h-2q-8 0 -21 2t-29 11t-16 24q-3 38 -4 101t1 161t4 174.5t6.5 211t7 196t8 205.5t6.5 167q2 47 7.5 96t6.5 58q0 13 12 20t27 7q16 0 27.5 -7t11.5 -20z" />
    <glyph glyph-name="braceright" unicode="}" horiz-adv-x="552" 
d="M162 -143q-8 0 -13.5 5.5t-5.5 12.5t5.5 13t13.5 6q10 0 20.5 9t23.5 36.5t23 69.5t16.5 116.5t6.5 169.5q0 209 110 319q-122 70 -122 260q3 168 -22.5 251t-96.5 83q-7 0 -13 6t-6 13t5.5 12.5t13.5 5.5q231 0 231 -323q0 -127 16 -184t62 -103q2 -2 6 -4.5t6.5 -4
t4.5 -4.5t2 -6q0 -5 -2.5 -7.5t-8.5 -5.5t-8 -5q-22 -24 -42.5 -130.5t-20.5 -203.5q0 -406 -191 -407h-9h-5z" />
    <glyph glyph-name="asciitilde" unicode="~" horiz-adv-x="964" 
d="M596 225q-63 0 -195 39q-103 35 -153 35q-74 0 -133 -59q-6 -6 -14.5 -6t-12.5 6q-6 4 -6 12t6 12q72 72 162 72q48 0 164 -35q5 -1 25 -7.5t26.5 -8.5t24 -7t27.5 -6.5t25 -4.5t28 -4t26 -1q122 0 233 111q13 13 27 0q6 -5 6 -13t-6 -14q-121 -121 -260 -121z" />
    <glyph glyph-name="cent" unicode="&#xa2;" horiz-adv-x="552" 
d="M274 -86q0 -6 -5.5 -11t-14.5 -5q-8 0 -13 6t-3 14l6 76q-64 5 -113 49t-49 129q0 90 20 160.5t54 112t70 64.5t75 30l6 88q3 16 21 16q7 0 12.5 -6t5.5 -14l-8 -80q37 -2 69.5 -34t32.5 -73q0 -8 -5 -13t-13 -5t-14.5 5.5t-6.5 12.5q0 28 -21.5 49t-41.5 21
q-31 0 -67.5 -44.5t-63.5 -128t-27 -177.5q0 -57 28 -86t60 -29q45 0 79.5 19.5t51.5 48t24.5 47.5t8.5 30q2 6 9 11t14 4q18 -4 14 -23q-12 -60 -61 -118.5t-127 -65.5z" />
    <glyph glyph-name="sterling" unicode="&#xa3;" horiz-adv-x="870" 
d="M586 -41q-80 0 -213 18q-157 17 -213 17q-7 0 -13 6t-8 14q-1 7 4 13t13 6q44 0 57.5 91.5t20.5 315.5q2 85 4 131q-21 1 -77.5 4t-80.5 3q-8 0 -13.5 5.5t-5.5 12.5t5.5 12.5t13.5 5.5q42 0 160 -4q4 46 4 72q7 123 26 215t44 147.5t59 89.5t68 46t75 12q60 0 120.5 -65
t70.5 -154q0 -7 -5.5 -13t-13.5 -6q-16 0 -20 19q-7 72 -55 127t-93 55q-23 0 -40.5 -18t-28.5 -54t-19 -77t-13 -99.5t-7.5 -108.5t-5.5 -117v-3q0 -12 -5 -74q122 -3 166 10q19 4 23 -14q3 -7 -0.5 -13.5t-11.5 -8.5q-50 -13 -140 -13q-25 0 -37 2q-11 -209 -41 -346.5
t-102 -193.5q21 -1 62 -6.5t53 -6.5q162 -18 207 -18q116 0 159 43q40 40 31 121q-1 7 3.5 12.5t12.5 5.5t14.5 -5.5t6.5 -12.5q9 -100 -41 -150q-54 -51 -180 -51z" />
    <glyph glyph-name="yen" unicode="&#xa5;" horiz-adv-x="1044" 
d="M461 31q-12 125 -12 307q-129 0 -252 -12h-2q-8 0 -13.5 5.5t-5.5 12.5q-2 6 4 12t13 6q133 13 256 13q-3 87 -17 143q-194 0 -237 -4q-8 0 -13.5 5.5t-5.5 12.5q0 8 5 13.5t12 5.5q43 4 227 4q-3 6 -9 15.5t-8 13.5q-36 54 -109 178.5t-131.5 224.5t-70.5 113
q-25 22 8 59t70 37q19 0 29 -10q15 -15 88.5 -130.5t170.5 -269.5t124 -196l346 586q10 13 24 6q16 -10 9 -27l-357 -600q49 -1 108.5 -2t90.5 -1.5t35 -0.5q7 0 12.5 -5.5t5.5 -13.5q0 -7 -6 -12.5t-14 -5.5h-32q-31 1 -91 2t-117 2q8 -65 8 -143q38 -1 75.5 -3t65 -3.5
t49 -3t32.5 -2.5l12 -1q8 0 13 -5t5 -13q-4 -18 -20 -18l-12 1q-11 1 -32.5 2t-48 2.5t-63.5 2.5l-74 2q9 -188 0 -307q0 -13 -21 -21t-50 -8q-30 0 -52 8.5t-22 22.5z" />
    <glyph glyph-name="dieresis" unicode="&#xa8;" horiz-adv-x="532" 
d="M242 1204q0 -31 -21.5 -52.5t-52.5 -21.5t-52.5 21.5t-21.5 52.5t21.5 52.5t52.5 21.5t52.5 -21.5t21.5 -52.5zM436 1204q0 -31 -21.5 -52.5t-52.5 -21.5t-52 21.5t-21 52.5t21 52.5t52 21.5t52.5 -21.5t21.5 -52.5z" />
    <glyph glyph-name="acute" unicode="&#xb4;" horiz-adv-x="364" 
d="M127 1071q-6 0 -10 2q-6 5 -7 13t3 14l80 213q6 6 18 6q22 0 45 -14.5t16 -26.5l-129 -199q-5 -8 -16 -8z" />
    <glyph glyph-name="cedilla" unicode="&#xb8;" horiz-adv-x="362" 
d="M90 -309q-8 0 -13 5.5t-5 12.5q0 8 5.5 13.5t12.5 5.5q50 0 90.5 33.5t40.5 84.5q0 30 -20 54t-41 24q-25 0 -46 -8t-30 -8q-5 0 -10 10q-5 20 14 80l18 53q1 7 9 11t14 1q16 -6 12 -24q-22 -58 -28 -90q30 10 65 10q51 0 86 -36.5t35 -90.5q0 -38 -20 -66.5t-52.5 -44
t-67 -23t-69.5 -7.5z" />
    <glyph glyph-name="Agrave" unicode="&#xc0;" horiz-adv-x="1116" 
d="M840 1221q-12 0 -17 8l-129 198q-7 12 16 26.5t46 14.5q12 0 18 -6l80 -213q11 -15 -4 -26q-4 -2 -10 -2zM18 184q-7 0 -12.5 5.5t-5.5 13.5q0 55 19.5 97.5t52 69.5t81.5 45t100 26.5t116 13.5l12 36t12 37q35 103 54 156.5t53 138t62.5 129.5t67 94t82 70t93.5 21
q25 0 48.5 -5.5t47.5 -19t38.5 -41.5t14.5 -67q0 -24 -10.5 -92.5t-34 -205.5t-35.5 -208q71 18 115 59q13 13 27 0q6 -5 6 -13t-6 -14q-50 -50 -148 -73q-51 -295 -51 -428q0 -51 24 -91t60 -40q37 0 76.5 38t72 96.5t54.5 108.5t37 95q3 16 22 12q17 -7 13 -25
q0 -1 -5.5 -15.5t-11.5 -30t-16 -39t-21 -44.5q-1 -3 -11.5 -25.5t-16 -34t-18.5 -36t-24 -39.5t-27.5 -36.5t-33.5 -34.5t-37.5 -26.5t-44 -19.5t-49.5 -6q-174 0 -174 238q0 79 51 362q-63 -6 -196 -10q-110 -4 -144 -6q-73 -207 -138 -342.5t-153 -222.5q-4 -7 -12 -7
q-7 0 -14 7q-11 11 0 26q83 83 146.5 214.5t129.5 322.5q-58 -5 -102.5 -13.5t-87 -24.5t-69.5 -38.5t-43.5 -57.5t-16.5 -81q0 -7 -5.5 -13t-13.5 -6zM410 459q86 4 131 4q137 4 204 12q68 363 79 458q19 167 -19 167q-29 0 -56.5 -11t-50.5 -27.5t-47 -47.5t-42 -58
t-40 -74t-36.5 -81t-35.5 -92t-33.5 -93.5t-33.5 -99.5q-3 -11 -10.5 -31t-9.5 -26z" />
    <glyph glyph-name="Aacute" unicode="&#xc1;" horiz-adv-x="1116" 
d="M791 1225q-7 0 -11 4q-15 12 -6 24l80 215q7 7 18 7q23 0 47 -14.5t17 -26.5l-131 -199q-3 -10 -14 -10zM18 184q-7 0 -12.5 5.5t-5.5 13.5q0 55 19.5 97.5t52 69.5t81.5 45t100 26.5t116 13.5l12 36t12 37q35 103 54 156.5t53 138t62.5 129.5t67 94t82 70t93.5 21
q25 0 48.5 -5.5t47.5 -19t38.5 -41.5t14.5 -67q0 -24 -10.5 -92.5t-34 -205.5t-35.5 -208q71 18 115 59q13 13 27 0q6 -5 6 -13t-6 -14q-50 -50 -148 -73q-51 -295 -51 -428q0 -51 24 -91t60 -40q37 0 76.5 38t72 96.5t54.5 108.5t37 95q3 16 22 12q17 -7 13 -25
q0 -1 -5.5 -15.5t-11.5 -30t-16 -39t-21 -44.5q-1 -3 -11.5 -25.5t-16 -34t-18.5 -36t-24 -39.5t-27.5 -36.5t-33.5 -34.5t-37.5 -26.5t-44 -19.5t-49.5 -6q-174 0 -174 238q0 79 51 362q-63 -6 -196 -10q-110 -4 -144 -6q-73 -207 -138 -342.5t-153 -222.5q-4 -7 -12 -7
q-7 0 -14 7q-11 11 0 26q83 83 146.5 214.5t129.5 322.5q-58 -5 -102.5 -13.5t-87 -24.5t-69.5 -38.5t-43.5 -57.5t-16.5 -81q0 -7 -5.5 -13t-13.5 -6zM410 459q86 4 131 4q137 4 204 12q68 363 79 458q19 167 -19 167q-29 0 -56.5 -11t-50.5 -27.5t-47 -47.5t-42 -58
t-40 -74t-36.5 -81t-35.5 -92t-33.5 -93.5t-33.5 -99.5q-3 -11 -10.5 -31t-9.5 -26z" />
    <glyph glyph-name="Acircumflex" unicode="&#xc2;" horiz-adv-x="1116" 
d="M774 1434q28 0 68 -33.5t67 -67.5q16 -19 34 -42.5t27.5 -36.5t10.5 -13q11 -16 -5.5 -32.5t-39.5 -16.5q-15 0 -25 10q-28 41 -61 84q-56 68 -78 84q-24 -15 -166 -170q-14 -14 -28 0t-3 29q1 0 12.5 12.5t33.5 35t41 40.5q24 25 45 47t31.5 33.5t18.5 20.5t11.5 12
t5.5 4zM18 184q-7 0 -12.5 5.5t-5.5 13.5q0 55 19.5 97.5t52 69.5t81.5 45t100 26.5t116 13.5l12 36t12 37q35 103 54 156.5t53 138t62.5 129.5t67 94t82 70t93.5 21q25 0 48.5 -5.5t47.5 -19t38.5 -41.5t14.5 -67q0 -24 -10.5 -92.5t-34 -205.5t-35.5 -208q71 18 115 59
q13 13 27 0q6 -5 6 -13t-6 -14q-50 -50 -148 -73q-51 -295 -51 -428q0 -51 24 -91t60 -40q37 0 76.5 38t72 96.5t54.5 108.5t37 95q3 16 22 12q17 -7 13 -25q0 -1 -5.5 -15.5t-11.5 -30t-16 -39t-21 -44.5q-1 -3 -11.5 -25.5t-16 -34t-18.5 -36t-24 -39.5t-27.5 -36.5
t-33.5 -34.5t-37.5 -26.5t-44 -19.5t-49.5 -6q-174 0 -174 238q0 79 51 362q-63 -6 -196 -10q-110 -4 -144 -6q-73 -207 -138 -342.5t-153 -222.5q-4 -7 -12 -7q-7 0 -14 7q-11 11 0 26q83 83 146.5 214.5t129.5 322.5q-58 -5 -102.5 -13.5t-87 -24.5t-69.5 -38.5
t-43.5 -57.5t-16.5 -81q0 -7 -5.5 -13t-13.5 -6zM410 459q86 4 131 4q137 4 204 12q68 363 79 458q19 167 -19 167q-29 0 -56.5 -11t-50.5 -27.5t-47 -47.5t-42 -58t-40 -74t-36.5 -81t-35.5 -92t-33.5 -93.5t-33.5 -99.5q-3 -11 -10.5 -31t-9.5 -26z" />
    <glyph glyph-name="Atilde" unicode="&#xc3;" horiz-adv-x="1116" 
d="M905 1229q-42 0 -96 43q-50 33 -68 33q-22 0 -49 -27q-4 -4 -12 -4t-12 4q-6 6 -6 14t6 13q36 36 73 36q33 0 88 -41q4 -2 13 -8.5t13 -9t11.5 -7t12.5 -6.5t11.5 -3.5t12.5 -1.5q34 0 72 41q6 6 13.5 6t12.5 -6q6 -5 6 -13t-6 -12q-45 -51 -96 -51zM18 184
q-7 0 -12.5 5.5t-5.5 13.5q0 55 19.5 97.5t52 69.5t81.5 45t100 26.5t116 13.5l12 36t12 37q35 103 54 156.5t53 138t62.5 129.5t67 94t82 70t93.5 21q25 0 48.5 -5.5t47.5 -19t38.5 -41.5t14.5 -67q0 -24 -10.5 -92.5t-34 -205.5t-35.5 -208q71 18 115 59q13 13 27 0
q6 -5 6 -13t-6 -14q-50 -50 -148 -73q-51 -295 -51 -428q0 -51 24 -91t60 -40q37 0 76.5 38t72 96.5t54.5 108.5t37 95q3 16 22 12q17 -7 13 -25q0 -1 -5.5 -15.5t-11.5 -30t-16 -39t-21 -44.5q-1 -3 -11.5 -25.5t-16 -34t-18.5 -36t-24 -39.5t-27.5 -36.5t-33.5 -34.5
t-37.5 -26.5t-44 -19.5t-49.5 -6q-174 0 -174 238q0 79 51 362q-63 -6 -196 -10q-110 -4 -144 -6q-73 -207 -138 -342.5t-153 -222.5q-4 -7 -12 -7q-7 0 -14 7q-11 11 0 26q83 83 146.5 214.5t129.5 322.5q-58 -5 -102.5 -13.5t-87 -24.5t-69.5 -38.5t-43.5 -57.5t-16.5 -81
q0 -7 -5.5 -13t-13.5 -6zM410 459q86 4 131 4q137 4 204 12q68 363 79 458q19 167 -19 167q-29 0 -56.5 -11t-50.5 -27.5t-47 -47.5t-42 -58t-40 -74t-36.5 -81t-35.5 -92t-33.5 -93.5t-33.5 -99.5q-3 -11 -10.5 -31t-9.5 -26z" />
    <glyph glyph-name="Adieresis" unicode="&#xc4;" horiz-adv-x="1116" 
d="M793 1292q0 -31 -21.5 -52t-52.5 -21t-52.5 21t-21.5 52t21.5 52.5t52.5 21.5t52.5 -21.5t21.5 -52.5zM987 1292q0 -30 -22.5 -51.5t-53.5 -21.5t-52 21t-21 52t21 52.5t52 21.5t53.5 -21.5t22.5 -52.5zM18 184q-7 0 -12.5 5.5t-5.5 13.5q0 55 19.5 97.5t52 69.5t81.5 45
t100 26.5t116 13.5l12 36t12 37q35 103 54 156.5t53 138t62.5 129.5t67 94t82 70t93.5 21q25 0 48.5 -5.5t47.5 -19t38.5 -41.5t14.5 -67q0 -24 -10.5 -92.5t-34 -205.5t-35.5 -208q71 18 115 59q13 13 27 0q6 -5 6 -13t-6 -14q-50 -50 -148 -73q-51 -295 -51 -428
q0 -51 24 -91t60 -40q37 0 76.5 38t72 96.5t54.5 108.5t37 95q3 16 22 12q17 -7 13 -25q0 -1 -5.5 -15.5t-11.5 -30t-16 -39t-21 -44.5q-1 -3 -11.5 -25.5t-16 -34t-18.5 -36t-24 -39.5t-27.5 -36.5t-33.5 -34.5t-37.5 -26.5t-44 -19.5t-49.5 -6q-174 0 -174 238
q0 79 51 362q-63 -6 -196 -10q-110 -4 -144 -6q-73 -207 -138 -342.5t-153 -222.5q-4 -7 -12 -7q-7 0 -14 7q-11 11 0 26q83 83 146.5 214.5t129.5 322.5q-58 -5 -102.5 -13.5t-87 -24.5t-69.5 -38.5t-43.5 -57.5t-16.5 -81q0 -7 -5.5 -13t-13.5 -6zM410 459q86 4 131 4
q137 4 204 12q68 363 79 458q19 167 -19 167q-29 0 -56.5 -11t-50.5 -27.5t-47 -47.5t-42 -58t-40 -74t-36.5 -81t-35.5 -92t-33.5 -93.5t-33.5 -99.5q-3 -11 -10.5 -31t-9.5 -26z" />
    <glyph glyph-name="Aring" unicode="&#xc5;" horiz-adv-x="1116" 
d="M829 1217q-38 0 -69 27.5t-31 72.5q0 37 28 68.5t66 31.5q37 0 64.5 -30t27.5 -70q0 -39 -24 -69.5t-62 -30.5zM823 1368q-18 0 -31.5 -16.5t-13.5 -34.5q0 -24 16.5 -37.5t34.5 -13.5q16 0 26.5 15.5t10.5 35.5t-13 35.5t-30 15.5zM18 184q-7 0 -12.5 5.5t-5.5 13.5
q0 55 19.5 97.5t52 69.5t81.5 45t100 26.5t116 13.5l12 36t12 37q35 103 54 156.5t53 138t62.5 129.5t67 94t82 70t93.5 21q25 0 48.5 -5.5t47.5 -19t38.5 -41.5t14.5 -67q0 -24 -10.5 -92.5t-34 -205.5t-35.5 -208q71 18 115 59q13 13 27 0q6 -5 6 -13t-6 -14
q-50 -50 -148 -73q-51 -295 -51 -428q0 -51 24 -91t60 -40q37 0 76.5 38t72 96.5t54.5 108.5t37 95q3 16 22 12q17 -7 13 -25q0 -1 -5.5 -15.5t-11.5 -30t-16 -39t-21 -44.5q-1 -3 -11.5 -25.5t-16 -34t-18.5 -36t-24 -39.5t-27.5 -36.5t-33.5 -34.5t-37.5 -26.5t-44 -19.5
t-49.5 -6q-174 0 -174 238q0 79 51 362q-63 -6 -196 -10q-110 -4 -144 -6q-73 -207 -138 -342.5t-153 -222.5q-4 -7 -12 -7q-7 0 -14 7q-11 11 0 26q83 83 146.5 214.5t129.5 322.5q-58 -5 -102.5 -13.5t-87 -24.5t-69.5 -38.5t-43.5 -57.5t-16.5 -81q0 -7 -5.5 -13
t-13.5 -6zM410 459q86 4 131 4q137 4 204 12q68 363 79 458q19 167 -19 167q-29 0 -56.5 -11t-50.5 -27.5t-47 -47.5t-42 -58t-40 -74t-36.5 -81t-35.5 -92t-33.5 -93.5t-33.5 -99.5q-3 -11 -10.5 -31t-9.5 -26z" />
    <glyph glyph-name="AE" unicode="&#xc6;" horiz-adv-x="1546" 
d="M1520 109q18 31 51 127q1 6 8.5 10t13.5 2q8 -3 12 -10.5t1 -14.5q-30 -89 -52 -129q-59 -102 -153.5 -169.5t-216.5 -67.5q-89 0 -170.5 29t-145 81t-101.5 132.5t-38 176.5q0 26 4 72q1 7 5 38.5t7 49.5q-64 -6 -204 -10q-110 -4 -144 -6q-73 -207 -138 -342.5
t-153 -222.5q-4 -7 -12 -7q-7 0 -14 7q-11 11 0 26q83 83 146.5 214.5t129.5 322.5q-58 -5 -102.5 -13.5t-87 -24.5t-69.5 -38.5t-43.5 -57.5t-16.5 -81q0 -7 -5.5 -13t-13.5 -6q-7 0 -12.5 5.5t-5.5 13.5q0 55 19.5 97.5t52 69.5t81.5 45t100 26.5t116 13.5l12 36t12 37
q35 103 54 156.5t53 138t62.5 129.5t67 94t82 70t93.5 21q25 0 48.5 -5.5t47.5 -19t38.5 -41.5t14.5 -67q0 -19 -5 -61.5t-11.5 -85t-18 -118.5t-18.5 -123q130 93 303 93q-10 0 -34 5.5t-61 22.5t-69 42.5t-55.5 71.5t-23.5 103q0 111 87 178.5t216 67.5q28 0 53.5 -6
t45.5 -16t38 -22.5t31 -27t24 -29t18.5 -27.5t12.5 -23t7 -17l3 -6q1 -7 -3.5 -13.5t-12.5 -8.5q-18 0 -21 16q-17 52 -42 80q-49 57 -132 57q-66 0 -114 -52.5t-48 -150.5q0 -50 18.5 -93t45 -69t52.5 -45t44 -27l19 -7q14 -3 14 -21q-3 -16 -19 -16q-69 0 -132.5 -24.5
t-116.5 -72t-85 -126t-32 -177.5q0 -81 30 -160t95.5 -137.5t152.5 -58.5q105 0 183.5 53.5t126.5 135.5zM410 459q86 4 131 4q109 3 211 12q9 61 28 164.5t31 173t20.5 141.5t2 109t-28.5 37q-29 0 -56.5 -11t-50.5 -27.5t-47 -47.5t-42 -58t-40 -74t-36.5 -81t-35.5 -92
t-33.5 -93.5t-33.5 -99.5q-3 -11 -10.5 -31t-9.5 -26z" />
    <glyph glyph-name="Ccedilla" unicode="&#xc7;" horiz-adv-x="694" 
d="M668 111q31 67 51 125q2 8 8.5 11.5t13.5 0.5q7 -1 11 -8.5t2 -14.5q-19 -56 -44 -108.5t-62 -104.5t-79.5 -90t-97.5 -62t-115 -24q-40 0 -63 2q-17 -43 -23 -69q35 10 66 10q51 0 86 -36.5t35 -90.5q0 -50 -34.5 -83t-79 -45.5t-93.5 -12.5q-8 0 -13.5 5.5t-5.5 12.5
t5.5 12.5t13.5 5.5q50 0 89.5 33.5t39.5 85.5q0 29 -19.5 53.5t-40.5 24.5q-25 0 -45.5 -9t-29.5 -9q-7 0 -13 12q-4 14 15 78q3 7 8 28q-254 51 -254 469q0 181 23 330t62.5 250.5t93.5 171t114 101.5t125 32q80 0 123 -72t43 -168q0 -7 -5.5 -12.5t-13.5 -5.5
q-7 0 -12.5 5t-5.5 13q0 80 -33.5 140.5t-95.5 60.5q-31 0 -65 -35t-67 -107t-59.5 -170.5t-42.5 -238t-16 -297.5q0 -114 18.5 -203t47.5 -138t60 -73t62 -24q95 0 178 69.5t134 168.5z" />
    <glyph glyph-name="Egrave" unicode="&#xc8;" horiz-adv-x="817" 
d="M543 1282q-12 0 -17 8l-129 199q-7 12 16 26.5t46 14.5q12 0 18 -6l82 -215q7 -15 -6 -25q-4 -2 -10 -2zM791 109q18 31 51 127q8 16 22 12q8 -3 12 -10.5t1 -14.5q-9 -51 -52 -129q-59 -102 -153.5 -169.5t-216.5 -67.5q-88 0 -169.5 29t-145.5 81t-102 132.5t-38 176.5
q0 87 28.5 160t75.5 122.5t109 84t128.5 50.5t133.5 16q-8 0 -26 4.5t-46.5 14t-57.5 28.5t-54.5 44t-41.5 65.5t-16 88.5q0 111 86.5 178.5t215.5 67.5q49 0 91.5 -18t67 -42.5t42.5 -51.5t25 -43t7 -19q4 -18 -14 -22q-7 -1 -14 3.5t-9 12.5q-17 51 -40 79q-49 58 -132 58
q-67 0 -115.5 -52.5t-48.5 -150.5q0 -50 18.5 -93t44 -69t53 -45t45 -26.5t19.5 -7.5q13 -7 13 -21q-3 -16 -19 -16q-68 0 -134 -24.5t-122 -72t-90.5 -126.5t-34.5 -177q0 -58 20.5 -120t57 -115t93.5 -87t124 -34q103 0 181.5 53.5t126.5 135.5z" />
    <glyph glyph-name="Eacute" unicode="&#xc9;" horiz-adv-x="817" 
d="M485 1270q-8 0 -10 2q-16 12 -6 26l80 213q7 7 18 7q23 0 47 -14.5t17 -26.5l-131 -199q-5 -8 -15 -8zM791 109q18 31 51 127q8 16 22 12q8 -3 12 -10.5t1 -14.5q-9 -51 -52 -129q-59 -102 -153.5 -169.5t-216.5 -67.5q-88 0 -169.5 29t-145.5 81t-102 132.5t-38 176.5
q0 87 28.5 160t75.5 122.5t109 84t128.5 50.5t133.5 16q-8 0 -26 4.5t-46.5 14t-57.5 28.5t-54.5 44t-41.5 65.5t-16 88.5q0 111 86.5 178.5t215.5 67.5q49 0 91.5 -18t67 -42.5t42.5 -51.5t25 -43t7 -19q4 -18 -14 -22q-7 -1 -14 3.5t-9 12.5q-17 51 -40 79q-49 58 -132 58
q-67 0 -115.5 -52.5t-48.5 -150.5q0 -50 18.5 -93t44 -69t53 -45t45 -26.5t19.5 -7.5q13 -7 13 -21q-3 -16 -19 -16q-68 0 -134 -24.5t-122 -72t-90.5 -126.5t-34.5 -177q0 -58 20.5 -120t57 -115t93.5 -87t124 -34q103 0 181.5 53.5t126.5 135.5z" />
    <glyph glyph-name="Ecircumflex" unicode="&#xca;" horiz-adv-x="817" 
d="M524 1509q9 0 25 -8t45.5 -32t60.5 -60l70 -92q10 -15 -5.5 -32t-37.5 -17q-18 0 -25 10q-30 41 -63 82q-50 65 -78 86q-23 -17 -164 -170q-6 -6 -15 -6t-15 6q-6 4 -6 13.5t6 15.5q41 43 84 88q25 25 46 47t31.5 33.5t19 20t12 11.5t5.5 4h4zM791 109q18 31 51 127
q8 16 22 12q8 -3 12 -10.5t1 -14.5q-9 -51 -52 -129q-59 -102 -153.5 -169.5t-216.5 -67.5q-88 0 -169.5 29t-145.5 81t-102 132.5t-38 176.5q0 87 28.5 160t75.5 122.5t109 84t128.5 50.5t133.5 16q-8 0 -26 4.5t-46.5 14t-57.5 28.5t-54.5 44t-41.5 65.5t-16 88.5
q0 111 86.5 178.5t215.5 67.5q49 0 91.5 -18t67 -42.5t42.5 -51.5t25 -43t7 -19q4 -18 -14 -22q-7 -1 -14 3.5t-9 12.5q-17 51 -40 79q-49 58 -132 58q-67 0 -115.5 -52.5t-48.5 -150.5q0 -50 18.5 -93t44 -69t53 -45t45 -26.5t19.5 -7.5q13 -7 13 -21q-3 -16 -19 -16
q-68 0 -134 -24.5t-122 -72t-90.5 -126.5t-34.5 -177q0 -58 20.5 -120t57 -115t93.5 -87t124 -34q103 0 181.5 53.5t126.5 135.5z" />
    <glyph glyph-name="Edieresis" unicode="&#xcb;" horiz-adv-x="817" 
d="M520 1352q0 -31 -21.5 -52.5t-52.5 -21.5t-52 21.5t-21 52.5t21 52t52 21t52.5 -21t21.5 -52zM715 1352q0 -31 -21.5 -52.5t-52.5 -21.5t-52.5 21.5t-21.5 52.5t21.5 52t52.5 21t52.5 -21t21.5 -52zM791 109q18 31 51 127q8 16 22 12q8 -3 12 -10.5t1 -14.5
q-9 -51 -52 -129q-59 -102 -153.5 -169.5t-216.5 -67.5q-88 0 -169.5 29t-145.5 81t-102 132.5t-38 176.5q0 87 28.5 160t75.5 122.5t109 84t128.5 50.5t133.5 16q-8 0 -26 4.5t-46.5 14t-57.5 28.5t-54.5 44t-41.5 65.5t-16 88.5q0 111 86.5 178.5t215.5 67.5
q49 0 91.5 -18t67 -42.5t42.5 -51.5t25 -43t7 -19q4 -18 -14 -22q-7 -1 -14 3.5t-9 12.5q-17 51 -40 79q-49 58 -132 58q-67 0 -115.5 -52.5t-48.5 -150.5q0 -50 18.5 -93t44 -69t53 -45t45 -26.5t19.5 -7.5q13 -7 13 -21q-3 -16 -19 -16q-68 0 -134 -24.5t-122 -72
t-90.5 -126.5t-34.5 -177q0 -58 20.5 -120t57 -115t93.5 -87t124 -34q103 0 181.5 53.5t126.5 135.5z" />
    <glyph glyph-name="Igrave" unicode="&#xcc;" horiz-adv-x="512" 
d="M528 1315q-8 0 -16 8l-129 201q-9 12 13.5 26.5t45.5 14.5q15 0 21 -9l80 -213q5 -6 3.5 -13.5t-7.5 -10.5q-8 -4 -11 -4zM98 -205q-79 0 -137 70.5t-63 171.5q0 18 16 18q8 0 14 -5.5t6 -12.5q2 -74 38 -128t106 -54q47 0 87.5 54.5t69 139t54.5 201.5t43.5 225.5
t35.5 228.5q1 11 2 17.5t2.5 15.5t2.5 17q46 300 71 401q-51 -40 -153 -80q-85 -34 -120 -63t-34 -84q0 -8 -5.5 -13.5t-12.5 -5.5t-13 5.5t-6 13.5q-1 32 9.5 58.5t23.5 42.5t42 33.5t46.5 25t55.5 22.5q36 15 55.5 23.5t49 24.5t50.5 36t37 45q10 18 47 18
q29 0 52.5 -10.5t19.5 -23.5q-40 -150 -94 -475q-30 -194 -56 -331.5t-54.5 -248t-57 -179t-64 -113.5t-75 -63t-91.5 -18z" />
    <glyph glyph-name="Iacute" unicode="&#xcd;" horiz-adv-x="512" 
d="M520 1331q-6 0 -10 2q-6 5 -7 13t3 14l80 213q6 6 18 6q23 0 47 -14.5t15 -26.5l-129 -199q-5 -8 -17 -8zM98 -205q-79 0 -137 70.5t-63 171.5q0 18 16 18q8 0 14 -5.5t6 -12.5q2 -74 38 -128t106 -54q47 0 87.5 54.5t69 139t54.5 201.5t43.5 225.5t35.5 228.5
q1 11 2 17.5t2.5 15.5t2.5 17q46 300 71 401q-51 -40 -153 -80q-85 -34 -120 -63t-34 -84q0 -8 -5.5 -13.5t-12.5 -5.5t-13 5.5t-6 13.5q-1 32 9.5 58.5t23.5 42.5t42 33.5t46.5 25t55.5 22.5q36 15 55.5 23.5t49 24.5t50.5 36t37 45q10 18 47 18q29 0 52.5 -10.5
t19.5 -23.5q-40 -150 -94 -475q-30 -194 -56 -331.5t-54.5 -248t-57 -179t-64 -113.5t-75 -63t-91.5 -18z" />
    <glyph glyph-name="Icircumflex" unicode="&#xce;" horiz-adv-x="512" 
d="M487 1536q27 0 68 -34.5t66 -65.5l71 -93q10 -15 -6 -32t-37 -17q-16 0 -24 11q-1 0 -9.5 10.5t-25 32t-29.5 38.5q-63 76 -78 87q-29 -21 -166 -170q-14 -14 -28 0q-6 5 -6 13.5t6 14.5q41 43 84 88q24 25 45 47t31.5 33.5t18.5 20.5t12 12t7 4zM98 -205
q-79 0 -137 70.5t-63 171.5q0 18 16 18q8 0 14 -5.5t6 -12.5q2 -74 38 -128t106 -54q47 0 87.5 54.5t69 139t54.5 201.5t43.5 225.5t35.5 228.5q1 11 2 17.5t2.5 15.5t2.5 17q46 300 71 401q-51 -40 -153 -80q-85 -34 -120 -63t-34 -84q0 -8 -5.5 -13.5t-12.5 -5.5t-13 5.5
t-6 13.5q-1 32 9.5 58.5t23.5 42.5t42 33.5t46.5 25t55.5 22.5q36 15 55.5 23.5t49 24.5t50.5 36t37 45q10 18 47 18q29 0 52.5 -10.5t19.5 -23.5q-40 -150 -94 -475q-30 -194 -56 -331.5t-54.5 -248t-57 -179t-64 -113.5t-75 -63t-91.5 -18z" />
    <glyph glyph-name="Idieresis" unicode="&#xcf;" horiz-adv-x="512" 
d="M500 1389q0 -31 -21.5 -52.5t-52.5 -21.5t-52.5 21.5t-21.5 52.5t21.5 52t52.5 21t52.5 -21t21.5 -52zM692 1389q0 -31 -21.5 -52.5t-52.5 -21.5t-52 21.5t-21 52.5t21 52t52 21t52.5 -21t21.5 -52zM98 -205q-79 0 -137 70.5t-63 171.5q0 18 16 18q8 0 14 -5.5t6 -12.5
q2 -74 38 -128t106 -54q47 0 87.5 54.5t69 139t54.5 201.5t43.5 225.5t35.5 228.5q1 11 2 17.5t2.5 15.5t2.5 17q46 300 71 401q-51 -40 -153 -80q-85 -34 -120 -63t-34 -84q0 -8 -5.5 -13.5t-12.5 -5.5t-13 5.5t-6 13.5q-1 32 9.5 58.5t23.5 42.5t42 33.5t46.5 25
t55.5 22.5q36 15 55.5 23.5t49 24.5t50.5 36t37 45q10 18 47 18q29 0 52.5 -10.5t19.5 -23.5q-40 -150 -94 -475q-30 -194 -56 -331.5t-54.5 -248t-57 -179t-64 -113.5t-75 -63t-91.5 -18z" />
    <glyph glyph-name="Eth" unicode="&#xd0;" horiz-adv-x="1089" 
d="M106 39q-4 86 7 383q-14 0 -35.5 -1t-28.5 -1q-16 -3 -20 16q0 18 16 21q10 1 34 2t36 2q3 79 7 169t7.5 161.5t6.5 132t5 94.5t2 35q3 20 56 20q22 0 42 -4t33.5 -12t12.5 -19q0 -9 -13 -178q23 47 48 88.5t60 83.5t73 71.5t86.5 48.5t99.5 19q34 0 77.5 -10.5t98 -40
t98.5 -74.5t74.5 -123.5t30.5 -177.5q0 -299 -96 -538q190 39 204 39q7 1 13 -4t8 -13q0 -20 -16 -20q-2 0 -43 -7.5t-98 -18.5t-87 -19q-73 -157 -185 -266.5t-236 -160t-253 -50.5q-86 0 -144 39.5t-58 121.5q0 89 123 160q-43 7 -46 31zM858 791q0 153 -59.5 235
t-169.5 82q-56 0 -108.5 -25t-90 -62.5t-71.5 -89.5t-55 -96t-38 -92q-6 -88 -22 -280q165 -4 217 -17q18 -4 14 -22q-3 -14 -22 -14q-52 14 -211 14q-25 -310 -33 -387q161 74 528 137q121 261 121 617zM715 133q-48 -11 -80 -18t-84 -19t-88 -22t-84.5 -24t-83 -27.5
t-73 -29t-64.5 -32t-48 -34.5t-33 -38t-11 -41q0 -46 26.5 -74.5t61 -38t77.5 -9.5q75 0 149.5 36.5t136 98t110.5 129.5t88 143z" />
    <glyph glyph-name="Ntilde" unicode="&#xd1;" horiz-adv-x="1019" 
d="M813 1157q-13 0 -24.5 3t-28 12.5t-20 11.5t-23.5 16q-47 35 -68 35q-22 0 -49 -27q-14 -10 -27 0q-10 14 0 27q35 35 74 35q6 0 11.5 -0.5t11 -2.5t10 -3t10.5 -4.5t9.5 -5t10 -5.5t9 -5.5t10 -6.5t8.5 -6q5 -3 15.5 -10.5t15.5 -10.5t13.5 -7.5t15.5 -6.5t14 -2
q34 0 72 41q13 10 26 0q6 -5 6 -13t-6 -14q-48 -51 -96 -51zM2 16q-5 183 5 372.5t21.5 287t14.5 100.5q0 19 49 19q35 0 73 -10t38 -19q-2 -2 -9.5 -61t-17.5 -178.5t-14 -243.5q28 73 67 160t101 202.5t123 206t133.5 154t134.5 63.5q96 0 144 -47t48 -125
q0 -42 -11.5 -105.5t-23 -109.5t-36.5 -137q-13 -48 -23.5 -90.5t-23.5 -99.5t-21.5 -104.5t-16 -98.5t-7.5 -90t5 -71.5t19 -49.5t37 -17q28 0 55.5 15.5t50 44.5t41 58t36 70t27 65.5t21.5 58.5q1 6 9 10t14 2q19 -8 12 -25q-19 -58 -42.5 -111t-59.5 -116t-83.5 -101
t-98.5 -38q-94 0 -149.5 54t-55.5 157q0 66 15.5 157t29.5 149t47 183q23 86 36 137.5t25.5 117.5t10.5 107.5t-17 61.5q-15 18 -43 18q-66 0 -157.5 -111.5t-169 -258.5t-135.5 -281.5t-70 -191.5q0 -97 2 -146q0 -26 -72 -26q-22 0 -42 3.5t-33.5 11t-12.5 17.5z" />
    <glyph glyph-name="Ograve" unicode="&#xd2;" horiz-adv-x="802" 
d="M485 1200q-8 0 -16 8l-129 199q-9 12 14.5 26.5t46.5 14.5q13 0 19 -6l80 -213q5 -6 3.5 -14t-7.5 -11q-8 -4 -11 -4zM299 -205q-44 0 -84.5 9.5t-80.5 33.5t-69 60.5t-47 96.5t-18 136q0 121 33.5 314.5t83.5 287.5q-9 5 -11 10q-24 49 -24 101q0 138 102 230.5
t254 92.5q23 0 47 -3t61 -14.5t69.5 -31t67.5 -57t59.5 -86.5t40.5 -125.5t16 -169.5q0 -20 -4 -78q137 55 256 182q5 6 12.5 6t13.5 -6q13 -13 0 -26q-128 -139 -289 -199q-13 -91 -39 -189t-69.5 -202.5t-97.5 -186t-128 -134t-155 -52.5zM137 768q19 40 39 53t64 13
q65 0 93 -21q12 -10 5 -20q-42 -59 -74 -154q131 -82 301 -82q98 0 189 29q6 52 6 94q0 84 -13 152.5t-33.5 114.5t-50 80.5t-58 53.5t-62 30.5t-57.5 15t-48 3.5q-136 0 -226.5 -81.5t-90.5 -204.5q0 -43 16 -76zM565 518q-172 0 -313 84q-59 -182 -72 -382.5t31 -285.5
q37 -69 111 -69q75 0 147.5 68t126 173.5t92 219t57.5 219.5q-91 -27 -180 -27z" />
    <glyph glyph-name="Oacute" unicode="&#xd3;" horiz-adv-x="802" 
d="M420 1227q-8 0 -10 2q-17 10 -7 26l80 213q7 7 19 7q23 0 46.5 -14.5t14.5 -26.5l-129 -199q-5 -8 -14 -8zM299 -205q-44 0 -84.5 9.5t-80.5 33.5t-69 60.5t-47 96.5t-18 136q0 121 33.5 314.5t83.5 287.5q-9 5 -11 10q-24 49 -24 101q0 138 102 230.5t254 92.5
q23 0 47 -3t61 -14.5t69.5 -31t67.5 -57t59.5 -86.5t40.5 -125.5t16 -169.5q0 -20 -4 -78q137 55 256 182q5 6 12.5 6t13.5 -6q13 -13 0 -26q-128 -139 -289 -199q-13 -91 -39 -189t-69.5 -202.5t-97.5 -186t-128 -134t-155 -52.5zM137 768q19 40 39 53t64 13q65 0 93 -21
q12 -10 5 -20q-42 -59 -74 -154q131 -82 301 -82q98 0 189 29q6 52 6 94q0 84 -13 152.5t-33.5 114.5t-50 80.5t-58 53.5t-62 30.5t-57.5 15t-48 3.5q-136 0 -226.5 -81.5t-90.5 -204.5q0 -43 16 -76zM565 518q-172 0 -313 84q-59 -182 -72 -382.5t31 -285.5q37 -69 111 -69
q75 0 147.5 68t126 173.5t92 219t57.5 219.5q-91 -27 -180 -27z" />
    <glyph glyph-name="Ocircumflex" unicode="&#xd4;" horiz-adv-x="802" 
d="M465 1460q27 0 67.5 -34.5t65.5 -65.5q17 -20 35 -43t27 -36l10 -13q10 -15 -5.5 -32t-37.5 -17q-17 0 -25 10q-30 41 -63 82q-50 65 -78 86q-7 -5 -19 -16.5t-30.5 -30.5t-34 -35.5t-41.5 -44t-41 -43.5q-5 -6 -14 -6t-15 6q-6 5 -6 13.5t6 14.5q41 43 84 88
q25 25 46.5 47t32 33.5t19 20.5t12 12t5.5 4zM299 -205q-44 0 -84.5 9.5t-80.5 33.5t-69 60.5t-47 96.5t-18 136q0 121 33.5 314.5t83.5 287.5q-9 5 -11 10q-24 49 -24 101q0 138 102 230.5t254 92.5q23 0 47 -3t61 -14.5t69.5 -31t67.5 -57t59.5 -86.5t40.5 -125.5
t16 -169.5q0 -20 -4 -78q137 55 256 182q5 6 12.5 6t13.5 -6q13 -13 0 -26q-128 -139 -289 -199q-13 -91 -39 -189t-69.5 -202.5t-97.5 -186t-128 -134t-155 -52.5zM137 768q19 40 39 53t64 13q65 0 93 -21q12 -10 5 -20q-42 -59 -74 -154q131 -82 301 -82q98 0 189 29
q6 52 6 94q0 84 -13 152.5t-33.5 114.5t-50 80.5t-58 53.5t-62 30.5t-57.5 15t-48 3.5q-136 0 -226.5 -81.5t-90.5 -204.5q0 -43 16 -76zM565 518q-172 0 -313 84q-59 -182 -72 -382.5t31 -285.5q37 -69 111 -69q75 0 147.5 68t126 173.5t92 219t57.5 219.5
q-91 -27 -180 -27z" />
    <glyph glyph-name="Otilde" unicode="&#xd5;" horiz-adv-x="802" 
d="M487 1231q-13 0 -24.5 3t-28 12.5t-20 11.5t-23.5 16q-45 33 -67 33q-23 0 -48 -25q-6 -6 -14 -6t-12 6q-6 4 -6 12t6 13q36 36 76 36q34 0 88 -40q3 -2 11 -7.5t11.5 -7.5t10 -6t10.5 -6t10 -4t11 -3t11 -1q34 0 70 39q5 6 13 6t14 -6q4 -5 4 -13t-4 -12
q-48 -51 -99 -51zM299 -205q-44 0 -84.5 9.5t-80.5 33.5t-69 60.5t-47 96.5t-18 136q0 121 33.5 314.5t83.5 287.5q-9 5 -11 10q-24 49 -24 101q0 138 102 230.5t254 92.5q23 0 47 -3t61 -14.5t69.5 -31t67.5 -57t59.5 -86.5t40.5 -125.5t16 -169.5q0 -20 -4 -78
q137 55 256 182q5 6 12.5 6t13.5 -6q13 -13 0 -26q-128 -139 -289 -199q-13 -91 -39 -189t-69.5 -202.5t-97.5 -186t-128 -134t-155 -52.5zM137 768q19 40 39 53t64 13q65 0 93 -21q12 -10 5 -20q-42 -59 -74 -154q131 -82 301 -82q98 0 189 29q6 52 6 94q0 84 -13 152.5
t-33.5 114.5t-50 80.5t-58 53.5t-62 30.5t-57.5 15t-48 3.5q-136 0 -226.5 -81.5t-90.5 -204.5q0 -43 16 -76zM565 518q-172 0 -313 84q-59 -182 -72 -382.5t31 -285.5q37 -69 111 -69q75 0 147.5 68t126 173.5t92 219t57.5 219.5q-91 -27 -180 -27z" />
    <glyph glyph-name="Odieresis" unicode="&#xd6;" horiz-adv-x="802" 
d="M401 1303q0 -31 -21 -52.5t-52 -21.5t-52.5 21.5t-21.5 52.5t21.5 52t52.5 21t52 -21t21 -52zM596 1303q0 -31 -21.5 -52.5t-52.5 -21.5t-53.5 21.5t-22.5 52.5q0 30 22.5 51.5t53.5 21.5t52.5 -21t21.5 -52zM299 -205q-44 0 -84.5 9.5t-80.5 33.5t-69 60.5t-47 96.5
t-18 136q0 121 33.5 314.5t83.5 287.5q-9 5 -11 10q-24 49 -24 101q0 138 102 230.5t254 92.5q23 0 47 -3t61 -14.5t69.5 -31t67.5 -57t59.5 -86.5t40.5 -125.5t16 -169.5q0 -20 -4 -78q137 55 256 182q5 6 12.5 6t13.5 -6q13 -13 0 -26q-128 -139 -289 -199
q-13 -91 -39 -189t-69.5 -202.5t-97.5 -186t-128 -134t-155 -52.5zM137 768q19 40 39 53t64 13q65 0 93 -21q12 -10 5 -20q-42 -59 -74 -154q131 -82 301 -82q98 0 189 29q6 52 6 94q0 84 -13 152.5t-33.5 114.5t-50 80.5t-58 53.5t-62 30.5t-57.5 15t-48 3.5
q-136 0 -226.5 -81.5t-90.5 -204.5q0 -43 16 -76zM565 518q-172 0 -313 84q-59 -182 -72 -382.5t31 -285.5q37 -69 111 -69q75 0 147.5 68t126 173.5t92 219t57.5 219.5q-91 -27 -180 -27z" />
    <glyph glyph-name="Oslash" unicode="&#xd8;" horiz-adv-x="802" 
d="M51 -217q7 29 31 96q-82 85 -82 252q0 121 33.5 314.5t83.5 287.5q-9 5 -11 10q-24 49 -24 101q0 138 102 230.5t254 92.5q71 0 131 -26q54 121 84 172q8 14 31 14t40.5 -15t8.5 -34q-47 -81 -90 -178q156 -120 156 -420q0 -20 -4 -78q137 55 256 182q5 6 12.5 6t13.5 -6
q5 -5 5.5 -12t-5.5 -12q-127 -141 -289 -201q-13 -91 -39 -189t-69.5 -202.5t-97.5 -186t-128 -134t-155 -52.5q-76 0 -141 29q-4 -10 -11.5 -32t-11.5 -32q-8 -28 -41 -28q-24 0 -38.5 14.5t-4.5 36.5zM137 768q13 22 29 45q18 21 74 21q65 0 93 -21q12 -10 5 -20
q-42 -59 -74 -154q46 -29 82 -41q111 286 209 510q-55 22 -117 22q-136 0 -226.5 -81.5t-90.5 -204.5q0 -43 16 -76zM424 573q72 -16 141 -16q98 0 189 29q6 52 6 94q0 276 -133 385q-83 -180 -203 -492zM178 152q48 135 154 411q-27 9 -80 39q-74 -222 -74 -450zM565 518
q-62 0 -155 19q-105 -277 -207 -582q31 -90 119 -90q75 0 147.5 68t126 173.5t92 219t57.5 219.5q-91 -27 -180 -27z" />
    <glyph glyph-name="Ugrave" unicode="&#xd9;" horiz-adv-x="806" 
d="M461 1221q-12 0 -17 8l-129 198q-9 12 15 26.5t47 14.5q12 0 18 -6l80 -213q11 -15 -4 -26q-4 -2 -10 -2zM530 135q0 115 17 268q-61 -162 -161 -295t-177 -133q-78 0 -143.5 77t-65.5 212q0 178 43.5 438t85.5 433q6 26 57 26q34 0 60.5 -11.5t23.5 -29.5
q-38 -162 -67 -319.5t-47 -306t-13.5 -257t35.5 -147.5q11 -16 55 -16q48 0 112 76t119.5 180.5t100.5 220.5q1 7 3 20.5t3 20.5l4 41q53 362 76 469q3 20 39 20q33 0 66 -14.5t30 -32.5q-1 -8 -15.5 -91t-25.5 -148.5t-26 -167t-25 -185.5q-26 -218 -31 -331.5t1.5 -135.5
t23.5 -22q35 0 77 85.5t64 156.5q1 7 8.5 10.5t14.5 1.5q19 -8 12 -25l-8 -22q-7 -22 -18.5 -51t-24.5 -56q-85 -196 -164 -196q-32 0 -54.5 12.5t-35 31t-19.5 52.5t-8.5 64t-1.5 77z" />
    <glyph glyph-name="Uacute" unicode="&#xda;" horiz-adv-x="806" 
d="M449 1200q-7 0 -11 4q-6 3 -8 11t2 14l80 213q6 6 18 6q23 0 47 -14.5t17 -26.5l-131 -199q-8 -8 -14 -8zM530 135q0 115 17 268q-61 -162 -161 -295t-177 -133q-78 0 -143.5 77t-65.5 212q0 178 43.5 438t85.5 433q6 26 57 26q34 0 60.5 -11.5t23.5 -29.5
q-38 -162 -67 -319.5t-47 -306t-13.5 -257t35.5 -147.5q11 -16 55 -16q48 0 112 76t119.5 180.5t100.5 220.5q1 7 3 20.5t3 20.5l4 41q53 362 76 469q3 20 39 20q33 0 66 -14.5t30 -32.5q-1 -8 -15.5 -91t-25.5 -148.5t-26 -167t-25 -185.5q-26 -218 -31 -331.5t1.5 -135.5
t23.5 -22q35 0 77 85.5t64 156.5q1 7 8.5 10.5t14.5 1.5q19 -8 12 -25l-8 -22q-7 -22 -18.5 -51t-24.5 -56q-85 -196 -164 -196q-32 0 -54.5 12.5t-35 31t-19.5 52.5t-8.5 64t-1.5 77z" />
    <glyph glyph-name="Ucircumflex" unicode="&#xdb;" horiz-adv-x="806" 
d="M442 1509q28 0 69 -33.5t67 -66.5l69 -92q12 -15 -4.5 -32t-38.5 -17q-16 0 -24 10q-26 39 -70.5 93.5t-69.5 74.5q-29 -21 -166 -170q-14 -14 -28 0q-6 5 -7 14t5 15q41 43 84 88q25 25 46 47t31.5 33.5t19 20t12 11.5t5.5 4zM530 135q0 115 17 268q-61 -162 -161 -295
t-177 -133q-78 0 -143.5 77t-65.5 212q0 178 43.5 438t85.5 433q6 26 57 26q34 0 60.5 -11.5t23.5 -29.5q-38 -162 -67 -319.5t-47 -306t-13.5 -257t35.5 -147.5q11 -16 55 -16q48 0 112 76t119.5 180.5t100.5 220.5q1 7 3 20.5t3 20.5l4 41q53 362 76 469q3 20 39 20
q33 0 66 -14.5t30 -32.5q-1 -8 -15.5 -91t-25.5 -148.5t-26 -167t-25 -185.5q-26 -218 -31 -331.5t1.5 -135.5t23.5 -22q35 0 77 85.5t64 156.5q1 7 8.5 10.5t14.5 1.5q19 -8 12 -25l-8 -22q-7 -22 -18.5 -51t-24.5 -56q-85 -196 -164 -196q-32 0 -54.5 12.5t-35 31
t-19.5 52.5t-8.5 64t-1.5 77z" />
    <glyph glyph-name="Udieresis" unicode="&#xdc;" horiz-adv-x="806" 
d="M461 1311q0 -31 -21.5 -52.5t-52.5 -21.5t-52.5 21.5t-21.5 52.5t21.5 52t52.5 21t52.5 -21t21.5 -52zM653 1311q0 -31 -21 -52.5t-52 -21.5t-52.5 21.5t-21.5 52.5t21.5 52t52.5 21t52 -21t21 -52zM530 135q0 115 17 268q-61 -162 -161 -295t-177 -133q-78 0 -143.5 77
t-65.5 212q0 178 43.5 438t85.5 433q6 26 57 26q34 0 60.5 -11.5t23.5 -29.5q-38 -162 -67 -319.5t-47 -306t-13.5 -257t35.5 -147.5q11 -16 55 -16q48 0 112 76t119.5 180.5t100.5 220.5q1 7 3 20.5t3 20.5l4 41q53 362 76 469q3 20 39 20q33 0 66 -14.5t30 -32.5
q-1 -8 -15.5 -91t-25.5 -148.5t-26 -167t-25 -185.5q-26 -218 -31 -331.5t1.5 -135.5t23.5 -22q35 0 77 85.5t64 156.5q1 7 8.5 10.5t14.5 1.5q19 -8 12 -25l-8 -22q-7 -22 -18.5 -51t-24.5 -56q-85 -196 -164 -196q-32 0 -54.5 12.5t-35 31t-19.5 52.5t-8.5 64t-1.5 77z
" />
    <glyph glyph-name="Yacute" unicode="&#xdd;" horiz-adv-x="874" 
d="M492 1161q-7 0 -11 4q-13 10 -6 25l82 215q6 6 16 6q23 0 47 -14.5t17 -26.5l-131 -199q-3 -10 -14 -10zM258 14q-86 -13 -149 26.5t-76 135.5q-31 221 78 735q4 19 28 28t54 9q31 0 49.5 -8t11.5 -22q-74 -335 -85.5 -542.5t42.5 -266.5q25 -25 59 -19q43 6 116 123.5
t138 260t119 284.5q7 110 12 174q10 156 17 207q3 23 29 34t61 11q32 0 54.5 -9t21.5 -22q-2 -20 -7.5 -89.5t-9.5 -117.5q-28 -363 -56 -609.5t-73 -445.5q22 -5 45.5 -11.5t43.5 -14t40 -15.5t35.5 -15t30.5 -14t23.5 -11.5t15.5 -8.5l8 -4q12 -9 6 -22q-7 -11 -14 -11
q-5 -3 -11 3q-3 3 -32.5 18t-87 37t-111.5 33q-36 -156 -85 -275.5t-117 -213.5t-160.5 -149.5t-208.5 -72.5q-135 -20 -248.5 55t-132.5 203q-18 122 65 227q177 219 723 275q74 307 111 725q-40 -97 -80.5 -185.5t-94 -191.5t-106 -167.5t-92.5 -70.5zM416 -145
q-441 -62 -588 -248q-72 -92 -59 -199q9 -68 59 -113t108 -60t111 -7q309 46 463 639q-19 -3 -53 -7t-41 -5z" />
    <glyph glyph-name="Thorn" unicode="&#xde;" horiz-adv-x="788" 
d="M4 -57q0 944 53 1341q1 13 20 20t44 7q31 0 55.5 -9.5t24.5 -23.5q-25 -193 -39 -535q32 73 73 143t90 135.5t103.5 105.5t103.5 40q28 0 57.5 -5.5t64 -22t61.5 -41t45 -66.5t18 -96q0 -118 -19.5 -216.5t-53.5 -169.5t-82.5 -125.5t-102 -89t-118 -57t-125 -32
t-127.5 -10.5q-5 -212 -5 -291q0 -12 -24 -19.5t-53 -7.5q-26 0 -45 7t-19 18zM150 272q101 5 184.5 48.5t147 123.5t99 207t35.5 289t-106 162q-48 0 -104.5 -49.5t-104.5 -124t-85.5 -150.5t-57.5 -139q-3 -107 -8 -367z" />
    <glyph glyph-name="germandbls" unicode="&#xdf;" horiz-adv-x="645" 
d="M387 494q0 -24 21 -66t55.5 -101.5t52.5 -101.5q92 35 162 35q20 0 20 -18q0 -8 -5.5 -13.5t-14.5 -5.5q-57 0 -148 -33q23 -54 23 -100q0 -85 -65 -149t-193 -64q-51 0 -82 26.5t-31 63.5q0 39 29.5 77t77 68t77.5 45.5t60 28.5q-10 25 -48.5 80.5t-66.5 111.5t-28 105
q0 61 28 124t67.5 117l79 108t67.5 117t28 124q0 58 -34 95.5t-60 37.5q-56 0 -122.5 -140t-119.5 -342.5t-89 -442t-36 -426.5q0 -77 6 -160.5t6 -91.5l-84 -2q-18 14 -24 71t-6 183q0 204 31.5 419t82 390.5t110 317t119.5 220t107 78.5q22 0 50.5 -9t62 -29.5t56 -64.5
t22.5 -104q0 -80 -25 -152.5t-61 -125.5t-72 -101t-61 -99.5t-25 -100.5zM438 150q-44 -19 -88.5 -43.5t-87.5 -64.5t-43 -75q0 -17 18.5 -30t38.5 -13q78 0 125.5 50t47.5 116q0 23 -11 60z" />
    <glyph glyph-name="agrave" unicode="&#xe0;" horiz-adv-x="546" 
d="M242 496q-12 0 -17 8l-129 198q-9 12 15 26.5t47 14.5q12 0 18 -6l80 -213q5 -6 3 -14t-9 -12q-2 -2 -8 -2zM389 -84q-85 0 -123 49.5t-35 149.5q-69 -113 -120 -113q-16 0 -32 4t-35.5 16t-31.5 39.5t-12 67.5q0 134 44.5 216.5t102.5 82.5q87 0 127 -68q8 31 21 68
q12 12 41 12t56 -9.5t34 -24.5q-106 -357 -55 -426q12 -15 28 -15q24 0 52 32.5t52 81t40 88t26 69.5q6 16 25 12q16 -6 12 -27q-12 -38 -32.5 -83.5t-49.5 -98.5t-65 -88t-70 -35zM109 39q25 0 62 52t71 124q9 50 14 72q0 35 -13.5 59.5t-43.5 24.5q-18 0 -41 -41
t-38.5 -96.5t-21 -110.5t10.5 -84z" />
    <glyph glyph-name="aacute" unicode="&#xe1;" horiz-adv-x="546" 
d="M184 475q-8 0 -10 2q-16 12 -6 25l80 215q6 6 18 6q23 0 47 -14.5t17 -26.5l-131 -199q-5 -8 -15 -8zM389 -84q-85 0 -123 49.5t-35 149.5q-69 -113 -120 -113q-16 0 -32 4t-35.5 16t-31.5 39.5t-12 67.5q0 134 44.5 216.5t102.5 82.5q87 0 127 -68q8 31 21 68
q12 12 41 12t56 -9.5t34 -24.5q-106 -357 -55 -426q12 -15 28 -15q24 0 52 32.5t52 81t40 88t26 69.5q6 16 25 12q16 -6 12 -27q-12 -38 -32.5 -83.5t-49.5 -98.5t-65 -88t-70 -35zM109 39q25 0 62 52t71 124q9 50 14 72q0 35 -13.5 59.5t-43.5 24.5q-18 0 -41 -41
t-38.5 -96.5t-21 -110.5t10.5 -84z" />
    <glyph glyph-name="acircumflex" unicode="&#xe2;" horiz-adv-x="546" 
d="M268 743q7 0 23.5 -8.5t46 -33t59.5 -60.5l34 -42.5t27.5 -35.5t10.5 -14q11 -16 -5.5 -32.5t-39.5 -16.5q-15 0 -25 10q0 9 -62 83t-77 85q-19 -12 -166 -168q-15 -15 -28 -2q-14 14 -3 29q1 0 12.5 12t34.5 35.5t40 40.5q24 25 45 47t31.5 33.5t18.5 20.5t11.5 12
t5.5 3q1 0 3 1t3 1zM389 -84q-85 0 -123 49.5t-35 149.5q-69 -113 -120 -113q-16 0 -32 4t-35.5 16t-31.5 39.5t-12 67.5q0 134 44.5 216.5t102.5 82.5q87 0 127 -68q8 31 21 68q12 12 41 12t56 -9.5t34 -24.5q-106 -357 -55 -426q12 -15 28 -15q24 0 52 32.5t52 81t40 88
t26 69.5q6 16 25 12q16 -6 12 -27q-12 -38 -32.5 -83.5t-49.5 -98.5t-65 -88t-70 -35zM109 39q25 0 62 52t71 124q9 50 14 72q0 35 -13.5 59.5t-43.5 24.5q-18 0 -41 -41t-38.5 -96.5t-21 -110.5t10.5 -84z" />
    <glyph glyph-name="atilde" unicode="&#xe3;" horiz-adv-x="546" 
d="M328 514q-43 0 -97 43q-49 33 -67 33q-22 0 -49 -27q-5 -5 -13 -5t-12 5q-6 6 -6 14.5t6 12.5q37 37 74 37q35 0 90 -41q3 -2 10.5 -7.5t10.5 -8t9.5 -6.5t11 -6t10 -4.5t11 -3.5t11.5 -1q30 0 71 41q5 6 12.5 6t12.5 -6q6 -4 6.5 -12.5t-4.5 -12.5q-48 -51 -98 -51z
M389 -84q-85 0 -123 49.5t-35 149.5q-69 -113 -120 -113q-16 0 -32 4t-35.5 16t-31.5 39.5t-12 67.5q0 134 44.5 216.5t102.5 82.5q87 0 127 -68q8 31 21 68q12 12 41 12t56 -9.5t34 -24.5q-106 -357 -55 -426q12 -15 28 -15q24 0 52 32.5t52 81t40 88t26 69.5q6 16 25 12
q16 -6 12 -27q-12 -38 -32.5 -83.5t-49.5 -98.5t-65 -88t-70 -35zM109 39q25 0 62 52t71 124q9 50 14 72q0 35 -13.5 59.5t-43.5 24.5q-18 0 -41 -41t-38.5 -96.5t-21 -110.5t10.5 -84z" />
    <glyph glyph-name="adieresis" unicode="&#xe4;" horiz-adv-x="546" 
d="M252 578q0 -31 -21.5 -52.5t-52.5 -21.5t-52.5 21.5t-21.5 52.5t21.5 53t52.5 22t52.5 -22t21.5 -53zM446 578q0 -31 -22 -52.5t-53 -21.5t-52.5 21.5t-21.5 52.5t21.5 53t52.5 22t53 -22t22 -53zM389 -84q-85 0 -123 49.5t-35 149.5q-69 -113 -120 -113q-16 0 -32 4
t-35.5 16t-31.5 39.5t-12 67.5q0 134 44.5 216.5t102.5 82.5q87 0 127 -68q8 31 21 68q12 12 41 12t56 -9.5t34 -24.5q-106 -357 -55 -426q12 -15 28 -15q24 0 52 32.5t52 81t40 88t26 69.5q6 16 25 12q16 -6 12 -27q-12 -38 -32.5 -83.5t-49.5 -98.5t-65 -88t-70 -35z
M109 39q25 0 62 52t71 124q9 50 14 72q0 35 -13.5 59.5t-43.5 24.5q-18 0 -41 -41t-38.5 -96.5t-21 -110.5t10.5 -84z" />
    <glyph glyph-name="aring" unicode="&#xe5;" horiz-adv-x="546" 
d="M283 518q-38 0 -69.5 28.5t-31.5 71.5q0 37 28 69t66 32q37 0 65 -30.5t28 -70.5q0 -39 -24 -69.5t-62 -30.5zM276 670q-18 0 -31.5 -17t-13.5 -35q0 -23 17 -37t35 -14q16 0 26 15.5t10 35.5t-13 36t-30 16zM389 -84q-85 0 -123 49.5t-35 149.5q-69 -113 -120 -113
q-16 0 -32 4t-35.5 16t-31.5 39.5t-12 67.5q0 134 44.5 216.5t102.5 82.5q87 0 127 -68q8 31 21 68q12 12 41 12t56 -9.5t34 -24.5q-106 -357 -55 -426q12 -15 28 -15q24 0 52 32.5t52 81t40 88t26 69.5q6 16 25 12q16 -6 12 -27q-12 -38 -32.5 -83.5t-49.5 -98.5t-65 -88
t-70 -35zM109 39q25 0 62 52t71 124q9 50 14 72q0 35 -13.5 59.5t-43.5 24.5q-18 0 -41 -41t-38.5 -96.5t-21 -110.5t10.5 -84z" />
    <glyph glyph-name="ae" unicode="&#xe6;" horiz-adv-x="665" 
d="M469 -96q-37 0 -74.5 13.5t-71 39.5t-54.5 73t-21 107q-82 -135 -137 -135q-16 0 -32 4t-35.5 16t-31.5 39.5t-12 67.5q0 134 44.5 216.5t102.5 82.5q98 0 134 -80q19 50 48.5 85t60.5 51.5t55.5 23t46.5 6.5q33 0 65.5 -30t32.5 -85q0 -68 -16.5 -115t-43.5 -68.5
t-51 -29.5t-49 -8q-37 0 -57 23q-2 -29 -2 -97q0 -66 25.5 -114.5t72.5 -48.5q36 0 73.5 33t66.5 83.5t49 94t32 81.5q2 8 9 12t14 1q7 -1 10.5 -8.5t1.5 -14.5q-4 -12 -13.5 -39t-34 -78.5t-53 -94t-70.5 -75t-85 -32.5zM381 274q4 -59 49 -59q16 0 36.5 18t39 62.5
t18.5 103.5q0 36 -9.5 57t-22.5 21q-12 0 -25 -9.5t-29 -30t-31.5 -63t-25.5 -100.5zM109 39q28 0 70 63t75 138q4 34 8 49q-3 33 -19.5 57.5t-43.5 24.5q-18 0 -41 -41t-38.5 -96.5t-21 -110.5t10.5 -84z" />
    <glyph glyph-name="ccedilla" unicode="&#xe7;" horiz-adv-x="493" 
d="M377 371q-2 -22 -12.5 -31.5t-36.5 -9.5q-13 0 -23 11.5t-10 25.5t8 31t23 24q-17 24 -58 24q-58 0 -100.5 -72t-42.5 -206q0 -33 7.5 -66.5t24.5 -67.5t50.5 -55.5t79.5 -21.5q53 0 104 50t80.5 108.5t46.5 115.5q3 8 10.5 12t14.5 1q7 -1 10.5 -8.5t1.5 -14.5
q-13 -39 -29 -75.5t-40 -77.5t-50.5 -72.5t-62.5 -54.5t-74 -29q-3 -11 -12 -39t-11 -39q35 10 66 10q51 0 86 -36.5t35 -90.5q0 -38 -20 -66.5t-52.5 -44t-67 -23t-69.5 -7.5q-8 0 -13 5t-5 13t5.5 13.5t12.5 5.5q52 0 91.5 33.5t39.5 85.5q0 30 -20 54t-41 24
q-26 0 -46.5 -8.5t-27.5 -8.5t-12 10q-5 20 14 80q1 4 4 13.5t4 13.5q-110 6 -184 79.5t-74 176.5q0 85 28.5 150t71.5 99.5t85.5 51t80.5 16.5q51 0 80 -36t29 -76z" />
    <glyph glyph-name="egrave" unicode="&#xe8;" 
d="M264 578q-8 0 -16 8l-129 200q-9 12 13.5 26.5t45.5 14.5q16 0 21 -8l80 -213q5 -6 2.5 -13.5t-9.5 -10.5q-4 -4 -8 -4zM223 -96q-37 0 -74.5 13.5t-71 39.5t-54.5 73t-21 107q0 79 13 142.5t35.5 103t48 67t54.5 41t51 18.5t42 5q32 0 65 -30t33 -85q0 -68 -16.5 -115
t-43.5 -68.5t-51 -29.5t-49 -8q-37 0 -57 23q-4 -58 -4 -97q0 -65 26.5 -114t73.5 -49q36 0 73.5 33t66 83t48.5 94.5t31 81.5q3 8 10.5 12t14.5 1q7 -1 10.5 -8.5t1.5 -14.5q-3 -12 -13.5 -39.5t-35 -78.5t-53 -93.5t-70 -75t-84.5 -32.5zM135 274q4 -59 49 -59
q11 0 26.5 11t31 32t26.5 58.5t11 82.5q0 36 -10 57t-23 21q-12 0 -25.5 -9.5t-29.5 -30t-31 -63t-25 -100.5z" />
    <glyph glyph-name="eacute" unicode="&#xe9;" 
d="M137 559q-6 0 -10 2q-6 5 -7 13t3 14l80 213q6 6 18 6q23 0 47 -14.5t15 -26.5l-129 -199q-5 -8 -17 -8zM223 -96q-37 0 -74.5 13.5t-71 39.5t-54.5 73t-21 107q0 79 13 142.5t35.5 103t48 67t54.5 41t51 18.5t42 5q32 0 65 -30t33 -85q0 -68 -16.5 -115t-43.5 -68.5
t-51 -29.5t-49 -8q-37 0 -57 23q-4 -58 -4 -97q0 -65 26.5 -114t73.5 -49q36 0 73.5 33t66 83t48.5 94.5t31 81.5q3 8 10.5 12t14.5 1q7 -1 10.5 -8.5t1.5 -14.5q-3 -12 -13.5 -39.5t-35 -78.5t-53 -93.5t-70 -75t-84.5 -32.5zM135 274q4 -59 49 -59q11 0 26.5 11t31 32
t26.5 58.5t11 82.5q0 36 -10 57t-23 21q-12 0 -25.5 -9.5t-29.5 -30t-31 -63t-25 -100.5z" />
    <glyph glyph-name="ecircumflex" unicode="&#xea;" 
d="M217 795q27 0 67.5 -34.5t65.5 -66.5q17 -20 35 -43t27 -36l10 -13q10 -15 -5.5 -32t-37.5 -17q-17 0 -25 10q-30 41 -63 82q-50 65 -78 86q-7 -5 -19.5 -16.5t-30.5 -30t-34 -36t-41 -44t-41 -43.5q-4 -6 -13.5 -6t-15.5 6q-14 15 0 29q41 43 84 88q25 25 46.5 47
t32 33.5t19 20.5t12 12t5.5 4zM223 -96q-37 0 -74.5 13.5t-71 39.5t-54.5 73t-21 107q0 79 13 142.5t35.5 103t48 67t54.5 41t51 18.5t42 5q32 0 65 -30t33 -85q0 -68 -16.5 -115t-43.5 -68.5t-51 -29.5t-49 -8q-37 0 -57 23q-4 -58 -4 -97q0 -65 26.5 -114t73.5 -49
q36 0 73.5 33t66 83t48.5 94.5t31 81.5q3 8 10.5 12t14.5 1q7 -1 10.5 -8.5t1.5 -14.5q-3 -12 -13.5 -39.5t-35 -78.5t-53 -93.5t-70 -75t-84.5 -32.5zM135 274q4 -59 49 -59q11 0 26.5 11t31 32t26.5 58.5t11 82.5q0 36 -10 57t-23 21q-12 0 -25.5 -9.5t-29.5 -30t-31 -63
t-25 -100.5z" />
    <glyph glyph-name="edieresis" unicode="&#xeb;" 
d="M186 647q0 -31 -21 -52.5t-52 -21.5t-52.5 21.5t-21.5 52.5t21.5 53.5t52.5 22.5q30 0 51.5 -22.5t21.5 -53.5zM381 647q0 -31 -21.5 -52.5t-52.5 -21.5t-52.5 21.5t-21.5 52.5t21.5 53.5t52.5 22.5t52.5 -22.5t21.5 -53.5zM223 -96q-37 0 -74.5 13.5t-71 39.5t-54.5 73
t-21 107q0 79 13 142.5t35.5 103t48 67t54.5 41t51 18.5t42 5q32 0 65 -30t33 -85q0 -68 -16.5 -115t-43.5 -68.5t-51 -29.5t-49 -8q-37 0 -57 23q-4 -58 -4 -97q0 -65 26.5 -114t73.5 -49q36 0 73.5 33t66 83t48.5 94.5t31 81.5q3 8 10.5 12t14.5 1q7 -1 10.5 -8.5
t1.5 -14.5q-3 -12 -13.5 -39.5t-35 -78.5t-53 -93.5t-70 -75t-84.5 -32.5zM135 274q4 -59 49 -59q11 0 26.5 11t31 32t26.5 58.5t11 82.5q0 36 -10 57t-23 21q-12 0 -25.5 -9.5t-29.5 -30t-31 -63t-25 -100.5z" />
    <glyph glyph-name="igrave" unicode="&#xec;" horiz-adv-x="237" 
d="M182 492q-11 0 -14 8l-131 198q-7 12 16 26.5t45 14.5q13 0 19 -6l82 -213q8 -16 -6 -26q-2 -2 -11 -2zM109 16q84 0 153 217q6 13 19 13q9 0 14 -8t2 -17q-73 -241 -188 -241q-36 0 -62 9.5t-38 21t-18.5 29t-7.5 26t-1 20.5q0 81 17.5 199t29.5 141q6 6 39.5 1t42.5 -9
q16 -6 8 -25q-10 -33 -24.5 -117.5t-15.5 -172t30 -87.5z" />
    <glyph glyph-name="iacute" unicode="&#xed;" horiz-adv-x="237" 
d="M55 506q-8 0 -10 2q-6 5 -8 13t2 14l80 213q6 6 18 6q23 0 47 -14.5t17 -26.5l-131 -199q-5 -8 -15 -8zM109 16q84 0 153 217q6 13 19 13q9 0 14 -8t2 -17q-73 -241 -188 -241q-36 0 -62 9.5t-38 21t-18.5 29t-7.5 26t-1 20.5q0 81 17.5 199t29.5 141q6 6 39.5 1t42.5 -9
q16 -6 8 -25q-10 -33 -24.5 -117.5t-15.5 -172t30 -87.5z" />
    <glyph glyph-name="icircumflex" unicode="&#xee;" horiz-adv-x="237" 
d="M106 674q34 0 99 -72l51 -67q7 -10 -5 -22.5t-26 -12.5q-13 0 -18 8q-22 28 -45 59q-42 51 -58 62q-11 -7 -118 -123q-4 -4 -11 -4t-12 4q-10 10 0 20q33 31 62 64q73 84 81 84zM109 16q84 0 153 217q6 13 19 13q9 0 14 -8t2 -17q-73 -241 -188 -241q-36 0 -62 9.5
t-38 21t-18.5 29t-7.5 26t-1 20.5q0 81 17.5 199t29.5 141q6 6 39.5 1t42.5 -9q16 -6 8 -25q-10 -33 -24.5 -117.5t-15.5 -172t30 -87.5z" />
    <glyph glyph-name="idieresis" unicode="&#xef;" horiz-adv-x="237" 
d="M84 563q0 -23 -16 -39t-39 -16t-39.5 16t-16.5 39t16 38t40 15q23 0 39 -15t16 -38zM225 563q0 -23 -15.5 -39t-37.5 -16q-23 0 -39 16t-16 39t16 38t39 15q22 0 37.5 -15t15.5 -38zM109 16q84 0 153 217q6 13 19 13q9 0 14 -8t2 -17q-73 -241 -188 -241q-36 0 -62 9.5
t-38 21t-18.5 29t-7.5 26t-1 20.5q0 81 17.5 199t29.5 141q6 6 39.5 1t42.5 -9q16 -6 8 -25q-10 -33 -24.5 -117.5t-15.5 -172t30 -87.5z" />
    <glyph glyph-name="eth" unicode="&#xf0;" horiz-adv-x="915" 
d="M375 -102q-143 0 -238.5 122.5t-95.5 346.5q0 163 104.5 270.5t260.5 107.5q154 0 262 -151q-17 207 -78 350q-91 -46 -197 -90q-9 -5 -17 6.5t-8.5 24.5t7.5 20q107 52 190 90q-89 162 -227 162q-8 0 -13.5 5.5t-5.5 13.5q0 7 5.5 12.5t13.5 5.5q26 0 57 -5t79 -18.5
t101.5 -46.5t98.5 -82q93 36 160 64q9 4 18 -8.5t9 -26t-9 -18.5q-70 -26 -143 -56q143 -197 143 -565q0 -119 -30.5 -213.5t-79 -153t-113 -97.5t-127.5 -54.5t-127 -15.5zM672 516q-8 18 -25 42.5t-50.5 62t-84 63t-106.5 25.5q-87 0 -152.5 -51.5t-97 -128t-31.5 -162.5
q0 -203 66 -318t184 -115q134 0 216.5 132.5t82.5 347.5q0 69 -2 102z" />
    <glyph glyph-name="ntilde" unicode="&#xf1;" horiz-adv-x="634" 
d="M428 549q-9 0 -18.5 2t-16 4t-17.5 8.5t-14.5 8t-17 10.5t-14.5 10q-45 33 -66 33q-24 0 -49 -25q-13 -14 -27 0q-4 4 -4 12t4 13q37 37 76 37q33 0 88 -41q52 -35 76 -35q34 0 70 39q12 12 26 2q13 -17 0 -27q-48 -51 -96 -51zM428 -113q28 0 65 42t70 102t58 114.5
t38 90.5q2 6 9 9.5t14 2.5q19 -8 12 -25q-24 -73 -51 -129q-33 -65 -67 -118t-79 -96.5t-81 -43.5q-56 0 -89.5 39t-33.5 107q0 146 65 348q33 123 25 136q-1 3 -4 3q-26 0 -50.5 -15t-46.5 -47t-39 -62t-36 -79t-29 -77.5t-26 -77.5q-37 -106 -46 -118q-7 -9 -16 -9
q-21 0 -42.5 11t-31.5 28q-14 21 -15.5 97t5.5 155t17 139q3 14 32 14q22 0 45 -8t23 -17q-3 -68 -19 -194.5t-14 -157.5q7 16 25 72q17 53 29 86.5t32 85t40 84t45 65t55 48.5t63 16q7 0 15.5 -2.5t22 -8.5t23.5 -20t17.5 -33.5t7.5 -52t-10 -72.5q-1 -4 -7.5 -29.5
t-8.5 -33.5t-8.5 -33t-9 -36.5t-7.5 -35.5t-7.5 -38.5t-6 -36.5t-5 -39t-3 -36.5t-1.5 -37.5q0 -76 37 -76z" />
    <glyph glyph-name="ograve" unicode="&#xf2;" horiz-adv-x="415" 
d="M270 494q-11 0 -16 8l-129 198q-9 12 14.5 26.5t46.5 14.5q13 0 19 -6l80 -215q10 -13 -4 -24q-4 -2 -11 -2zM344 61q-10 0 -45 5q-71 -121 -172 -121q-29 0 -58.5 13t-54 46.5t-24.5 79.5q0 111 57 225q7 15 43 15q34 0 45 -7q16 49 51.5 74t71.5 25q46 0 76.5 -34.5
t30.5 -86.5q0 -91 -48 -193q6 -2 17 -2q64 0 99.5 31t60.5 109q9 21 26 18q19 -7 12 -27q-22 -82 -71 -126t-117 -44zM281 113q45 89 45 182q0 33 -18 57.5t-50 24.5q-36 0 -62 -34t-26 -93q0 -37 32.5 -78t78.5 -59zM262 76q-60 22 -98 70t-41 96q-59 -165 -25 -217
q16 -25 54 -25q59 0 110 76z" />
    <glyph glyph-name="oacute" unicode="&#xf3;" horiz-adv-x="415" 
d="M139 477q-6 0 -10 4q-6 3 -7.5 11t1.5 14l80 213q5 8 20 8q23 0 46 -14.5t16 -26.5l-131 -201q-4 -8 -15 -8zM344 61q-10 0 -45 5q-71 -121 -172 -121q-29 0 -58.5 13t-54 46.5t-24.5 79.5q0 111 57 225q7 15 43 15q34 0 45 -7q16 49 51.5 74t71.5 25q46 0 76.5 -34.5
t30.5 -86.5q0 -91 -48 -193q6 -2 17 -2q64 0 99.5 31t60.5 109q9 21 26 18q19 -7 12 -27q-22 -82 -71 -126t-117 -44zM281 113q45 89 45 182q0 33 -18 57.5t-50 24.5q-36 0 -62 -34t-26 -93q0 -37 32.5 -78t78.5 -59zM262 76q-60 22 -98 70t-41 96q-59 -165 -25 -217
q16 -25 54 -25q59 0 110 76z" />
    <glyph glyph-name="ocircumflex" unicode="&#xf4;" horiz-adv-x="415" 
d="M209 653q35 0 98 -71l51 -68q7 -10 -4.5 -22.5t-25.5 -12.5t-19 8q-22 29 -45 60q-41 50 -57 61q-14 -9 -119 -123q-4 -5 -10.5 -5t-9.5 5q-5 3 -5.5 9.5t3.5 11.5q32 30 61 63q73 84 82 84zM344 61q-10 0 -45 5q-71 -121 -172 -121q-29 0 -58.5 13t-54 46.5t-24.5 79.5
q0 111 57 225q7 15 43 15q34 0 45 -7q16 49 51.5 74t71.5 25q46 0 76.5 -34.5t30.5 -86.5q0 -91 -48 -193q6 -2 17 -2q64 0 99.5 31t60.5 109q9 21 26 18q19 -7 12 -27q-22 -82 -71 -126t-117 -44zM281 113q45 89 45 182q0 33 -18 57.5t-50 24.5q-36 0 -62 -34t-26 -93
q0 -37 32.5 -78t78.5 -59zM262 76q-60 22 -98 70t-41 96q-59 -165 -25 -217q16 -25 54 -25q59 0 110 76z" />
    <glyph glyph-name="otilde" unicode="&#xf5;" horiz-adv-x="415" 
d="M303 487q-13 0 -24.5 3t-28 12.5t-20 11.5t-23.5 16q-45 33 -68 33q-25 0 -49 -24q-4 -6 -12 -6t-12 6q-6 5 -6 12t6 12q37 37 73 37q33 0 88 -41q52 -35 76 -35q34 0 70 39q6 6 13.5 6t12.5 -6q6 -4 6.5 -12t-4.5 -12q-49 -52 -98 -52zM344 61q-10 0 -45 5
q-71 -121 -172 -121q-29 0 -58.5 13t-54 46.5t-24.5 79.5q0 111 57 225q7 15 43 15q34 0 45 -7q16 49 51.5 74t71.5 25q46 0 76.5 -34.5t30.5 -86.5q0 -91 -48 -193q6 -2 17 -2q64 0 99.5 31t60.5 109q9 21 26 18q19 -7 12 -27q-22 -82 -71 -126t-117 -44zM281 113
q45 89 45 182q0 33 -18 57.5t-50 24.5q-36 0 -62 -34t-26 -93q0 -37 32.5 -78t78.5 -59zM262 76q-60 22 -98 70t-41 96q-59 -165 -25 -217q16 -25 54 -25q59 0 110 76z" />
    <glyph glyph-name="odieresis" unicode="&#xf6;" horiz-adv-x="415" 
d="M207 563q0 -23 -16 -39t-39 -16t-38.5 16t-15.5 39t15.5 38t38.5 15t39 -15t16 -38zM348 563q0 -23 -15.5 -39t-37.5 -16q-23 0 -39 16t-16 39t16 38t39 15q22 0 37.5 -15t15.5 -38zM344 61q-10 0 -45 5q-71 -121 -172 -121q-29 0 -58.5 13t-54 46.5t-24.5 79.5
q0 111 57 225q7 15 43 15q34 0 45 -7q16 49 51.5 74t71.5 25q46 0 76.5 -34.5t30.5 -86.5q0 -91 -48 -193q6 -2 17 -2q64 0 99.5 31t60.5 109q9 21 26 18q19 -7 12 -27q-22 -82 -71 -126t-117 -44zM281 113q45 89 45 182q0 33 -18 57.5t-50 24.5q-36 0 -62 -34t-26 -93
q0 -37 32.5 -78t78.5 -59zM262 76q-60 22 -98 70t-41 96q-59 -165 -25 -217q16 -25 54 -25q59 0 110 76z" />
    <glyph glyph-name="oslash" unicode="&#xf8;" horiz-adv-x="415" 
d="M16 -145q6 22 37 112q-63 36 -63 117q0 111 57 225q7 15 43 15q34 0 45 -7q14 43 44.5 68.5t62.5 30.5q73 143 133 246q10 18 28 18q12 0 16.5 -10t-3.5 -27q-101 -183 -127 -231q34 -11 55 -43t21 -74q0 -91 -48 -193q6 -2 17 -2q64 0 100 31t62 109q2 8 9.5 13.5
t14.5 4.5q18 -7 15 -27q-23 -82 -73 -126t-118 -44q-10 0 -45 5q-71 -121 -172 -121q-9 0 -29 4q-5 -15 -17 -48.5t-18 -52.5q-4 -17 -14 -26.5t-20 -9.5q-12 0 -16.5 10.5t3.5 32.5zM281 113q45 89 45 182q0 30 -15 53t-41 27q-47 -88 -84 -182q30 -55 95 -80zM170 260
q7 18 47 105q-44 -32 -47 -105zM88 61q6 18 14.5 39t19 46.5t15.5 39.5q-10 22 -14 56q-43 -114 -35 -181zM262 76q-54 19 -96 67q-5 -15 -21 -61t-26 -76q12 -6 33 -6q59 0 110 76z" />
    <glyph glyph-name="ugrave" unicode="&#xf9;" 
d="M264 506q-11 0 -16 8l-129 199q-9 12 14.5 26.5t46.5 14.5q13 0 19 -6l80 -213q4 -6 2.5 -14t-7.5 -13q-4 -2 -10 -2zM92 -20q-31 0 -61.5 33.5t-30.5 92.5q0 25 2.5 54.5t7.5 59t10 56.5t11 54.5t10.5 45l9 35t4.5 19.5q3 10 17 10q21 0 45.5 -16.5t21.5 -30.5
q-36 -141 -47.5 -252t6.5 -116q14 1 59.5 71t82.5 144q11 62 43 190q3 10 16 10q21 0 46 -16.5t22 -30.5q-20 -78 -32 -140t-16.5 -115.5t4.5 -83t33 -29.5q21 -2 50 18.5t49 60.5q29 53 51 132q8 15 24 12q17 -7 13 -25q-80 -243 -203 -243q-45 0 -79 32.5t-34 93.5v33
q-90 -159 -135 -159z" />
    <glyph glyph-name="uacute" unicode="&#xfa;" 
d="M145 528q-6 0 -10 2q-14 10 -4 27l80 213q6 6 18 6q23 0 46 -14.5t16 -26.5l-129 -198q-6 -9 -17 -9zM92 -20q-31 0 -61.5 33.5t-30.5 92.5q0 25 2.5 54.5t7.5 59t10 56.5t11 54.5t10.5 45l9 35t4.5 19.5q3 10 17 10q21 0 45.5 -16.5t21.5 -30.5q-36 -141 -47.5 -252
t6.5 -116q14 1 59.5 71t82.5 144q11 62 43 190q3 10 16 10q21 0 46 -16.5t22 -30.5q-20 -78 -32 -140t-16.5 -115.5t4.5 -83t33 -29.5q21 -2 50 18.5t49 60.5q29 53 51 132q8 15 24 12q17 -7 13 -25q-80 -243 -203 -243q-45 0 -79 32.5t-34 93.5v33q-90 -159 -135 -159z" />
    <glyph glyph-name="ucircumflex" unicode="&#xfb;" 
d="M209 653q35 0 98 -71l51 -68q7 -10 -4.5 -22.5t-25.5 -12.5t-19 8q-22 29 -45 60q-41 50 -57 61q-14 -9 -119 -123q-4 -5 -10.5 -5t-9.5 5q-5 3 -5.5 9.5t3.5 11.5q32 30 61 63q73 84 82 84zM92 -20q-31 0 -61.5 33.5t-30.5 92.5q0 25 2.5 54.5t7.5 59t10 56.5t11 54.5
t10.5 45l9 35t4.5 19.5q3 10 17 10q21 0 45.5 -16.5t21.5 -30.5q-36 -141 -47.5 -252t6.5 -116q14 1 59.5 71t82.5 144q11 62 43 190q3 10 16 10q21 0 46 -16.5t22 -30.5q-20 -78 -32 -140t-16.5 -115.5t4.5 -83t33 -29.5q21 -2 50 18.5t49 60.5q29 53 51 132q8 15 24 12
q17 -7 13 -25q-80 -243 -203 -243q-45 0 -79 32.5t-34 93.5v33q-90 -159 -135 -159z" />
    <glyph glyph-name="udieresis" unicode="&#xfc;" 
d="M207 563q0 -23 -16 -39t-39 -16t-38.5 16t-15.5 39t15.5 38t38.5 15t39 -15t16 -38zM348 563q0 -23 -15.5 -39t-37.5 -16q-23 0 -39 16t-16 39t16 38t39 15q22 0 37.5 -15t15.5 -38zM92 -20q-31 0 -61.5 33.5t-30.5 92.5q0 25 2.5 54.5t7.5 59t10 56.5t11 54.5t10.5 45
l9 35t4.5 19.5q3 10 17 10q21 0 45.5 -16.5t21.5 -30.5q-36 -141 -47.5 -252t6.5 -116q14 1 59.5 71t82.5 144q11 62 43 190q3 10 16 10q21 0 46 -16.5t22 -30.5q-20 -78 -32 -140t-16.5 -115.5t4.5 -83t33 -29.5q21 -2 50 18.5t49 60.5q29 53 51 132q8 15 24 12
q17 -7 13 -25q-80 -243 -203 -243q-45 0 -79 32.5t-34 93.5v33q-90 -159 -135 -159z" />
    <glyph glyph-name="yacute" unicode="&#xfd;" horiz-adv-x="481" 
d="M176 420q-6 0 -10 2q-14 11 -6 27l82 213q6 6 18 6q23 0 46 -14.5t16 -26.5l-132 -199q-3 -8 -14 -8zM332 397q1 7 13 12t26 5q22 0 39 -8t16 -21q-1 -3 -4 -46t-10 -106t-17 -141.5t-28.5 -174.5t-40.5 -183q192 259 276 499q3 13 16 13q11 0 17 -8t2 -17
q-24 -73 -51 -129q-49 -103 -141 -247.5t-144 -198.5q-159 -527 -457 -527q-46 0 -83 37t-37 94q0 155 436 373q87 249 151 627q-157 -260 -235 -260q-28 0 -59 29t-31 81q0 55 33 151.5t49 129.5q6 14 32 14q20 0 34.5 -8.5t10.5 -19.5q-34 -85 -60.5 -183.5t-8.5 -124.5
q3 -10 20 -10q34 0 102.5 94.5t127.5 206.5q6 27 6 47zM139 -434q-63 -32 -122 -67.5t-120.5 -79.5t-99 -89t-37.5 -82q0 -33 15.5 -50t36.5 -17q184 0 327 385z" />
    <glyph glyph-name="thorn" unicode="&#xfe;" horiz-adv-x="548" 
d="M43 -616q-25 137 -30.5 396t5.5 514t33.5 472t48.5 281q5 16 43 16q20 0 42 -5.5t35 -13.5t9 -16q-29 -71 -57.5 -320t-42.5 -540q107 262 250 262q60 0 93.5 -33.5t33.5 -83.5q0 -83 -49 -157q55 11 79.5 31.5t43.5 80.5q2 8 9.5 13t14.5 4q16 -6 12 -25
q-19 -70 -63.5 -104t-124.5 -39q-50 -56 -114.5 -89.5t-123.5 -33.5q-43 0 -67 16q-14 -431 22 -626q0 -23 -45 -23q-50 0 -57 23zM416 313q0 22 -12 35.5t-22 16t-20 2.5q-64 0 -120 -74.5t-97 -188.5q58 32 209 39q62 92 62 170zM330 111q-64 -3 -110 -14t-64.5 -22.5
t-18.5 -21.5q0 -22 53 -22q71 0 140 80z" />
    <glyph glyph-name="ydieresis" unicode="&#xff;" horiz-adv-x="481" 
d="M207 522q0 -23 -16 -39t-39 -16t-38.5 16t-15.5 39t15.5 38t38.5 15t39 -15t16 -38zM348 522q0 -23 -15.5 -39t-37.5 -16q-23 0 -39 16t-16 39t16 38t39 15q22 0 37.5 -15t15.5 -38zM332 397q1 7 13 12t26 5q22 0 39 -8t16 -21q-1 -3 -4 -46t-10 -106t-17 -141.5
t-28.5 -174.5t-40.5 -183q192 259 276 499q3 13 16 13q11 0 17 -8t2 -17q-24 -73 -51 -129q-49 -103 -141 -247.5t-144 -198.5q-159 -527 -457 -527q-46 0 -83 37t-37 94q0 155 436 373q87 249 151 627q-157 -260 -235 -260q-28 0 -59 29t-31 81q0 55 33 151.5t49 129.5
q6 14 32 14q20 0 34.5 -8.5t10.5 -19.5q-34 -85 -60.5 -183.5t-8.5 -124.5q3 -10 20 -10q34 0 102.5 94.5t127.5 206.5q6 27 6 47zM139 -434q-63 -32 -122 -67.5t-120.5 -79.5t-99 -89t-37.5 -82q0 -33 15.5 -50t36.5 -17q184 0 327 385z" />
    <glyph glyph-name="Dcroat" unicode="&#x110;" horiz-adv-x="1089" 
d="M106 39q-4 86 7 383q-14 0 -35.5 -1t-28.5 -1q-16 -3 -20 16q0 18 16 21q10 1 34 2t36 2q3 79 7 169t7.5 161.5t6.5 132t5 94.5t2 35q3 20 56 20q22 0 42 -4t33.5 -12t12.5 -19q0 -9 -13 -178q23 47 48 88.5t60 83.5t73 71.5t86.5 48.5t99.5 19q34 0 77.5 -10.5t98 -40
t98.5 -74.5t74.5 -123.5t30.5 -177.5q0 -299 -96 -538q190 39 204 39q7 1 13 -4t8 -13q0 -20 -16 -20q-2 0 -43 -7.5t-98 -18.5t-87 -19q-73 -157 -185 -266.5t-236 -160t-253 -50.5q-86 0 -144 39.5t-58 121.5q0 89 123 160q-43 7 -46 31zM858 791q0 153 -59.5 235
t-169.5 82q-56 0 -108.5 -25t-90 -62.5t-71.5 -89.5t-55 -96t-38 -92q-6 -88 -22 -280q165 -4 217 -17q18 -4 14 -22q-3 -14 -22 -14q-52 14 -211 14q-25 -310 -33 -387q161 74 528 137q121 261 121 617zM715 133q-48 -11 -80 -18t-84 -19t-88 -22t-84.5 -24t-83 -27.5
t-73 -29t-64.5 -32t-48 -34.5t-33 -38t-11 -41q0 -46 26.5 -74.5t61 -38t77.5 -9.5q75 0 149.5 36.5t136 98t110.5 129.5t88 143z" />
    <glyph glyph-name="dcroat" unicode="&#x111;" horiz-adv-x="655" 
d="M117 -20q-49 0 -83 36t-34 93q0 155 60 243t165 88q41 0 70 -32q9 173 42 339.5t81 294.5q-18 -1 -54.5 -2t-50.5 -2q-9 -1 -14.5 4t-5.5 13q-3 16 16 20q58 4 123 4q86 199 172 199q25 0 50.5 -37t25.5 -106q0 -32 -6 -62q7 -1 51 -8q8 -2 11.5 -9t0.5 -14
q-2 -14 -22 -14q-12 4 -51 8q-11 -38 -30 -83t-40.5 -87t-44 -82.5t-44.5 -75.5t-38.5 -61t-28.5 -43l-12 -18q-16 -141 -16 -281q0 -84 5.5 -147.5t13 -98.5t18.5 -57t20 -28.5t18 -6.5q47 0 81 37.5t63 101.5q33 73 51 127q3 13 16 13q10 0 16 -8t3 -17l-7 -22
q-8 -22 -19.5 -51t-24.5 -56q-71 -162 -183 -162q-29 0 -55 11.5t-53.5 39t-47.5 84.5t-28 138q-42 -91 -89.5 -157t-90.5 -66zM616 1217q-24 -17 -71 -138q32 0 90 -4q8 46 8 60q0 35 -7.5 57.5t-19.5 24.5zM438 672q143 235 187 366q-58 4 -95 4q-58 -164 -92 -370z
M293 283v22v45q-15 43 -51 43q-16 0 -38 -18.5t-45 -53t-39 -96t-16 -135.5q0 -28 11 -41.5t24 -13.5q19 0 64 73.5t90 174.5z" />
    <glyph glyph-name="dotlessi" unicode="&#x131;" horiz-adv-x="237" 
d="M109 16q84 0 153 217q6 13 19 13q9 0 14 -8t2 -17q-73 -241 -188 -241q-36 0 -62 9.5t-38 21t-18.5 29t-7.5 26t-1 20.5q0 81 17.5 199t29.5 141q6 6 39.5 1t42.5 -9q16 -6 8 -25q-10 -33 -24.5 -117.5t-15.5 -172t30 -87.5z" />
    <glyph glyph-name="Lslash" unicode="&#x141;" horiz-adv-x="751" 
d="M102 -195q-7 0 -14 7q-12 12 2 26q25 21 51 29q-11 93 -14 344q-44 0 -80 -4q-20 0 -20 16q-2 8 3.5 14.5t12.5 6.5q40 4 82 4q0 128 2 196q-51 39 -87.5 119.5t-33.5 141.5q0 16 19 16q7 0 12.5 -5.5t5.5 -13.5q-1 -45 24.5 -105t61.5 -101q15 504 121 659
q19 28 61 49.5t105 18.5q61 -1 98.5 -89.5t32.5 -215.5q-4 -99 -33.5 -190.5t-73 -154.5t-94.5 -102.5t-98 -44.5q0 -32 4 -176q155 -4 207 -17q8 -2 11.5 -8.5t0.5 -13.5q-3 -14 -16 -14q-1 0 -3 1t-3 1q-45 10 -197 14q9 -253 16 -332q44 0 138 -8q138 -10 161 -10
q133 0 185 49q4 4 12 4t12 -4q12 -15 0 -27q-67 -59 -215 -59q-70 0 -158 10q-102 8 -149 8q-105 0 -139 -32q-7 -7 -13 -7zM424 1153q-33 0 -57 -27q-53 -53 -87.5 -230t-33.5 -433q41 5 86 42.5t83.5 96t65 142.5t29.5 174q3 106 -20 170t-66 65z" />
    <glyph glyph-name="lslash" unicode="&#x142;" horiz-adv-x="346" 
d="M174 -74q80 0 193 310q1 6 8.5 10t13.5 2q19 -8 12 -25q-24 -73 -51 -129q-49 -111 -90 -164t-96 -53q-65 0 -112.5 50.5t-47.5 150.5q0 298 68 573q-34 0 -70 -4q-8 0 -14 6t-6 13q0 17 16 20q11 1 40.5 2t43.5 2q58 214 142.5 343.5t164.5 129.5q41 0 72 -42.5
t31 -114.5q0 -135 -93 -326q8 -4 15 -4q18 -4 14 -23q-3 -14 -22 -14q-16 4 -25 4q-64 -121 -141 -217.5t-117 -110.5q-8 -48 -11 -65.5t-5 -44t-2 -33t0.5 -47t0.5 -72.5q0 -62 20.5 -94.5t47.5 -32.5zM403 1116q-29 0 -86.5 -121t-109.5 -305q89 0 153 -6q95 190 95 322
q0 47 -16 78.5t-36 31.5zM131 362q35 29 96.5 109.5t114.5 175.5q-64 6 -145 6q-40 -141 -66 -291z" />
    <glyph glyph-name="OE" unicode="&#x152;" horiz-adv-x="1513" 
d="M1487 109q18 31 51 127q8 16 23 12q19 -8 12 -25q-9 -54 -51 -129q-59 -102 -153.5 -169.5t-217.5 -67.5q-88 0 -169.5 29t-145.5 81t-102 132.5t-38 176.5q0 27 2 41q-76 -156 -180 -257t-219 -101q-44 0 -84 9.5t-80 33.5t-69.5 61t-47.5 97t-18 137q0 102 31 217
t86 219q-15 5 -25 45.5t-10 65.5q0 138 102 230.5t254 92.5q23 0 47 -3t61 -14.5t69.5 -31t67.5 -57t59.5 -86.5t40.5 -125.5t16 -169.5q0 -63 -23 -150q67 88 174 133.5t221 45.5q-10 0 -34 5.5t-60.5 22.5t-68.5 42.5t-55 71.5t-23 103q0 112 86 179t217 67q49 0 90.5 -18
t66.5 -42.5t42.5 -51.5t24.5 -43t7 -19q4 -18 -14 -22q-20 0 -23 16q-17 51 -40 79q-49 58 -132 58q-67 0 -115 -52.5t-48 -150.5q0 -50 18.5 -93t44 -69t53 -45t45 -26.5t19.5 -7.5q12 -3 12 -21q-3 -16 -18 -16q-68 0 -132 -24.5t-117.5 -72t-85.5 -126t-32 -177.5
q0 -59 18.5 -120t52 -114.5t88.5 -87.5t122 -34q103 0 181 53.5t126 135.5zM137 768q13 22 29 45q18 21 74 21q65 0 93 -21q12 -10 5 -20q-42 -61 -80 -152q135 -86 307 -86q89 0 187 31q8 44 8 94q0 84 -13 152.5t-33.5 114.5t-50 80.5t-58 53.5t-62 30.5t-57.5 15t-48 3.5
q-136 0 -226.5 -81.5t-90.5 -204.5q0 -43 16 -76zM565 518q-182 0 -321 88q-53 -143 -63 -284.5t30 -223.5q41 -69 111 -69q75 0 146 48t124.5 125.5t92 165.5t58.5 177q-91 -27 -178 -27z" />
    <glyph glyph-name="oe" unicode="&#x153;" horiz-adv-x="724" 
d="M528 -96q-81 0 -149.5 57t-71.5 168q-30 -63 -75.5 -102t-102.5 -39q-44 0 -86.5 34t-42.5 99q0 87 53 211q6 15 42 15t42 -5q16 44 49.5 68t67.5 24t58.5 -18.5t35.5 -50.5q19 45 47.5 76.5t58 46t53.5 20.5t46 6q32 0 64 -30t32 -85q0 -68 -16 -115t-42.5 -68.5
t-50 -29.5t-48.5 -8q-38 0 -58 23q-4 -58 -4 -97q0 -65 26.5 -114t71.5 -49q36 0 74 33t67 83.5t49 94.5t32 81q8 19 24 13q6 -1 10 -9t2 -14q-3 -12 -13.5 -39.5t-35 -78.5t-53 -93.5t-71 -75t-85.5 -32.5zM442 274q4 -59 50 -59q16 0 36.5 18t39 62.5t18.5 103.5
q0 36 -10 57t-23 21q-12 0 -25.5 -9.5t-29.5 -30t-31 -63t-25 -100.5zM279 152q38 80 38 167q0 32 -16.5 55t-46.5 23q-34 0 -59 -32.5t-25 -88.5q0 -38 33.5 -75t75.5 -49zM260 117q-51 18 -90.5 61.5t-42.5 91.5q-58 -154 -25 -207q14 -22 52 -22q60 0 106 76z" />
    <glyph glyph-name="Scaron" unicode="&#x160;" horiz-adv-x="700" 
d="M219 1229q-47 0 -135 102q-16 19 -33.5 41.5t-26.5 35.5l-10 13q-10 17 5 33t38 16q17 0 25 -10q30 -41 63 -82q54 -68 78 -86q23 17 164 170q14 14 31 2q6 -6 6 -15t-6 -15q-41 -43 -84 -88q-25 -25 -46.5 -47t-32 -33.5t-19 -20.5t-12 -12t-5.5 -4zM-27 922
q0 53 14.5 98.5t44 82.5t81 58t120.5 21q53 0 99.5 -12t77 -27.5t57.5 -41t40 -42t25.5 -41.5t14 -29t4.5 -14q4 -16 -10 -19q-6 -3 -11.5 0t-7.5 9l-1 1q-32 82 -110 122q-55 28 -124 28q-172 0 -172 -198q0 -66 70 -181t167 -231q5 -6 26.5 -32t27 -32.5t24 -29.5
t24.5 -30.5t21.5 -27.5t22 -30t18 -27t18.5 -29t15 -26.5t14 -28.5q27 8 70.5 16t73 12.5t32.5 4.5q7 1 13 -4t8 -13q0 -8 -5 -14t-12 -6q-2 0 -29.5 -4t-68.5 -12t-67 -15q22 -61 22 -125q0 -136 -80.5 -221.5t-245.5 -85.5q-87 0 -147.5 45.5t-60.5 118.5q0 53 41 101.5
t103 82t118 55t102 31.5q-33 58 -96 136t-121.5 147t-115 145t-90.5 157.5t-34 156.5zM449 145q-44 -9 -95.5 -27t-110.5 -46.5t-98 -71.5t-39 -90q0 -60 48 -96.5t120 -36.5q85 0 146 67t61 176q0 56 -32 125z" />
    <glyph glyph-name="scaron" unicode="&#x161;" horiz-adv-x="378" 
d="M121 584q-12 0 -38.5 17t-57.5 54l-52 68q-9 10 3 22.5t28 12.5q14 0 19 -8q54 -75 100 -121q19 13 121 123q10 10 20 0q11 -7 2 -21q-1 0 -10 -8t-23.5 -23.5t-27.5 -31.5q-73 -84 -84 -84zM16 483q0 14 15.5 21.5t36.5 7.5q18 0 31.5 -5.5t13.5 -12.5q0 -24 21 -66.5
t56 -104.5t54 -108q98 45 168 45q20 0 20 -18q0 -8 -5.5 -13.5t-14.5 -5.5q-59 0 -154 -43q21 -65 21 -110q0 -78 -47 -135.5t-121 -57.5q-51 0 -82 26.5t-31 63.5t18.5 74t47.5 65.5t51.5 46t42.5 29.5q-24 53 -70 133q-21 -86 -33 -110q-7 -21 -18 -21l-8 2q-19 8 -13 23
q2 7 8.5 29.5t17.5 58.5t19 65q-45 88 -45 121zM172 150q-49 -28 -93 -80t-44 -103q0 -21 17.5 -32t39.5 -11q49 0 73.5 37.5t24.5 101.5q0 31 -18 87z" />
    <glyph glyph-name="Ydieresis" unicode="&#x178;" horiz-adv-x="874" 
d="M516 1303q0 -31 -21.5 -52.5t-52.5 -21.5t-52 21.5t-21 52.5t21 52t52 21t52.5 -21t21.5 -52zM711 1303q0 -31 -21.5 -52.5t-52.5 -21.5t-52.5 21.5t-21.5 52.5t21.5 52t52.5 21t52.5 -21t21.5 -52zM258 14q-86 -13 -149 26.5t-76 135.5q-31 221 78 735q4 19 28 28t54 9
q31 0 49.5 -8t11.5 -22q-74 -335 -85.5 -542.5t42.5 -266.5q25 -25 59 -19q43 6 116 123.5t138 260t119 284.5q7 110 12 174q10 156 17 207q3 23 29 34t61 11q32 0 54.5 -9t21.5 -22q-2 -20 -7.5 -89.5t-9.5 -117.5q-28 -363 -56 -609.5t-73 -445.5q22 -5 45.5 -11.5
t43.5 -14t40 -15.5t35.5 -15t30.5 -14t23.5 -11.5t15.5 -8.5l8 -4q12 -9 6 -22q-7 -11 -14 -11q-5 -3 -11 3q-3 3 -32.5 18t-87 37t-111.5 33q-36 -156 -85 -275.5t-117 -213.5t-160.5 -149.5t-208.5 -72.5q-135 -20 -248.5 55t-132.5 203q-18 122 65 227q177 219 723 275
q74 307 111 725q-40 -97 -80.5 -185.5t-94 -191.5t-106 -167.5t-92.5 -70.5zM416 -145q-441 -62 -588 -248q-72 -92 -59 -199q9 -68 59 -113t108 -60t111 -7q309 46 463 639q-19 -3 -53 -7t-41 -5z" />
    <glyph glyph-name="Zcaron" unicode="&#x17d;" horiz-adv-x="688" 
d="M367 1217q-31 0 -116 88t-85 106q-10 15 5 31t36 16q18 0 26 -10q31 -39 64 -82q61 -73 78 -86q11 8 35.5 32.5t65.5 68.5t65 69q5 6 13.5 7t14.5 -5t6 -14.5t-6 -14.5q-31 -34 -113 -119t-85 -85q-2 -2 -4 -2zM18 -74q-59 4 -59 80q0 56 57 120t140 64
q123 200 218.5 426t88.5 361q-4 59 -27.5 78.5t-56.5 19.5q-136 0 -256 -183l-2 -3q-3 -6 -11 -8t-14 2q-6 3 -8 10.5t2 13.5q4 7 17.5 28t45.5 58.5t68.5 69.5t88.5 56t104 24q21 0 49.5 -7.5t63.5 -25.5t59 -56.5t24 -90.5q0 -180 -84 -394.5t-207 -386.5
q70 -13 133.5 -57t100.5 -113q103 93 162 269q3 14 18 14q9 0 14.5 -8t2.5 -17q-59 -186 -181 -295q21 -61 21 -116q0 -133 -34 -243t-84 -177.5t-112 -113.5t-114.5 -64.5t-93.5 -18.5q-56 0 -97 41t-41 109q0 134 123 288t314 265q-8 81 -46 137.5t-110 64.5
q-78 -102 -150.5 -161.5t-126.5 -59.5zM131 152q-57 -10 -96 -59.5t-39 -86.5l2 -10q32 0 133 156zM455 -98q-171 -108 -288.5 -252.5t-117.5 -261.5q0 -38 25 -64t69 -26q67 0 140.5 91.5t122.5 232.5t49 274v6z" />
    <glyph glyph-name="zcaron" unicode="&#x17e;" horiz-adv-x="585" 
d="M244 563q-12 0 -39 17.5t-58 54.5l-51 67q-9 10 3 22.5t28 12.5q13 0 18 -8q52 -72 101 -121q19 13 121 123q10 10 20 0q11 -7 2 -20q-1 0 -10 -8.5t-23.5 -24t-27.5 -31.5q-73 -84 -84 -84zM444 -184q0 -124 -38 -244.5t-99.5 -210.5t-144 -145.5t-166.5 -55.5
q-52 0 -83.5 32.5t-31.5 88.5q0 60 46 139t104.5 144.5t134 135t112.5 99.5t62 49q-5 68 -26.5 91.5t-55.5 23.5q-103 0 -195 -115q-6 -6 -14 -6q-6 0 -45 39q-6 5 -7 13t5 14q119 153 188.5 285.5t71.5 199.5q2 17 -7.5 32t-29.5 15q-40 0 -73.5 -26t-51.5 -78
q-42 -109 -47 -131q-8 -21 -20 -21l-6 2q-17 7 -11 23q0 2 43 121q56 155 185 155q39 0 76.5 -26t37.5 -82q0 -75 -49.5 -172t-144.5 -225q53 22 94 22q113 0 164 -90q49 40 101 138.5t83 185.5q1 6 9 10t14 2q19 -8 12 -25l-7 -22q-8 -22 -19.5 -51t-24.5 -56
q-23 -57 -73 -125t-81 -94q8 -24 8 -59zM-27 -778q67 0 135 63t116.5 153.5t80.5 189.5t35 173q-37 -29 -80 -65.5t-107.5 -98.5t-113.5 -119.5t-85 -122.5t-36 -114q0 -22 17.5 -40.5t37.5 -18.5z" />
    <glyph glyph-name="circumflex" unicode="&#x2c6;" horiz-adv-x="630" 
d="M340 1323q7 0 23.5 -8.5t46 -33t59.5 -60.5q16 -19 34 -43t27.5 -37t10.5 -13q11 -16 -5.5 -32.5t-39.5 -16.5q-14 0 -25 11q0 9 -61.5 82.5t-77.5 84.5q-21 -13 -166 -167q-6 -7 -14.5 -8t-14.5 5q-14 14 -2 29q1 0 12.5 12t33.5 35t40 41q24 25 45 47t31.5 33.5
t19 20.5t12 12t5.5 4q1 0 3 1t3 1z" />
    <glyph glyph-name="caron" unicode="&#x2c7;" horiz-adv-x="575" 
d="M279 1137q-27 0 -68 35t-66 67q-17 19 -35 41.5t-27 35.5l-9 13q-10 17 5 33t38 16q17 0 24 -10q31 -41 64 -82q61 -73 78 -86q17 12 166 170q4 6 13 6.5t15 -4.5q6 -6 6 -14.5t-6 -14.5q0 -4 -84 -88q-18 -18 -34.5 -35.5t-26.5 -28.5t-19 -21t-14 -15.5t-9.5 -9.5
t-6.5 -6t-4 -2z" />
    <glyph glyph-name="breve" unicode="&#x2d8;" horiz-adv-x="532" 
d="M248 1114q-37 0 -64 18t-40.5 45.5t-20 53t-6.5 47.5q0 10 12.5 16t28.5 6q37 0 37 -22q0 -35 21.5 -81t45.5 -46q33 0 60.5 35t27.5 92q0 7 5.5 12.5t13.5 5.5q7 0 12.5 -5t5.5 -13q0 -75 -42 -119.5t-97 -44.5z" />
    <glyph glyph-name="dotaccent" unicode="&#x2d9;" horiz-adv-x="397" 
d="M297 1188q0 -37 -27 -63.5t-65 -26.5q-37 0 -63.5 26.5t-26.5 63.5q0 38 26.5 65t63.5 27q38 0 65 -27t27 -65z" />
    <glyph glyph-name="ring" unicode="&#x2da;" horiz-adv-x="380" 
d="M209 1077q-37 0 -67.5 28.5t-30.5 72.5q0 37 27 68.5t65 31.5q37 0 64.5 -29.5t27.5 -70.5q0 -39 -24 -70t-62 -31zM203 1229q-18 0 -30.5 -16.5t-12.5 -34.5q0 -23 16 -37.5t33 -14.5q16 0 26.5 16t10.5 36t-13 35.5t-30 15.5z" />
    <glyph glyph-name="ogonek" unicode="&#x2db;" horiz-adv-x="272" 
d="M178 152q-67 0 -107 36.5t-40 100.5q0 62 34 111.5t76 74.5q19 12 29 4q15 -11 4 -26q-37 -50 -52.5 -116t5.5 -104q23 -38 98 -26q7 1 14 -4t9 -13q2 -9 -21.5 -23.5t-48.5 -14.5z" />
    <glyph glyph-name="tilde" unicode="&#x2dc;" horiz-adv-x="532" 
d="M328 1092q-43 0 -97 43q-48 32 -67 32q-22 0 -49 -24q-5 -6 -13 -6t-12 6q-6 5 -6 12t6 12q37 37 74 37q35 0 90 -41q49 -35 74 -35q32 0 71 39q5 6 12.5 6t12.5 -6q6 -4 6.5 -12t-4.5 -12q-48 -51 -98 -51z" />
    <glyph glyph-name="hungarumlaut" unicode="&#x2dd;" horiz-adv-x="471" 
d="M270 1278q-35 -36 -97 -102.5t-71 -75.5q-13 -13 -24 -13q-12 0 -18.5 8.5t-0.5 18.5q88 122 127 158q17 17 60 20q17 0 24 -9q2 -3 0 -5zM403 1278q-25 -25 -86 -90t-84 -88q-13 -13 -24 -13t-16.5 8.5t0.5 18.5q91 125 126 158q17 17 58 20q17 0 26 -9q2 -3 0 -5z" />
    <glyph glyph-name="quoteleft" unicode="&#x2018;" horiz-adv-x="376" 
d="M274 1100q0 -46 -30.5 -69t-69.5 -23q-25 0 -48.5 28.5t-23.5 85.5q0 54 46 115t96 61q9 0 12 -10t-8 -18q-3 -2 -20.5 -13t-31 -20.5t-26 -22.5t-12.5 -24q116 0 116 -90z" />
    <glyph glyph-name="quoteright" unicode="&#x2019;" horiz-adv-x="376" 
d="M102 1206q0 45 31 68.5t70 23.5q25 0 48 -28.5t23 -85.5q0 -54 -45.5 -115t-95.5 -61q-9 0 -12 10t8 18q3 2 20.5 13t31 20.5t26 23.5t12.5 25q-117 0 -117 88z" />
    <glyph glyph-name="quotedblleft" unicode="&#x201c;" horiz-adv-x="608" 
d="M274 1100q0 -46 -30.5 -69t-69.5 -23q-25 0 -48.5 28.5t-23.5 85.5q0 54 46 115t96 61q9 0 12 -10t-8 -18q-3 -2 -20.5 -13t-31 -20.5t-26 -22.5t-12.5 -24q116 0 116 -90zM506 1100q0 -46 -30.5 -69t-69.5 -23q-25 0 -48.5 28.5t-23.5 85.5q0 55 45 115.5t96 60.5
q9 0 11 -10t-9 -18q-2 -2 -27 -17.5t-43 -32t-18 -30.5q117 0 117 -90z" />
    <glyph glyph-name="quotedblright" unicode="&#x201d;" horiz-adv-x="608" 
d="M334 1206q0 45 30 68.5t68 23.5q27 0 50.5 -28.5t23.5 -85.5q0 -54 -45.5 -115t-95.5 -61q-9 0 -12.5 10t7.5 18q3 2 20.5 13t31.5 20.5t26.5 23.5t12.5 25q-117 0 -117 88zM102 1206q0 45 31 68.5t70 23.5q25 0 48 -28.5t23 -85.5q0 -54 -45.5 -115t-95.5 -61
q-9 0 -12 10t8 18q3 2 20.5 13t31 20.5t26 23.5t12.5 25q-117 0 -117 88z" />
    <glyph glyph-name="Euro" unicode="&#x20ac;" horiz-adv-x="991" 
d="M891 375q7 0 12.5 -6.5t3.5 -14.5q-8 -102 -42 -190t-95.5 -146.5t-138.5 -58.5q-41 0 -83.5 11t-87.5 38t-81.5 66t-63 101t-34.5 138q-11 97 -13 154q-76 2 -168 2q-8 0 -13 5.5t-5 12.5q0 8 5.5 13.5t12.5 5.5h168q0 115 11 196h-80q-7 0 -13 6t-6 13q0 8 6 14t13 6
q12 0 40 -1t44 -1q19 120 60.5 210.5t96.5 143.5t116.5 79t129.5 26q39 0 69.5 -11t49.5 -33t31.5 -44t20 -55t10 -53.5t5.5 -51.5q1 -7 -3.5 -12.5t-12.5 -5.5q-16 0 -20 18q-11 111 -41.5 161t-104.5 50q-60 0 -109.5 -62t-80.5 -155t-51 -213q175 -12 233 -18
q7 0 12.5 -6.5t5.5 -14.5q-3 -16 -18 -16q-52 5 -240 18q-13 -104 -16 -190q170 -4 242 -12q16 0 16 -21q-4 -16 -18 -16q-54 6 -242 10q0 -54 3 -105t15 -121t32.5 -120.5t60 -86.5t92.5 -36q66 0 120.5 54t85 135.5t37.5 174.5q0 7 6.5 12t14.5 3z" />
    <glyph glyph-name="a.001" horiz-adv-x="516" 
d="M410 43q24 0 46.5 21.5t39 55.5t27 61.5t18.5 54.5q8 15 24 12q16 -8 13 -25q-73 -229 -179 -229q-77 0 -113 43.5t-24 142.5q-98 -190 -164 -190q-40 0 -69 33.5t-29 95.5q0 154 48 232.5t102 78.5q53 0 89 -38.5t50 -88.5q9 32 41 119q8 10 30 10q21 0 43 -11t29 -28
q-25 -84 -39 -148.5t-17 -101.5t1.5 -60.5t12.5 -31.5t20 -8zM195 358q-19 0 -38 -37.5t-33 -115t-15 -174.5q28 14 69.5 79.5t77.5 145.5q2 2 2 4q0 35 -14 66.5t-49 31.5z" />
    <glyph glyph-name="c.001" horiz-adv-x="505" 
d="M565 223q-16 -48 -38 -95.5t-54.5 -99t-69 -90t-84.5 -63.5t-98 -25q-34 0 -69.5 14.5t-71 45t-58 88.5t-22.5 135q0 161 53 255.5t137 94.5q52 0 75.5 -49.5t23.5 -109.5q0 -72 -41 -72q-19 0 -33 19.5t-14 47.5q0 24 13 41.5t32 20.5q-16 65 -56 65q-31 0 -52 -95
t-21 -214q0 -97 32 -163t99 -66q51 0 98.5 32.5t82.5 86t59 104.5t42 105q2 6 9 9.5t14 0.5q8 -2 11.5 -9t0.5 -14z" />
    <glyph glyph-name="e.001" horiz-adv-x="362" 
d="M195 18q41 0 73.5 19t55.5 54.5t36.5 67t26.5 74.5q7 17 25 13q6 -3 9.5 -10.5t0.5 -14.5q-7 -35 -47 -119q-26 -56 -72.5 -94.5t-107.5 -38.5q-76 0 -135.5 51t-59.5 146q0 78 20 136t50.5 86.5t58 41t51.5 12.5q32 0 63 -25t31 -71q0 -80 -43 -118t-90 -38
q-26 0 -47 21q-2 -14 -2 -45q0 -71 26 -109.5t77 -38.5zM100 268q16 -39 41 -39q29 0 50.5 33t21.5 100q0 22 -10.5 33t-22.5 11q-23 0 -46 -33t-34 -105z" />
    <glyph glyph-name="g.001" horiz-adv-x="610" 
d="M362 201q1 26 3.5 69.5t3.5 57.5q-108 -169 -169 -249.5t-89 -80.5q-37 0 -74 30.5t-37 80.5q0 81 21 148.5t53.5 107.5t67 62t65.5 22q38 0 76.5 -32t50.5 -73q13 18 39 62q13 123 43 151q14 14 56 -2q39 -16 39 -37q-1 -7 -7 -14q-6 -6 -11.5 -18.5t-9 -34.5t-6 -40.5
t-5 -52.5t-3.5 -55.5l-3 -64.5t-3 -64q-5 -93 -12 -186q73 59 116 127.5t74 165.5q3 14 18 14q9 0 14.5 -8t2.5 -17q-8 -47 -51 -129q-30 -58 -81.5 -115.5t-97.5 -86.5q-21 -225 -50.5 -349.5t-80.5 -230.5q-67 -142 -171.5 -201t-247.5 -59q-87 0 -161.5 67.5t-74.5 165.5
q0 60 42 129.5t108.5 132t146 123.5t157.5 107.5t140 77.5t96 41q7 87 12 258zM221 403q-15 0 -33.5 -22.5t-36 -60.5t-29 -98t-11.5 -126q0 -39 14 -39t50.5 50t104.5 154q17 25 25 38q-1 43 -26.5 73.5t-57.5 30.5zM348 -100q-43 -14 -118.5 -55t-166 -103.5t-170.5 -130
t-134 -143.5t-54 -136q0 -61 42 -108t110 -47q77 0 141.5 23t111 61t84.5 94.5t63 117.5t44 136.5t29.5 143.5t17.5 147z" />
    <glyph glyph-name="h.001" horiz-adv-x="720" 
d="M0 20q0 199 37 397t94.5 347t123 267t125.5 179.5t99 61.5q44 0 70 -51.5t26 -137.5q0 -80 -39.5 -170.5t-90.5 -160t-118.5 -140.5t-105 -104t-67.5 -57q-35 -169 -45 -308q40 82 90 163.5t108.5 147.5t95.5 66q39 0 72 -23.5t33 -76.5q0 -19 -31 -128t-62.5 -235.5
t-31.5 -187.5q0 -32 18 -56t37 -24q42 0 92 51.5t92.5 128t73.5 145.5t49 122q2 6 9 9.5t14 2.5q19 -8 12 -25q-24 -73 -51 -129q-72 -166 -118 -236q-90 -136 -185 -137q-58 0 -107 42.5t-49 105.5q0 77 21 172.5t45.5 166.5t45.5 134.5t21 85.5q0 31 -22 31
q-33 0 -101 -93t-122 -199t-54 -144v-13q-10 -14 -45 -14q-50 0 -59 24zM168 512q41 35 81.5 74t95.5 102t95.5 123.5t69.5 133.5t29 138q0 125 -31 125q-15 0 -44.5 -32.5t-68 -96.5t-78.5 -146t-80 -193.5t-69 -227.5z" />
    <glyph glyph-name="i.001" horiz-adv-x="380" 
d="M276 645q0 -34 -21.5 -58t-53.5 -24q-31 0 -52.5 24t-21.5 58t21.5 58t52.5 24q32 0 53.5 -24t21.5 -58zM442 223q-19 -57 -42 -112t-59.5 -123t-83 -110t-93.5 -42q-59 0 -111.5 47.5t-52.5 143.5q0 77 24.5 187.5t45 173t28.5 81.5q3 7 47.5 10.5t51.5 -0.5
q17 -7 10 -24q-15 -40 -31 -90.5t-32.5 -117.5t-25.5 -126t-6.5 -112.5t21.5 -80.5q18 -24 49 -24q36 0 73.5 38t67.5 95t50.5 107.5t32.5 91.5q8 16 24 10q6 -2 9.5 -9t2.5 -14z" />
    <glyph glyph-name="k.001" horiz-adv-x="512" 
d="M104 -10q-11 -15 -45 -15q-50 0 -59 25q0 354 36.5 660.5t109 502t165.5 195.5q47 0 87 -53.5t40 -133.5q0 -104 -30 -201t-76 -164t-98.5 -109t-98.5 -48q-25 -237 -31 -436q48 121 107 222.5t96 101.5q9 0 23 -2t31.5 -13.5t17.5 -29.5q0 -77 -47 -158
q-28 -48 -67.5 -82.5t-80.5 -30.5q3 -27 8 -54.5t17.5 -63.5t29.5 -63t45 -46t62 -19q103 0 191 261q1 6 8.5 10t13.5 2q19 -8 12 -25q-14 -45 -32.5 -87t-46.5 -90.5t-66 -77.5t-80 -29q-43 0 -77.5 21t-56 51t-37 70t-22 71t-10.5 61q-39 -90 -39 -119q0 -6 -2 -8
q0 -20 1 -51t1 -45zM139 694q86 34 162 177t76 300q0 44 -6.5 73.5t-14.5 39.5t-16 10q-67 0 -118.5 -169.5t-82.5 -430.5zM299 496q-41 -33 -131 -224q45 12 84 70q24 41 36.5 85.5t10.5 68.5z" />
    <glyph glyph-name="l.001" horiz-adv-x="479" 
d="M195 -252q-40 0 -73 17t-61.5 55t-44.5 107.5t-16 166.5q0 152 25.5 321.5t69 320t97.5 274t116.5 196t119.5 72.5q31 0 58.5 -37t27.5 -72q0 -79 -36 -172t-83.5 -166.5t-103 -142t-87 -101.5t-42.5 -42q-4 -4 -6 -4q-7 -32 -17 -90.5t-22.5 -147t-16.5 -175t0.5 -163.5
t28.5 -124.5t66 -47.5q46 0 116 88.5t123 191t70 163.5q8 16 24 10q6 -2 10 -9t1 -14q-16 -52 -52.5 -128.5t-84 -156t-104.5 -135t-103 -55.5zM434 1233q-24 0 -69.5 -81.5t-100 -230.5t-94.5 -315q42 44 86 99t98 134t87.5 167t33.5 163q0 32 -12.5 48t-28.5 16z" />
    <glyph glyph-name="o.001" horiz-adv-x="436" 
d="M133 -20q-58 0 -93.5 34t-35.5 72q0 46 10 98q-55 49 -55 123q0 88 58.5 147.5t129.5 59.5q85 0 146 -44.5t61 -129.5q0 -101 -45 -199q45 2 91 32t67 95q2 8 10 13t15 4q16 -6 12 -25q-20 -72 -79 -113t-134 -41q-35 -58 -76.5 -92t-81.5 -34zM25 227q10 35 31 75t44 40
q17 0 41 -9.5t33 -15.5q15 -11 4 -26q-32 -52 -57 -111q79 -33 149 -37q47 96 47 197q0 37 -16.5 65t-37.5 41t-49 21t-42 9t-25 1q-54 0 -102.5 -46.5t-48.5 -123.5q0 -43 29 -80zM106 145q-12 -46 -12 -67q0 -10 3 -20.5t14.5 -21.5t31.5 -11q53 0 107 84q-68 7 -144 36z
" />
    <glyph glyph-name="r.001" horiz-adv-x="534" 
d="M508 109q33 65 51 127q8 15 25 12q15 -8 12 -25q-20 -59 -53 -129q-107 -239 -159 -328q-113 -191 -208 -192q-137 0 -137 199q0 107 74 405q45 158 45 199q0 8 -31 35l-10 10q-55 -197 -64 -217q-7 -21 -18 -21l-8 2q-19 8 -13 23q2 10 14 50t29.5 97t28.5 97
q-53 57 -53 131q0 38 12 60t35 22q35 0 65.5 -22.5t30.5 -80.5q0 -13 -13 -57.5t-13 -65.5q2 -1 42 -25.5t65.5 -45.5t25.5 -37q0 -27 -35 -164q-74 -276 -74 -377q0 -55 17 -92t45 -37q74 0 272 447z" />
    <glyph glyph-name="s.001" horiz-adv-x="337" 
d="M98 102q-27 43 -40.5 66t-35.5 63t-31.5 67.5t-19 62.5t-8 66t11.5 60q6 17 37 17q23 0 43.5 -9t16.5 -20q-8 -25 -9 -52.5t7.5 -59t18 -57.5t29.5 -62.5t34 -59.5t38 -63q49 -79 52 -84q80 116 120 244q3 14 19 14q9 0 14 -8t2 -17q-42 -139 -137 -268q45 -88 45 -147
q0 -42 -17 -75t-42 -51t-48.5 -27t-41.5 -9q-46 0 -76.5 25.5t-30.5 78.5q0 71 123 178q-15 28 -42.5 73.5t-31.5 53.5zM186 -57q-100 -87 -100 -146q0 -67 53 -67q26 0 48 31t22 94q0 25 -23 88z" />
    <glyph glyph-name="t.001" horiz-adv-x="311" 
d="M-373 711q-7 -13 -24 -13q-18 7 -11 25q41 111 195 111q77 0 262 -41q2 0 6 -1t6 -1q52 280 89 346q9 18 51 18q25 0 43 -9.5t12 -23.5q-36 -64 -82 -358q106 -17 156 45q10 14 26 2q13 -13 2 -27q-63 -78 -190 -57q-19 -130 -31 -253t-15.5 -233.5t11 -177.5t45.5 -67
q32 0 67.5 49.5t56 99.5t32.5 91q6 16 24 12q17 -7 13 -25q0 -1 -5.5 -17t-15 -40t-22.5 -51q-35 -73 -82 -124.5t-84 -51.5q-13 0 -24 1t-38.5 15.5t-46.5 40.5t-35 83t-16 136q0 214 53 539q-2 0 -6.5 1t-7.5 1q-164 41 -254 41q-129 0 -160 -86z" />
    <glyph glyph-name="u.001" horiz-adv-x="544" 
d="M90 -27q-34 0 -62 26t-28 95q0 63 16 147t29 130q6 22 45 22q20 0 34 -8.5t11 -22.5q-17 -63 -29 -129.5t-16 -125t10 -74.5q2 -2 6 -2q25 0 83 91.5t116 213.5q18 80 45 158q3 14 27 14q25 0 49 -15.5t20 -33.5q-65 -191 -86.5 -326.5t5.5 -167.5q5 -8 16 -8
q37 0 78.5 56.5t67 115t40.5 107.5q6 16 25 12q16 -6 12 -25q-14 -42 -36.5 -91.5t-54 -105t-71.5 -92t-77 -36.5q-43 0 -76 38.5t-33 102.5q0 63 16 151q-123 -217 -182 -217z" />
    <glyph glyph-name="w.001" horiz-adv-x="702" 
d="M96 0q-38 0 -67 33.5t-29 93.5q0 110 49 311q3 17 37 17q16 0 32.5 -4t27 -10t8.5 -13q-26 -100 -43.5 -234.5t0.5 -134.5q36 11 153 291q5 18 11 38t9.5 32t4.5 16q3 13 28 13q27 0 51.5 -11.5t20.5 -27.5q-22 -67 -42.5 -155.5t-34 -173.5t-10.5 -143.5t28 -58.5
q33 0 83 69.5t91 166.5q-88 52 -88 161q0 88 34 144.5t76 56.5q27 0 51.5 -30t24.5 -82q0 -105 -49 -228q13 -8 35 -8q41 0 81.5 34.5t63.5 104.5q2 8 10 13t15 4q16 -6 12 -25q-21 -78 -72.5 -123t-111.5 -45q-26 0 -47 8q-49 -114 -114 -191t-124 -77q-35 0 -70.5 32.5
t-35.5 104.5q0 66 22 191q-82 -160 -121 -160zM522 164q43 120 43 201q0 36 -11 54.5t-26 18.5q-8 0 -18 -20.5t-17.5 -57t-7.5 -75.5q0 -75 37 -121z" />
    <glyph glyph-name="y.001" horiz-adv-x="524" 
d="M92 4q-28 0 -59 29.5t-31 81.5q0 55 29 146t43 120q6 14 32 14q20 0 35 -8.5t11 -19.5q-32 -81 -56 -174t-6 -119q7 -11 23 -11q36 0 114.5 90t132.5 189q5 27 10.5 53t8 38t2.5 13q3 21 33 21q21 0 40.5 -11t18.5 -24q-57 -388 -141 -651q96 25 217 69t158 72
q16 10 26 -4q10 -13 -4 -24q-42 -32 -179 -82t-231 -72q-216 -641 -552 -641q-68 0 -122.5 55t-54.5 135q0 67 41 130t106 109.5t137.5 85.5t142.5 64t114 38.5t59 15.5q83 228 146 508q-65 -93 -133 -164.5t-111 -71.5zM174 -309q-30 -9 -61 -19.5t-88.5 -33t-106.5 -46
t-105 -58t-95 -70.5t-65 -82t-26 -93q0 -60 39 -95.5t74 -35.5q65 0 128 42.5t117.5 119.5t100.5 168t88 203z" />
    <glyph glyph-name="z.001" horiz-adv-x="569" 
d="M-61 -819q-74 0 -109 44t-35 107q0 74 61 180.5t141 199.5t176.5 189.5t148.5 143t77 66.5q-27 47 -82 47t-110 -41q-45 -62 -62 -82q-3 -6 -14 -6q-2 0 -13.5 6t-24.5 13l-13 7q-14 11 -2 27q171 221 174 310q1 48 -51 48q-26 0 -56 -27t-47 -77q-42 -109 -47 -131
q-8 -21 -20 -21l-6 2q-17 7 -11 23q0 2 43 121q56 155 185 155q13 0 27 -5t29.5 -16t25.5 -35t10 -56q0 -62 -80 -189q33 11 63 11q37 0 71.5 -11.5t66 -34.5t50.5 -64t19 -95q0 -150 -60 -301.5t-148 -260.5t-190.5 -178t-186.5 -69zM416 76q-45 -39 -91 -81t-143.5 -140
t-167.5 -181.5t-126 -180t-56 -161.5q0 -35 27 -60.5t59 -25.5q96 0 218.5 133.5t207 310.5t84.5 300q0 48 -12 86z" />
    <glyph glyph-name="a_a" horiz-adv-x="1097" 
d="M440 -4q-75 0 -112 44t-27 153q-113 -201 -188 -201q-37 0 -75 30.5t-38 92.5q0 67 11.5 129t37 120t74.5 93t115 35q35 0 64.5 -29.5t43.5 -77.5q4 13 13 40l14 42q10 10 28 10q22 0 45.5 -12t30.5 -29q-34 -98 -52 -172.5t-20 -115t5.5 -65t17.5 -31.5t23 -7
q32 0 71 47t62 115q14 109 56 164t87 55q54 0 90 -39.5t49 -87.5q22 69 41 119q7 10 31 10q23 0 45 -11t29 -28q-25 -85 -39 -148t-16.5 -100t3.5 -59t16 -29.5t25 -7.5q20 0 40.5 22t36.5 56.5t26.5 61.5t17.5 51q6 16 25 12q15 -8 12 -25q-1 -2 -5 -14t-9 -25.5t-14 -35
t-19 -42.5q-21 -50 -58 -80t-75 -30q-156 0 -137 184q-36 -75 -81.5 -134.5t-84.5 -59.5t-67.5 32.5t-28.5 94.5q-72 -117 -140 -117zM244 442q-32 0 -66.5 -61.5t-56 -145t-21.5 -149.5q0 -57 13 -57q34 0 92 82.5t114 195.5q-1 61 -22.5 98t-52.5 37zM774 354
q-14 0 -30.5 -23t-31.5 -63t-25 -104t-11 -137q30 13 78.5 83.5t83.5 147.5q0 20 -4.5 39.5t-20 38t-39.5 18.5z" />
    <glyph glyph-name="i_i" horiz-adv-x="512" 
d="M100 692q0 30 18.5 52t43.5 22q28 0 48.5 -21t20.5 -53t-23 -53t-50 -21q-24 0 -41 22.5t-17 51.5zM350 641q0 26 18 41.5t38 15.5q36 0 57.5 -21.5t21.5 -47.5q0 -22 -22.5 -46t-46.5 -24q-27 0 -46.5 22t-19.5 60zM369 2q36 0 73.5 46.5t59.5 96.5t33 91q8 16 24 10
q16 -3 12 -23q-24 -72 -53 -129q-25 -51 -69.5 -90t-79.5 -39q-120 0 -127 98q-63 -98 -115 -98q-36 0 -62 9.5t-38 21t-18.5 29.5t-7.5 26.5t-1 20.5q0 75 32 218.5t46 174.5q8 14 37 14t51 -12.5t12 -30.5q-44 -87 -71 -236t-3 -186q4 -12 23 -12q17 0 38.5 23t36.5 47.5
t40 70.5q4 7 6 11q10 77 29 161.5t28 102.5q3 6 38.5 -2t45.5 -13q7 -3 10 -10.5t0 -13.5q-43 -86 -60.5 -206.5t7.5 -158.5q8 -12 23 -12z" />
    <glyph glyph-name="u_u" horiz-adv-x="892" 
d="M92 -10q-32 0 -62 29t-30 87q0 79 27.5 218.5t40.5 179.5q2 10 18 10q21 0 45 -15.5t21 -29.5q-40 -152 -58 -290.5t4 -143.5q14 1 73 94t99 172q4 23 8.5 46.5t8.5 43t8 37.5t7.5 32t6.5 24t5 15l1 5q3 10 19 10q21 0 44.5 -15t22.5 -30q-37 -142 -54 -301.5t1 -163.5
q25 2 144 246q12 79 40 190q4 11 19 11q21 0 44.5 -16.5t20.5 -31.5q-24 -93 -37 -178.5t-12.5 -131.5t11.5 -58q13 1 57.5 71t81.5 144q11 62 43 190q4 11 16 11q21 0 46 -16.5t22 -31.5q-14 -56 -25.5 -112t-17.5 -101t-8.5 -80.5t0.5 -55t10 -19.5q27 0 63 76.5t49 124.5
q8 15 25 12q16 -6 12 -25q-44 -110 -53 -129q-49 -104 -102 -104q-31 0 -61.5 33.5t-30.5 93.5q0 21 2 33q-95 -160 -138 -160q-31 0 -61.5 33.5t-30.5 93.5v24q-91 -182 -135 -182q-47 0 -69.5 43.5t-22.5 114.5q0 20 4 78q-46 -82 -91.5 -143.5t-70.5 -61.5z" />
    <glyph glyph-name="e_e" horiz-adv-x="669" 
d="M641 109q32 62 53 124q2 8 9 12t14 1q8 -2 11.5 -9t0.5 -14q-14 -41 -22 -63t-27 -60t-38 -58t-49 -36t-65 -16q-52 0 -100.5 32t-60.5 103q-77 -145 -187 -145q-11 0 -27 2t-44.5 14t-51 31.5t-40 59.5t-17.5 93q0 145 55 228.5t127 83.5q50 0 75.5 -33t25.5 -78
q0 -80 -38 -128t-104 -48q-19 0 -39 14v-39q0 -84 23 -124t55 -40q18 0 35.5 5.5t32 15.5t28 23t24.5 27.5t20.5 30.5t17 30.5t13.5 28t9.5 23.5t5.5 16l3 7q8 60 31.5 105.5t52 68t52 33t40.5 10.5q32 0 58 -22t26 -68q0 -80 -39 -121t-84 -41q-24 0 -47 19q-2 -12 -2 -43
q0 -57 21 -96t50 -39q72 0 113 80zM111 266q4 -10 14.5 -17t15.5 -7q29 0 49 26.5t26.5 56t6.5 56.5q0 63 -24 63q-32 0 -55 -51.5t-33 -126.5zM465 266q16 -41 41 -41q29 0 50.5 33t21.5 102q0 21 -11 32t-22 11q-23 0 -46 -33t-34 -104z" />
    <glyph glyph-name="o_o" horiz-adv-x="884" 
d="M168 -20q-69 0 -118.5 36.5t-49.5 122.5q0 75 28.5 159t63.5 126q7 10 31 10q36 0 58 -19q11 -9 5 -16q-44 -50 -71 -157.5t-2 -163.5q17 -39 65 -39q100 0 170 158q-58 22 -94.5 72.5t-36.5 109.5q0 69 29.5 105t68.5 36q41 0 76 -36.5t35 -108.5q0 -71 -27 -154
q6 -2 19 -2q37 0 71 21q16 54 35 92q6 15 42 15t42 -5q16 44 49.5 68t67.5 24q44 0 73 -32t29 -83q0 -80 -39 -172q48 3 73.5 28.5t47.5 92.5q2 8 10 13t15 4q16 -6 12 -25q-21 -80 -60 -115.5t-118 -35.5q-69 -121 -168 -121q-44 0 -86.5 34t-42.5 99q0 37 6 72
q-29 -11 -59 -11q-23 0 -33 2q-36 -89 -91.5 -146.5t-125.5 -57.5zM315 483q-25 0 -43 -26.5t-18 -77.5q0 -47 30.5 -89t77.5 -61q27 89 27 146q0 55 -23 81.5t-51 26.5zM750 152q38 80 38 167q0 32 -16.5 55t-46.5 23q-34 0 -59 -32.5t-25 -88.5q0 -38 33.5 -75t75.5 -49z
M731 117q-51 18 -90.5 61.5t-42.5 91.5q-58 -154 -25 -207q14 -22 52 -22q60 0 106 76z" />
    <glyph glyph-name="B_r" horiz-adv-x="1533" 
d="M500 641q84 -5 159 -30.5t135 -71t95 -116.5t35 -159q127 103 180 230q-68 68 -68 147q0 38 12 60t35 22q15 0 29.5 -4t31 -14t26.5 -31.5t10 -52.5q0 -12 -13 -57t-12 -66q4 -3 41.5 -26t63.5 -45t26 -38q0 -37 -35 -164q-24 -88 -44.5 -230t-20.5 -204q0 -129 71 -129
q24 0 47 23.5t47 72t44 96.5t50.5 125.5t53.5 129.5q23 44 51 127q2 6 10 10.5t15 1.5q6 -1 10 -9t2 -16q-20 -59 -53 -129q-23 -51 -55 -136t-55.5 -143.5t-53.5 -118.5t-65.5 -91t-75.5 -31q-86 0 -132 71t-46 169q0 62 20.5 193t46.5 229q45 172 45 198q0 10 -30 33
q-33 -75 -92 -142t-121 -110q-17 -137 -103.5 -262t-215.5 -201t-263 -76q-39 0 -69.5 24.5t-30.5 61.5q0 76 64 152.5t154.5 132.5t198.5 98q18 6 105 41q4 18 8 62q0 71 -39 140.5t-96 117.5t-121 78t-115 30q-7 0 -12.5 6.5t-5.5 14.5q0 7 5.5 12.5t12.5 5.5q75 0 135 63
t89.5 149t29.5 169q0 78 -27 113t-55 35q-40 0 -76.5 -22.5t-65.5 -60t-55 -92.5t-46 -114.5t-37.5 -132t-30.5 -138.5t-24.5 -141t-19.5 -131.5t-16 -118.5l-3 -24q-17 -136 -34 -193t-38 -57q-48 0 -85.5 33t-37.5 108q0 78 9.5 184t23 202.5t32.5 208.5t32 182.5
t28 146.5t16 80q6 26 64 26q28 0 48 -9t17 -23q-80 -448 -119 -721t-16 -332q9 50 23 168q50 393 103 592q115 432 314 432q21 0 44.5 -6t50.5 -21.5t48.5 -39.5t35.5 -64.5t14 -91.5q0 -80 -23 -146t-55.5 -105t-72.5 -67t-68.5 -39t-48.5 -14zM301 -252q89 0 184.5 61.5
t165 151.5t97.5 180q-14 -5 -40.5 -15t-39.5 -15q-97 -38 -184 -90.5t-148.5 -119.5t-61.5 -126q0 -27 27 -27z" />
    <glyph glyph-name="D_r" horiz-adv-x="1515" 
d="M545 1153q34 0 76.5 -9t96.5 -36t97 -67.5t73 -111t30 -159.5q0 -290 -64 -510q171 100 279 248q-37 57 -37 113q0 37 12 59t33 22q16 0 30.5 -4t31 -14t26.5 -32t10 -54q0 -12 -13.5 -56t-13.5 -65h2q6 -5 43 -27t63 -43.5t26 -37.5q0 -14 -13 -53.5t-33 -96t-30 -96.5
q-12 -45 -31 -99.5t-28 -88.5t-9 -68q0 -50 17 -75t41 -25q36 0 82.5 55.5t88 138t71.5 152.5t48 123q2 6 10 10.5t15 1.5q6 -1 10 -9t2 -16q-20 -59 -53 -129q-30 -67 -49 -108t-47.5 -96t-51 -87.5t-50 -64t-56 -46t-57.5 -14.5q-77 0 -116.5 47.5t-39.5 137.5
q0 59 38.5 178t77 228.5t38.5 144.5q0 8 -31 35q-24 19 -33 30q-120 -163 -319 -268q-48 -140 -121.5 -246t-162.5 -169t-184.5 -94.5t-197.5 -33.5q-47 0 -89.5 9t-81 28.5t-61 55.5t-22.5 85q0 99 82 162q-1 69 -1 154t1 183.5t3 193.5t4 184.5t3.5 156.5t2.5 109t1 43
q0 21 62 21q20 0 39 -3.5t31.5 -11t11.5 -16.5l-2 -31q-1 -31 -3.5 -95t-5.5 -128q20 53 44.5 101.5t62 102t79 92t97 64t115.5 25.5zM141 637q-14 -322 -26 -571q91 26 184 32q178 14 334 66q131 279 131 606q0 155 -59.5 237.5t-172.5 82.5q-51 0 -98.5 -21t-83 -52.5
t-68 -77t-54 -85.5t-41.5 -88.5t-29 -74.5t-17 -54zM4 -84q0 6 -1 20t-1 23q-47 -50 -47 -113q0 -66 54.5 -102.5t154.5 -38.5q97 2 223.5 114.5t222.5 299.5q-151 -48 -307 -58q-113 -9 -190 -36q0 -2 -7 -109q0 -14 -13 -21.5t-32 -7.5q-21 0 -37.5 8t-19.5 21z" />
    <glyph glyph-name="S_r" horiz-adv-x="1314" 
d="M395 510q130 -141 193 -258q191 93 250 268q-45 52 -45 121q0 38 12 60t35 22q35 0 65.5 -23.5t30.5 -81.5q0 -12 -12.5 -55.5t-12.5 -64.5q5 -4 42.5 -27.5t63 -45t25.5 -36.5q0 -82 -34 -205q-23 -87 -39.5 -207.5t-16.5 -183.5q0 -57 19 -94t53 -37q18 0 35.5 12
t37 39.5t35 53.5t38 74.5t36.5 80.5t40 94t40 93q33 65 51 127q8 15 25 12q16 -6 12 -25q-20 -59 -53 -129q-16 -37 -40.5 -96.5t-42 -103t-41 -96.5t-45.5 -89.5t-47 -69t-53 -49t-57 -16.5q-86 0 -131 70.5t-45 169.5q0 67 15 177t40 204q17 65 31.5 141t14.5 98
q0 4 -4 8.5t-14 14t-13 12.5t-10.5 9t-10.5 9q-68 -176 -264 -270q45 -92 45 -182q0 -132 -78.5 -214.5t-238.5 -86.5q-53 0 -98.5 10t-85 32.5t-62.5 63.5t-23 97q0 36 9.5 66t22.5 50.5t39.5 39t46 29t59 22t60.5 17t67 15.5q11 3 32 8.5t33 8.5q-41 68 -124 173
t-146 183.5t-112.5 175.5t-49.5 174q0 57 11 100t39 82.5t84.5 60.5t139.5 21q53 0 99.5 -12t77 -27.5t57.5 -41t40 -42t25.5 -41.5t14 -29t4.5 -14q2 -5 -1 -11t-9 -7q-6 -3 -11.5 -0.5t-7.5 8.5l-1 1q-32 83 -110 123q-55 28 -124 28q-172 0 -172 -197q0 -67 70 -176
t169 -215zM315 -229q85 0 137 57t52 166q0 72 -51 166q-48 -14 -78 -19q-45 -10 -64 -15t-55.5 -15.5t-52.5 -19.5t-40 -24.5t-34.5 -33t-18.5 -42t-8 -54.5q0 -41 16 -72t38.5 -48t53.5 -28t55.5 -14t49.5 -4z" />
    <glyph glyph-name="b_r" horiz-adv-x="927" 
d="M23 -92q-2 4 -7 32.5t-10.5 92.5t-5.5 135q0 264 44 514.5t125 415t177 164.5q25 0 47.5 -28.5t22.5 -78.5q0 -55 -32.5 -123t-82.5 -131t-76.5 -93t-48.5 -52q-59 -283 -59 -588q0 -59 2 -86q32 146 100 255t125 109q86 0 113 -81q88 67 116 133l-22 26q-7 10 -27 29.5
t-34.5 36.5t-14.5 28q0 31 35 59t63 28q86 0 86 -119q0 -37 -45 -82q10 -8 27 -25q11 -11 48.5 -37.5t63 -53t25.5 -52.5q0 -31 -18 -90q-3 -10 -12.5 -42.5t-15 -52.5t-13.5 -52t-9.5 -52t-1 -41t9 -31t23.5 -10q35 0 71 29t63.5 73t47.5 86.5t31 79.5q8 19 23 13
q7 -1 11 -9t1 -14q-106 -311 -248 -311q-81 0 -114 47q-24 32 -23 90.5t11 97t32 111.5q27 87 27 109q0 13 -9.5 28.5t-19 25.5t-31.5 32q-2 2 -5.5 5t-6 5.5t-4.5 5.5q-44 -79 -133 -147q4 -28 4 -52q0 -109 -71 -191.5t-160 -82.5q-29 0 -53.5 22.5t-30.5 49.5
q-17 -87 -17 -154q1 -16 -17.5 -25.5t-45.5 -9.5q-45 0 -51 29zM350 1214q-16 0 -42 -46t-57.5 -137t-57.5 -204q70 79 127 168t57 158q0 61 -27 61zM197 215q32 26 104 55q36 16 64 33v10q0 80 -33 80q-27 0 -65 -50t-70 -128zM360 256q-10 -5 -45 -20q-76 -34 -106.5 -59
t-30.5 -68q0 -7 -2 -9q8 -55 49 -55q39 0 72.5 49.5t52.5 120.5q10 39 10 41z" />
    <glyph glyph-name="J_r" horiz-adv-x="1110" 
d="M264 1073q106 0 171 -82.5t65 -226.5q0 -258 -47 -531q155 84 206 230q-57 65 -57 137q0 38 12 60t35 22q15 0 29.5 -4t30.5 -14t26 -31.5t10 -52.5q0 -13 -12 -57.5t-12 -65.5q4 -3 42 -26t64.5 -45t26.5 -38q0 -30 -37 -164q-63 -235 -63 -311q0 -53 16.5 -89.5
t44.5 -39.5q42 0 94.5 58t98 143.5t78.5 160t53 130.5q2 6 9.5 10.5t14.5 1.5q6 -2 10 -10t3 -15q-17 -52 -54 -129q-42 -94 -78 -162.5t-80.5 -136.5t-91 -103.5t-92.5 -35.5q-79 0 -119 61.5t-40 157.5q0 39 10 95t20 96.5t33 128.5q45 172 45 198q0 4 -4 8.5t-14 14
t-13 12.5q-5 3 -8 8q-61 -158 -248 -252q-11 -56 -25 -110t-37 -121t-49.5 -124t-64 -113.5t-80 -96t-99 -64t-118.5 -24.5h-14h-10q-97 8 -154 65t-57 148q0 83 57 159t144 128.5t192 81.5q106 30 176 57l10 39q25 98 39.5 269t14.5 302q0 256 -103 256q-78 0 -145.5 -81
t-67.5 -175q0 -8 -5.5 -13t-12.5 -5q-8 0 -13.5 5.5t-5.5 12.5q0 109 78 201t172 92zM-49 -430q55 4 107.5 53.5t95 131.5t76 172.5t61.5 195.5q-25 -8 -77 -23.5t-77 -23.5q-154 -43 -260 -135t-106 -197q0 -77 47.5 -123.5t132.5 -50.5z" />
    <glyph glyph-name="T_h" horiz-adv-x="1028" 
d="M111 -113q-2 6 3.5 164.5t25.5 460t50 588.5q-243 -14 -319 -191q-3 -12 -16 -12q-1 0 -3.5 1t-3.5 1q-17 7 -10 25q25 61 66.5 104t95.5 66.5t112.5 34t129.5 10.5q122 0 362 -41q67 183 161.5 271.5t229.5 88.5q68 0 107 -42.5t39 -117.5q0 -105 -78 -189.5t-195 -84.5
q-38 0 -120 12q-111 -387 -164 -995q63 147 131 260t114 113q21 0 35 -17q13 -14 15.5 -43.5t-0.5 -52.5t-11 -76q-2 -20 -3 -42.5t0 -56.5t13 -55.5t33 -21.5q84 0 140 184q7 13 18 13q9 0 14.5 -8t3.5 -17q-12 -36 -21.5 -60t-28.5 -59.5t-38 -57t-48 -38t-62 -16.5
q-45 0 -77 17t-47.5 43.5t-24.5 59t-7 64t4 57.5q1 6 3.5 17t4 19t3.5 14q-48 -78 -99.5 -188.5t-75.5 -186.5q-1 -7 -2 -21.5t-2 -21.5q-1 -21 -21 -33t-48 -12q-34 0 -58 17.5t-24 51.5q0 24 4.5 112t24 283.5t49.5 368.5q44 258 96 410q-161 29 -242 35
q-31 -278 -54 -553t-34.5 -454t-13.5 -200q-1 -29 -24.5 -47t-51.5 -18q-26 0 -43.5 16t-17.5 47zM758 1071q98 -10 110 -10q101 0 167.5 73t66.5 164q0 123 -107 123q-133 0 -237 -350z" />
    <glyph glyph-name="s_r" horiz-adv-x="778" 
d="M578 -70q14 0 26.5 3t24.5 10t21 13t20 20t17 21.5t16.5 26t15 26.5t16 30t15.5 29q34 62 53 127q8 15 24 12q17 -9 11 -25q-5 -30 -52 -129q-52 -108 -78 -143q-56 -73 -130 -74q-79 0 -117 47q-24 32 -23 90.5t11 97t32 111.5q27 87 27 111q0 13 -9 28t-18.5 25.5
t-29.5 30.5q-25 -125 -185 -225q29 -74 29 -123q0 -76 -54.5 -134.5t-129.5 -58.5q-50 0 -79.5 30t-29.5 68q0 109 158 201q-18 45 -72 139q-21 -86 -33 -110q-7 -21 -18 -21l-8 2q-19 8 -13 23q2 7 8.5 29.5t17.5 58.5t19 65q-45 88 -45 121q0 14 15.5 21.5t36.5 7.5
q18 0 31.5 -5.5t13.5 -12.5q0 -23 22 -64t59 -101t58 -104q154 99 162 226q-62 66 -62 133q0 35 16 60.5t40 25.5q88 0 88 -117q0 -34 -43 -82q18 -21 61.5 -54t71.5 -61t28 -53q0 -28 -20 -90q-48 -160 -51 -216q-3 -67 35 -67zM174 141q-51 -27 -93 -72t-42 -94
q0 -22 16.5 -36.5t36.5 -14.5q49 0 73.5 37.5t24.5 101.5q0 32 -16 78z" />
    <glyph glyph-name="o_r" horiz-adv-x="874" 
d="M541 416q-11 -51 -26 -89t-39.5 -74.5t-62.5 -55.5t-89 -19l-2 -6q-36 -78 -88 -122t-105 -44q-44 0 -86.5 34t-42.5 99q0 106 61 228q5 14 41 14q35 0 41 -6q18 -7 11 -25q-29 -60 -52 -145.5t0 -122.5q16 -23 52 -23q37 0 71 33t58 88q-48 15 -81.5 57t-33.5 91
q0 60 26 93.5t60 33.5q44 0 73 -33t29 -84q0 -55 -20 -123q29 1 52 11t46.5 34.5t41.5 72.5t30 118q-64 72 -64 131q0 35 16 60.5t40 25.5q88 0 88 -117q0 -34 -41 -80v-8q4 -3 11 -10.5t11 -10.5q10 -10 48.5 -36.5t64 -52.5t25.5 -52q0 -25 -21 -90q-10 -32 -15.5 -53
t-15 -59t-12.5 -63t-3 -52t9 -40.5t27 -13.5q14 0 26.5 3t24.5 10t21 13t20 20t17 21.5t16.5 26t15 26.5t16 30t15.5 29q29 56 53 127q2 6 9 9.5t14 2.5q19 -8 12 -25q-24 -72 -53 -129q-52 -109 -80 -145q-55 -72 -129 -72q-50 0 -83 14t-45 45.5t-17 57t5 75t15.5 72
t21.5 73.5q1 5 2 7q29 93 29 111q0 13 -10 29t-18 24zM297 215q20 65 20 123q0 32 -16.5 55t-46.5 23q-17 0 -33 -21t-16 -67q0 -36 26.5 -68.5t65.5 -44.5z" />
    <glyph glyph-name="C_r" horiz-adv-x="1148" 
d="M344 -223q-31 0 -54 2t-61.5 12t-66.5 28t-60.5 54t-53 86t-34.5 128.5t-14 176.5q0 181 23 330.5t62.5 251.5t93.5 171.5t114 101.5t125 32q80 0 123 -72t43 -168q0 -7 -5.5 -12.5t-13.5 -5.5q-7 0 -12.5 5.5t-5.5 12.5q0 80 -33.5 140.5t-95.5 60.5q-31 0 -65 -35
t-67 -107t-59.5 -170.5t-42.5 -238t-16 -297.5q0 -114 18.5 -203t47.5 -138t60 -73t62 -24q57 0 121 66t113.5 155.5t93.5 188t65.5 158t24.5 69.5q-51 59 -51 121q0 35 15.5 60.5t39.5 25.5q88 0 88 -117q0 -37 -45 -82q18 -20 62.5 -53t73 -61t28.5 -54q0 -28 -20 -90
q-46 -154 -51 -208q-6 -75 34 -75q14 0 26.5 3t24.5 10t21 13t20 20t17 21.5t16.5 26t15 26.5t16 30t15.5 29q27 49 54 127q8 16 22 12q19 -8 12 -25q-6 -33 -51 -129q-53 -111 -84 -150q-54 -67 -125 -67q-43 0 -72 14t-44.5 32.5t-20 52.5t-4 58t10.5 67.5t15.5 62
t18.5 59.5q27 87 27 111q0 13 -9.5 28.5t-18.5 25t-30 30.5q-2 1 -4.5 3t-6.5 5.5t-7 5.5q-170 -539 -375 -635q-42 -20 -84 -20z" />
    <glyph glyph-name="E_r" horiz-adv-x="1261" 
d="M412 -170q-185 0 -298.5 101t-113.5 292q0 108 43 193.5t113 136t152 76.5t167 26q-10 0 -34 5.5t-61 23t-69 42.5t-55 70.5t-23 102.5q0 111 86.5 178.5t217.5 67.5q49 0 90.5 -18t66.5 -42t42.5 -50.5t24.5 -43t7 -18.5q4 -19 -14 -23q-8 -2 -15 3t-8 12q-16 49 -36 74
q-50 64 -136 65q-67 0 -115.5 -53t-48.5 -152q0 -49 18.5 -92t44 -69t53 -45t45 -26.5t19.5 -7.5q13 -7 13 -20q-3 -16 -19 -16q-68 0 -132 -24.5t-117 -72t-85 -126t-32 -177.5q0 -80 28 -149.5t91.5 -117.5t150.5 -48q53 0 102.5 29t86 72.5t69.5 104t54 113.5t39.5 112.5
t25.5 88.5t12 53q-37 50 -37 103q0 34 17 59t41 25q86 0 86 -117q0 -34 -43 -82q18 -20 62.5 -53t73 -61t28.5 -54q0 -13 -3 -27.5t-9.5 -34t-8.5 -28.5q-9 -30 -15 -53t-15 -59.5t-12 -62.5t-3 -52t9.5 -40t27.5 -14q14 0 26.5 3t24.5 10t21 13t20 20t17 21.5t16.5 26
t15 26.5t16 30t15.5 29q29 56 53 127q2 6 9 9.5t14 2.5q19 -8 12 -25q-24 -73 -51 -129q-53 -107 -77 -139q-57 -78 -132 -78q-45 0 -75.5 13t-47 31t-22 50t-5 57t9.5 66.5t15.5 64t19.5 62.5q27 87 27 111q0 29 -59 84q-1 1 -6 5.5t-12 11t-13 13.5q-6 -34 -14 -68.5
t-28 -99.5t-44 -120t-63.5 -118t-85 -107t-109.5 -73.5t-137 -29.5z" />
    <glyph glyph-name="t_t" horiz-adv-x="790" 
d="M154 -164q-19 0 -38.5 7t-40.5 27t-36.5 50.5t-26 82.5t-10.5 118q0 217 57 663q-207 17 -260 -26q-15 -11 -26 4t4 26q65 50 286 33q22 171 39 301q3 19 39 19q34 0 66 -14.5t31 -34.5q-20 -110 -41 -285q21 -2 82 -10q128 -17 182 -21q5 38 17 125t18 137q3 21 36 21
q32 0 62 -15.5t29 -35.5q-23 -175 -31 -242q179 -3 217 55q5 6 13 7t14 -3q14 -10 6 -26q-49 -70 -226 -70h-28q-17 -159 -27 -298t-11.5 -260.5t11.5 -192t41 -70.5t78 60t84 141q33 73 51 127q3 16 23 12q19 -8 12 -25q-1 -1 -6 -15.5t-10.5 -30t-15.5 -39t-21 -44.5
q-42 -94 -105.5 -165.5t-113.5 -71.5q-24 0 -51 13.5t-54 42t-45 83t-18 125.5v14q-26 -53 -53 -99t-61 -94.5t-71.5 -77t-70.5 -28.5zM412 229q5 177 45 508q-132 12 -264 33q-27 -221 -41 -423t-10.5 -331t26.5 -129q31 0 78.5 58.5t87.5 130.5t78 153z" />
    <glyph glyph-name="l_l" horiz-adv-x="708" 
d="M516 -92q35 0 86 59t86 142q33 73 51 127q3 16 23 12q19 -8 12 -25q-1 -1 -6 -15.5t-10.5 -30t-15.5 -39t-21 -44.5q-42 -94 -105.5 -165.5t-113.5 -71.5q-64 0 -110.5 48t-47.5 144q-97 -274 -184 -274q-66 0 -113 50t-47 150q0 187 30 410.5t70.5 397t77 297.5
t53.5 153q20 35 50 35q23 0 34 -24t2 -62q-5 -18 -24.5 -83.5t-37 -130t-45 -191.5t-52.5 -275l-8 -47q-48 -294 -48 -504q0 -62 20.5 -94.5t47.5 -32.5q39 0 88 110t88 248q6 166 28.5 335.5t49 287t47.5 193t31 94.5q11 24 39 24q20 0 32.5 -13.5t6.5 -35.5
q-15 -53 -42.5 -182.5t-60.5 -383.5t-33 -468q0 -61 22 -93t50 -32z" />
    <glyph glyph-name="r_r" horiz-adv-x="952" 
d="M750 -123q-59 0 -95 29.5t-47.5 73.5t-12 100.5t7.5 103t16 90t8 54.5q0 28 -74 98l-12 -70q-69 -383 -114.5 -535t-117.5 -188q-22 -14 -53 -14q-78 0 -129 52.5t-51 140.5q0 20 3.5 48t8 52t13.5 64.5t14.5 62.5t18 71t16.5 66q45 158 45 199q0 4 -14 15.5t-33.5 26.5
t-24.5 19q-69 -228 -70 -231q-7 -21 -18 -21l-8 2q-19 8 -13 23q3 11 15.5 54t31 103.5t29.5 100.5q-61 65 -61 141q0 37 12 59.5t33 22.5q37 0 67.5 -22t30.5 -80q0 -13 -13.5 -57.5t-13.5 -65.5q4 -3 53.5 -33.5t85 -58t35.5 -43.5q0 -31 -34 -164q-24 -89 -46 -202.5
t-28 -174.5q-6 -56 5 -92.5t40 -36.5t57 33.5t50.5 92.5t42 123t36.5 142.5t27 133.5t20 113t11 64l18 93q-25 26 -37 55t-12 82q0 42 15 72t36 30q15 0 24 -2.5t22 -11.5t19.5 -32t6.5 -60q0 -32 -23 -115l25 -24q11 -11 49.5 -38t63 -53t24.5 -51q0 -5 -5 -49.5t-9 -96.5
t-5 -106t8.5 -89.5t29.5 -35.5q14 0 27 2.5t25 10t21.5 13.5t20.5 20t17 21.5t17 26.5t15 26.5t15.5 29.5t15.5 29q29 56 53 127q2 6 8.5 9.5t13.5 2.5q8 -3 12 -10.5t1 -14.5q-22 -66 -54 -129q-52 -108 -78 -143q-56 -73 -130 -74z" />
    <glyph glyph-name="s_s" horiz-adv-x="768" 
d="M420 -117q-51 0 -82 26.5t-31 63.5q0 31 21.5 63.5t50.5 56t66 45.5t62 33.5t44 18.5q-22 55 -72 142q-4 9 -13 26.5t-13 26.5q-32 -64 -81 -106.5t-120 -81.5q27 -73 27 -127q0 -78 -47 -135.5t-121 -57.5q-51 0 -82 26.5t-31 63.5t18.5 74t47.5 65.5t51.5 46t42.5 29.5
q-24 53 -70 133q-21 -86 -33 -110q-7 -21 -18 -21l-8 2q-19 8 -13 23q2 7 8.5 29.5t17.5 58.5t19 65q-45 88 -45 121q0 14 15.5 21.5t36.5 7.5q18 0 31.5 -5.5t13.5 -12.5q0 -23 19.5 -63t53.5 -99.5t52 -100.5q144 83 192 197q-33 75 -33 111q0 13 16.5 19.5t39.5 6.5
q49 0 49 -16q0 -51 78 -199q41 -74 63 -123q96 33 158 33q20 0 20 -18q0 -8 -5.5 -13.5t-14.5 -5.5q-62 0 -144 -30q21 -61 21 -97q0 -85 -65 -149t-193 -64zM563 156q-44 -18 -89 -43t-87.5 -65t-42.5 -75q0 -17 18.5 -30t38.5 -13q76 0 124 50.5t48 115.5q0 27 -10 60z
M172 150q-49 -28 -93 -80t-44 -103q0 -21 17.5 -32t39.5 -11q49 0 73.5 37.5t24.5 101.5q0 31 -18 87z" />
    <glyph glyph-name="t_h" horiz-adv-x="970" 
d="M160 -178q-25 0 -49 11t-48.5 37t-39.5 78t-15 124q0 237 80 852q-201 -27 -270 -187q-4 -10 -23 -10q-7 3 -10 11t0 14q76 184 307 211q5 34 14.5 102t14.5 102q3 21 37 21q32 0 61.5 -15t28.5 -36q-4 -27 -23 -170q100 -4 307 -37q65 270 159 398t243 128
q83 0 129.5 -58t46.5 -161q0 -75 -29.5 -135.5t-76 -99.5t-108.5 -66.5t-121 -40t-120 -16.5q-78 -349 -125 -838q63 146 131.5 258.5t114.5 112.5q21 0 35 -17q13 -14 15.5 -43.5t-0.5 -52.5t-11 -76q-21 -174 41 -174q83 0 139 184q7 13 19 13q9 0 15 -8t3 -17
q-14 -43 -28 -75.5t-38 -72t-57.5 -61.5t-74.5 -22q-166 0 -125 246q1 10 4 27t4 22q-60 -99 -124 -231t-77 -193q-1 -21 -17.5 -33t-37.5 -12q-27 0 -46.5 17.5t-19.5 51.5q0 46 13 203q-61 -109 -128 -187.5t-120 -78.5zM664 918q56 5 109.5 16.5t109 36.5t97 59.5
t67.5 88t26 118.5q0 84 -35 131.5t-98 50.5q-156 -4 -276 -501zM418 197q41 415 106 696q-201 33 -303 37q-22 -183 -39 -355t-27.5 -332t-5.5 -257t27 -97q43 0 113 95t129 213z" />
    <glyph glyph-name="O_i" horiz-adv-x="1073" 
d="M299 -164q-44 0 -84.5 9.5t-80.5 33.5t-69 60.5t-47 96.5t-18 136q0 117 33.5 291t83.5 270q-15 5 -25 45.5t-10 65.5q0 138 102 230.5t254 92.5q23 0 47 -3t61 -14.5t69.5 -31t67.5 -57t59.5 -86.5t40.5 -125.5t16 -169.5q0 -72 -25 -178t-72.5 -221.5t-107.5 -215
t-138.5 -164.5t-156.5 -65zM137 768q13 22 29 45q18 21 74 21q65 0 93 -21q12 -10 5 -20q-35 -51 -76 -154q134 -82 301 -82q98 0 189 29q8 47 8 94q0 84 -13 152.5t-33.5 114.5t-50 80.5t-58 53.5t-62 30.5t-57.5 15t-48 3.5q-136 0 -226.5 -81.5t-90.5 -204.5
q0 -43 16 -76zM874 655q0 30 19.5 48t42.5 18q40 0 65 -25t25 -53q0 -25 -25.5 -51.5t-52.5 -26.5q-31 0 -52.5 24t-21.5 66zM250 602q-58 -171 -70 -356t31 -271q37 -69 111 -69q68 0 138 63t124.5 160.5t96 206.5t62.5 209q-91 -27 -178 -27q-171 0 -315 84zM944 16
q85 0 154 217q6 13 18 13q9 0 15 -8t4 -17q-79 -241 -191 -241q-36 0 -62 9.5t-38 21t-18.5 29t-7.5 26t-1 20.5q0 80 17.5 198.5t29.5 141.5q6 6 39.5 1t42.5 -9q16 -6 8 -25q-10 -33 -24.5 -117.5t-15.5 -172t30 -87.5z" />
    <glyph glyph-name="O_j" horiz-adv-x="1157" 
d="M299 -143q-44 0 -84.5 9.5t-80.5 33.5t-69 60.5t-47 96.5t-18 136q0 115 33 280t84 260q-15 5 -25 45.5t-10 65.5q0 138 102 230.5t254 92.5q23 0 47 -3t61 -14.5t69.5 -31t67.5 -57t59.5 -86.5t40.5 -125.5t16 -169.5q0 -72 -25 -176t-72.5 -216t-107.5 -209
t-138.5 -159.5t-156.5 -62.5zM137 768q19 40 39 53t64 13q65 0 93 -21q12 -10 5 -20q-35 -51 -76 -154q131 -82 301 -82q98 0 189 29q8 47 8 94q0 84 -13 152.5t-33.5 114.5t-50 80.5t-58 53.5t-62 30.5t-57.5 15t-48 3.5q-136 0 -226.5 -81.5t-90.5 -204.5q0 -43 16 -76z
M1012 645q0 -37 -21.5 -63.5t-52.5 -26.5q-29 0 -50.5 26.5t-21.5 63.5t21.5 62.5t50.5 25.5q31 0 52.5 -25.5t21.5 -62.5zM250 604q-58 -168 -70 -345t31 -263q37 -70 111 -70q68 0 137.5 60.5t124 155t96.5 200t63 203.5q-91 -27 -178 -27q-173 0 -315 86zM500 -799
q-71 0 -135 65t-64 156q0 59 28 119t70.5 108.5t101 96.5t112 82t111.5 65.5t91 47t59 26.5q3 39 5 79t2.5 75.5t1 70.5t0 64t-1 55t-1.5 46.5t-1.5 35t-0.5 23.5l-1 8q0 17 16 20q17 0 58.5 -5t41.5 -11q2 -16 4.5 -69t2.5 -161.5t-7 -211.5q77 60 117 124.5t78 170.5
q3 14 16 14q10 0 16 -8t3 -17q-81 -242 -234 -333q-45 -445 -198 -613q-67 -76 -136.5 -99.5t-154.5 -23.5zM870 -76q-47 -21 -100.5 -48.5t-135 -80t-143.5 -106.5t-107.5 -126t-45.5 -141q0 -77 42.5 -121t98.5 -44q62 0 115 26t90.5 67t68.5 100.5t50 117.5t33.5 127.5
t21.5 121.5t12 107z" />
    <glyph glyph-name="O_r" horiz-adv-x="1265" 
d="M965 418q-4 4 -12.5 11t-12.5 11q-37 -83 -105.5 -149.5t-152.5 -91.5q-34 -76 -73 -138.5t-87 -114t-105 -80t-118 -28.5q-44 0 -84.5 9.5t-80.5 33.5t-69 60.5t-47 96.5t-18 136q0 77 16.5 196.5t42.5 217.5q-20 79 -20 180q0 177 110.5 288t288.5 111
q98 0 170.5 -42.5t112.5 -114.5t59 -154.5t19 -175.5q0 -79 -26.5 -198.5t-72.5 -237.5q135 52 213 229q-47 57 -47 111q0 35 16 60.5t40 25.5q88 0 88 -117q0 -22 -11.5 -47.5t-25.5 -40.5q14 -15 57 -47.5t70.5 -61.5t27.5 -53q0 -28 -20 -90q-48 -160 -51 -216
q-3 -67 35 -67q14 0 26.5 3t24.5 10t21 13t20 20t17 21.5t16.5 26t15 26.5t16 30t15.5 29q34 62 53 127q8 15 24 12q17 -9 11 -25q-5 -30 -52 -129q-52 -108 -78 -143q-56 -73 -130 -74q-79 0 -117 47q-24 32 -23 90.5t11 97t32 111.5q27 87 27 111q0 13 -9 28t-18.5 25.5
t-29.5 30.5zM438 1130q-91 0 -162.5 -31t-114 -83t-64 -115t-21.5 -133q0 -56 6 -109q4 8 14 33l31 60q31 51 39 63q16 19 74 19q67 0 93 -20q12 -9 5 -19q-94 -142 -141 -408q137 -164 395 -164q23 0 51 4q54 118 85.5 243t31.5 210q0 84 -13 153t-33.5 115t-50 80.5
t-58 53t-62 30t-57.5 15t-48 3.5zM594 186q-257 0 -404 154q-34 -259 21 -363q37 -69 111 -69q86 0 163.5 77t139.5 203q-10 -2 -31 -2z" />
    <glyph glyph-name="O_l" horiz-adv-x="1196" 
d="M55 590q-12 82 -12 178q0 180 112.5 289.5t293.5 109.5q25 -1 49.5 -5t60.5 -17.5t67.5 -34t64 -58t55.5 -86.5t38 -123t15 -163q0 -86 -36.5 -203.5t-98.5 -226.5q108 39 210 133q21 178 64 346.5t95.5 290.5t112 196t111.5 74q44 0 73.5 -28.5t29.5 -98.5
q0 -94 -122 -318.5t-245 -385.5q-35 -202 -35 -406q0 -62 20.5 -94.5t47.5 -32.5t58 35.5t58.5 93t44.5 98.5t32 83q1 6 8.5 10t13.5 2q19 -8 12 -25q-24 -73 -51 -129q-49 -111 -90 -164t-96 -53q-65 0 -112.5 50.5t-47.5 150.5q0 138 14 258q-107 -89 -233 -131
q-73 -111 -160 -178.5t-178 -67.5q-44 0 -84 9.5t-80 33.5t-69.5 61t-47.5 97t-18 137q0 142 55 293zM1008 539q116 171 215.5 359t99.5 265q0 78 -51 78q-16 0 -36 -25t-40.5 -68.5t-38.5 -87t-36 -95t-26.5 -77t-15.5 -48.5q-44 -150 -71 -301zM438 1130q-90 -1 -160 -32
t-112.5 -82.5t-64 -114.5t-21.5 -133q0 -69 4 -102q42 89 82 147q18 21 74 21q65 0 93 -21q12 -10 5 -20q-122 -182 -152 -416q114 -154 332 -154q46 0 96 13q66 102 106 226t40 218q0 84 -13 152.5t-33.5 114.5t-50 80.5t-58 53.5t-62 30.5t-57.5 15t-48 3.5zM518 186
q-221 0 -338 123q-10 -134 31 -211q38 -69 111 -69q138 0 264 164q-40 -7 -68 -7z" />
    <glyph glyph-name="a.002" horiz-adv-x="2109" 
d="M1653 -113q-108 0 -227 38t-222 104q-102 -80 -211 -118t-202 -38q-84 0 -164 17t-153.5 52.5t-128 97t-75.5 142.5q-91 -182 -159 -182q-16 0 -32 4t-35.5 16t-31.5 39.5t-12 67.5q0 133 44.5 216t102.5 83q76 0 115 -51q2 9 5 27.5t5 27.5q12 12 41 12q30 0 56.5 -10
t33.5 -26q-48 -173 19 -300q53 -96 159.5 -144t213.5 -48q92 0 193 40.5t181 98.5q-107 76 -166 167.5t-59 180.5q0 63 37.5 96t91.5 33q49 0 87.5 -42t51.5 -93q22 57 60 96t90 39q48 0 83.5 -30.5t35.5 -87.5q0 -100 -74 -199.5t-172 -159.5q203 -129 418 -129
q169 0 327 125q58 46 98.5 93.5t47.5 68.5q3 16 22 12q16 -7 13 -24q-9 -28 -52 -79.5t-106 -99.5q-166 -133 -350 -133zM1073 494q-10 0 -21.5 -2.5t-29.5 -10.5t-29.5 -28.5t-11.5 -51.5q0 -84 59.5 -169.5t159.5 -155.5q87 40 165.5 143.5t78.5 192.5q0 40 -24 61t-58 21
q-51 0 -91 -62.5t-40 -142.5q0 -7 -5.5 -13t-13.5 -6h-2q-7 0 -12.5 5.5t-5.5 13.5q0 84 -35.5 144.5t-83.5 60.5zM106 37h5q27 0 70.5 67.5t76.5 143.5q-2 14 -2 45q-2 33 -16 54.5t-41 21.5q-25 0 -55.5 -69.5t-42 -143.5t4.5 -119z" />
    <glyph glyph-name="b.001" horiz-adv-x="2326" 
d="M1870 -113q-108 0 -228 38t-223 104q-176 -119 -411 -119q-67 0 -134.5 14.5t-135.5 44t-108 50t-104 57.5q-68 -92 -166 -92q-32 0 -55 19t-33 46q-12 -73 -12 -147q1 -16 -17.5 -25.5t-45.5 -9.5q-46 0 -52 29q-2 4 -6.5 32t-10 92t-5.5 136q0 264 44 514t125 414.5
t177 164.5q25 0 47.5 -28t22.5 -78q0 -55 -32.5 -123.5t-82.5 -131.5t-77 -93.5t-48 -51.5q-59 -283 -59 -587q0 -59 2 -86q32 146 100 255t125 109q125 0 125 -176q0 -74 -43 -149q7 -4 40.5 -22.5t45 -24.5t44.5 -23t50.5 -23.5t49 -19.5t55.5 -19t55 -13t61.5 -10
t61.5 -3q229 0 374 102q-107 76 -166 167.5t-59 180.5q0 63 37.5 96t91.5 33q49 0 88 -42t52 -93q22 57 59.5 96t89.5 39q48 0 83.5 -30.5t35.5 -87.5q0 -100 -74 -199.5t-172 -159.5q203 -129 418 -129q170 0 328 125q58 46 97.5 93t47.5 69q3 16 22 12q16 -7 13 -24
q-9 -28 -52 -79.5t-106 -99.5q-166 -133 -350 -133zM473 1202q-16 0 -42 -46t-58 -137.5t-58 -203.5q185 207 185 328q0 59 -27 59zM1290 494q-10 0 -21.5 -2.5t-29.5 -10.5t-29.5 -28.5t-11.5 -51.5q0 -84 59.5 -169.5t159.5 -155.5q87 40 165.5 143.5t78.5 192.5
q0 40 -24 61t-58 21q-51 0 -91 -62.5t-40 -142.5q0 -8 -5.5 -13.5t-12.5 -5.5h-3q-7 0 -12.5 5.5t-5.5 13.5q0 84 -35.5 144.5t-83.5 60.5zM301 152q29 20 76 20q37 0 80 -18q30 79 30 147q0 80 -32 80q-28 0 -74.5 -68t-79.5 -161zM444 121q-49 22 -77 22q-35 0 -57.5 -15
t-22.5 -40q0 -24 15.5 -39.5t45.5 -15.5q56 0 96 88z" />
    <glyph glyph-name="c.002" horiz-adv-x="2017" 
d="M1561 -113q-108 0 -228 38t-223 104q-110 -73 -271.5 -121.5t-267.5 -48.5q-123 -5 -226 13.5t-180.5 58.5t-121 107.5t-43.5 156.5q0 72 28.5 130.5t71.5 91t86 49.5t80 17q51 0 80 -36t29 -76q-2 -22 -12.5 -31.5t-36.5 -9.5q-13 0 -23 11.5t-10 25.5q0 15 7.5 31.5
t23.5 23.5q-17 24 -58 24q-56 0 -99.5 -69t-43.5 -180q0 -138 119 -219t333 -78q120 1 266.5 48t235.5 105q-107 76 -166 167.5t-59 180.5q0 63 37.5 96t91.5 33q49 0 87.5 -42t51.5 -93q22 57 60 96t90 39q48 0 83.5 -30.5t35.5 -87.5q0 -100 -74 -199.5t-172 -159.5
q203 -129 418 -129q169 0 327 125q58 46 98.5 93.5t47.5 68.5q3 16 22 12q16 -6 12 -24q-9 -28 -51.5 -79.5t-105.5 -99.5q-166 -133 -350 -133zM981 494q-10 0 -21.5 -2.5t-29.5 -10.5t-29.5 -28.5t-11.5 -51.5q0 -84 59.5 -169.5t159.5 -155.5q87 40 165.5 143.5
t78.5 192.5q0 40 -24 61t-58 21q-51 0 -91 -62.5t-40 -142.5q0 -7 -5.5 -13t-13.5 -6h-2q-7 0 -12.5 5.5t-5.5 13.5q0 84 -35.5 144.5t-83.5 60.5z" />
    <glyph glyph-name="d.001" horiz-adv-x="2222" 
d="M1765 -113q-108 0 -227.5 38t-222.5 104q-114 -79 -243.5 -124.5t-254.5 -45.5q-212 3 -357.5 92t-162.5 252q-42 -91 -89.5 -157t-90.5 -66q-49 0 -83 36t-34 93q0 155 60 243t165 88q41 0 70 -32q10 216 57 418t115.5 327t136.5 125q25 0 50.5 -37t25.5 -106
q0 -168 -254 -549q-16 -141 -16 -281q0 -107 32 -186.5t89 -126.5t129.5 -69.5t160.5 -22.5q253 0 461 153q-107 76 -166 167.5t-59 180.5q0 63 37.5 96t91.5 33q49 0 87.5 -42t51.5 -93q22 57 60 96t90 39q48 0 83 -30.5t35 -87.5q0 -100 -73.5 -199.5t-171.5 -159.5
q203 -129 417 -129q170 0 328 125q58 46 97.5 93t47.5 69q3 16 23 12q16 -6 12 -24q-9 -28 -51.5 -79.5t-105.5 -99.5q-166 -133 -351 -133zM616 1217q-17 -11 -48.5 -78.5t-69 -196t-60.5 -270.5q205 335 205 463q0 35 -7.5 57.5t-19.5 24.5zM1186 494q-10 0 -21.5 -2.5
t-29.5 -10.5t-29.5 -28.5t-11.5 -51.5q0 -84 59.5 -169.5t159.5 -155.5q87 40 165 143.5t78 192.5q0 40 -23.5 61t-57.5 21q-51 0 -91.5 -63t-40.5 -142q0 -8 -5.5 -13.5t-12.5 -5.5h-2q-7 0 -12.5 5.5t-5.5 13.5q0 84 -35.5 144.5t-83.5 60.5zM293 283v22v45q-15 43 -51 43
q-16 0 -38 -18.5t-45 -53t-39 -96t-16 -135.5q0 -28 11 -41.5t24 -13.5q19 0 64 73.5t90 174.5z" />
    <glyph glyph-name="e.002" horiz-adv-x="1763" 
d="M1307 -113q-108 0 -227 38t-222 104q-226 -170 -438 -170q-110 2 -205 41.5t-154 113t-59 164.5q0 76 18.5 137t45.5 97t61.5 60t63.5 33t55 9q32 0 65 -30t33 -85q0 -68 -16.5 -115t-43.5 -68.5t-51 -29.5t-49 -8q-36 0 -59 23q0 -6 -1 -18t-1 -17q0 -121 86.5 -193.5
t214.5 -72.5q124 0 218 41.5t181 109.5q-107 78 -166 169.5t-59 180.5q0 63 37.5 96t91.5 33q49 0 87.5 -42t51.5 -93q22 57 60 96t90 39q48 0 83.5 -30.5t35.5 -87.5q0 -100 -74 -199.5t-172 -159.5q203 -129 418 -129q169 0 327 125q58 46 98.5 93.5t47.5 68.5q3 16 22 12
q16 -7 13 -24q-9 -28 -52 -79.5t-106 -99.5q-166 -133 -350 -133zM727 494q-10 0 -21.5 -2.5t-29.5 -10.5t-29.5 -28.5t-11.5 -51.5q0 -84 59.5 -169.5t159.5 -155.5q87 40 165.5 143.5t78.5 192.5q0 40 -24 61t-58 21q-51 0 -91 -62.5t-40 -142.5q0 -7 -5.5 -13t-13.5 -6
h-2q-7 0 -12.5 5.5t-5.5 13.5q0 84 -35.5 144.5t-83.5 60.5zM131 252q19 -37 53 -37q11 0 26.5 11t31 32t26.5 58.5t11 82.5q0 36 -10 57t-23 21q-31 0 -56 -38t-38 -85t-21 -102zM119 299v16v-16z" />
    <glyph glyph-name="f.001" horiz-adv-x="1906" 
d="M139 264q34 -5 58 -30t35 -61.5t15.5 -69t4.5 -66.5q0 -31 -2 -45q141 -92 317 -92q124 0 218.5 41.5t181.5 109.5q-108 78 -167 169.5t-59 180.5q0 63 37.5 96t91.5 33q49 0 88 -42t52 -93q22 57 59.5 96t89.5 39q48 0 83.5 -30.5t35.5 -87.5q0 -100 -74 -199.5
t-172 -159.5q203 -129 418 -129q170 0 328 125q58 46 97.5 93t47.5 69q3 16 23 12q16 -6 12 -24q-9 -28 -52 -79.5t-106 -99.5q-166 -133 -350 -133q-108 0 -227 38t-222 104q-226 -170 -438 -170q-169 0 -315 86q-2 -6 -2 -19q-21 -227 -94 -303q-16 -20 -33 -20
q-48 0 -88.5 70t-40.5 182q0 204 31.5 419t82 390.5t110 317t119.5 220t107 78.5q39 0 65.5 -39.5t26.5 -122.5q0 -78 -31 -161t-69 -141.5t-92 -119.5t-78.5 -84t-50.5 -45q-44 -158 -72 -303zM459 1206q-31 -6 -99.5 -174t-132.5 -397q32 30 62.5 62t70 83t68 101.5
t48.5 113.5t20 123q0 36 -9.5 62t-27.5 26zM870 494q-10 0 -21.5 -2.5t-29.5 -10.5t-29.5 -28.5t-11.5 -51.5q0 -84 59.5 -169.5t159.5 -155.5q87 40 165.5 143.5t78.5 192.5q0 40 -24 61t-58 21q-51 0 -91 -62.5t-40 -142.5q0 -8 -5.5 -13.5t-12.5 -5.5h-2q-8 0 -13.5 6
t-5.5 13q0 84 -35.5 144.5t-83.5 60.5zM113 109q63 -63 100 -91q-13 199 -80 211q-9 -45 -20 -120zM119 -358q14 13 30.5 42t36.5 106.5t25 178.5q-43 28 -107 84q-12 -108 -12 -198q0 -164 27 -213z" />
    <glyph glyph-name="g.002" horiz-adv-x="1988" 
d="M1532 -113q-108 0 -227 38t-222 104q-58 -41 -124 -72t-144 -51t-129.5 -30.5t-144.5 -25t-125 -20.5q-2 -98 -2 -236q0 -186 -73 -301.5t-187 -115.5q-71 0 -125 71t-54 203q0 77 17 138.5t46 103.5t74 74t93.5 51.5t111.5 34.5q6 198 17 315q-105 -174 -187 -174
q-20 0 -44 9t-48 26.5t-39.5 51.5t-15.5 77q0 66 14 116t35 78.5t49.5 46t54 23.5t52.5 6q48 0 87.5 -26.5t65.5 -65.5q26 138 80 192q9 6 48.5 -1t39.5 -25q-97 -97 -110 -629q36 6 125 20t140 23.5t124 28t133 45.5t111 63q-107 77 -166.5 168t-59.5 180q0 63 37.5 96
t91.5 33q49 0 88 -42t52 -93q22 57 59.5 96t89.5 39q48 0 83.5 -30.5t35.5 -87.5q0 -100 -74 -199.5t-172 -159.5q203 -129 418 -129q170 0 328 125q58 46 97.5 93t47.5 69q3 16 23 12q16 -6 12 -24q-9 -28 -52 -79.5t-106 -99.5q-166 -133 -350 -133zM952 494
q-10 0 -21.5 -2.5t-29.5 -10.5t-29.5 -28.5t-11.5 -51.5q0 -84 59.5 -169.5t159.5 -155.5q87 40 165.5 143.5t78.5 192.5q0 40 -24 61t-58 21q-51 0 -91 -62.5t-40 -142.5q0 -8 -5.5 -13.5t-12.5 -5.5h-2q-8 0 -13.5 6t-5.5 13q0 84 -35.5 144.5t-83.5 60.5zM205 391
q-16 0 -32 -15.5t-31.5 -48t-25.5 -92t-10 -137.5q0 -25 11.5 -45t29.5 -20q40 0 98 73t101 160q0 34 -42.5 79.5t-98.5 45.5zM29 -549q0 -117 35 -177t90 -60q47 0 85.5 62.5t57 148.5t18.5 169v58q0 106 2 155q-68 -17 -117.5 -42t-89.5 -65.5t-60.5 -102.5t-20.5 -146z
" />
    <glyph glyph-name="h.002" horiz-adv-x="2154" 
d="M784 -100q139 0 250 44t183 107q-108 76 -168 168t-60 182q0 63 37.5 96t91.5 33q49 0 87.5 -42t51.5 -93q22 57 60 96t90 39q48 0 83.5 -30.5t35.5 -87.5q0 -100 -74 -199.5t-172 -159.5q203 -129 418 -129q169 0 327 125q58 46 98.5 93.5t47.5 68.5q3 16 22 12
q16 -7 13 -24q-9 -28 -52 -79.5t-106 -99.5q-166 -133 -350 -133q-109 0 -228 37.5t-221 104.5q-96 -78 -219 -124t-248 -46q-129 0 -225 26t-148.5 65.5t-82.5 94.5t-37 104t-2 103q0 8 1.5 16.5t3.5 17.5t3 13q-71 -91 -125.5 -191.5t-67.5 -166.5q-11 -15 -45 -15
q-50 0 -59 25q0 200 29 409t75 376t100 301t106 208t91 74q44 0 71.5 -51t27.5 -135q0 -85 -33.5 -175.5t-73.5 -153t-95.5 -126t-77 -83.5t-40.5 -36q-62 -280 -72 -498q26 58 57 115.5t66.5 113t72.5 90t65 34.5q35 0 42.5 -46.5t-1.5 -108.5q-1 -21 -2 -32
q-3 -42 3.5 -82.5t30 -86.5t63.5 -79.5t112.5 -56t168.5 -22.5zM193 623q40 40 76.5 83.5t84 113t76.5 152t29 161.5q0 122 -31 122q-21 0 -60 -81t-87.5 -230t-87.5 -321zM1118 494q-10 0 -21.5 -2.5t-29.5 -10.5t-29.5 -28.5t-11.5 -51.5q0 -84 59.5 -169.5t159.5 -155.5
q87 40 165.5 143.5t78.5 192.5q0 40 -24 61t-58 21q-51 0 -91 -62.5t-40 -142.5q0 -7 -6 -13t-13 -6h-2q-7 0 -12.5 5.5t-5.5 13.5q0 84 -35.5 144.5t-83.5 60.5z" />
    <glyph glyph-name="i.002" horiz-adv-x="1792" 
d="M43 655q0 30 19 48t42 18q40 0 65.5 -25t25.5 -53q0 -25 -25.5 -51.5t-52.5 -26.5q-31 0 -52.5 24t-21.5 66zM432 -141q-95 2 -173 18.5t-140 49.5t-96.5 88.5t-34.5 129.5q0 184 43 281q7 6 41 1t43 -9q16 -6 8 -25q-1 -2 -6.5 -20t-10 -36.5t-10 -45.5t-9 -60.5
t-3.5 -68.5q0 -122 92 -192t258 -70q252 0 420 151q-108 76 -167.5 168t-59.5 182q0 63 37.5 96t91.5 33q49 0 87.5 -42t51.5 -93q22 57 59.5 96t89.5 39q48 0 83.5 -30.5t35.5 -87.5q0 -100 -73.5 -199.5t-171.5 -159.5q203 -129 417 -129q170 0 328 125q58 46 97.5 93
t47.5 69q3 16 23 12q16 -6 12 -24q-9 -28 -51.5 -79.5t-105.5 -99.5q-166 -133 -351 -133q-109 0 -227.5 37.5t-220.5 104.5q-98 -80 -215 -125.5t-240 -44.5zM756 494q-10 0 -21.5 -2.5t-29.5 -10.5t-29.5 -28.5t-11.5 -51.5q0 -84 59.5 -169.5t159.5 -155.5
q87 40 165 143.5t78 192.5q0 40 -24 61t-58 21q-51 0 -91 -62.5t-40 -142.5q0 -8 -5.5 -13.5t-12.5 -5.5h-2q-7 0 -13 6t-6 13q0 84 -35 144.5t-83 60.5z" />
    <glyph glyph-name="j.001" horiz-adv-x="1681" 
d="M150 645q0 -37 -21.5 -63.5t-50.5 -26.5q-31 0 -52.5 26.5t-21.5 63.5t21.5 62.5t52.5 25.5q29 0 50.5 -25.5t21.5 -62.5zM1225 -113q-108 0 -227 38t-222 104q-51 -35 -117 -64t-120 -46.5t-143.5 -35.5t-134.5 -25t-146 -22q-49 -357 -187 -512q-67 -76 -136 -99.5
t-154 -23.5q-71 0 -135 65t-64 156q0 75 20 135.5t59.5 104t87.5 75.5t116.5 56t132 39t147.5 29q18 152 18 352q0 139 -6 211q0 16 19 20q17 0 57.5 -5t40.5 -11q8 -93 8 -213q0 -180 -18 -336q98 14 140 20.5t127.5 23t135 32t110.5 41.5t107 57q-107 76 -166 167.5
t-59 180.5q0 63 37.5 96t91.5 33q49 0 87.5 -42t51.5 -93q22 57 60 96t90 39q48 0 83.5 -30.5t35.5 -87.5q0 -100 -74 -199.5t-172 -159.5q203 -129 418 -129q169 0 327 125q58 46 98.5 93.5t47.5 68.5q3 16 22 12q16 -7 13 -24q-9 -28 -52 -79.5t-106 -99.5
q-166 -133 -350 -133zM645 494q-10 0 -21.5 -2.5t-29.5 -10.5t-29.5 -28.5t-11.5 -51.5q0 -84 59.5 -169.5t159.5 -155.5q87 40 165.5 143.5t78.5 192.5q0 40 -24 61t-58 21q-51 0 -91 -62.5t-40 -142.5q0 -7 -5.5 -13t-13.5 -6h-2q-7 0 -12.5 5.5t-5.5 13.5
q0 84 -35.5 144.5t-83.5 60.5zM-524 -578q0 -77 42.5 -121t98.5 -44q70 0 128.5 32.5t98.5 85t71.5 127t49.5 150.5t31 164q-96 -16 -165 -33t-140 -47.5t-115 -70t-72 -101.5t-28 -142z" />
    <glyph glyph-name="k.002" horiz-adv-x="2140" 
d="M1683 -113q-109 0 -226 37t-218 103q-110 -117 -242.5 -183.5t-261.5 -66.5q-110 0 -205 22t-161 57t-119 81.5t-84 91.5t-49 92q-13 -140 -13 -256q-11 -15 -45 -15q-50 0 -59 25q0 200 29.5 416t76.5 393.5t101 322t107.5 225.5t91.5 81q44 0 70 -51t26 -136
t-33 -175.5t-73.5 -153t-95 -125.5t-76.5 -83t-40 -36q-34 -147 -57 -342q65 40 118.5 108t75 111t21.5 49q3 7 11 10t14 0q17 -7 10 -24q-1 -5 -9 -22.5t-26 -49.5t-41.5 -66t-60 -72t-76.5 -65q5 -25 28.5 -66.5t73 -95.5t113.5 -100t159.5 -78t200.5 -32q248 0 465 231
q-109 78 -169 170t-60 182q0 63 37.5 96t91.5 33q49 0 87.5 -42t51.5 -93q22 57 60 96t90 39q48 0 83 -30.5t35 -87.5q0 -100 -73.5 -199.5t-171.5 -159.5q203 -129 417 -129q170 0 328 125q58 46 98.5 93.5t47.5 68.5q3 16 22 12q16 -6 12 -24q-9 -28 -51.5 -79.5
t-105.5 -99.5q-166 -133 -351 -133zM199 616q30 29 59 61.5t68.5 86.5t68.5 107.5t49.5 121.5t20.5 133q0 123 -31 123q-21 0 -60 -81.5t-87.5 -230.5t-87.5 -321zM1104 494q-10 0 -21.5 -2.5t-29.5 -10.5t-29.5 -28.5t-11.5 -51.5q0 -84 59.5 -169.5t159.5 -155.5
q87 40 165.5 143.5t78.5 192.5q0 40 -24 61t-58 21q-51 0 -91 -62.5t-40 -142.5q0 -7 -6 -13t-13 -6h-2q-7 0 -12.5 5.5t-5.5 13.5q0 84 -35.5 144.5t-83.5 60.5z" />
    <glyph glyph-name="l.002" horiz-adv-x="2066" 
d="M1610 -113q-108 0 -228 38t-223 104q-117 -79 -258.5 -129t-265.5 -50q-322 0 -475.5 129.5t-153.5 382.5q0 157 62 348t150.5 322t158.5 131q41 0 71.5 -42t30.5 -115q0 -89 -40.5 -202.5t-97.5 -209t-116 -170.5t-98 -100q7 -111 52 -195t117 -133t159.5 -72.5
t189.5 -23.5q141 0 267 45t214 108q-107 76 -166 167.5t-59 180.5q0 63 37.5 96t91.5 33q49 0 87.5 -42t51.5 -93q22 57 60 96t90 39q48 0 83.5 -30.5t35.5 -87.5q0 -100 -74 -199.5t-172 -159.5q203 -129 418 -129q169 0 327 125q58 46 98.5 93.5t47.5 68.5q3 16 22 12
q16 -7 13 -24q-9 -28 -52 -79.5t-106 -99.5q-166 -133 -350 -133zM391 1116q-59 0 -124 -153t-103.5 -328t-38.5 -266q35 31 86 99t104 156.5t90 193t37 188.5q0 48 -15.5 79t-35.5 31zM1030 494q-10 0 -21.5 -2.5t-29.5 -10.5t-29.5 -28.5t-11.5 -51.5q0 -84 59.5 -169.5
t159.5 -155.5q87 40 165.5 143.5t78.5 192.5q0 40 -24 61t-58 21q-51 0 -91 -62.5t-40 -142.5q0 -7 -6 -13t-13 -6h-2q-7 0 -12.5 5.5t-5.5 13.5q0 84 -35.5 144.5t-83.5 60.5z" />
    <glyph glyph-name="m.001" horiz-adv-x="2355" 
d="M1898 -113q-108 0 -226 37.5t-222 104.5q-102 -80 -211.5 -118t-202.5 -38q-107 0 -188 18t-128.5 48t-78.5 69t-43.5 82.5t-18 87t-6.5 82.5t-4.5 69t-16.5 48t-38 18q-21 0 -45 -25.5t-39 -50.5t-37 -67q-17 -31 -24.5 -44t-20 -31t-23.5 -25t-24 -7q-18 0 -35 17
q-13 15 -15.5 46t0.5 55.5t11 78.5q5 34 7 48t4.5 43t0 41.5t-9.5 12.5q-29 -9 -119 -313q-35 -123 -50 -157.5t-34 -34.5q-48 0 -53 8q-15 39 -1 209t26 215q3 8 22 8q12 0 27 -3.5t25.5 -9t9.5 -10.5q0 -60 -21 -262q10 43 25.5 95t40.5 126.5t54 123t54 48.5
q10 0 17.5 -1t20 -3.5t22 -9t20.5 -17t17.5 -28t11 -40t4.5 -55.5t-6 -73q87 148 155 148q45 0 73.5 -18.5t41.5 -49.5t20 -71t13 -85t15.5 -89.5t32.5 -84.5t59.5 -71t100.5 -49.5t152 -18.5q92 0 193.5 40.5t181.5 98.5q-107 76 -166 167.5t-59 180.5q0 63 37.5 96
t91.5 33q49 0 87.5 -42t51.5 -93q22 57 60 96t90 39q48 0 83 -30.5t35 -87.5q0 -100 -73.5 -199.5t-171.5 -159.5q203 -129 417 -129q170 0 328 125q58 46 98.5 93.5t47.5 68.5q3 16 22 12q16 -6 12 -24q-9 -28 -51.5 -79.5t-105.5 -99.5q-166 -133 -351 -133zM1319 494
q-10 0 -21.5 -2.5t-29.5 -10.5t-29.5 -28.5t-11.5 -51.5q0 -84 59.5 -169.5t159.5 -155.5q87 40 165.5 143.5t78.5 192.5q0 40 -24 61t-58 21q-51 0 -91 -62.5t-40 -142.5q0 -7 -5.5 -13t-13.5 -6h-2q-7 0 -12.5 5.5t-5.5 13.5q0 84 -35.5 144.5t-83.5 60.5z" />
    <glyph glyph-name="n.001" horiz-adv-x="2129" 
d="M1673 -113q-108 0 -226 37.5t-222 104.5q-103 -78 -230 -117t-225 -39q-432 0 -443 243q-4 79 46 224q32 91 28 112q-3 17 -22 17q-27 0 -51.5 -15t-46.5 -47t-39 -61.5t-35.5 -79t-28.5 -77.5t-26 -78q-37 -106 -46 -118q-7 -9 -16 -9q-21 0 -42.5 11t-31.5 28
q-21 49 -16 171.5t23 219.5q3 14 32 14q22 0 45 -8t23 -17q-3 -68 -19 -194.5t-14 -157.5q7 16 25 72q17 53 29 86.5t32 85t40 84t45 65t55 48.5t63 16q48 0 70 -20.5t22.5 -54.5t-9 -79t-20.5 -94t-17 -98t7.5 -94t48 -79t108.5 -54.5t185 -20.5q95 0 215 41.5t201 97.5
q-107 76 -166 167.5t-59 180.5q0 63 37.5 96t91.5 33q49 0 87.5 -42t51.5 -93q22 57 59.5 96t89.5 39q48 0 83.5 -30.5t35.5 -87.5q0 -100 -74 -199.5t-172 -159.5q203 -129 418 -129q170 0 328 125q58 46 97.5 93t47.5 69q3 16 23 12q16 -6 12 -24q-9 -28 -52 -79.5
t-106 -99.5q-166 -133 -350 -133zM1094 494q-10 0 -22 -2.5t-30 -10.5t-29.5 -28.5t-11.5 -51.5q0 -84 60 -169.5t160 -155.5q87 40 165 143.5t78 192.5q0 40 -24 61t-58 21q-51 0 -91 -62.5t-40 -142.5q0 -8 -5.5 -13.5t-12.5 -5.5h-2q-7 0 -13 6t-6 13q0 84 -35 144.5
t-83 60.5z" />
    <glyph glyph-name="o.002" horiz-adv-x="2068" 
d="M1612 -113q-108 0 -227 37.5t-224 104.5l21 14q4 3 -2 11.5t-14.5 14.5t-12.5 3t-13.5 -9.5t-13.5 -9.5q6 -4 17.5 -12t17.5 -12q-181 -123 -452 -123q-96 0 -219.5 31.5t-215.5 91.5q-67 -84 -147 -84q-29 0 -58.5 13t-54 46.5t-24.5 79.5q0 26 5.5 58t13.5 60.5t18 59
t18 50.5t15 38l8 19q8 24 53 24q43 0 53 -16q39 39 84 39q46 0 76.5 -34.5t30.5 -86.5q0 -91 -48 -193l-18 -36q-1 -1 -3 -4.5t-3 -4.5q87 -55 208.5 -82.5t211.5 -27.5q114 0 224 30t189 76q-106 78 -164.5 168.5t-58.5 179.5q0 63 37.5 96t91.5 33q49 0 87.5 -42t51.5 -93
q22 57 60 96t90 39q48 0 83.5 -30.5t35.5 -87.5q0 -100 -74 -199.5t-172 -159.5q203 -129 418 -129q169 0 327 125q58 46 98.5 93.5t47.5 68.5q3 16 22 12q16 -7 13 -24q-9 -28 -52 -79.5t-106 -99.5q-166 -133 -350 -133zM1032 494q-10 0 -21.5 -2.5t-29.5 -10.5
t-29.5 -28.5t-11.5 -51.5q0 -84 59.5 -169.5t159.5 -155.5q87 40 165.5 143.5t78.5 192.5q0 40 -24 61t-58 21q-51 0 -91 -62.5t-40 -142.5q0 -7 -6 -13t-13 -6h-2q-7 0 -12.5 5.5t-5.5 13.5q0 84 -35.5 144.5t-83.5 60.5zM262 78q30 47 47 110t17 107q0 33 -18 57.5
t-50 24.5q-36 0 -62 -34t-26 -93q0 -97 92 -172zM244 51q-108 84 -119 193q-15 -39 -25 -78.5t-13 -80.5t11 -60q16 -25 54 -25q51 0 92 51z" />
    <glyph glyph-name="p.001" horiz-adv-x="2183" 
d="M190 -6q-49 0 -75 20q-2 -6 -5.5 -18.5t-5.5 -18.5q-10 -319 41 -593q0 -23 -45 -23q-50 0 -57 23q-51 292 -40.5 600.5t67.5 445.5q6 16 32 16q24 0 48 -12t20 -24q-39 -88 -55 -279q47 129 114 214t150 85q60 0 93.5 -33.5t33.5 -83.5q0 -108 -84 -202
q43 -14 101.5 -44t103 -54t114.5 -43t146 -19q237 0 358 100q-108 76 -167.5 168t-59.5 182q0 63 37.5 96t91.5 33q49 0 87.5 -42t51.5 -93q22 57 60 96t90 39q48 0 83 -30.5t35 -87.5q0 -100 -73.5 -199.5t-171.5 -159.5q203 -129 417 -129q170 0 328 125q58 46 98.5 93.5
t47.5 68.5q3 16 22 12q16 -6 12 -24q-9 -28 -51.5 -79.5t-105.5 -99.5q-166 -133 -351 -133q-109 0 -227.5 37.5t-220.5 104.5q-147 -119 -393 -119q-99 0 -189.5 30t-180 76.5t-128.5 59.5q-95 -82 -197 -82zM1147 494q-10 0 -21.5 -2.5t-29.5 -10.5t-29.5 -28.5
t-11.5 -51.5q0 -84 59.5 -169.5t159.5 -155.5q87 40 165.5 143.5t78.5 192.5q0 40 -24 61t-58 21q-51 0 -91 -62.5t-40 -142.5q0 -7 -5.5 -13t-13.5 -6h-2q-7 0 -12.5 5.5t-5.5 13.5q0 84 -35.5 144.5t-83.5 60.5zM301 131q29 0 43 -2q32 43 52 93.5t20 90.5q0 22 -12 35.5
t-22 16t-20 2.5q-64 0 -121 -76.5t-100 -192.5q58 33 160 33zM311 92q-41 0 -107.5 -8.5t-66.5 -28.5q0 -24 53 -24q63 0 121 61z" />
    <glyph glyph-name="q.001" horiz-adv-x="2129" 
d="M1673 -113q-108 0 -226 37.5t-222 104.5q-223 -170 -434 -170q-70 0 -130.5 12.5t-101.5 30.5t-79.5 47t-60.5 51t-48 53q28 -95 38 -250t0.5 -303t-47.5 -255t-98 -107q-21 0 -41.5 9.5t-43 33t-36.5 73.5t-14 121q0 260 145 822q-120 -211 -186 -211q-37 0 -62.5 35
t-25.5 90q0 89 15.5 155t36.5 100t51 54t51.5 24.5t44.5 4.5q33 0 70 -25t50 -59q11 39 30 101t26 85q2 10 84 -6q19 -8 12 -25q-52 -175 -104 -393q156 -227 415 -227q126 0 221 41.5t187 109.5q-107 78 -166 169.5t-59 180.5q0 63 37.5 96t91.5 33q49 0 87.5 -42t51.5 -93
q22 57 59.5 96t89.5 39q48 0 83.5 -30.5t35.5 -87.5q0 -100 -74 -199.5t-172 -159.5q203 -129 418 -129q170 0 328 125q58 46 97.5 93t47.5 69q3 16 23 12q16 -6 12 -24q-9 -28 -52 -79.5t-106 -99.5q-166 -133 -350 -133zM1094 494q-10 0 -22 -2.5t-30 -10.5t-29.5 -28.5
t-11.5 -51.5q0 -84 60 -169.5t160 -155.5q87 40 165 143.5t78 192.5q0 40 -24 61t-58 21q-51 0 -91 -62.5t-40 -142.5q0 -8 -5.5 -13.5t-12.5 -5.5h-2q-7 0 -13 6t-6 13q0 84 -35 144.5t-83 60.5zM215 412q-16 0 -37.5 -18t-43.5 -52.5t-37 -95.5t-15 -135q0 -47 16 -74
q58 10 197 274q0 36 -26 68.5t-54 32.5zM274 -813q48 18 71 187t19 356t-24 284q-44 -198 -70.5 -362.5t-33 -293t21.5 -161.5q8 -10 16 -10z" />
    <glyph glyph-name="r.002" horiz-adv-x="2027" 
d="M639 -86q110 0 237.5 41.5t210.5 97.5q-107 76 -166 167.5t-59 180.5q0 63 37.5 96t91.5 33q49 0 87.5 -42t51.5 -93q22 57 60 96t90 39q48 0 83.5 -30.5t35.5 -87.5q0 -100 -74 -199.5t-172 -159.5q203 -129 418 -129q169 0 327 125q58 46 98.5 93.5t47.5 68.5
q3 16 22 12q16 -7 13 -24q-9 -28 -52 -79.5t-106 -99.5q-166 -133 -350 -133q-108 0 -227 38t-222 104q-104 -77 -243 -116.5t-240 -39.5q-94 0 -170.5 8.5t-129.5 21.5t-92 34t-62 41t-35 48.5t-15.5 50.5t0 52.5t8.5 49t13 44.5q26 84 26 111q0 18 -23.5 50t-41.5 40
q-49 -184 -64 -219q-7 -21 -18 -21l-8 2q-19 8 -13 23q2 10 15 51t30.5 98.5t28.5 98.5q-61 68 -61 127q0 35 15.5 60.5t39.5 25.5q88 0 88 -117q0 -22 -11.5 -47.5t-25.5 -40.5q14 -15 57.5 -47.5t71 -61.5t27.5 -53q0 -25 -21 -90q-8 -27 -12 -45.5t-5 -52.5t8 -58
t34.5 -53t67.5 -47t113 -30.5t165 -12.5zM991 494q-10 0 -21.5 -2.5t-29.5 -10.5t-29.5 -28.5t-11.5 -51.5q0 -84 59.5 -169.5t159.5 -155.5q87 40 165.5 143.5t78.5 192.5q0 40 -24 61t-58 21q-51 0 -91 -62.5t-40 -142.5q0 -7 -5.5 -13t-13.5 -6h-2q-7 0 -12.5 5.5
t-5.5 13.5q0 84 -35.5 144.5t-83.5 60.5z" />
    <glyph glyph-name="s.002" horiz-adv-x="2019" 
d="M1563 -113q-108 0 -228 38t-223 104q-176 -119 -412 -119q-81 0 -171 19.5t-131.5 34.5t-127.5 48q-16 -60 -58 -97.5t-101 -37.5q-53 0 -86 30t-33 81q0 46 36.5 74t90.5 28q27 0 69 -10q-3 34 -23 84t-34.5 76t-42.5 75q-21 -86 -33 -110q-7 -21 -18 -21l-8 2
q-19 8 -13 23q2 7 8.5 29.5t17.5 58.5t19 65q-45 88 -45 121q0 14 15.5 21.5t36.5 7.5q18 0 31.5 -5.5t13.5 -12.5q0 -24 21 -66.5t56 -104.5t54 -108l14 -35q21 -65 21 -110q0 -10 -3 -19q5 -2 47.5 -18t56 -20.5t53 -17.5t64 -18t62 -12.5t73 -10.5t73.5 -3q229 0 374 102
q-107 76 -166 167.5t-59 180.5q0 63 37.5 96t91.5 33q49 0 87.5 -42t51.5 -93q22 57 60 96t90 39q48 0 83.5 -30.5t35.5 -87.5q0 -100 -74 -199.5t-172 -159.5q203 -129 418 -129q169 0 327 125q58 46 98.5 93.5t47.5 68.5q3 16 22 12q16 -7 13 -24q-9 -28 -52 -79.5
t-106 -99.5q-166 -133 -350 -133zM983 494q-10 0 -21.5 -2.5t-29.5 -10.5t-29.5 -28.5t-11.5 -51.5q0 -84 59.5 -169.5t159.5 -155.5q87 40 165.5 143.5t78.5 192.5q0 40 -24 61t-58 21q-51 0 -91 -62.5t-40 -142.5q0 -7 -5.5 -13t-13.5 -6h-2q-7 0 -12.5 5.5t-5.5 13.5
q0 84 -35.5 144.5t-83.5 60.5zM188 41q-38 14 -73 14q-40 0 -63 -21t-23 -46q0 -34 19.5 -49t43.5 -15q44 0 68.5 31.5t27.5 85.5z" />
    <glyph glyph-name="t.002" horiz-adv-x="2004" 
d="M641 -94q104 -1 226.5 42.5t197.5 102.5q-107 78 -166 169.5t-59 180.5q0 63 37.5 96t91.5 33q49 0 87.5 -42t51.5 -93q22 57 59.5 96t89.5 39q48 0 83.5 -30.5t35.5 -87.5q0 -100 -74 -199.5t-172 -159.5q203 -129 418 -129q170 0 328 125q58 46 97.5 93t47.5 69
q3 16 23 12q16 -6 12 -24q-9 -28 -52 -79.5t-106 -99.5q-166 -133 -350 -133q-109 0 -227.5 37.5t-220.5 104.5q-103 -87 -227.5 -130.5t-245.5 -43.5q-116 0 -225 26t-201.5 77t-145.5 139t-47 200q16 234 55 545q-114 10 -172 0q-7 -1 -13.5 3.5t-8.5 12.5q-3 18 14 21
q35 6 76 6q53 0 111 -6q5 38 34 264q3 18 33 18q29 0 56 -14.5t26 -34.5q-21 -157 -31 -248q2 0 5.5 -1t5.5 -1q176 -23 209 -14q14 7 22 -12q1 -7 -2.5 -14t-9.5 -9q-21 -6 -49 -6q-52 0 -174 18q-9 0 -11 2q-32 -255 -47 -477q-6 -102 17 -179.5t66 -126.5t110.5 -80
t141.5 -43.5t169 -14.5zM969 494q-10 0 -21.5 -2.5t-29.5 -10.5t-29.5 -28.5t-11.5 -51.5q0 -84 59.5 -169.5t159.5 -155.5q87 40 165 143.5t78 192.5q0 40 -24 61t-58 21q-51 0 -91 -62.5t-40 -142.5q0 -8 -5.5 -13.5t-12.5 -5.5h-2q-8 0 -13.5 6t-5.5 13q0 84 -35 144.5
t-83 60.5z" />
    <glyph glyph-name="u.002" horiz-adv-x="2045" 
d="M647 -74q114 -2 243.5 32t215.5 93q-107 78 -166 169.5t-59 180.5q0 63 37.5 96t91.5 33q49 0 87.5 -42t51.5 -93q22 57 59.5 96t89.5 39q48 0 83.5 -30.5t35.5 -87.5q0 -100 -74 -199.5t-172 -159.5q203 -129 418 -129q170 0 328 125q58 46 97.5 93t47.5 69q3 16 23 12
q16 -6 12 -24q-9 -28 -52 -79.5t-106 -99.5q-166 -133 -350 -133q-110 0 -231 38.5t-225 107.5q-97 -74 -237 -110t-269 -36q-93 0 -165.5 14.5t-115.5 37t-71 52.5t-38 58t-10 57v33q-90 -159 -135 -159q-32 0 -62 33t-30 93q0 25 2.5 54.5t7.5 59t10 56.5t11 54.5t10.5 45
l9 35t4.5 19.5q3 10 17 10q21 0 45.5 -16.5t21.5 -30.5q-36 -141 -47.5 -252t6.5 -116q14 1 59.5 71t82.5 144q11 62 43 190q3 10 16 10q21 0 46 -16.5t22 -30.5q-43 -164 -38 -268t79.5 -151.5t238.5 -47.5zM1010 494q-10 0 -21.5 -2.5t-29.5 -10.5t-29.5 -28.5
t-11.5 -51.5q0 -84 59.5 -169.5t159.5 -155.5q87 40 165 143.5t78 192.5q0 40 -24 61t-58 21q-51 0 -91 -62.5t-40 -142.5q0 -8 -5.5 -13.5t-12.5 -5.5h-2q-7 0 -13 6t-6 13q0 84 -35 144.5t-83 60.5z" />
    <glyph glyph-name="v.001" horiz-adv-x="1943" 
d="M266 158q-96 80 -96 190q0 53 34 91t81 38q32 0 57 -26t25 -74q0 -93 -48 -197q125 -106 340 -106q126 -3 273 37q-174 133 -174 299q0 59 37.5 89.5t91.5 30.5q49 0 87.5 -42t51.5 -93q22 57 60 96t90 39q48 0 83 -30.5t35 -87.5q0 -213 -278 -314q106 -64 238 -99.5
t241 -35.5q91 0 190.5 34.5t175 92.5t99.5 121q2 6 8.5 9.5t13.5 2.5q16 -7 13 -20q-26 -71 -107 -135t-187.5 -102t-205.5 -38q-123 0 -266.5 41.5t-257.5 114.5q-151 -43 -316 -43q-219 0 -358 92q-92 -153 -170 -153q-127 0 -127 249q0 137 10 189q3 14 37 14
q20 0 35 -5.5t14 -14.5q-7 -48 -9 -121t7 -150t31 -102q10 -10 18 -10q50 0 123 129zM1257 412q0 40 -23.5 61t-57.5 21q-51 0 -91.5 -63t-40.5 -142q0 -8 -5.5 -13.5t-12.5 -5.5h-2q-7 0 -12.5 5.5t-5.5 13.5q0 84 -35.5 144.5t-83.5 60.5q-10 0 -21.5 -2.5t-29.5 -9.5
t-29.5 -26.5t-11.5 -47.5q0 -158 180 -283q125 40 203.5 112.5t78.5 174.5zM291 211q37 82 37 166q0 25 -9.5 40.5t-18 19t-15.5 3.5q-47 0 -47 -92q0 -75 53 -137z" />
    <glyph glyph-name="w.002" horiz-adv-x="2209" 
d="M436 348q0 66 31.5 101.5t77.5 35.5q33 0 58.5 -30t25.5 -78q0 -93 -45 -195q123 -108 342 -108q125 -3 272 37q-174 133 -174 299q0 59 37.5 89.5t91.5 30.5q49 0 87.5 -42t51.5 -93q22 57 60 96t90 39q48 0 83.5 -30.5t35.5 -87.5q0 -213 -279 -314q106 -64 238 -99.5
t241 -35.5q91 0 190.5 34.5t175 92.5t99.5 121q2 6 9 9.5t14 2.5q15 -6 12 -20q-26 -71 -107 -135t-187.5 -102t-205.5 -38q-123 0 -266.5 41.5t-257.5 114.5q-151 -43 -315 -43q-219 0 -361 92q-69 -158 -135 -158q-42 0 -73 20.5t-47 56t-23.5 70t-10.5 75.5
q-25 -56 -51 -104.5t-61 -91t-60 -42.5q-44 0 -72 34t-28 81q0 163 53 344q4 10 82 -10q16 -6 12 -25q-81 -314 -45 -365q4 -4 13 -4q21 0 69 90.5t86 192.5q6 14 41 14q43 0 43 -18q0 -98 20 -189.5t52 -91.5q12 0 26 13t29.5 40t24.5 44.5t24 48.5q-94 81 -94 190z
M1241 125q125 40 204 112.5t79 174.5q0 40 -24 61t-58 21q-51 0 -91 -62.5t-40 -142.5q0 -7 -5.5 -13t-13.5 -6h-2q-7 0 -12.5 5.5t-5.5 13.5q0 84 -35.5 144.5t-83.5 60.5q-10 0 -21.5 -2.5t-29.5 -9.5t-29.5 -26.5t-11.5 -47.5q0 -158 180 -283zM555 213q37 94 37 164
q0 25 -7 40.5t-13.5 19t-12.5 3.5q-55 0 -55 -92q0 -75 51 -135z" />
    <glyph glyph-name="y.002" horiz-adv-x="1988" 
d="M1532 -113q-108 0 -227 38t-222 104q-57 -40 -126 -74t-154 -62t-148 -46.5t-167.5 -45.5t-153.5 -41q-15 -67 -27.5 -117t-35 -121t-45.5 -122.5t-58 -107.5t-74 -91.5t-92 -58.5t-113 -23q-59 0 -105 45t-46 125q0 81 25 148.5t66.5 117t105.5 91.5t130.5 71t151.5 56
q46 189 94 477q-157 -260 -235 -260q-28 0 -59 29t-31 81q0 39 19.5 107t35.5 108.5t25 61.5q6 14 30 14q20 0 35.5 -9.5t11.5 -21.5q-33 -81 -59 -178t-8 -123q3 -10 20 -10q34 0 102.5 94.5t127.5 206.5q6 27 6 47q1 7 13 12t26 5q22 0 39 -8t16 -21q-4 -26 -14 -166
q-24 -203 -68 -409q48 13 150 38.5t161 41.5t139 42t142.5 55.5t112.5 65.5q-107 77 -166.5 168t-59.5 180q0 63 37.5 96t91.5 33q49 0 88 -42t52 -93q22 57 59.5 96t89.5 39q48 0 83.5 -30.5t35.5 -87.5q0 -100 -74 -199.5t-172 -159.5q203 -129 418 -129q170 0 328 125
q58 46 97.5 93t47.5 69q3 16 23 12q16 -6 12 -24q-9 -28 -52 -79.5t-106 -99.5q-166 -133 -350 -133zM952 494q-10 0 -21.5 -2.5t-29.5 -10.5t-29.5 -28.5t-11.5 -51.5q0 -84 59.5 -169.5t159.5 -155.5q87 40 165.5 143.5t78.5 192.5q0 40 -24 61t-58 21q-51 0 -91 -62.5
t-40 -142.5q0 -8 -5.5 -13.5t-12.5 -5.5h-2q-8 0 -13.5 6t-5.5 13q0 84 -35.5 144.5t-83.5 60.5zM-209 -711q0 -44 26 -76t60 -32q186 0 328 538q-95 -32 -165 -67.5t-129 -86t-89.5 -120t-30.5 -156.5z" />
    <glyph glyph-name="x.001" horiz-adv-x="1916" 
d="M549 -156q58 -4 122.5 14.5t122 52t103.5 67.5t86 71q-110 76 -170.5 168.5t-60.5 183.5q0 63 37.5 96t91.5 33q49 0 87.5 -42t51.5 -93q22 57 59.5 96t89.5 39q48 0 83.5 -30.5t35.5 -87.5q0 -94 -72.5 -195.5t-164.5 -169.5q196 -123 409 -123q170 0 328 125
q58 46 97.5 93t47.5 69q3 16 23 12q16 -6 12 -24q-9 -28 -52 -79.5t-106 -99.5q-166 -133 -350 -133q-107 0 -224 36.5t-220 101.5q-120 -110 -233.5 -170t-243.5 -60q-312 0 -437 244q-56 -78 -109.5 -121t-113.5 -43q-7 0 -12.5 5.5t-5.5 13.5t5.5 13t12.5 5q95 0 205 166
q-19 41 -35.5 87t-28 87t-19.5 72.5t-14 59.5t-7 32q-3 14 26 26.5t57 12.5q26 0 29 -13q5 -18 16.5 -62.5t24 -90t25.5 -86.5q4 7 11 20.5t11 20.5q27 48 37.5 66t33 55.5t35.5 52t32 35t36 27.5t35 7q8 0 13.5 -5.5t5.5 -12.5q0 -9 -5.5 -14.5t-13.5 -5.5q-12 0 -25.5 -8
t-29.5 -26t-28.5 -34t-31.5 -47.5t-29.5 -48.5t-31.5 -54q-6 -11 -19.5 -33t-19.5 -34q110 -320 375 -320zM1016 70q49 27 135 123q100 113 100 219q0 40 -24 61t-58 21q-51 0 -91 -62.5t-40 -142.5q0 -8 -5.5 -13.5t-12.5 -5.5h-2q-8 0 -13.5 6t-5.5 13q0 84 -35 144.5
t-83 60.5q-10 0 -22 -2.5t-30 -10.5t-29.5 -28.5t-11.5 -51.5q0 -92 66.5 -178.5t161.5 -152.5z" />
    <glyph glyph-name="z.002" horiz-adv-x="2070" 
d="M1614 -113q-108 0 -227 38t-222 104q-54 -39 -117.5 -71t-153 -61.5t-137 -44t-167 -44.5t-146.5 -37q-10 -157 -80.5 -299.5t-175.5 -227t-213 -84.5q-64 0 -113.5 43.5t-49.5 122.5t28 144t73.5 111.5t116.5 86.5t142 67t166 54q2 10 2 33q0 141 -82 141
q-103 0 -195 -115q-6 -6 -14 -6q-6 0 -45 39q-6 5 -7 13t5 14q119 153 188.5 285.5t71.5 199.5q2 17 -7.5 32t-29.5 15q-40 0 -73.5 -26t-51.5 -78q-42 -109 -47 -131q-8 -21 -20 -21l-6 2q-17 7 -11 23q2 10 43 121q56 155 185 155q39 0 76.5 -26t37.5 -82
q0 -75 -49.5 -172t-144.5 -225q53 22 94 22q83 0 134.5 -50.5t51.5 -133.5q24 6 105 25.5t113 27.5t101 26.5t107 32t91 34t93.5 42.5t75.5 47q-107 76 -166 167.5t-59 180.5q0 63 37.5 96t91.5 33q49 0 88 -42t52 -93q22 57 59.5 96t89.5 39q48 0 83.5 -30.5t35.5 -87.5
q0 -100 -74 -199.5t-172 -159.5q203 -129 418 -129q170 0 328 125q58 46 97.5 93t47.5 69q3 16 22 12q16 -7 13 -24q-9 -28 -52 -79.5t-106 -99.5q-166 -133 -350 -133zM1034 494q-10 0 -21.5 -2.5t-29.5 -10.5t-29.5 -28.5t-11.5 -51.5q0 -84 59.5 -169.5t159.5 -155.5
q87 40 165.5 143.5t78.5 192.5q0 40 -24 61t-58 21q-51 0 -91 -62.5t-40 -142.5q0 -8 -5.5 -13.5t-12.5 -5.5h-3q-7 0 -12.5 5.5t-5.5 13.5q0 84 -35.5 144.5t-83.5 60.5zM-135 -674q0 -53 28 -78.5t60 -25.5q63 0 127.5 52.5t113.5 132.5t85 168t51 165
q-85 -25 -148.5 -49.5t-126 -60.5t-102 -77.5t-64 -99.5t-24.5 -127z" />
    <glyph glyph-name="hyphen_hyphen_one" horiz-adv-x="2979" 
d="M279 33q-261 0 -261 186q0 70 65 109t140 39q162 0 318 -138q14 -10 2 -26q-13 -13 -27 -2q-147 129 -295 129q-60 0 -113 -28.5t-53 -82.5q0 -79 54 -113q50 -36 170 -36q93 0 202 7.5t174 15t209 24.5q520 67 948 67q132 0 465 -37q324 -36 463 -36h2q216 0 267 65
q11 15 26 4q14 -10 2 -26q-62 -80 -297 -80q-122 0 -467 37q-324 36 -461 36q-424 0 -944 -67q-141 -17 -208.5 -24.5t-177 -15t-203.5 -7.5z" />
    <glyph glyph-name="hyphen_hyphen_two" horiz-adv-x="2805" 
d="M2597 29q-28 0 -80 10q-108 30 -213 129q-5 5 -5.5 12.5t5.5 12.5q11 14 27 2q134 -129 268 -129q57 0 103 29t46 83q0 45 -16 75.5t-46 45.5t-63 21t-77 6q-206 0 -533 -47q-173 -23 -259.5 -33t-263 -22.5t-345.5 -12.5q-122 0 -424 37q-319 39 -422 39h-2
q-192 0 -242 -68q-11 -14 -24 -4q-6 5 -7 13t3 14q58 82 270 82q124 0 428 -39q302 -37 420 -37q168 0 341 12t266 22.5t255 32.5q331 47 539 47q52 0 92 -8t75 -27.5t53.5 -57t18.5 -91.5q0 -69 -58 -109t-130 -40z" />
    <glyph glyph-name="hyphen_hyphen_three" horiz-adv-x="2983" 
d="M123 229q-22 0 -37.5 1.5t-32 6t-25 14.5t-8.5 25q0 41 91 41q30 0 60 -14t38 -37q69 1 155.5 6t142.5 8.5t170.5 12.5t156.5 12q638 53 1024 53q198 0 555 -34q290 -25 368 -25q210 0 273 74q12 16 26 2q12 -12 2 -25q-68 -80 -258 -86q-108 -4 -414 23q-368 35 -552 35
q-374 0 -1020 -54q-495 -39 -715 -39zM59 274q8 -8 64 -8h39q-22 15 -51 15q-31 0 -52 -7z" />
    <glyph glyph-name="hyphen_hyphen_four" horiz-adv-x="2781" 
d="M41 213q-6 0 -10 4q-15 11 -4 25q64 86 274 86q83 0 367 -29q365 -37 514 -37q344 0 872 57h1h1h1h1l1 1h1h1h1h1h1h1h1h1l1 1h1h1h1h1h1h1h1h1h1l1 1h1h1h1h1h1h1h1h1l1 1h1h1h1h1h1h1h1l2 1q368 40 547 41h21q95 0 95 -50q0 -41 -84 -41q-26 0 -53.5 15t-34.5 37
q-170 -4 -529 -43q-175 -19 -273.5 -28.5t-272 -19.5t-330.5 -10q-43 0 -91.5 2t-83.5 4t-93 7t-81.5 7t-89.5 9t-79 8q-280 29 -365 29q-188 0 -244 -70q-5 -8 -14 -8zM2632 326q25 -15 43 -15q35 0 47 8q-1 0 -4 3q-12 6 -54 6q-22 0 -32 -2z" />
    <glyph glyph-name="hyphen_hyphen_five" horiz-adv-x="3010" 
d="M3062 274q9 -12 -2 -26q-64 -53 -318 -53h-2q-120 0 -592 28q-700 45 -1073 45q-551 0 -969 -65q0 -9 -8 -41q-9 -24 -21.5 -39.5t-21.5 -13.5q-7 3 -6 22.5t10 44.5q3 12 9 21q-9 -1 -24.5 -3.5t-20.5 -3.5q-20 0 -23 15q-2 7 3 13.5t13 6.5q15 3 74 13q-25 12 -27 14
q-23 12 -36.5 26.5t-8.5 22.5q3 8 23 3.5t43 -17.5q42 -23 45 -43q403 59 940 59q95 0 201 -2.5t178.5 -4.5t197 -8t167.5 -8.5t182.5 -10.5t156.5 -9q483 -29 588 -29h2q236 0 293 45q14 11 27 -2z" />
    <glyph glyph-name="hyphen_hyphen_six" horiz-adv-x="2742" 
d="M2675 317q-1 -4 -4.5 -11t-4.5 -11q8 2 24 5t24 5q7 1 13.5 -3.5t8.5 -10.5q1 -7 -3.5 -14t-10.5 -9q-47 -8 -74 -14q9 -3 23 -10q23 -13 36.5 -28t8.5 -23q-3 -6 -23 -2t-43 16q-32 20 -45 41q-361 -58 -817 -58q-56 0 -112.5 1t-118 3t-106.5 3.5t-113.5 5.5
t-102.5 5.5t-108.5 6.5t-97 6.5t-103 7.5t-92.5 7q-384 26 -521 26h-2q-210 0 -256 -43q-5 -6 -12.5 -6t-13.5 6q-11 14 2 27q56 53 280 53h2q124 0 523 -27q621 -45 952 -45q462 0 840 62q0 22 8 43q9 25 21 40.5t20 12.5q9 -4 8 -23.5t-10 -44.5z" />
    <glyph glyph-name="l_t" horiz-adv-x="733" 
d="M729 807q-52 0 -174 18q-8 0 -10 2q-21 -172 -34.5 -325.5t-20 -292t2.5 -220t35 -81.5q34 0 85 58.5t87 142.5q37 83 52 127q3 16 22 12q19 -8 12 -25q-1 -1 -6 -15.5t-10.5 -30t-15.5 -39t-21 -44.5q-42 -94 -105.5 -165.5t-113.5 -71.5q-55 0 -100.5 61.5t-48.5 208.5
q-14 -36 -24 -59t-31.5 -63.5t-41 -64.5t-48 -43.5t-56.5 -19.5q-65 0 -112.5 50.5t-47.5 150.5q0 246 34.5 500t84 412.5t92.5 158.5q49 0 33 -70q-142 -558 -142 -1026q0 -62 20.5 -94.5t47.5 -32.5q26 0 57 35.5t59 92.5t45 97.5t32 81.5q8 226 57 609q-114 10 -172 0
q-7 -1 -14 3.5t-9 12.5q-3 16 15 21q34 6 75 6q53 0 111 -6q6 49 18.5 143t16.5 121q3 18 35 18q28 0 54.5 -14.5t25.5 -34.5q-21 -157 -31 -248q2 0 5 -1t5 -1q171 -23 209 -14q6 3 13 -0.5t10 -11.5q1 -7 -3 -14t-10 -9q-21 -6 -49 -6z" />
    </font>
</defs>
</svg>
